<svg xmlns="http://www.w3.org/2000/svg" viewBox="0 0 178.01 141.39"><defs><style>.cls-1{fill:#fff;}.cls-2{fill:#00aae4;}.cls-3{fill:#30bced;}.cls-4{fill:#030404;}.cls-5{fill:#f5ebed;}.cls-6{fill:#050605;}.cls-7{fill:#9aca3c;}.cls-8{fill:#ebebeb;}.cls-9{fill:#e81b44;}.cls-10{fill:#f7edf0;}</style></defs><title>thanks-new</title><g id="Layer_2" data-name="Layer 2"><g id="popup"><g id="thanks_popup_desktop_tablet" data-name="thanks popup desktop tablet"><path class="cls-1" d="M167,55.07a12.39,12.39,0,0,0-1.55-3.35,12.2,12.2,0,0,0-7.78-5.28C151.45,45.15,139.55,43,129.76,43c.07-.23.14-.47.2-.7a10,10,0,0,0,0-4.82,26.75,26.75,0,0,0-7-12.34A14.14,14.14,0,1,0,99.61,13.51a57.05,57.05,0,0,0-10-.94H89.2a57.06,57.06,0,0,0-9.7.82A14.14,14.14,0,1,0,56,24.71l-.41.42c-.54.56-1.06,1.14-1.54,1.73l0,0c-.52.64-1,1.3-1.52,2-.16.23-.31.47-.5.79l-.06.09c-.19.3-.38.59-.56.9s-.25.45-.36.68A24.52,24.52,0,0,0,48.82,37a10,10,0,0,0,0,4.82,25.87,25.87,0,0,0,4.93,9.93,10,10,0,0,0-.17,1.59c-6.66.7-15.9,3.24-24.83,5.78l-3.46,1-.61.17a10,10,0,0,0-16.8-3.57C6.08,58.59-2.58,68.7.76,80,1.95,84,5,89,12.48,92.43,15,104.24,21.18,130,26.64,136.67a13.39,13.39,0,0,0,10.58,4.72c5.35,0,11.51-2.67,14.65-6.34a11.69,11.69,0,0,0,2.27-4c1.9,3.35,5.67,6,11.35,6a21.39,21.39,0,0,0,10.71-3,17.5,17.5,0,0,0,6.17,1.13,12.1,12.1,0,0,0,6.45-1.87,12.1,12.1,0,0,0,6.5,2h.12A16.44,16.44,0,0,0,106,131.45a12,12,0,0,0,5.47,3.16,41.1,41.1,0,0,0,6.36,1.1c.37,0,.74.05,1.1.05a11.64,11.64,0,0,0,7.49-2.73c1.27.26,2.59.5,3.92.7a11.69,11.69,0,0,0,6.67,4.64,37.5,37.5,0,0,0,8.95,1.24h.2A12.17,12.17,0,0,0,158,128.85c.62-5.59,2.28-20.25,4.23-35.22,6.27-.54,13.63-4.92,15.48-15.9C179.2,68.83,175.19,60.57,167,55.07Z"/><g id="_Group_" data-name="&lt;Group&gt;"><g id="_Group_2" data-name="&lt;Group&gt;"><g id="_Group_3" data-name="&lt;Group&gt;"><circle id="_Path_" data-name="&lt;Path&gt;" class="cls-2" cx="65.38" cy="14.14" r="4.14" transform="matrix(0.01, -1, 1, 0.01, 50.84, 79.43)"/><path id="_Path_2" data-name="&lt;Path&gt;" class="cls-2" d="M68.23,17.14a4.15,4.15,0,0,1-1,.71A59.29,59.29,0,0,0,73,25.52q1.77-.7,3.69-1.25A50.85,50.85,0,0,1,68.23,17.14Z"/></g><g id="_Group_4" data-name="&lt;Group&gt;"><circle id="_Path_3" data-name="&lt;Path&gt;" class="cls-2" cx="113.72" cy="14.44" r="4.14" transform="translate(98.59 128.07) rotate(-89.65)"/><path id="_Path_4" data-name="&lt;Path&gt;" class="cls-2" d="M110.83,17.4a4.14,4.14,0,0,0,1,.72,59.29,59.29,0,0,1-5.87,7.6q-1.76-.72-3.67-1.3A50.85,50.85,0,0,0,110.83,17.4Z"/></g></g><path id="_Path_5" data-name="&lt;Path&gt;" class="cls-2" d="M105.28,53.94a46.26,46.26,0,0,1-31.94-.2C76.42,57.61,82,66.13,82,77c-.09,15-9.2,14.78-8.55,31s6.52,17.13,8.93,17.15,4.09-4.19,2.77-9.4C83.9,111,87.6,109.45,89,109.25c1.36.22,5,1.8,3.76,6.61-1.39,5.19.24,9.41,2.65,9.43s8.29-.78,9.14-17-8.26-16.16-8.17-31.15C96.42,66.22,102.14,57.77,105.28,53.94Z"/><path id="_Path_6" data-name="&lt;Path&gt;" class="cls-2" d="M89.5,22.57c-15.57-.1-28.52,7.21-31,16.87,2.34,9.69,15.21,17.15,30.78,17.25s28.53-7.21,31-16.87C117.93,30.13,105.07,22.66,89.5,22.57Z"/><g id="_Group_5" data-name="&lt;Group&gt;"><path id="_Path_7" data-name="&lt;Path&gt;" class="cls-3" d="M74.9,101.06a9.71,9.71,0,0,0,6.24-17.2c-1.78,6.8-5.9,9.66-7.28,17.14A9.84,9.84,0,0,0,74.9,101.06Z"/><path id="_Path_8" data-name="&lt;Path&gt;" class="cls-3" d="M101.42,93.46c-2.32-4.35-5.05-8-5.06-16.12a8.88,8.88,0,0,0,5.06,16.12Z"/><path id="_Path_9" data-name="&lt;Path&gt;" class="cls-3" d="M100,107.76a7.3,7.3,0,0,0,3.87,6.49,51,51,0,0,0,.64-6,31.59,31.59,0,0,0-.34-7A7.3,7.3,0,0,0,100,107.76Z"/><path id="_Path_10" data-name="&lt;Path&gt;" class="cls-3" d="M60.06,35.69a7.21,7.21,0,0,0,9.51-8.6A23.28,23.28,0,0,0,60.06,35.69Z"/><circle id="_Path_11" data-name="&lt;Path&gt;" class="cls-3" cx="111.26" cy="37.18" r="2.6" transform="translate(73.4 148.22) rotate(-89.65)"/></g><g id="_Group_6" data-name="&lt;Group&gt;"><path id="_Path_12" data-name="&lt;Path&gt;" class="cls-4" d="M65.81,41.82a122.56,122.56,0,0,0,47.17.29S89.59,69.15,65.81,41.82Z"/><path id="_Path_13" data-name="&lt;Path&gt;" class="cls-1" d="M74.65,43.3,78,46.71l2.84-2.81L83.51,47l2-2.86L88,47.22l2.24-3L92.85,47l1.68-2.86,3.07,2.66,1.75-2.92,2.47,2.8,2.58-3.23-.07,0A127.43,127.43,0,0,1,74.65,43.3Z"/><path id="_Path_14" data-name="&lt;Path&gt;" class="cls-1" d="M98.09,52.29l-2.25-2.46L94.2,53.25l-2.47-3L90.21,54,88,50.27l-1.72,3.64-2.53-3.66L81.86,53A25.27,25.27,0,0,0,98.09,52.29Z"/></g><g id="_Group_7" data-name="&lt;Group&gt;"><g id="_Group_8" data-name="&lt;Group&gt;"><circle id="_Path_15" data-name="&lt;Path&gt;" class="cls-5" cx="80.71" cy="33.82" r="7.43" transform="matrix(0.01, -1, 1, 0.01, 46.4, 114.32)"/><circle id="_Path_16" data-name="&lt;Path&gt;" class="cls-2" cx="80.71" cy="33.82" r="5.3" transform="translate(46.4 114.32) rotate(-89.65)"/><circle id="_Path_17" data-name="&lt;Path&gt;" class="cls-6" cx="80.71" cy="33.82" r="3.66" transform="translate(46.4 114.32) rotate(-89.65)"/><path id="_Path_18" data-name="&lt;Path&gt;" class="cls-5" d="M85.88,32.65a5.3,5.3,0,0,0-3.14-3.73,2.48,2.48,0,1,0,3.14,3.73Z"/></g><g id="_Group_9" data-name="&lt;Group&gt;"><circle id="_Path_19" data-name="&lt;Path&gt;" class="cls-5" cx="98.15" cy="33.93" r="7.43" transform="translate(63.62 131.86) rotate(-89.65)"/><circle id="_Path_20" data-name="&lt;Path&gt;" class="cls-2" cx="98.15" cy="33.93" r="5.3" transform="translate(63.62 131.86) rotate(-89.65)"/><circle id="_Path_21" data-name="&lt;Path&gt;" class="cls-6" cx="98.15" cy="33.93" r="3.66" transform="translate(63.62 131.86) rotate(-89.65)"/><path id="_Path_22" data-name="&lt;Path&gt;" class="cls-5" d="M103.31,32.76A5.3,5.3,0,0,0,100.17,29a2.48,2.48,0,1,0,3.14,3.73Z"/></g></g></g><g id="_Group_10" data-name="&lt;Group&gt;"><path id="_Path_23" data-name="&lt;Path&gt;" class="cls-7" d="M112.35,122.68a2.37,2.37,0,0,0,1.66,2.25,31.16,31.16,0,0,0,4.8.83,1.78,1.78,0,0,0,1.88-1.62c0-.31.08-.64.14-1A1.72,1.72,0,0,1,123,122a70.1,70.1,0,0,0,14,2.38,1.32,1.32,0,0,1,1.36,1.68l-.11.48a1.84,1.84,0,0,0,1.29,2.18,27.3,27.3,0,0,0,6.6.93,2.11,2.11,0,0,0,1.93-1.86c1-9.07,5.78-51.3,9.4-68.77a2.32,2.32,0,0,0-1.78-2.76c-5.93-1.22-22-4.22-31.32-2.92a3.47,3.47,0,0,0-2.65,2.75C120,66.72,112.86,111.4,112.35,122.68Z"/><g id="_Group_11" data-name="&lt;Group&gt;"><circle id="_Path_24" data-name="&lt;Path&gt;" class="cls-8" cx="129.47" cy="67.3" r="6.49" transform="translate(41.56 183.77) rotate(-80.42)"/><circle id="_Path_25" data-name="&lt;Path&gt;" class="cls-7" cx="129.47" cy="67.3" r="4.56" transform="translate(41.56 183.77) rotate(-80.42)"/><circle id="_Path_26" data-name="&lt;Path&gt;" class="cls-4" cx="129.47" cy="67.3" r="2.35" transform="translate(41.56 183.77) rotate(-80.42)"/><ellipse id="_Path_27" data-name="&lt;Path&gt;" class="cls-8" cx="127.85" cy="65.88" rx="2.59" ry="2.03" transform="translate(-6.86 116.25) rotate(-47.76)"/></g><g id="_Group_12" data-name="&lt;Group&gt;"><circle id="_Path_28" data-name="&lt;Path&gt;" class="cls-8" cx="145.09" cy="69.36" r="6.49" transform="translate(52.56 200.88) rotate(-80.42)"/><circle id="_Path_29" data-name="&lt;Path&gt;" class="cls-7" cx="145.09" cy="69.36" r="4.56" transform="translate(52.56 200.88) rotate(-80.42)"/><circle id="_Path_30" data-name="&lt;Path&gt;" class="cls-4" cx="145.09" cy="69.36" r="2.35" transform="matrix(0.17, -0.99, 0.99, 0.17, 52.56, 200.88)"/><ellipse id="_Path_31" data-name="&lt;Path&gt;" class="cls-8" cx="143.47" cy="67.93" rx="2.59" ry="2.03" transform="translate(-3.26 128.48) rotate(-47.76)"/></g><path id="_Path_32" data-name="&lt;Path&gt;" class="cls-4" d="M129.81,78.78s7.08.14,12.71,3.08c0,0-1.52,25.64-9.56,24.28S129.81,78.78,129.81,78.78Z"/><path id="_Path_33" data-name="&lt;Path&gt;" class="cls-8" d="M132,85.21l3.13.23,1-5.83a37.32,37.32,0,0,0-3.84-.65Z"/><path id="_Path_34" data-name="&lt;Path&gt;" class="cls-7" d="M121.26,57.13h0s-14.31-.15-16.14,10.7c-1.42,8.4,4.48,9.61,4.48,9.61s-5-12.32,10.28-11h0C120.44,62.57,120.93,59.35,121.26,57.13Z"/><path id="_Path_35" data-name="&lt;Path&gt;" class="cls-7" d="M156.78,60.92c-.49,2.69-1,5.82-1.52,9.24,13.59,4,5.19,13.52,5.19,13.52s6,.8,7.38-7.61C169.42,66.68,159.5,62,156.78,60.92Z"/></g><g id="_Group_13" data-name="&lt;Group&gt;"><path id="_Path_36" data-name="&lt;Path&gt;" class="cls-9" d="M42.36,117.8s6,2,18.23-3.11c0,0,1.73,8.56,2.12,11.06s8.2,1.12,9.46-1.39,2-18.58-6.15-51.5c-.69-2.8-3-10.26-10.58-9.67s-22,5-27.54,6.54-8.31,5.41-6.7,15.38,9.33,40.57,13.16,45.2c2.43,2.95,10.58-.82,10.29-2.65S42.46,121,42.36,117.8Z"/><g id="_Group_14" data-name="&lt;Group&gt;"><g id="_Group_15" data-name="&lt;Group&gt;"><circle id="_Path_37" data-name="&lt;Path&gt;" class="cls-10" cx="33.43" cy="85.81" r="7.83" transform="translate(-15.94 8.07) rotate(-11.13)"/><circle id="_Path_38" data-name="&lt;Path&gt;" class="cls-9" cx="33.43" cy="85.81" r="5.59" transform="translate(-15.94 8.07) rotate(-11.13)"/><circle id="_Path_39" data-name="&lt;Path&gt;" class="cls-6" cx="33.43" cy="85.81" r="3.86" transform="translate(-15.94 8.07) rotate(-11.13)"/><path id="_Path_40" data-name="&lt;Path&gt;" class="cls-10" d="M38.52,83.52a5.59,5.59,0,0,0-4-3.19,2.62,2.62,0,1,0,4,3.19Z"/></g><g id="_Group_16" data-name="&lt;Group&gt;"><circle id="_Path_41" data-name="&lt;Path&gt;" class="cls-10" cx="54.3" cy="81.7" r="9.54" transform="translate(-14.75 12.02) rotate(-11.13)"/><circle id="_Path_42" data-name="&lt;Path&gt;" class="cls-9" cx="54.3" cy="81.7" r="6.81" transform="translate(-14.75 12.02) rotate(-11.13)"/><circle id="_Path_43" data-name="&lt;Path&gt;" class="cls-6" cx="54.3" cy="81.7" r="4.71" transform="translate(-14.75 12.02) rotate(-11.13)"/><path id="_Path_44" data-name="&lt;Path&gt;" class="cls-10" d="M60.51,78.91A6.82,6.82,0,0,0,55.6,75a3.19,3.19,0,1,0,4.91,3.89Z"/></g></g><g id="_Group_17" data-name="&lt;Group&gt;"><path id="_Path_45" data-name="&lt;Path&gt;" class="cls-9" d="M21.16,84.88a21.61,21.61,0,0,1,.08-9h0s-10.57-1.27-6.05-12.45c0,0-14.93,16.12,5.9,21.39Z"/><path id="_Path_46" data-name="&lt;Path&gt;" class="cls-9" d="M63.55,53.54c6.91,7.09,1.87,11.85-.15,13.32a17.36,17.36,0,0,1,2.62,6c.2.81.39,1.61.58,2.4C83.13,62.65,63.55,53.54,63.55,53.54Z"/></g><g id="_Group_18" data-name="&lt;Group&gt;"><path id="_Path_47" data-name="&lt;Path&gt;" class="cls-6" d="M30.28,99.62s24.84-2.86,35.51-5.87c0,0,3.55,14.49-6.8,17S40.78,115,37.05,112.35C30.95,108,30.28,99.62,30.28,99.62Z"/><g id="_Group_19" data-name="&lt;Group&gt;"><path id="_Path_48" data-name="&lt;Path&gt;" class="cls-10" d="M63.59,96.71a2.13,2.13,0,0,0,1.68-2.5,2.1,2.1,0,0,0-.09-.29c-10,2.68-30.7,5.2-34.34,5.63,0,.09,0,.18,0,.28a3.64,3.64,0,0,0,7,.47c0,.06,0,.13,0,.19a4,4,0,0,0,7.81-.31,5.44,5.44,0,0,0,9.91-1.47,3.64,3.64,0,0,0,6.85-2.09A2.11,2.11,0,0,0,63.59,96.71Z"/><path id="_Path_49" data-name="&lt;Path&gt;" class="cls-10" d="M41.58,109.75c-.88.75-.71,2.49-.4,3.89a22.56,22.56,0,0,0,3.91-.09C44.31,111.75,42.62,108.87,41.58,109.75Z"/><path id="_Path_50" data-name="&lt;Path&gt;" class="cls-10" d="M59,110.76a10.48,10.48,0,0,0,1.28-.4c-.22-1.47-.69-3.51-1.92-3.91s-1.78,3-1.81,4.9Z"/></g></g></g></g></g></g></svg>