<svg id="Layer_1" data-name="Layer 1" xmlns="http://www.w3.org/2000/svg" viewBox="0 0 216.6 53"><defs><style>.cls-1{fill:#fff;}</style></defs><title>avature</title><path class="cls-1" d="M73.83,79.28l-5.9-15.6H46.53l-5.9,15.6h-7.2l20.4-52.2h7.1l20.4,52.2Zm-16.6-43.8-8.3,21.9h16.6Zm38.3,43.9h-6.4l-12.9-36h7.1l9.2,27.9,9-27.9h6.9Zm36.5-.1-.8-4.8a14,14,0,0,1-10.6,5.6c-6.5,0-10.5-3.9-10.5-10,0-8.1,6.4-12.1,20.7-13.5v-2.1c0-4.5-2.7-6.1-6.9-6.1-4.4,0-7.7,1.5-11.6,3.6l-.4-5.9c4.4-2,7.8-3.4,12.5-3.4,8.7,0,13,3.5,13,11.5v25.1Zm-1.3-17.7c-12.6,1.3-14,5.5-14,8s2,4.8,5.3,4.8,5.7-2,8.7-5Zm27.5,12.7a6.48,6.48,0,0,1-5-1.9c-1.7-1.9-1.7-3.4-1.7-6.7V48.88h10l-.5-5.5h-9.5V30.68l-6.2,1v11.7h-5.2v5.5h5.2v16.7c0,5.7.8,7.5,1.7,9,2.6,4.3,7.5,4.7,9.5,4.7a18.55,18.55,0,0,0,5-.8l-.4-4.8a7.92,7.92,0,0,1-2.9.6m59.1-31.4c-5.1-1-8.6,1.9-11.7,6.2l-.8-5.8h-5.6v36h6.4v-23c2.3-3.6,4.3-5.8,7.2-6.7a8.72,8.72,0,0,1,5.4,0c.1,0-.8-6.7-.9-6.7M250,74.58c-2.9,2-6.9,5.3-13.9,5.3a15,15,0,0,1-11.5-4.7c-4.4-4.6-4.9-11.4-4.9-15.3,0-10.2,6.3-16.9,15.5-16.9,7.7,0,13.4,6.5,14.3,14a37.27,37.27,0,0,1,.2,5.5h-23.3c.2,4.7,2.6,11.1,9.6,11.1a22.88,22.88,0,0,0,12.2-3.9Zm-6.8-17.2c-.1-1.4-1-8.5-8-8.5a8.09,8.09,0,0,0-6.3,2.9,9.32,9.32,0,0,0-2.3,5.6Zm-55.8,21.9-.8-4a14.13,14.13,0,0,1-10,4.7,10.85,10.85,0,0,1-9.3-5.1c-1-1.6-1.8-3.4-1.8-9.2V43.28h6.3v22.4c0,3.4,0,5.1,1.7,7a6.55,6.55,0,0,0,5,2c2.6,0,5.6-2.3,7.9-5V43.28h6.4v36Z" transform="translate(-33.43 -27.08)"/></svg>