<svg id="Ebene_1" data-name="Ebene 1" xmlns="http://www.w3.org/2000/svg" viewBox="0 0 306.53 236.72"><defs><style>.cls-1{fill:#fff;}</style></defs><title>cute</title><path class="cls-1" d="M188.92,25Q180,23.94,170.8,23.38,180,23.92,188.92,25Z"/><path class="cls-1" d="M203,107.21,215.11,38A271.25,271.25,0,0,0,153.29,31C68.63,31,0,67.69,0,112.9s68.63,81.87,153.29,81.87a284.38,284.38,0,0,0,34.54-2.08l12.89-72.74H189.3l2.31-12.74ZM73,139.61a14.93,14.93,0,0,1-2.42,1.09,27.58,27.58,0,0,1-3.29.94,37.24,37.24,0,0,1-3.81.65,33.88,33.88,0,0,1-4,.25A30.46,30.46,0,0,1,49.58,141a22,22,0,0,1-8.13-4.84A22.8,22.8,0,0,1,36,127.85,32,32,0,0,1,34,116a37,37,0,0,1,1-9.2,27.72,27.72,0,0,1,2.91-7.17,21.71,21.71,0,0,1,4.31-5.28,24.08,24.08,0,0,1,5.27-3.56,24.6,24.6,0,0,1,5.79-2,28.82,28.82,0,0,1,5.82-.62,32.76,32.76,0,0,1,7.17.78,21.45,21.45,0,0,1,5.87,2.18v7a45.38,45.38,0,0,0-6.31-1.92A26.66,26.66,0,0,0,60,95.51a20,20,0,0,0-6.25,1,14.53,14.53,0,0,0-5.54,3.41,17,17,0,0,0-3.94,6.26,26.94,26.94,0,0,0-1.5,9.65,25.74,25.74,0,0,0,1.12,7.73,17.41,17.41,0,0,0,3.32,6.12,14.88,14.88,0,0,0,5.51,4,18.94,18.94,0,0,0,7.67,1.45,30.83,30.83,0,0,0,6.36-.67A36.27,36.27,0,0,0,73,132.62Zm55.63-18.31a36.87,36.87,0,0,1-.3,4.86,21,21,0,0,1-1,4.15,18.68,18.68,0,0,1-2.69,4.92,16.52,16.52,0,0,1-4.22,3.88,20.07,20.07,0,0,1-5.79,2.53,30.84,30.84,0,0,1-14.67,0,19.65,19.65,0,0,1-5.63-2.45,16.47,16.47,0,0,1-4.11-3.77,19.13,19.13,0,0,1-3.75-9.1,36.67,36.67,0,0,1-.33-5.11V89.58h8.42v31.58a19.5,19.5,0,0,0,1.14,7.16,10.69,10.69,0,0,0,4.22,5.13,13.53,13.53,0,0,0,7.44,1.88,13.1,13.1,0,0,0,7.71-2.06,11.35,11.35,0,0,0,4.17-5.54,20.1,20.1,0,0,0,.93-6.57V89.58h8.41Zm46.73,20a18,18,0,0,1-3.32.82,36.89,36.89,0,0,1-5.32.44,22.23,22.23,0,0,1-7.07-1,13.27,13.27,0,0,1-5-2.88,11.59,11.59,0,0,1-3-4.54,17.06,17.06,0,0,1-1-5.92V96.79h-9.94V89.58h9.94V75.46h8.42V89.58h15.44v7.21H159.14v30.08a10.34,10.34,0,0,0,.51,3.31,6.66,6.66,0,0,0,1.64,2.63,7.38,7.38,0,0,0,2.85,1.74,12.57,12.57,0,0,0,4.19.63,26.74,26.74,0,0,0,3.56-.27,32.7,32.7,0,0,0,3.45-.71Z"/><path class="cls-1" d="M160.24,202.55c37.75-1,73.2-9,101-22.86l0,.31C234.08,193.27,198.9,201.65,160.24,202.55Z"/><path class="cls-1" d="M265.13,47.76A185.43,185.43,0,0,0,236,35.45c17.75,5.83,33.34,13.47,46,22.44l-.06.36A137.81,137.81,0,0,0,265.13,47.76Z"/><path class="cls-1" d="M265.3,104.17a19.28,19.28,0,0,1,.8,5.69H239.66a18,18,0,0,1,1.43-5.64,15.77,15.77,0,0,1,3-4.61,14.17,14.17,0,0,1,4.38-3.1,12.8,12.8,0,0,1,5.43-1.14,11.57,11.57,0,0,1,5.23,1.11,11,11,0,0,1,3.8,3.08A13.73,13.73,0,0,1,265.3,104.17Z"/><path class="cls-1" d="M224.76,40.48l-11.83,67.94H202.79l-1.86,10.32h10.24l-13,72.45c62.73-10.26,108.35-41.43,108.35-78.29C306.53,81.49,273.39,54.21,224.76,40.48ZM274.95,115c0,.31,0,1-.06,2.09H239.23a21.18,21.18,0,0,0,1.49,8.4,14.71,14.71,0,0,0,4.08,5.6,16.19,16.19,0,0,0,6.06,3.13,27.7,27.7,0,0,0,7.5,1,39.94,39.94,0,0,0,7.64-.67,45.6,45.6,0,0,0,6.87-1.89v7a27.42,27.42,0,0,1-6.85,2.14,45.69,45.69,0,0,1-8.75.79,37.3,37.3,0,0,1-10.41-1.41,21.57,21.57,0,0,1-8.41-4.58,21.12,21.12,0,0,1-5.57-8.24,33.31,33.31,0,0,1-2-12.26,34.85,34.85,0,0,1,1.95-12.26A25.75,25.75,0,0,1,238,95.11a21,21,0,0,1,7.48-5.22,23,23,0,0,1,8.84-1.74,22.56,22.56,0,0,1,8.1,1.44A16.64,16.64,0,0,1,269,94.13a22.5,22.5,0,0,1,4.37,8,38.25,38.25,0,0,1,1.6,11.74Z"/><path class="cls-1" d="M265.3,104.17A13.73,13.73,0,0,0,263,99.56a11,11,0,0,0-3.8-3.08,11.57,11.57,0,0,0-5.23-1.11,12.8,12.8,0,0,0-5.43,1.14,14.17,14.17,0,0,0-4.38,3.1,15.77,15.77,0,0,0-3,4.61,18,18,0,0,0-1.43,5.64H266.1A19.28,19.28,0,0,0,265.3,104.17Zm0,0A13.73,13.73,0,0,0,263,99.56a11,11,0,0,0-3.8-3.08,11.57,11.57,0,0,0-5.23-1.11,12.8,12.8,0,0,0-5.43,1.14,14.17,14.17,0,0,0-4.38,3.1,15.77,15.77,0,0,0-3,4.61,18,18,0,0,0-1.43,5.64H266.1A19.28,19.28,0,0,0,265.3,104.17Zm0,0A13.73,13.73,0,0,0,263,99.56a11,11,0,0,0-3.8-3.08,11.57,11.57,0,0,0-5.23-1.11,12.8,12.8,0,0,0-5.43,1.14,14.17,14.17,0,0,0-4.38,3.1,15.77,15.77,0,0,0-3,4.61,18,18,0,0,0-1.43,5.64H266.1A19.28,19.28,0,0,0,265.3,104.17Zm0,0A13.73,13.73,0,0,0,263,99.56a11,11,0,0,0-3.8-3.08,11.57,11.57,0,0,0-5.23-1.11,12.8,12.8,0,0,0-5.43,1.14,14.17,14.17,0,0,0-4.38,3.1,15.77,15.77,0,0,0-3,4.61,18,18,0,0,0-1.43,5.64H266.1A19.28,19.28,0,0,0,265.3,104.17ZM224.76,40.48l-11.83,67.94H202.79l-1.86,10.32h10.24l-13,72.45c62.73-10.26,108.35-41.43,108.35-78.29C306.53,81.49,273.39,54.21,224.76,40.48ZM274.95,115c0,.31,0,1-.06,2.09H239.23a21.18,21.18,0,0,0,1.49,8.4,14.71,14.71,0,0,0,4.08,5.6,16.19,16.19,0,0,0,6.06,3.13,27.7,27.7,0,0,0,7.5,1,39.94,39.94,0,0,0,7.64-.67,45.6,45.6,0,0,0,6.87-1.89v7a27.42,27.42,0,0,1-6.85,2.14,45.69,45.69,0,0,1-8.75.79,37.3,37.3,0,0,1-10.41-1.41,21.57,21.57,0,0,1-8.41-4.58,21.12,21.12,0,0,1-5.57-8.24,33.31,33.31,0,0,1-2-12.26,34.85,34.85,0,0,1,1.95-12.26A25.75,25.75,0,0,1,238,95.11a21,21,0,0,1,7.48-5.22,23,23,0,0,1,8.84-1.74,22.56,22.56,0,0,1,8.1,1.44A16.64,16.64,0,0,1,269,94.13a22.5,22.5,0,0,1,4.37,8,38.25,38.25,0,0,1,1.6,11.74ZM263,99.56a11,11,0,0,0-3.8-3.08,11.57,11.57,0,0,0-5.23-1.11,12.8,12.8,0,0,0-5.43,1.14,14.17,14.17,0,0,0-4.38,3.1,15.77,15.77,0,0,0-3,4.61,18,18,0,0,0-1.43,5.64H266.1a19.28,19.28,0,0,0-.8-5.69A13.73,13.73,0,0,0,263,99.56Zm2.34,4.61A13.73,13.73,0,0,0,263,99.56a11,11,0,0,0-3.8-3.08,11.57,11.57,0,0,0-5.23-1.11,12.8,12.8,0,0,0-5.43,1.14,14.17,14.17,0,0,0-4.38,3.1,15.77,15.77,0,0,0-3,4.61,18,18,0,0,0-1.43,5.64H266.1A19.28,19.28,0,0,0,265.3,104.17Zm0,0A13.73,13.73,0,0,0,263,99.56a11,11,0,0,0-3.8-3.08,11.57,11.57,0,0,0-5.23-1.11,12.8,12.8,0,0,0-5.43,1.14,14.17,14.17,0,0,0-4.38,3.1,15.77,15.77,0,0,0-3,4.61,18,18,0,0,0-1.43,5.64H266.1A19.28,19.28,0,0,0,265.3,104.17Zm-62.3,3L215.11,38A271.25,271.25,0,0,0,153.29,31C68.63,31,0,67.69,0,112.9s68.63,81.87,153.29,81.87a284.38,284.38,0,0,0,34.54-2.08l12.89-72.74H189.3l2.31-12.74ZM73,139.61a14.93,14.93,0,0,1-2.42,1.09,27.58,27.58,0,0,1-3.29.94,37.24,37.24,0,0,1-3.81.65,33.88,33.88,0,0,1-4,.25A30.46,30.46,0,0,1,49.58,141a22,22,0,0,1-8.13-4.84A22.8,22.8,0,0,1,36,127.85,32,32,0,0,1,34,116a37,37,0,0,1,1-9.2,27.72,27.72,0,0,1,2.91-7.17,21.71,21.71,0,0,1,4.31-5.28,24.08,24.08,0,0,1,5.27-3.56,24.6,24.6,0,0,1,5.79-2,28.82,28.82,0,0,1,5.82-.62,32.76,32.76,0,0,1,7.17.78,21.45,21.45,0,0,1,5.87,2.18v7a45.38,45.38,0,0,0-6.31-1.92A26.66,26.66,0,0,0,60,95.51a20,20,0,0,0-6.25,1,14.53,14.53,0,0,0-5.54,3.41,17,17,0,0,0-3.94,6.26,26.94,26.94,0,0,0-1.5,9.65,25.74,25.74,0,0,0,1.12,7.73,17.41,17.41,0,0,0,3.32,6.12,14.88,14.88,0,0,0,5.51,4,18.94,18.94,0,0,0,7.67,1.45,30.83,30.83,0,0,0,6.36-.67A36.27,36.27,0,0,0,73,132.62Zm55.63-18.31a36.87,36.87,0,0,1-.3,4.86,21,21,0,0,1-1,4.15,18.68,18.68,0,0,1-2.69,4.92,16.52,16.52,0,0,1-4.22,3.88,20.07,20.07,0,0,1-5.79,2.53,30.84,30.84,0,0,1-14.67,0,19.65,19.65,0,0,1-5.63-2.45,16.47,16.47,0,0,1-4.11-3.77,19.13,19.13,0,0,1-3.75-9.1,36.67,36.67,0,0,1-.33-5.11V89.58h8.42v31.58a19.5,19.5,0,0,0,1.14,7.16,10.69,10.69,0,0,0,4.22,5.13,13.53,13.53,0,0,0,7.44,1.88,13.1,13.1,0,0,0,7.71-2.06,11.35,11.35,0,0,0,4.17-5.54,20.1,20.1,0,0,0,.93-6.57V89.58h8.41Zm46.73,20a18,18,0,0,1-3.32.82,36.89,36.89,0,0,1-5.32.44,22.23,22.23,0,0,1-7.07-1,13.27,13.27,0,0,1-5-2.88,11.59,11.59,0,0,1-3-4.54,17.06,17.06,0,0,1-1-5.92V96.79h-9.94V89.58h9.94V75.46h8.42V89.58h15.44v7.21H159.14v30.08a10.34,10.34,0,0,0,.51,3.31,6.66,6.66,0,0,0,1.64,2.63,7.38,7.38,0,0,0,2.85,1.74,12.57,12.57,0,0,0,4.19.63,26.74,26.74,0,0,0,3.56-.27,32.7,32.7,0,0,0,3.45-.71Z"/><path class="cls-1" d="M261.26,179.69l0,.31-9.06,53.21a4.26,4.26,0,0,1-4.93,3.45L131,216.62a4.25,4.25,0,0,1-3.44-4.93l1.69-10c7.69.61,15.51.92,23.41.92l4,0,3.53-.07C198,201.6,233.44,193.58,261.26,179.69Z"/><path class="cls-1" d="M287.6,25,282,57.89l-.06.36a137.81,137.81,0,0,0-16.81-10.49A185.43,185.43,0,0,0,236,35.45c-1-.34-2.07-.68-3.12-1l-.08,0-3-.92-2.75-.8-2.85-.79-.37-.1c-1-.26-1.95-.52-2.94-.76q-5.43-1.39-11.05-2.55c-1.14-.24-2.28-.46-3.42-.68s-2.3-.44-3.45-.64-2.21-.39-3.32-.57l-.26,0L196,26c-1.17-.18-2.35-.35-3.53-.51L188.92,25Q180,23.94,170.8,23.38c-1-.06-2-.12-3-.16-.8-.05-1.59-.09-2.39-.11-1.25-.06-2.49-.11-3.74-.14-.65,0-1.3,0-2-.06L163,3.51A4.25,4.25,0,0,1,167.93.07l116.22,20A4.24,4.24,0,0,1,287.6,25Z"/></svg>