<svg id="Layer_1" data-name="Layer 1" xmlns="http://www.w3.org/2000/svg" viewBox="0 0 252.98 252.98"><defs><style>.cls-1{fill:#fff;}</style></defs><title>mhr</title><path class="cls-1" d="M224.39,202.54H202.13V185.89h22.26c9.42,0,14.21,1.38,14.21,8.29S233.81,202.54,224.39,202.54Zm43.83-187.3v253h-253v-253ZM104.4,176.3H89.21L76.89,205.06l-6.44,15-6.31-15L52,176.3H36.5v59.05H46.73V190.6h.16l6.16,14.51L65.9,235.35h9.18l12.81-30.29L94,190.6h.16v44.75H104.4V176.3Zm74.17,0H167V199.7h-39.1V176.3H116.39v59.05h11.53V209.93H167v25.42h11.53V176.3ZM251,235.35l-23.49-23.67,6.09-.37a17.56,17.56,0,0,0,12.81-6.21,17.34,17.34,0,0,0,3.68-11.17c0-14.46-10.07-17.63-24-17.63H190.6v59.05h11.53V212.12h11.53l23.17,23.23Z" transform="translate(-15.24 -15.24)"/></svg>