<svg xmlns="http://www.w3.org/2000/svg" viewBox="0 0 73.25 33.25"><defs><style>.cls-1{fill:#fff;}</style></defs><title>adp</title><g id="Layer_2" data-name="Layer 2"><g id="sponsor_logos" data-name="sponsor logos"><path class="cls-1" d="M64.55,33a1.3,1.3,0,1,1,1.3-1.31A1.3,1.3,0,0,1,64.55,33Zm0,.28A1.58,1.58,0,1,0,63,31.66a1.58,1.58,0,0,0,1.59,1.59Zm-.09-1.48c.1,0,.19,0,.27.08a.72.72,0,0,1,.1.39c0,.11,0,.23.07.33h.37a2.88,2.88,0,0,1-.11-.54c0-.2-.06-.32-.32-.37h0a.43.43,0,0,0,.38-.43c0-.42-.35-.51-.69-.51h-.6v1.86h.29v-.81Zm-.25-.29V31h.34c.23,0,.3.07.3.21s-.06.26-.33.26ZM46,16.62a9.5,9.5,0,0,1-9.5,9.5H32.87V22H36.5a5.34,5.34,0,0,0,0-10.69H32.87V7.12H36.5a9.5,9.5,0,0,1,9.5,9.5ZM25.74,7.12v7.72H19.12L16.7,19H29.9V7.12Zm47.5,5.94A13.06,13.06,0,0,1,60.18,26.12v7.13H48.9V27.69A16.6,16.6,0,0,1,36.5,33.25H25.74V26.12h-8.4l-4.16,7.13H0L19.39,0H36.5A16.6,16.6,0,0,1,48.9,5.56V0H60.18A13.07,13.07,0,0,1,73.25,13.06Zm-36.75,16A12.47,12.47,0,0,0,47.76,22h5.3v7.13h3V22h4.16a8.9,8.9,0,1,0,0-17.81H53.06V14.84H48.83A12.46,12.46,0,0,0,36.5,4.16H21.88L7.34,29.09h3.47L15,22H29.9v7.13Zm23.68-22H56v4.15h4.16a1.78,1.78,0,0,1,0,3.57H56V19h4.16a5.94,5.94,0,0,0,0-11.88"/></g></g></svg>