<?xml version="1.0" encoding="utf-8"?>
<!-- Generator: Adobe Illustrator 21.0.0, SVG Export Plug-In . SVG Version: 6.00 Build 0)  -->
<svg version="1.1" id="Layer_1" xmlns="http://www.w3.org/2000/svg" xmlns:xlink="http://www.w3.org/1999/xlink" x="0px" y="0px"
	 viewBox="0 0 72.3 58.4" style="enable-background:new 0 0 72.3 58.4;" xml:space="preserve">
<style type="text/css">
	.st0{clip-path:url(#SVGID_2_);}
	.st1{clip-path:url(#SVGID_4_);}
	.st2{opacity:0.2;clip-path:url(#SVGID_6_);}
	.st3{clip-path:url(#SVGID_8_);}
	.st4{filter:url(#Adobe_OpacityMaskFilter);}
	.st5{clip-path:url(#SVGID_10_);}
	.st6{enable-background:new    ;}
	.st7{clip-path:url(#SVGID_10_);fill:url(#SVGID_12_);}
	.st8{clip-path:url(#SVGID_10_);mask:url(#SVGID_11_);}
	.st9{clip-path:url(#SVGID_14_);}
	.st10{clip-path:url(#SVGID_16_);fill:url(#SVGID_17_);}
	.st11{clip-path:url(#SVGID_4_);fill:#FFFFFF;}
	.st12{clip-path:url(#SVGID_19_);fill:#FFFFFF;}
	.st13{opacity:0.7;clip-path:url(#SVGID_19_);}
	.st14{clip-path:url(#SVGID_21_);fill:#FFFFFF;}
	.st15{opacity:0.5;clip-path:url(#SVGID_19_);}
	.st16{clip-path:url(#SVGID_23_);fill:#FFFFFF;}
	.st17{opacity:0.5;clip-path:url(#SVGID_25_);}
	.st18{clip-path:url(#SVGID_27_);}
	.st19{clip-path:url(#SVGID_29_);fill:url(#SVGID_30_);}
</style>
<g>
	<g>
		<defs>
			<rect id="SVGID_1_" width="72.3" height="58.4"/>
		</defs>
		<clipPath id="SVGID_2_">
			<use xlink:href="#SVGID_1_"  style="overflow:visible;"/>
		</clipPath>
		<g class="st0">
			<defs>
				<rect id="SVGID_3_" width="72.3" height="58.4"/>
			</defs>
			<clipPath id="SVGID_4_">
				<use xlink:href="#SVGID_3_"  style="overflow:visible;"/>
			</clipPath>
			<g class="st1">
				<defs>
					<rect id="SVGID_5_" width="72.3" height="58.4"/>
				</defs>
				<clipPath id="SVGID_6_">
					<use xlink:href="#SVGID_5_"  style="overflow:visible;"/>
				</clipPath>
				<g class="st2">
					<g>
						<defs>
							<rect id="SVGID_7_" x="24.1" y="15.4" width="24.4" height="40.5"/>
						</defs>
						<clipPath id="SVGID_8_">
							<use xlink:href="#SVGID_7_"  style="overflow:visible;"/>
						</clipPath>
						<g class="st3">
							<defs>
								<path id="SVGID_9_" d="M37.4,21.4l0.2,8.4l-2.6-1.5l0-5.5c-5.7,3.1-11,5.9-11,5.9V56l24.4-14.9V15.4
									C48.4,15.6,43.1,18.3,37.4,21.4"/>
							</defs>
							<clipPath id="SVGID_10_">
								<use xlink:href="#SVGID_9_"  style="overflow:visible;"/>
							</clipPath>
							<defs>
								<filter id="Adobe_OpacityMaskFilter" filterUnits="userSpaceOnUse" x="24.1" y="15.4" width="24.4" height="40.5">
									<feColorMatrix  type="matrix" values="1 0 0 0 0  0 1 0 0 0  0 0 1 0 0  0 0 0 1 0"/>
								</filter>
							</defs>
							<mask maskUnits="userSpaceOnUse" x="24.1" y="15.4" width="24.4" height="40.5" id="SVGID_11_">
								<g class="st4">
									<rect x="24.1" y="15.4" class="st5" width="24.4" height="40.5"/>
									<g class="st6">
										
											<linearGradient id="SVGID_12_" gradientUnits="userSpaceOnUse" x1="-443.5678" y1="-249.3068" x2="-443.4697" y2="-249.3068" gradientTransform="matrix(248.6753 0 0 248.6753 110328.4453 62032.1406)">
											<stop  offset="0" style="stop-color:#231F20"/>
											<stop  offset="5.321270e-03" style="stop-color:#231F20"/>
											<stop  offset="1" style="stop-color:#FFFFFF"/>
										</linearGradient>
										<rect x="24.1" y="15.4" class="st7" width="24.4" height="40.5"/>
									</g>
								</g>
							</mask>
							<g class="st8">
								<g>
									<defs>
										<rect id="SVGID_13_" x="24.1" y="15.4" width="24.4" height="40.5"/>
									</defs>
									<clipPath id="SVGID_14_">
										<use xlink:href="#SVGID_13_"  style="overflow:visible;"/>
									</clipPath>
									<g class="st9">
										<defs>
											<rect id="SVGID_15_" x="24.1" y="15.4" width="24.4" height="40.5"/>
										</defs>
										<clipPath id="SVGID_16_">
											<use xlink:href="#SVGID_15_"  style="overflow:visible;"/>
										</clipPath>
										
											<linearGradient id="SVGID_17_" gradientUnits="userSpaceOnUse" x1="-443.5678" y1="-249.3068" x2="-443.4697" y2="-249.3068" gradientTransform="matrix(248.6753 0 0 248.6753 110328.4453 62032.1406)">
											<stop  offset="0" style="stop-color:#FFFFFF"/>
											<stop  offset="5.321270e-03" style="stop-color:#FFFFFF"/>
											<stop  offset="1" style="stop-color:#FFFFFF"/>
										</linearGradient>
										<rect x="24.1" y="15.4" class="st10" width="24.4" height="40.5"/>
									</g>
								</g>
							</g>
						</g>
					</g>
				</g>
			</g>
			<path class="st11" d="M10,44.6l-0.7-2.1H5.2l-0.8,2.1H2.3L6.5,34h1.7l4.2,10.6H10z M8.7,40.9l-1.5-4.3l-1.5,4.3H8.7z"/>
			<g class="st1">
				<defs>
					<rect id="SVGID_18_" width="72.3" height="58.4"/>
				</defs>
				<clipPath id="SVGID_19_">
					<use xlink:href="#SVGID_18_"  style="overflow:visible;"/>
				</clipPath>
				<path class="st12" d="M13.2,36.8h1.6l0.3,0.8c0.5-0.6,1.2-1,2.1-1c2,0,3.1,1.3,3.1,3.5v1c0,2.2-1.1,3.5-3.1,3.5
					c-0.8,0-1.4-0.3-1.9-0.8V47h-2V36.8z M18.2,41v-0.5c0-1.3-0.6-2.2-1.6-2.2c-1,0-1.5,0.6-1.5,1.9v1c0,1.3,0.6,1.9,1.5,1.9
					C17.7,43.1,18.2,42.3,18.2,41"/>
				<path class="st12" d="M21.6,36.8h1.6l0.3,0.8c0.5-0.6,1.2-1,2.1-1c2,0,3.1,1.3,3.1,3.5v1c0,2.2-1.1,3.5-3.1,3.5
					c-0.8,0-1.4-0.3-1.9-0.8V47h-2V36.8z M26.7,41v-0.5c0-1.3-0.6-2.2-1.6-2.2c-1,0-1.5,0.6-1.5,1.9v1c0,1.3,0.6,1.9,1.5,1.9
					C26.1,43.1,26.7,42.3,26.7,41"/>
				<polygon class="st12" points="30.2,34 32.4,34 32.4,42.8 36.8,42.8 36.8,44.6 30.2,44.6 				"/>
				<path class="st12" d="M40.8,43.1c0.9,0,1.4-0.3,1.6-1.1h1.9c-0.4,1.8-1.7,2.6-3.5,2.6c-2.2,0-3.5-1.4-3.5-4c0-2.6,1.5-4,3.5-4
					c2.1,0,3.7,1.3,3.7,3.8v0.7h-5.2C39.3,42.5,39.9,43.1,40.8,43.1 M42.5,40c-0.1-1.2-0.7-1.8-1.6-1.8c-0.8,0-1.5,0.5-1.6,1.8H42.5
					z"/>
				<path class="st12" d="M52.4,39.6v5H51L50.7,44c-0.5,0.4-1.2,0.7-1.8,0.7c-2,0-3.5-1.3-3.5-4c0-2.3,1.2-4,3.5-4
					C51,36.7,52.4,37.9,52.4,39.6 M50.4,39.7c0-0.8-0.5-1.4-1.5-1.4c-1,0-1.5,0.8-1.5,2.3c0,1.9,0.6,2.5,1.5,2.5
					c0.5,0,1.1-0.1,1.5-0.3V39.7z"/>
				<path class="st12" d="M57.9,36.7l-0.2,1.8c-1.1,0-1.4,0.9-1.4,1.6v4.5h-2v-4.7c0-2.2,1.4-3.1,3.2-3.1H57.9z"/>
				<path class="st12" d="M66.2,44.6h-2v-4.8c0-0.8-0.5-1.4-1.5-1.4c-1,0-1.5,0.7-1.5,1.4v4.8h-2v-7.7h2v0.9c0.6-0.6,1.3-1,2.1-1
					c1.8,0,2.9,1.2,2.9,2.8V44.6z"/>
				<g class="st13">
					<g>
						<defs>
							<rect id="SVGID_20_" x="24.1" y="2.2" width="24.3" height="26.8"/>
						</defs>
						<clipPath id="SVGID_21_">
							<use xlink:href="#SVGID_20_"  style="overflow:visible;"/>
						</clipPath>
						<path class="st14" d="M32.4,9.3c0.3,0.1,0.7,0.1,1,0l1.5-0.8c0.3-0.1,0.3-0.4,0-0.5L24.6,2.3c-0.3-0.1-0.5,0-0.5,0.3v11.4
							c0,0.3,0.2,0.4,0.5,0.3l1.3-0.7c0.3-0.1,0.5-0.5,0.5-0.8V6.5c0-0.3,0.2-0.4,0.5-0.3L32.4,9.3z"/>
						<path class="st14" d="M26.4,18.5c0-0.3-0.2-0.6-0.5-0.8L24.6,17c-0.3-0.1-0.5,0-0.5,0.3v11.4c0,0.3,0.2,0.4,0.5,0.3l10.3-5.7
							c0.3-0.1,0.3-0.4,0-0.5l-1.1-0.6c-0.3-0.1-0.7-0.1-1,0l-6,3.3c-0.3,0.1-0.5,0-0.5-0.3V18.5z"/>
						<path class="st14" d="M48.2,15.7c0.3-0.1,0.3-0.4,0-0.5L37.9,9.6c-0.3-0.1-0.5,0-0.5,0.3v1.6c0,0.3,0.2,0.6,0.5,0.8l5.8,3.2
							c0.3,0.1,0.3,0.4,0,0.5l-5.9,3.2c-0.3,0.1-0.5,0.5-0.5,0.8v1.2c0,0.3,0.2,0.4,0.5,0.3L48.2,15.7z"/>
					</g>
				</g>
				<path class="st12" d="M32.9,22.1l-6,3.3c-0.3,0.1-0.5,0-0.5-0.3v-6.7c0-0.3,0.2-0.4,0.5-0.3l6,3.3
					C33.1,21.7,33.1,21.9,32.9,22.1"/>
				<path class="st12" d="M26.9,12.9l5.6-3.1c0.3-0.1,0.3-0.4,0-0.5l-5.6-3.1c-0.3-0.1-0.5,0-0.5,0.3v6.2
					C26.4,12.9,26.6,13,26.9,12.9"/>
				<path class="st12" d="M43.7,15.5l-5.8-3.2c-0.3-0.1-0.5,0-0.5,0.3V19c0,0.3,0.2,0.4,0.5,0.3l5.9-3.2C44,15.8,44,15.6,43.7,15.5"
					/>
				<path class="st12" d="M33.7,12.6L28.9,15c-0.3,0.1-0.3,0.4,0,0.5l4.8,2.6c0.3,0.1,0.5,0,0.5-0.3v-5
					C34.2,12.6,33.9,12.4,33.7,12.6"/>
				<g class="st15">
					<g>
						<defs>
							<rect id="SVGID_22_" x="26.3" y="9.7" width="11.1" height="11.9"/>
						</defs>
						<clipPath id="SVGID_23_">
							<use xlink:href="#SVGID_22_"  style="overflow:visible;"/>
						</clipPath>
						<path class="st16" d="M33.4,9.8c-0.3-0.1-0.7-0.1-1,0l-5.6,3.1c-0.3,0.1-0.5,0.5-0.5,0.8v3.7c0,0.3,0.2,0.6,0.5,0.8l6,3.3
							c0.3,0.1,0.7,0.1,1,0l3.1-1.7c0.3-0.1,0.5-0.5,0.5-0.8v-6.5c0-0.3-0.2-0.6-0.5-0.8L33.4,9.8z M33.7,12.6
							c0.3-0.1,0.5,0,0.5,0.3v5c0,0.3-0.2,0.4-0.5,0.3l-4.8-2.6c-0.3-0.1-0.3-0.4,0-0.5L33.7,12.6z"/>
					</g>
				</g>
			</g>
			<g class="st1">
				<defs>
					<path id="SVGID_24_" d="M33.2,14.6l-0.5,0.1c-0.5,0.1-4.1,0.5-4,0.6c0,0.1,0,4.2,0,4.5c0,0.7,3.3,5,3.3,5l6.7-4.3l-0.4-8.8
						C38.4,11.7,33.3,14.5,33.2,14.6"/>
				</defs>
				<clipPath id="SVGID_25_">
					<use xlink:href="#SVGID_24_"  style="overflow:visible;"/>
				</clipPath>
				<g class="st17">
					<g>
						<defs>
							<rect id="SVGID_26_" x="21.3" y="5" width="21.1" height="21.3"/>
						</defs>
						<clipPath id="SVGID_27_">
							<use xlink:href="#SVGID_26_"  style="overflow:visible;"/>
						</clipPath>
						<g class="st18">
							<defs>
								<path id="SVGID_28_" d="M33.7,18.2l-4.8-2.6c-0.3-0.1-0.3-0.4,0-0.5l4.8-2.4c0.3-0.1,0.5,0,0.5,0.3v5c0,0.2-0.1,0.3-0.3,0.3
									C33.8,18.2,33.8,18.2,33.7,18.2 M32.9,9.7c-0.2,0-0.3,0-0.5,0.1l-5.6,3.1c-0.3,0.1-0.5,0.5-0.5,0.8v3.7
									c0,0.3,0.2,0.6,0.5,0.8l6,3.3c0.3,0.1,0.7,0.1,1,0l3.1-1.7c0.3-0.1,0.5-0.5,0.5-0.8v-6.5c0-0.3-0.2-0.6-0.5-0.8l-3.5-1.9
									C33.2,9.8,33.1,9.7,32.9,9.7L32.9,9.7z"/>
							</defs>
							<clipPath id="SVGID_29_">
								<use xlink:href="#SVGID_28_"  style="overflow:visible;"/>
							</clipPath>
							
								<linearGradient id="SVGID_30_" gradientUnits="userSpaceOnUse" x1="-441.1932" y1="-260.8373" x2="-441.0951" y2="-260.8373" gradientTransform="matrix(-64.0554 34.9675 -34.9675 -64.0554 -37346.418 -1266.7625)">
								<stop  offset="0" style="stop-color:#FFFFFF"/>
								<stop  offset="1" style="stop-color:#FFFFFF"/>
							</linearGradient>
							<polygon class="st19" points="34.8,5.1 21.3,12.5 28.8,26.3 42.4,18.9 							"/>
						</g>
					</g>
				</g>
			</g>
		</g>
	</g>
</g>
</svg>
