<?xml version="1.0" encoding="utf-8"?>
<!-- Generator: Adobe Illustrator 21.0.0, SVG Export Plug-In . SVG Version: 6.00 Build 0)  -->
<svg version="1.1" id="Layer_1" xmlns="http://www.w3.org/2000/svg" xmlns:xlink="http://www.w3.org/1999/xlink" x="0px" y="0px"
	 viewBox="0 0 82.9 21.2" style="enable-background:new 0 0 82.9 21.2;" xml:space="preserve">
<style type="text/css">
	.st0{fill:#FFFFFF;}
</style>
<g>
	<path class="st0" d="M63.3,9.7c-0.6,0-1.2,0.3-1.5,0.8c-0.4,0.5-0.6,1.2-0.6,2.1c0,1.9,0.7,2.9,2.1,2.9c0.7,0,1.2-0.3,1.5-0.8
		c0.4-0.5,0.6-1.2,0.6-2.1C65.4,10.7,64.7,9.7,63.3,9.7L63.3,9.7z"/>
	<path class="st0" d="M49.1,13c-0.4,0.4-0.7,0.8-0.7,1.3c0,0.8,0.5,1.2,1.4,1.2c0.7,0,1.3-0.3,1.8-1v-1.9c-0.4-0.1-0.7-0.1-0.9-0.1
		C50.1,12.5,49.6,12.7,49.1,13L49.1,13z"/>
	<path class="st0" d="M25.6,9.7c-0.7,0-1.2,0.3-1.6,0.8c-0.4,0.5-0.6,1.2-0.6,2.1c0,1.9,0.7,2.9,2.1,2.9c0.7,0,1.2-0.3,1.6-0.8
		c0.4-0.5,0.6-1.2,0.6-2.1C27.8,10.7,27,9.7,25.6,9.7L25.6,9.7z"/>
	<path class="st0" d="M42.5,9.8c-0.7,0-1.3,0.3-1.8,0.8c-0.5,0.5-0.7,1.2-0.7,2.1c0,1.8,0.8,2.8,2.5,2.8c0.2,0,0.5-0.1,0.8-0.2
		c0.3-0.1,0.5-0.3,0.6-0.4v-4.2C43.6,10,43.1,9.8,42.5,9.8L42.5,9.8z"/>
	<path class="st0" d="M72.6,10.1c-0.3-0.2-0.6-0.3-0.9-0.3c-0.5,0-0.9,0.2-1.3,0.7c-0.4,0.4-0.5,1-0.5,1.6v4.4h-1.4V8.8h1.4V10
		c0.5-0.9,1.2-1.4,2.2-1.4c0.2,0,0.6,0,1.1,0.1L72.6,10.1L72.6,10.1z M65.9,15.5c-0.6,0.7-1.5,1.1-2.6,1.1c-1.1,0-2-0.4-2.6-1.1
		c-0.6-0.7-0.9-1.7-0.9-2.9c0-1.2,0.3-2.1,1-2.9c0.7-0.7,1.5-1.1,2.6-1.1c1.1,0,2,0.3,2.6,1c0.6,0.7,0.9,1.7,0.9,2.9
		C66.9,13.8,66.6,14.8,65.9,15.5L65.9,15.5z M57.4,16.8c-0.6,0-1.1-0.2-1.5-0.7c-0.4-0.5-0.6-1-0.6-1.7v-4.3h-0.9V9h0.9V6.9h1.4V9
		h1.8v1.1h-1.8v3.8c0,0.6,0.1,1.1,0.3,1.4c0.2,0.3,0.6,0.4,1,0.4c0.3,0,0.7-0.1,1.1-0.3l0.2,1.2C58.7,16.8,58.1,16.8,57.4,16.8
		L57.4,16.8z M54.4,16.2c0,0-0.8,0.8-1.8,0.4c-0.5-0.2-0.7-0.6-0.7-1c-0.5,0.7-1.4,1-2.5,1c-0.6,0-1.1-0.2-1.6-0.7
		c-0.4-0.4-0.7-1-0.7-1.6c0-0.8,0.3-1.4,1-2c0.7-0.5,1.5-0.8,2.6-0.8c0.3,0,0.6,0.1,1,0.2c0-1.2-0.6-1.9-1.7-1.9
		c-0.8,0-1.5,0.5-1.9,0.9l-0.8-0.9c0,0,0.4-0.3,0.4-0.3c0.6-0.5,1.4-0.9,2.2-0.9c1.1,0,1.9,0.3,2.4,0.8c0.5,0.5,0.8,1.3,0.8,2.4v2.7
		c0,0.1,0,0.2,0,0.3c0,0,0,0,0,0s0,0.9,1,0.6C54.4,16.2,54.4,16.2,54.4,16.2L54.4,16.2z M44.6,16.6c-0.1,0-0.3-0.5-0.4-0.7h-0.2v0
		c-0.5,0.5-1.2,0.7-2.1,0.7c-1,0-1.7-0.3-2.3-1c-0.6-0.7-0.9-1.6-0.9-2.7c0-1.1,0.3-2.1,1-2.9c0.7-0.8,1.5-1.2,2.5-1.2
		c0.8,0,1.4,0.2,1.8,0.6V5.6h1.4v9.7c0.1,1,0.6,1.3,0.6,1.3S45.5,16.6,44.6,16.6L44.6,16.6z M37.1,16.4h-1.4v-1.1
		c-0.2,0.3-0.5,0.6-0.9,0.8c-0.5,0.3-0.9,0.4-1.3,0.4c-0.8,0-1.5-0.2-1.9-0.7c-0.4-0.5-0.7-1.2-0.7-2.1v-5h1.4v4.9
		c0,1.2,0.5,1.8,1.5,1.8c0.4,0,0.9-0.1,1.2-0.4c0.4-0.3,0.6-0.6,0.7-0.9V8.8h1.4V16.4L37.1,16.4z M28.3,15.5
		c-0.7,0.7-1.5,1.1-2.7,1.1c-1.1,0-2-0.4-2.7-1.1c-0.6-0.7-1-1.7-1-2.9c0-1.2,0.3-2.1,1-2.9c0.7-0.7,1.5-1.1,2.6-1.1
		c1.2,0,2,0.3,2.7,1c0.6,0.7,1,1.7,1,2.9C29.3,13.8,28.9,14.8,28.3,15.5L28.3,15.5z M21.3,16.6c-1.8,0.2-2.6,0.4-2.6-2.3V5.6h1.4V14
		c0,0.4-0.1,0.9,0.2,1.2c0.2,0.2,0.7,0.3,1.1,0.3V16.6L21.3,16.6z M17.3,15.5c-0.7,0.7-1.5,1.1-2.7,1.1c-1.1,0-2-0.4-2.7-1.1
		c-0.6-0.7-1-1.7-1-2.9c0-1.2,0.3-2.1,1-2.9c0.7-0.7,1.5-1.1,2.6-1.1c1.2,0,2,0.3,2.7,1c0,0,0.1,0.1,0.1,0.1l-1,0.9l0,0
		C16,10,15.4,9.7,14.6,9.7c-0.7,0-1.2,0.3-1.6,0.8c-0.4,0.5-0.6,1.2-0.6,2.1c0,1.9,0.7,2.9,2.1,2.9c0.7,0,1.2-0.3,1.6-0.8
		c0.1-0.1,0.2-0.3,0.3-0.4l1.2,0.8C17.5,15.2,17.4,15.4,17.3,15.5L17.3,15.5z M11.1,0C5,0,0,4.8,0,10.6v10.6h71.8
		c6.1,0,11.1-4.8,11.1-10.6V0H11.1L11.1,0z"/>
</g>
</svg>
