<svg xmlns="http://www.w3.org/2000/svg" viewBox="0 0 278.4 72.84"><defs><style>.cls-1{fill:#fff;}</style></defs><title>Fairsail</title><g id="Layer_2" data-name="Layer 2"><g id="Layer_1-2" data-name="Layer 1"><path class="cls-1" d="M95,70.81l-4.43-7.55a1.38,1.38,0,0,0-1.27-.64L2,71.3v-.07L87.45,59.42c.84-.12.4-.84.4-.84l-5.21-8.69a1.14,1.14,0,0,0-1.25-.5L2,70.94l0-.07L79.72,46.33a.62.62,0,0,0,.37-1L73.78,35a.9.9,0,0,0-1.19-.34L1.77,70.54l0-.06L70.9,31.78a.8.8,0,0,0,.3-1.14l-6.58-11a.7.7,0,0,0-1.08-.19L1.44,70.2l-.06,0L61.82,16.42a1,1,0,0,0,.2-1.28L53.14.33c-.43-.72-.93,0-.93,0L.24,70.95l-.09.14-.08.11c-.14.19-.06.34.17.34H94.6C95.44,71.53,95,70.81,95,70.81Z"/><path class="cls-1" d="M271.7,71.65h6.71V24.44H271.7ZM257.36,30.31a4.25,4.25,0,0,0,4.24,4.18,4.12,4.12,0,0,0,4.17-4.18,4.06,4.06,0,0,0-4.17-4.12,4.2,4.2,0,0,0-4.24,4.12m.89,41.35h6.71V42.78h-6.71Zm-6.66,0V42.78h-6.71v4.74c-1.58-3.68-5.06-5.74-9.87-5.74-7.72,0-13.16,6.11-13.16,15.4,0,9.85,5.19,15.65,13.35,15.65a11.27,11.27,0,0,0,9.68-4.93v3.74Zm-6.52-14.53c0,6.11-3.54,9.85-8.16,9.85-5.06,0-8-3.43-8-9.6s3.1-9.73,8.16-9.73,8,3.43,8,9.48m-49.34,9.29c2.15,4.37,5.88,6.42,11.58,6.42,7.65,0,12-3.62,12-9.23,0-4.18-2.4-6.55-7.53-8.54C207.18,53.26,204,52.82,204,50c0-2,1.64-3.3,4.24-3.3a5,5,0,0,1,4.87,3l4.74-3.24c-1.45-3-4.74-4.74-9.36-4.74-7,0-11.19,3.68-11.19,8.67,0,4.18,2.85,6.42,8.41,8.73,4,1.68,7,1.93,7,4.93,0,2.31-1.77,3.8-4.81,3.8-3.54,0-5.76-1.56-6.58-4.43Zm-13.3-19V42.72h-6.7V71.65h6.7V59c0-7.8,1.52-11.47,6.26-11.47a6.89,6.89,0,0,1,4.11,1.18l2.4-5.61a12.31,12.31,0,0,0-5.5-1.31c-3.54,0-5.82,1.81-7.27,5.61M161.62,30.31a4.25,4.25,0,0,0,4.24,4.18A4.12,4.12,0,0,0,170,30.31a4.06,4.06,0,0,0-4.17-4.12,4.2,4.2,0,0,0-4.24,4.12m.88,41.35h6.71V42.78H162.5Zm-5.81,0V42.78H150v4.74c-1.58-3.68-5.06-5.74-9.87-5.74-7.72,0-13.16,6.11-13.16,15.4,0,9.85,5.19,15.65,13.35,15.65A11.26,11.26,0,0,0,150,67.91v3.74Zm-6.51-14.53c0,6.11-3.54,9.85-8.16,9.85-5.06,0-8-3.43-8-9.6s3.1-9.73,8.16-9.73,8,3.43,8,9.48M112,71.65h6.7V48.58h7v-5.8h-7V35.92c0-4.43,1.14-6.42,4.49-6.42a6.42,6.42,0,0,1,3.29.94v-6a17.7,17.7,0,0,0-4.55-.62c-6.83,0-9.93,3.62-9.93,11.23v7.73h-5.12v5.8H112Z"/></g></g></svg>