<?xml version="1.0" encoding="utf-8"?>
<!-- Generator: Adobe Illustrator 21.0.0, SVG Export Plug-In . SVG Version: 6.00 Build 0)  -->
<svg version="1.1" id="Layer_1" xmlns="http://www.w3.org/2000/svg" xmlns:xlink="http://www.w3.org/1999/xlink" x="0px" y="0px"
	 viewBox="0 0 120.1 13" style="enable-background:new 0 0 120.1 13;" xml:space="preserve">
<style type="text/css">
	.st0{fill:#FFFFFF;}
	.st1{clip-path:url(#SVGID_2_);fill:#FFFFFF;}
</style>
<g>
	<path class="st0" d="M55.7,13c-7.1,0-9.3-1.9-9.3-4.3l0-8.7h4.7v8.2c0,2,2.1,2.5,4.9,2.5c1.9,0,3.3-0.1,4.4-0.2V0H65v12.4
		C63.2,12.7,59.7,13,55.7,13"/>
	<polyline class="st0" points="13.9,12.7 13.9,7.4 4.7,7.4 4.7,12.7 0,12.7 0,0 4.7,0 4.7,5.2 13.9,5.2 13.9,0 18.6,0 18.6,12.7 
		13.9,12.7 	"/>
	<path class="st0" d="M75.7,2.5h12.6V0H74.8c-3.7,0-5,0.7-5,2.6v10.1h4.7l0-5.3h13.9V5.1H74.5l0-1.8C74.5,2.8,74.7,2.5,75.7,2.5"/>
	<path class="st0" d="M98,2.5c-1,0-1.3,0.3-1.3,0.8l0,1.8h13.9v2.2H96.7l0,2c0,0.5,0.3,0.8,1.3,0.8h12.6v2.5H97c-3.7,0-5-0.7-5-2.6
		V2.6C92,0.7,93.3,0,97,0h13.6v2.5H98"/>
	<g>
		<defs>
			<rect id="SVGID_1_" width="120.1" height="13"/>
		</defs>
		<clipPath id="SVGID_2_">
			<use xlink:href="#SVGID_1_"  style="overflow:visible;"/>
		</clipPath>
		<path class="st1" d="M115.4,10.3c0-0.6,0.4-0.9,1.5-0.9h1.9c1.1,0,1.5,0.2,1.5,0.9v1.5c0,0.6-0.4,0.9-1.5,0.9h-1.9
			c-1.1,0-1.5-0.2-1.5-0.9V10.3"/>
		<path class="st1" d="M32.6,4.9c-3,0-5.7,0.3-7.6,0.6c-1.3,0.2-1.9,0.7-1.9,1.9v3.2c0,1.1,0.6,1.7,1.9,1.9c1.9,0.3,4.6,0.6,7.6,0.6
			c3.9,0,7.4-0.3,9.1-0.6V4.2c0-4-1.5-4.2-6.7-4.2H24.5v2.2h10.3c1.9,0,2.1,0.5,2.1,1.7v1H32.6 M32.6,10.9c-1.5,0-2.9-0.1-3.9-0.3
			c-0.7-0.1-1-0.4-1-0.9V8.2c0-0.6,0.3-0.8,1-0.9C29.7,7.1,31.1,7,32.6,7H37v3.7C36.1,10.8,34.3,10.9,32.6,10.9L32.6,10.9L32.6,10.9
			z"/>
	</g>
</g>
</svg>
