<svg id="full_color" data-name="full color" xmlns="http://www.w3.org/2000/svg" viewBox="0 0 504 195.95"><defs><style>.cls-1{fill:#fff;}.cls-2{fill:none;}</style></defs><title>hirevue</title><polygon class="cls-1" points="293.19 58.74 298.95 76.48 317.6 76.48 302.51 87.44 308.27 105.18 293.19 94.21 278.1 105.18 283.86 87.44 268.78 76.48 287.43 76.48 293.19 58.74"/><path class="cls-1" d="M448.82,74.63c8-8.31,16.57-17.29,27.14-23.21,1.94-1.08,3-1.49,2.52-3.92-.58-3.24-2.65-3.94-5.66-2.65-5.91,2.53-11.26,6.2-16.29,9.78-22.46,16-39.3,37.27-54.45,59.09-7.43,10.72-12.82,21.93-18.76,33.46-3.25,6.31-5.07,12.71-7.94,19.19-.77,1.74-2.09,6.6-3.64,7.28-2.49,1.09-2.49-4-2.69-5.31A105.74,105.74,0,0,1,371.2,127a352.18,352.18,0,0,1,12.42-38.49c3.55-9.39,10.21-22.53,1.79-32.08-8-9.08-25.27-6-35.7-3.85a123.75,123.75,0,0,0-21.29,6.28c-5.19,2.07-11.7,6-12.72,11.34-.47,2.46,1.56,2.12,3.67,1.53,4-1.11,7.88-2.37,11.93-3.3a111.84,111.84,0,0,1,22.39-3c4.33-.11,10.43-.49,14.09,2.17,3.42,2.48,3.71,6.73,3.42,10.17-.55,6.47-3.28,12.64-5.16,18.83Q363,106.71,360.56,117c-3.3,14.14-4.92,28.35-3.53,42.93,1.05,11.1,3.47,22.37,10.29,32,1.47,2.09,2.79,4.25,4.23,6.36s3.53,5.48,6,6.46c4.26,1.67,4.53-6.38,5.21-8.73a326,326,0,0,1,12.42-34.66c10.51-25.48,23.3-50.2,40.72-72,4.07-5.08,8.35-10,12.9-14.74Z" transform="translate(-31.46 -43.76)"/><path class="cls-1" d="M172.23,121.45c8.31-.73,14.52-17.13,3.73-14.36C170.74,108.46,165.88,122,172.23,121.45Z" transform="translate(-31.46 -43.76)"/><path class="cls-1" d="M294.6,131a183,183,0,0,1-21.77,23.95c-4.94,4.48-16.7,16.32-24.12,8.72a10.53,10.53,0,0,1-2.72-5,20.07,20.07,0,0,1-.45-3.66s3-1.67,3.91-2.23c4.44-2.69,9-5.28,13.29-8.14a64.33,64.33,0,0,0,19.14-20.53c3.37-5.71,8.34-16.57-1.79-19.91-8.32-2.72-17.25,1.64-23.19,6.17a68.33,68.33,0,0,0-20,24.37c-4.53,9.31-6.55,22.15-6.55,22.15a74.76,74.76,0,0,1-7.32,4.74c-2.11,1-7.35,3.85-8.53,1.43-1.56-3.2.6-9.19,1.4-12.51,2.39-10,5.62-20.21,11.43-29.3.74-1.15,3.06-3.33,2.18-4.66s-5.07-1.1-6.6-1.12a74.71,74.71,0,0,0-8.83.46c-1.73.17-5.74,1.37-7.37.8-4.1-1.76,4.72-9.73,4.42-12.36s-6.54-5.73-8.16-2.67c-2,3.83-2.94,7.37-4.94,11.19-5.2,9.92-7.21,12.78-12.43,23-2.25,4.39-11.76,19.79-14.55,23.52-.83,1.09-7.18,9.07-8.52,8-.44-.34-.31-1.34-.05-3,.36-2.29.71-4.45,1.2-6.74,1-4.67,3.37-11.57,4.83-16.19,1-3.32,2.88-6.93,3.36-10.3.31-2.17-2.41-9.23-5.74-5.32-2.71,3.2-4.26,8-5.95,11.54-4.34,9.21-9.84,21.84-9.38,31.53.21,4.48,1.55,8.86,4.94,12.14,3.86,3.74,6-.27,9.26-3.18,10.55-9.43,26-33.51,33.05-49.67.85-1.94,2.38-4.83,4.51-6,1.38-.8,9.94-2.07,11.11-1s-1.77,4.15-3.5,7.17a111.74,111.74,0,0,0-5.37,10.2,86.5,86.5,0,0,0-6.3,20.54c-1,5.59-1.92,12.22.68,17.42,2.78,5.54,8.44,3.15,13.17.18,6.09-3.84,12.21-8.71,18.33-12.47,1.15,7.11,6.3,12.94,15.4,12.69,8.48-.23,15.84-5.06,21.56-10,6.88-5.92,12.87-12.85,18.41-19.64,2.76-3.38,5.5-6.77,8.08-10.24,1.05-1.41,2.56-3.18,2.72-4.93.13-1.4-.71-3-2.29-1.23C292.1,134.22,295.59,129.85,294.6,131Zm-17.62-23c7.68.94-6.7,18.21-8.3,20.11a117.31,117.31,0,0,1-10.92,10.79c-1.75,1.53-4.77,3.85-5.46,4.41a42.8,42.8,0,0,1-6.5,4.15c.2-5.69,8.5-21.36,10.38-23.82A61.72,61.72,0,0,1,266,113.23c2.6-2.17,6.82-5.81,11-5.31Z" transform="translate(-31.46 -43.76)"/><path class="cls-1" d="M159.12,44.79a8.63,8.63,0,0,0-.94,1.58c-.52,1.13-1,2.29-1.43,3.45-1.4,3.56-2.71,7.16-4,10.78l.38-1.1q-10.66,29.68-20,59.83c-1.74,5.61-5.58,18.51-5.81,19.36-11.5,1.39-23,3.14-34.29,5.54,2.29-10.59,4.52-21.19,6.81-31.78,2.34-10.83,5.09-21.56,7.33-32.41.62-3,1.19-5.95,1.68-8.94s1.34-6,.9-9c-.37-2.53-2.36-2.27-4.26,0a10.41,10.41,0,0,0-1.81,3.84c-.93,2.46-1.67,4.89-2.53,7.37-1.9,5.5-3.69,11-5.51,16.56-4.07,12.34-7.9,24.75-11.61,37.21q-3.06,10.27-6,20.59c-5.82,1.41-11.61,3-17.35,4.72-2.73.81-5.45,1.63-8.16,2.5l-3.74,1.24c-.43.14-8.36,2.87-11.13,4.35a46.16,46.16,0,0,0-4.11,2.44c-.92.62-2.29,1.51-2.16,2.81.2,2.08,3.67,3.32,5.28,3.82a17.83,17.83,0,0,0,9.66.13c5.6-1.38,18.41-5.68,27.92-8.45-1.75,6.37-3.16,12.82-4.77,19.22-1.65,6.57-3.41,13.12-5,19.7s-3,13.24-4.37,19.9a69.21,69.21,0,0,0-1.22,8.18c-.15,1.84-.19,3.53,1,5.09A19,19,0,0,0,68,238.94c1.61.64,4.55,1.6,5.43-.61,4.17-18.11,7.29-36.47,11.12-54.65,1.22-5.8,4.81-22.31,5.84-27.08,11.34-3.13,22.81-5.82,34.28-8.42q-4.23,14.79-8,29.72-1.4,5.53-2.68,11.1c-.64,2.81-1.17,5.62-1.68,8.46-.39,2.19-1,4.66.06,6.76s9.42,10.36,11.3,6.07c1.63-6,3-12,4.46-18,2.59-10.41,5.1-20.84,7.72-31.25,1.35-5.39,2.72-10.78,4.07-16.17,2.17-.44,4.33-.85,6.52-1.15,1-.14,2.08-.24,3.11-.39a1.61,1.61,0,0,0,1.53-1.12c.36-1.77-3.31-2.86-4.4-3.17a26.18,26.18,0,0,0-5.07-.9h0c2.85-10.76,5.49-21.58,8.23-32.37,0,.11,9.37-35.1,13.62-52.93.56-2.34,2.31-7.41-.73-8.78A3.36,3.36,0,0,0,159.12,44.79Z" transform="translate(-31.46 -43.76)"/><path class="cls-2" d="M491.87,160.36a84.61,84.61,0,0,0,17.36-14.53c3-3.47,6.14-7.21,8.07-11.44.66-1.46,1.5-3.54.67-5.1-1.44-2.69-5.83-1.5-7.92-.5a40.41,40.41,0,0,0-10.13,7.52,36.48,36.48,0,0,0-5.73,6.85,76,76,0,0,0-5,9.44c-1.48,3.34-2.92,6.95-3.18,10.63,0,0,5.43-2.58,5.86-2.86C493.69,159.17,491.44,160.64,491.87,160.36Z" transform="translate(-31.46 -43.76)"/><path class="cls-1" d="M535.24,155a3.59,3.59,0,0,0-.23-.67c-.93-1.55-2.49.56-3.11,1.32-1.59,1.93-3.29,3.78-5,5.6a145.22,145.22,0,0,1-11.74,11.38A90.13,90.13,0,0,1,502.54,182c-3.93,2.32-8.83,3.44-12.72.41-3.49-2.72-4.88-7.42-4.73-11.71a79.62,79.62,0,0,0,22-10.76,57.25,57.25,0,0,0,10.69-10.1c3.16-3.79,6.07-8.17,7-13.1.78-4.25-.37-8.3-3.9-11s-8.44-3.48-12.84-2.93c-10,1.23-18.37,9.08-24.48,16.55A71.89,71.89,0,0,0,474,154.7c-1.94,4.16-3.8,9.19-3.45,13.87a34.48,34.48,0,0,1-5.17,1.51c-1.25.28-6.75,1.87-7.39.2-.73-1.47.28-4.22.61-5.72.5-2.35,1.26-4.63,1.79-7a110.19,110.19,0,0,1,4.69-15.53c1.59-4.08,4.89-8,3.48-12.56-.79-2.59-3.26-7.64-6.62-5.19-1.67,1.22-2.64,3.27-3.43,5.12-1,2.25-2,4.48-3,6.68-1.95,4-4.33,7.73-6.59,11.52a123.9,123.9,0,0,1-8.6,12.87q-2.32,3-4.88,5.77a24.83,24.83,0,0,1-4.66,4.46c-4.13,2.6-4.08-4.49-4-6.87a66.18,66.18,0,0,1,2.47-14.6A114.29,114.29,0,0,1,434,135.12c.79-2,1.65-3.9,2.63-5.78.81-1.53,1.8-2.93,2-4.71.29-3.25-3.74-10.35-7.62-7-1.37,1.17-2,3.48-2.82,5-1.23,2.43-2.46,4.86-3.66,7.31-4.53,9.21-9,18.74-11,28.88-1.69,8.69,1.79,18.75,10.38,22.29a5.46,5.46,0,0,0,5.41-.39,25.44,25.44,0,0,0,4.71-4.38c3.2-3.39,6.18-7,9.27-10.5.41-.46,3.34-4.22,3.83-3.81s-.26,2.14-.35,2.58c-.29,1.33-.53,2.68-.74,4a35.46,35.46,0,0,0-.56,6.84c.1,3,.95,8.63,4.45,9.58a6.38,6.38,0,0,0,3.71-.52,54.14,54.14,0,0,0,6.25-2.94c3.79-1.88,7.57-3.79,11.38-5.63a26.42,26.42,0,0,0,5.34,13.22c3.74,4.49,9.26,5.69,14.89,4.86,6.31-.93,11.95-4.32,16.89-8.21a124.85,124.85,0,0,0,14.74-14.28c2.76-3,5.33-6.2,8.05-9.24,1.73-1.94,4.57-4.39,4.1-7.3C535.28,155.11,535.73,158,535.24,155Zm-39.4-14.28a49.9,49.9,0,0,1,8.29-8.08c2.55-2,5.43-4.2,8.67-4.84,1.73-.34,4.47-.26,5.28,1.68.56,1.35,0,3-.51,4.27-1.53,3.75-4.19,7.09-6.75,10.19a75,75,0,0,1-10.24,10,58.53,58.53,0,0,1-9.32,6.67c-1.71.91-3.5,1.7-5.25,2.54.54-7.68,8-20.25,9.83-22.47C498.58,137.38,494,143,495.84,140.75Z" transform="translate(-31.46 -43.76)"/></svg>