<?xml version="1.0" encoding="utf-8"?>
<!-- Generator: Adobe Illustrator 21.0.0, SVG Export Plug-In . SVG Version: 6.00 Build 0)  -->
<svg version="1.1" id="Layer_1" xmlns="http://www.w3.org/2000/svg" xmlns:xlink="http://www.w3.org/1999/xlink" x="0px" y="0px"
	 viewBox="0 0 80.5 30" style="enable-background:new 0 0 80.5 30;" xml:space="preserve">
<style type="text/css">
	.st0{fill:#FFFFFF;}
</style>
<g>
	<path class="st0" d="M77.7,28.6c0-0.8,0.6-1.4,1.4-1.4c0.8,0,1.4,0.6,1.4,1.4c0,0.8-0.6,1.4-1.4,1.4C78.4,30,77.7,29.3,77.7,28.6z
		 M80.3,28.6c0-0.7-0.5-1.2-1.2-1.2c-0.7,0-1.2,0.5-1.2,1.2c0,0.7,0.5,1.2,1.2,1.2C79.8,29.8,80.3,29.3,80.3,28.6z M79.8,29.3h-0.2
		l-0.4-0.7h-0.3v0.7h-0.2v-1.6h0.7c0.4,0,0.5,0.2,0.5,0.4c0,0.3-0.2,0.4-0.5,0.4L79.8,29.3z M79.1,28.5c0.2,0,0.5,0,0.5-0.3
		c0-0.2-0.2-0.3-0.4-0.3h-0.4v0.6H79.1z"/>
	<g>
		<rect class="st0" width="14.6" height="1.9"/>
		<rect y="4" class="st0" width="14.6" height="1.9"/>
		<rect y="24" class="st0" width="14.6" height="1.9"/>
		<rect x="4.2" y="20" class="st0" width="6.3" height="1.9"/>
		<rect x="4.2" y="16" class="st0" width="6.3" height="1.9"/>
		<rect x="4.2" y="12" class="st0" width="6.3" height="1.9"/>
		<rect x="4.2" y="8" class="st0" width="6.3" height="1.9"/>
		<rect y="28" class="st0" width="14.6" height="1.9"/>
		<rect x="46.2" y="20" class="st0" width="6.3" height="1.9"/>
		<polygon class="st0" points="55.8,21.9 61.8,21.9 62.5,20 55.2,20 		"/>
		<rect x="46.2" y="16" class="st0" width="6.3" height="1.9"/>
		<polygon class="st0" points="54.4,17.9 63.2,17.9 63.8,16 53.8,16 		"/>
		<polygon class="st0" points="57.9,12 46.2,12 46.2,13.9 52.5,13.9 52.5,12.3 53.1,13.9 58.6,13.9 		"/>
		<polygon class="st0" points="59.7,12 59,13.9 64.6,13.9 65.1,12.3 65.1,13.9 71.4,13.9 71.4,12 		"/>
		<polygon class="st0" points="56.6,8 46.2,8 46.2,9.9 57.2,9.9 		"/>
		<rect x="65.1" y="20" class="st0" width="6.3" height="1.9"/>
		<rect x="65.1" y="16" class="st0" width="6.3" height="1.9"/>
		<polygon class="st0" points="61,8 60.4,9.9 71.4,9.9 71.4,8 		"/>
		<rect x="65.1" y="28" class="st0" width="10.5" height="1.9"/>
		<rect x="42.1" y="28" class="st0" width="10.5" height="1.9"/>
		<polygon class="st0" points="58.6,29.9 59.1,29.9 59.7,28 57.9,28 		"/>
		<rect x="65.1" y="24" class="st0" width="10.5" height="1.9"/>
		<rect x="42.1" y="24" class="st0" width="10.5" height="1.9"/>
		<polygon class="st0" points="57.2,25.9 60.4,25.9 61.1,24 56.5,24 		"/>
		<polygon class="st0" points="63.7,0 63.1,1.9 75.6,1.9 75.6,0 		"/>
		<polygon class="st0" points="53.9,0 42.1,0 42.1,1.9 54.5,1.9 		"/>
		<polygon class="st0" points="62.4,4 61.7,5.9 75.6,5.9 75.6,4 		"/>
		<polygon class="st0" points="55.2,4 42.1,4 42.1,5.9 55.9,5.9 		"/>
		<rect x="21" y="8" class="st0" width="6.3" height="1.9"/>
		<rect x="21" y="20" class="st0" width="6.3" height="1.9"/>
		<path class="st0" d="M16.8,1.9h20.6C35.6,0.3,32.8,0,29.9,0h-0.6H16.8V1.9z"/>
		<path class="st0" d="M16.8,4h22.4c0.2,0.4,0.6,1.2,0.7,1.9H16.8V4z"/>
		<path class="st0" d="M21,16h16c0.6,0.4,1.4,1.2,1.9,1.9H21V16z"/>
		<path class="st0" d="M33.6,8h6.6c0,0.7-0.2,1.4-0.3,1.9h-6.3V8z"/>
		<path class="st0" d="M33.6,20h6.3c0.2,0.4,0.3,1.1,0.3,1.9h-6.7V20z"/>
		<path class="st0" d="M16.8,24h23.2c-0.1,0.5-0.6,1.6-0.8,1.9H16.8V24z"/>
		<path class="st0" d="M16.8,28h20.6c-1.8,1.4-4.3,1.9-7.2,1.9h-0.9H16.8V28z"/>
		<path class="st0" d="M21,13.9h16c0.7-0.5,1.3-1.1,1.8-1.9H21V13.9z"/>
	</g>
</g>
</svg>
