<?xml version="1.0" encoding="utf-8"?>
<!-- Generator: Adobe Illustrator 21.0.0, SVG Export Plug-In . SVG Version: 6.00 Build 0)  -->
<svg version="1.1" id="Layer_1" xmlns="http://www.w3.org/2000/svg" xmlns:xlink="http://www.w3.org/1999/xlink" x="0px" y="0px"
	 viewBox="0 0 96.8 21.1" style="enable-background:new 0 0 96.8 21.1;" xml:space="preserve">
<style type="text/css">
	.st0{fill:#FFFFFF;}
</style>
<g>
	<path class="st0" d="M35.8,12.2c0,1.6-0.1,3.3-0.2,4.9C36,17,36.3,17,36.6,17c0.3,0,0.6,0,0.9,0.1c-0.1-1.6-0.1-3.3-0.1-4.9v-1.4
		h0.7c1.6,1.6,4.1,5.1,4.9,6.3c0.4-0.1,0.7-0.1,1.1-0.1c0.4,0,0.8,0,1.1,0.1c-1.1-1.2-4.2-5.3-5.2-6.4c1.4-0.2,3.9-1.2,3.9-3.6
		c0-2.2-1.8-3-3.9-3c-0.7,0-1.4,0.1-2.1,0.1c-0.7,0-1.4,0-2.1-0.1c0.1,1.6,0.2,3.3,0.2,4.9V12.2L35.8,12.2z M37.4,9
		c0-1.4,0.1-2.7,0.1-4.1c0.4,0,1-0.1,1.8-0.1c1.3,0,2.9,0.5,2.9,2.5c0,2.2-2.1,2.9-3.6,2.9c-0.5,0-0.9,0-1.3-0.1V9L37.4,9z"/>
	<path class="st0" d="M44.4,10.6c0,4.3,2.9,6.7,7,6.7c4.2,0,7.1-2.5,7.1-6.7c0-4.3-2.9-6.7-7.1-6.7C47.3,3.9,44.4,6.3,44.4,10.6
		L44.4,10.6z M56.7,10.6c0,4.2-2.3,6-5.2,6c-2.9,0-5.2-1.9-5.2-6c0-4.2,2.3-6,5.2-6C54.4,4.6,56.7,6.4,56.7,10.6L56.7,10.6z"/>
	<path class="st0" d="M70.5,17.3c0-0.8-0.1-5-0.1-6.9c0-1.5,0.2-5.2,0.3-6.3c-0.2,0.1-0.4,0.1-0.6,0.1c-0.2,0-0.4,0-0.6-0.1
		c0.2,2.9,0.2,6.6,0.2,9.9c-2.3-2.3-6.5-6.9-9.5-10.2h-0.3c0.1,0.8,0.1,2.7,0.1,5c0,2.5-0.2,7.3-0.4,8.2c0.2-0.1,0.5-0.1,0.7-0.1
		c0.2,0,0.5,0,0.7,0.1c-0.1-0.8-0.2-4.7-0.2-6.3c0-2,0-3.1,0.1-3.8c3.2,3.4,6.6,7,9.5,10.4H70.5L70.5,17.3z"/>
	<path class="st0" d="M71.5,10.6c0,4.3,2.9,6.7,7,6.7c4.2,0,7.1-2.5,7.1-6.7c0-4.3-2.9-6.7-7.1-6.7C74.4,3.9,71.5,6.3,71.5,10.6
		L71.5,10.6z M83.8,10.6c0,4.2-2.3,6-5.2,6c-2.9,0-5.2-1.9-5.2-6c0-4.2,2.3-6,5.2-6C81.5,4.6,83.8,6.4,83.8,10.6L83.8,10.6z"/>
	<path class="st0" d="M86.3,14.6c-0.1,0.7-0.1,1.1-0.4,1.7c0.7,0.5,1.5,1.1,3.1,1.1c2.9,0,4.6-1.9,4.6-4.2c0-4.2-5.9-2.7-5.9-6.2
		c0-1.4,1-2.3,2.4-2.3c1.4,0,2,1.1,2.2,1.8h0.2c0.2-0.7,0.3-1.2,0.5-1.6c-0.8-0.6-1.6-0.9-2.8-0.9c-2.5,0-4.1,1.5-4.1,3.6
		c0,4.4,5.9,2.9,5.9,6.4c0,1.5-1,2.7-2.7,2.7c-1.6,0-2.6-1.1-3-2H86.3L86.3,14.6z"/>
	<path class="st0" d="M95.3,5.6V5.1h0.2c0,0,0.1,0,0.1,0c0,0,0,0,0.1,0c0,0,0,0,0.1,0.1c0,0,0.1,0.1,0.1,0.2l0.1,0.2h0.2l-0.2-0.3
		c0-0.1-0.1-0.1-0.1-0.1c0,0,0,0-0.1-0.1c0.1,0,0.2,0,0.2-0.1C96,4.9,96,4.9,96,4.8c0-0.1,0-0.1,0-0.2c0,0-0.1-0.1-0.1-0.1
		c-0.1,0-0.1,0-0.2,0h-0.5v1.1H95.3L95.3,5.6z M95.3,4.6h0.3c0.1,0,0.1,0,0.2,0.1c0,0,0.1,0.1,0.1,0.1c0,0,0,0.1,0,0.1
		c0,0,0,0.1-0.1,0.1c0,0-0.1,0-0.2,0h-0.3V4.6L95.3,4.6z"/>
	<path class="st0" d="M0.2,8.6c0,0,8.8,0,9,0c0.2,0,2.6,0.1,3.6-1.3c1-1.4,3.9-5.4,3.9-5.4C16.8,2,16.8,2.1,17,2.2
		c0,0-4.8,6.7-4.8,6.7c-0.9,1.1-2.2,1.4-3.3,1.4c0,0-8.9,0-8.9,0C0,9.8,0.1,9.2,0.2,8.6L0.2,8.6z"/>
	<path class="st0" d="M21.1,10.5c0,2.7-0.9,5.2-2.7,6.9l-3.9-5.4c-0.3-0.5-1-1.3-2.1-1.6c1.1-0.3,1.7-1.1,2.1-1.6l3.9-5.4
		C20.2,5.4,21.1,7.9,21.1,10.5L21.1,10.5z"/>
	<path class="st0" d="M0.9,6.3c0,0,7.7,0,7.7,0c2,0,2.4-0.6,2.9-1.1c0,0,3.1-4.4,3.1-4.4s0.2,0.1,0.4,0.2c0,0-1.8,2.6-4.2,5.8
		c-0.3,0.5-1,1.3-2.4,1.3c0,0-8.3,0-8.3,0C0.5,7.4,0.7,6.8,0.9,6.3L0.9,6.3z"/>
	<path class="st0" d="M2.6,3.6l4.4,0l0,0c0.8,0,1.2-0.7,1.5-1c0,0,1.9-2.6,1.9-2.6C7.7,0,4.8,1.1,2.6,3.6L2.6,3.6z"/>
	<path class="st0" d="M2.2,4.1c0.2,0,5.9,0,5.9,0c1.4,0,2.3-1.1,2.3-1.1l2-2.8l0.5,0.1c0,0-3,4.2-3,4.2c-0.7,1-1.3,1.3-2.2,1.4
		c0,0-6.6,0-6.6,0C1.2,5.5,1.7,4.7,2.2,4.1L2.2,4.1z"/>
	<path class="st0" d="M0.2,12.5c0,0,8.8,0,9,0c0.2,0,2.6-0.1,3.6,1.3c1,1.4,3.9,5.4,3.9,5.4c0.2-0.1,0.2-0.1,0.4-0.3
		c0,0-4.8-6.7-4.8-6.7c-0.9-1.1-2.2-1.4-3.3-1.4c0,0-8.9,0-8.9,0C0,11.3,0.1,11.9,0.2,12.5L0.2,12.5z"/>
	<path class="st0" d="M0.9,14.8c0,0,7.7,0,7.7,0c2,0,2.4,0.6,2.9,1.1c0,0,3.1,4.4,3.1,4.4s0.2-0.1,0.4-0.2c0,0-1.8-2.6-4.2-5.8
		c-0.3-0.5-1-1.3-2.4-1.3c0,0-8.3,0-8.3,0C0.5,13.7,0.7,14.3,0.9,14.8L0.9,14.8z"/>
	<path class="st0" d="M2.6,17.5H7l0,0c0.8,0,1.2,0.7,1.5,1c0,0,1.9,2.6,1.9,2.6C7.7,21.1,4.8,20,2.6,17.5L2.6,17.5z"/>
	<path class="st0" d="M2.2,17c0.2,0,5.9,0,5.9,0c1.4,0,2.3,1.1,2.3,1.1l2,2.8l0.5-0.1c0,0-3-4.2-3-4.2c-0.7-1-1.3-1.3-2.2-1.4
		c-0.1,0-6.6,0-6.6,0C1.3,15.7,1.7,16.4,2.2,17L2.2,17z"/>
	<path class="st0" d="M94.5,5.1C94.5,4.5,95,4,95.5,4c0.6,0,1.1,0.5,1.1,1.1c0,0.6-0.5,1.1-1.1,1.1C95,6.1,94.5,5.7,94.5,5.1
		L94.5,5.1z M94.3,5.1c0,0.7,0.6,1.2,1.2,1.2c0.7,0,1.2-0.6,1.2-1.2c0-0.7-0.6-1.2-1.2-1.2C94.9,3.8,94.3,4.4,94.3,5.1L94.3,5.1z"/>
	<path class="st0" d="M25.6,12.2V9c0-1.6-0.1-3.2-0.1-4.8c0.3,0.1,0.6,0.1,0.9,0.1c0.3,0,0.6,0,0.9-0.1c-0.1,1.6-0.1,3.2-0.1,4.8v1
		c0,0.1,0,0.1,0.1,0.1c0.1,0,0.1,0,0.3-0.2c1.7-1.5,3.9-3.8,5.6-5.8c0.2,0.1,0.5,0.1,0.8,0.1c0.3,0,0.6,0,0.9-0.1
		c-1.7,1.5-4.6,4.3-6,5.8c2,2.3,4.1,4.7,6.2,7C34.6,17,34.3,17,33.9,17c-0.3,0-0.7,0-1,0.1c-1.8-2.2-4.6-5.6-5.4-6.4
		c-0.1-0.1-0.2-0.1-0.2-0.1c-0.1,0-0.1,0.1-0.1,0.1v1.6c0,1.6,0.1,3.2,0.1,4.8C27,17,26.7,17,26.4,17c-0.3,0-0.6,0-0.9,0.1
		C25.6,15.5,25.6,13.8,25.6,12.2L25.6,12.2z"/>
</g>
</svg>
