<?xml version="1.0" encoding="utf-8"?>
<!-- Generator: Adobe Illustrator 21.0.0, SVG Export Plug-In . SVG Version: 6.00 Build 0)  -->
<svg version="1.1" id="Layer_1" xmlns="http://www.w3.org/2000/svg" xmlns:xlink="http://www.w3.org/1999/xlink" x="0px" y="0px"
	 viewBox="0 0 80.2 30.7" style="enable-background:new 0 0 80.2 30.7;" xml:space="preserve">
<style type="text/css">
	.st0{fill:#FFFFFF;}
</style>
<g>
	<path class="st0" d="M39.1,23.5c0.4-2.9,2.6-5,5.4-5c0,0,0,0,0,0c-2.9-0.2-5.4-2.6-5.4-5.5c0-3.4,2.9-6.3,6.3-6.5
		c-3.4-0.2-6.3-3-6.4-6.5c-0.2,3.4-3,6.3-6.4,6.5C36.1,6.7,39,9.6,39,13c0,2.9-2.5,5.3-5.3,5.5c0,0,0.1,0,0.1,0
		C36.6,18.5,38.8,20.7,39.1,23.5L39.1,23.5z"/>
	<path class="st0" d="M2.8,30.6L2.8,30.6C0.8,30.5,0,28.8,0,28.4V15c0-1.4,2-2.7,3.3-2.7v15.4h4.6c1.3,0,2.6,1.6,2.6,2.8H2.8
		L2.8,30.6z M72.1,23.4c0.4-1.4,1.4-2.4,2.7-2.4c1.6,0,2.4,1.1,2.6,2.4H72.1L72.1,23.4z M80.2,24.6c0-3.6-2.2-6.1-5.4-6.1
		c-3.1,0-5.6,2.6-5.6,6.1c0,3.4,2.5,6,5.8,6h2.2c1.2,0,2.3-1.3,2.3-2.5H75c-1.5,0-2.6-0.9-3-2.3h8.1C80.2,25.7,80.2,24.8,80.2,24.6
		L80.2,24.6z M68.9,27c0,2.2-1.9,3.7-4.5,3.7h-0.2c-1.6,0-3.3-0.6-4.6-1.5c0.1-0.5,1.1-2.2,2.7-1.6c0.3,0.1,1.2,0.5,2.3,0.6
		c1.1,0,1.7-0.5,1.7-1.1c0-0.6-0.5-0.9-1.7-1.3c-1-0.3-2-0.6-2.8-1c-1.1-0.7-1.7-1.6-1.7-2.8c0-2.1,1.7-3.7,4.4-3.7
		c1.3,0,2.9,0.4,4.1,1.1L67.6,22c-1.2-0.7-2.4-1.1-3.3-1.1c-1.4,0-1.7,0.6-1.7,1.1c0,0.5,0.5,0.7,2.4,1.3
		C67.1,23.9,68.9,24.5,68.9,27L68.9,27z M59.4,27c0,2.2-1.9,3.7-4.5,3.7h-0.2c-1.6,0-3.3-0.6-4.6-1.5c0.1-0.5,1.1-2.2,2.7-1.6
		c0.3,0.1,1.2,0.5,2.3,0.6c1.1,0,1.7-0.5,1.7-1.1c0-0.6-0.5-0.9-1.7-1.3c-1-0.3-2-0.6-2.8-1c-1.1-0.7-1.7-1.6-1.7-2.8
		c0-2.1,1.7-3.7,4.4-3.7c1.3,0,2.9,0.4,4.1,1.1L58.2,22c-1.2-0.7-2.4-1.1-3.3-1.1c-1.4,0-1.7,0.6-1.7,1.1c0,0.5,0.5,0.7,2.4,1.3
		C57.7,23.9,59.4,24.5,59.4,27L59.4,27z M20.5,18.5v12.2c-0.9,0-1.8-0.3-2.6-0.8c-0.8,0.5-1.8,0.8-2.8,0.8c-2.9,0-5.3-2-5.3-5.1
		l0-4.8c0-1.3,1.4-2.3,2.7-2.3l0,7.1c0,1.2,0.8,2.4,2.1,2.6c0,0,0.1,0,0.5,0c0.4,0,0.5,0,0.5,0c1.3-0.2,2.1-1.4,2.1-2.5v-4.7
		C17.8,19.6,19.2,18.5,20.5,18.5L20.5,18.5z M41.9,23.4c0.4-1.4,1.4-2.4,2.7-2.4c1.6,0,2.4,1.1,2.6,2.4H41.9L41.9,23.4z M44.6,18.5
		c-2.8,0-5.1,2.1-5.5,5c-0.2-2.8-2.4-5-5.4-5c-1.2,0-2.4,0.5-3.2,1.3c-0.8-0.7-2-1.3-3.2-1.3c-1,0-2,0.3-2.8,0.8
		c-0.1-0.1-1.2-0.8-2.6-0.8v12.1h2.8v-7c0-1.2,0.8-2.4,2.1-2.6c1.4,0,2.3,1,2.3,2.7v6.9h2.8h0l0-6.9c0-1.6,0.9-2.7,2.3-2.7
		c1.5,0.2,2.1,1.4,2.1,2.6v7h2.8c0,0,0-2.9,0-4.9c0.5,2.8,2.8,4.9,5.7,4.9h2.2c1.2,0,2.3-1.3,2.3-2.5h-4.5c-1.5,0-2.6-0.9-3-2.3H50
		c0,0,0.1-0.9,0.1-1.1C50.1,21,47.8,18.5,44.6,18.5L44.6,18.5z"/>
</g>
</svg>
