<svg xmlns="http://www.w3.org/2000/svg" xmlns:xlink="http://www.w3.org/1999/xlink" viewBox="0 0 74.24 21.22"><defs><style>.cls-1{fill:none;}.cls-2,.cls-3{fill:#fff;}.cls-2{fill-rule:evenodd;}.cls-4{clip-path:url(#clip-path);}</style><clipPath id="clip-path"><rect class="cls-1" width="74.24" height="21.22"/></clipPath></defs><title>meta4</title><g id="Layer_2" data-name="Layer 2"><g id="sponsor_logos" data-name="sponsor logos"><path class="cls-2" d="M13.92,7.92a7.42,7.42,0,0,0-1.67,1.52V19.68a1.38,1.38,0,0,1-.65,1.11,2.81,2.81,0,0,1-1.48.42A1.44,1.44,0,0,1,9.25,21a.93.93,0,0,1-.32-.8v-11A2,2,0,0,0,8.5,7.67a1.92,1.92,0,0,0-1.42-.42A3.82,3.82,0,0,0,5,7.92,7.5,7.5,0,0,0,3.33,9.45V19.68a1.38,1.38,0,0,1-.65,1.11,2.81,2.81,0,0,1-1.48.42A1.44,1.44,0,0,1,.32,21a.93.93,0,0,1-.32-.8V5.61A1.39,1.39,0,0,1,.67,4.5,2.63,2.63,0,0,1,2,4.09a1.5,1.5,0,0,1,.91.27,1,1,0,0,1,.39.86v1a5.82,5.82,0,0,1,1.95-1.6,5.57,5.57,0,0,1,2.41-.53,4.85,4.85,0,0,1,2.48.63,4,4,0,0,1,1.65,1.86A8.11,8.11,0,0,1,14,4.85a5.57,5.57,0,0,1,2.64-.77,5,5,0,0,1,2.32.53,4,4,0,0,1,1.62,1.6,5.34,5.34,0,0,1,.62,2.63V19.68a1.37,1.37,0,0,1-.66,1.11,2.79,2.79,0,0,1-1.47.42,1.45,1.45,0,0,1-.88-.24.93.93,0,0,1-.32-.8v-11a2,2,0,0,0-.42-1.45A1.89,1.89,0,0,0,16,7.26a3.79,3.79,0,0,0-2.1.67ZM29.75,7.2a3.23,3.23,0,0,0-2.44,1.08,3.67,3.67,0,0,0-1,2.61H33.2a3.67,3.67,0,0,0-1-2.61A3.21,3.21,0,0,0,29.75,7.2ZM26.36,5.08a7.38,7.38,0,0,1,3.84-1,6.38,6.38,0,0,1,2.92.73A6.18,6.18,0,0,1,35.53,7a6.73,6.73,0,0,1,1,3.64v.29a3.07,3.07,0,0,1-.93,2.46,3.67,3.67,0,0,1-2.44.75h-7a5.8,5.8,0,0,0,.68,2,3.93,3.93,0,0,0,1.32,1.42,3.64,3.64,0,0,0,1.93.53,5.05,5.05,0,0,0,2-.38q.79-.36,1.43-.72a2.68,2.68,0,0,1,1.26-.41,1.08,1.08,0,0,1,.91.37,1.53,1.53,0,0,1,.27,1,1.77,1.77,0,0,1-.13.73,2.46,2.46,0,0,1-.34.57,3.8,3.8,0,0,1-1.3,1.06,7.94,7.94,0,0,1-1.92.72,9,9,0,0,1-2.13.26A7.09,7.09,0,0,1,25.94,20a6.91,6.91,0,0,1-2.41-3,10.38,10.38,0,0,1-.8-4.09,11,11,0,0,1,1-4.86,6.77,6.77,0,0,1,2.63-2.94ZM39.66.42A2.58,2.58,0,0,1,41,0a1.53,1.53,0,0,1,.91.27,1.05,1.05,0,0,1,.39.87V4.33h3.1a.87.87,0,0,1,.63.35,1.45,1.45,0,0,1,.25.85,2.23,2.23,0,0,1-.47,1.32,1.56,1.56,0,0,1-1.17.65H42.31v9a1.73,1.73,0,0,0,.34,1.19,1.56,1.56,0,0,0,1.16.37h.7a1,1,0,0,1,.84.34,1.44,1.44,0,0,1,.23.83A2,2,0,0,1,45,20.55a2.28,2.28,0,0,1-1.71.67,4.35,4.35,0,0,1-3.09-1.11A4.61,4.61,0,0,1,39,16.65V7.5H37.74A.87.87,0,0,1,37,7.14a1.52,1.52,0,0,1-.23-.85A2.35,2.35,0,0,1,37.17,5a1.36,1.36,0,0,1,1.09-.65H39V1.53A1.39,1.39,0,0,1,39.66.42ZM47.41,6a1.21,1.21,0,0,1,.53-.55,10,10,0,0,1,2.37-.94,11.48,11.48,0,0,1,2.93-.39,7.2,7.2,0,0,1,4.69,1.43,5,5,0,0,1,1.72,4V19.76a1.3,1.3,0,0,1-.63,1,2.39,2.39,0,0,1-1.3.41,1.5,1.5,0,0,1-.82-.23,1,1,0,0,1-.45-.75l-.13-.86a7.33,7.33,0,0,1-2.27,1.37,7.22,7.22,0,0,1-2.52.47,5.37,5.37,0,0,1-2.39-.53A4.28,4.28,0,0,1,47.38,19a5.75,5.75,0,0,1-.7-2.93,5.82,5.82,0,0,1,.78-3.14,4.34,4.34,0,0,1,2.1-1.74,8.53,8.53,0,0,1,3.09-.52q.84,0,1.78.09t1.91.28V9.7a2.15,2.15,0,0,0-.94-1.81,3.83,3.83,0,0,0-2.23-.63,7.09,7.09,0,0,0-2.1.29,14.63,14.63,0,0,0-1.4.57,2.73,2.73,0,0,1-1,.31,1.4,1.4,0,0,1-1-.52,1.85,1.85,0,0,1-.44-1.17A1.76,1.76,0,0,1,47.41,6ZM51.88,18a6.47,6.47,0,0,0,2.27-.4,12.59,12.59,0,0,0,2.18-1.06V13.86H52.7a2.88,2.88,0,0,0-2.06.68A2,2,0,0,0,50,16a2.24,2.24,0,0,0,.41,1.38,1.74,1.74,0,0,0,1.46.62Z"/><path class="cls-3" d="M68.19,12.35a1.16,1.16,0,0,0,.39-.06,1.23,1.23,0,0,1-.39.06Z"/><polygon class="cls-3" points="65.06 10.41 66.2 8.44 66.2 10.41 66.21 10.41 66.21 8.41 65.05 10.41 65.06 10.41 65.06 10.41"/><path class="cls-3" d="M66.21,13.38v-1H63.59a1.12,1.12,0,0,1-.89-.36l0,.06a1.15,1.15,0,0,0,.84.32H66.2v1a1.11,1.11,0,0,0,.26.79,1,1,0,0,0,.72.27l.27,0-.25,0c-.61,0-1-.36-1-1.07Z"/><g class="cls-4"><polygon class="cls-3" points="65.06 10.41 66.2 10.41 66.2 8.44 65.06 10.41 65.06 10.41"/><path class="cls-3" d="M68.58,12.29a1.16,1.16,0,0,1-.39.06v1c0,.61-.26,1-.75,1.05l-.27,0a1,1,0,0,1-.72-.27,1.11,1.11,0,0,1-.26-.79v-1H63.6a1.15,1.15,0,0,1-.84-.32l0-.06a1.08,1.08,0,0,1-.25-.71,1.27,1.27,0,0,1,.24-.74L65.59,5.9a1.5,1.5,0,0,1,1.32-.8,1.26,1.26,0,0,1,1.27,1.37v3.94c.62,0,.93.32.93,1a.83.83,0,0,1-.54.89ZM74,4.51a1,1,0,0,0-.56-.13H73.2l-10.73,0a.93.93,0,0,0-1,.54,1.52,1.52,0,0,0-.08.5v11c0,.07,0,.15,0,.22v0a.41.41,0,0,0,.24.36,1.08,1.08,0,0,0,.57.06h.17a12.14,12.14,0,0,0,3.9-1,13.64,13.64,0,0,0,4.1-2.94,14.05,14.05,0,0,0,2-2.51A11.45,11.45,0,0,0,73.22,9a11.73,11.73,0,0,0,1-3.49l0-.19c0-.08,0-.16,0-.24s0-.15,0-.22v0a.39.39,0,0,0-.2-.37Z"/></g></g></g></svg>