<svg xmlns="http://www.w3.org/2000/svg" xmlns:xlink="http://www.w3.org/1999/xlink" viewBox="0 0 44.22 44.22"><defs><style>.cls-1{fill:none;}.cls-2{clip-path:url(#clip-path);}.cls-3{fill:#fff;}</style><clipPath id="clip-path" transform="translate(-2.66 -2.66)"><rect class="cls-1" width="49.55" height="49.55"/></clipPath></defs><title>MHR</title><g id="Layer_2" data-name="Layer 2"><g id="sponsor_logos" data-name="sponsor logos"><g class="cls-2"><g class="cls-2"><path class="cls-3" d="M39.22,35.4H35.33V32.49h3.89c1.65,0,2.48.24,2.48,1.45s-.84,1.46-2.48,1.46m7.66,11.48H2.66V2.66H46.88ZM18.25,30.82H15.59l-2.15,5-1.13,2.63-1.1-2.62-2.12-5H6.38V41.14H8.17V33.31h0l1.08,2.54,2.25,5.29h1.6l2.24-5.29,1.07-2.53h0v7.82h1.79V30.82Zm13,0h-2V34.9H22.36V30.82h-2V41.14h2V36.69h6.84v4.44h2V30.82ZM43.88,41.14,39.77,37l1.06-.07a3.07,3.07,0,0,0,2.24-1.09,3,3,0,0,0,.64-2c0-2.53-1.76-3.08-4.2-3.08h-6.2V41.14h2V37.08h2l4,4.06Z" transform="translate(-2.66 -2.66)"/></g></g></g></g></svg>