<svg xmlns="http://www.w3.org/2000/svg" viewBox="0 0 104.43 17.2"><defs><style>.cls-1{fill:#fff;}</style></defs><title>Monster</title><g id="Layer_2" data-name="Layer 2"><g id="sponsor_logos" data-name="sponsor logos"><path class="cls-1" d="M57.83,17.2a6.88,6.88,0,0,1-5.06-2l1.77-2.51A5,5,0,0,0,57.72,14c1.12,0,1.45-.54,1.45-1s-.34-.84-1.52-1.29l-1-.39a4.24,4.24,0,0,1-3.15-4.05c0-2.44,2-4.3,4.74-4.3a6.23,6.23,0,0,1,4.06,1.34L60.6,6.94a4.45,4.45,0,0,0-2.31-.74c-1,0-1.41.41-1.41.91,0,.65.57.92,1.6,1.3l.94.35a4.45,4.45,0,0,1,3.22,4.07c0,2.49-2,4.37-4.82,4.37ZM26.7,3a7.09,7.09,0,1,0,7.16,7.09A7.1,7.1,0,0,0,26.7,3Zm3.73,7.09A3.73,3.73,0,1,1,26.7,6.34a3.72,3.72,0,0,1,3.73,3.77ZM15.76,17H12.26V8.44L7.88,12.83,3.51,8.44V17H0V0L7.88,7.9,15.76,0V17ZM95,7.46h2.1a1.71,1.71,0,1,0,0-3.4H95v3.4ZM104.43,17h-4.19l-5-6.4H95V17H91.53V.8h5.09c3.93,0,5.75,2.58,5.75,4.89a4.76,4.76,0,0,1-3.26,4.58L104.43,17ZM87.32,17H78.6V3.23h8.63V6.43H82V8.51h4.16v3.13H82V13.8h5.3V17Zm-15.5,0H68.34V6.43H65.17V3.23H75V6.43H71.82V17Zm-22.34.19-8.48-7V17H37.64V3l8.48,7V3.23h3.37v14Z"/></g></g></svg>