<?xml version="1.0" encoding="utf-8"?>
<!-- Generator: Adobe Illustrator 21.1.0, SVG Export Plug-In . SVG Version: 6.00 Build 0)  -->
<!DOCTYPE svg PUBLIC "-//W3C//DTD SVG 1.1//EN" "http://www.w3.org/Graphics/SVG/1.1/DTD/svg11.dtd">
<svg version="1.1" id="Layer_1" xmlns="http://www.w3.org/2000/svg" xmlns:xlink="http://www.w3.org/1999/xlink" x="0px" y="0px"
	 width="105.5px" height="37.4px" viewBox="0 0 105.5 37.4" style="enable-background:new 0 0 105.5 37.4;" xml:space="preserve">
<style type="text/css">
	.st0{fill:#FFFFFF;}
</style>
<g>
	<path class="st0" d="M44.2,21h6.7l-3.5-5.7l-6.5,10.3l-3,0l7.9-12.4c0.3-0.5,0.9-0.8,1.5-0.8c0.6,0,1.2,0.3,1.5,0.8l7.9,12.4l-3,0
		l-1.4-2.3h-6.8L44.2,21z M74.9,23.3V12.5h-2.5v11.8c0,0.3,0.1,0.6,0.4,0.9c0.2,0.2,0.6,0.4,0.9,0.4h11.4l1.5-2.3H74.9z M33.4,21.4
		c2.4,0,4.4-2,4.4-4.4c0-2.4-2-4.4-4.4-4.4h-11v13h2.5V14.8h8.3c1.2,0,2.1,0.9,2.1,2.1c0,1.2-0.9,2.1-2.1,2.1l-7.1,0l7.5,6.5h3.6
		l-5-4.2L33.4,21.4z M7,25.6c-3.6,0-6.5-2.9-6.5-6.5c0-3.6,2.9-6.5,6.5-6.5h7.6c3.6,0,6.5,2.9,6.5,6.5c0,3.6-2.9,6.5-6.5,6.5L7,25.6
		z M14.4,23.3c2.3,0,4.2-1.9,4.2-4.2c0-2.3-1.9-4.2-4.2-4.2H7.2c-2.3,0-4.2,1.9-4.2,4.2c0,2.3,1.9,4.2,4.2,4.2H14.4z M62,25.6
		c-3.6,0-6.5-2.9-6.5-6.5c0-3.6,2.9-6.5,6.5-6.5h9l-1.5,2.3h-7.4c-2.3,0-4.2,1.9-4.2,4.2c0,2.3,1.9,4.2,4.2,4.2h9l-1.5,2.3H62z
		 M92.7,23.3c-1.9,0-3.6-1.3-4.1-3.1h10.7l1.5-2.3H88.7c0.5-1.8,2.1-3.1,4.1-3.1h7.4l1.5-2.3h-9c-3.6,0-6.5,2.9-6.5,6.5
		c0,3.6,2.9,6.5,6.5,6.5h7.7l1.5-2.3H92.7z"/>
	<path class="st0" d="M102.9,13.9c0-0.6,0.5-1.2,1.2-1.2c0.6,0,1.1,0.5,1.1,1.2c0,0.6-0.5,1.1-1.1,1.1
		C103.4,15.1,102.9,14.6,102.9,13.9z M104.1,15.4c0.8,0,1.5-0.7,1.5-1.5c0-0.8-0.7-1.5-1.5-1.5c-0.8,0-1.5,0.7-1.5,1.5
		C102.6,14.7,103.2,15.4,104.1,15.4z M103.9,13.1c0.2,0,0.3,0,0.4,0c0.3,0.1,0.3,0.4,0.3,0.5c0,0,0,0.1,0,0.1c0,0.1-0.1,0.2-0.2,0.3
		c0,0,0,0-0.1,0l0.4,0.7h-0.4l-0.3-0.6h-0.2v0.6h-0.3v-1.6H103.9z M104,13.8c0.1,0,0.2,0,0.3-0.1c0,0,0-0.1,0-0.1
		c0-0.1,0-0.2-0.1-0.2c-0.1,0-0.1,0-0.3,0h-0.1v0.5H104z"/>
</g>
</svg>
