<svg xmlns="http://www.w3.org/2000/svg" xmlns:xlink="http://www.w3.org/1999/xlink" viewBox="0 0 82 30.02"><defs><style>.cls-1{fill:none;}.cls-2{clip-path:url(#clip-path);}.cls-3{fill:#fff;}</style><clipPath id="clip-path"><rect class="cls-1" width="81.99" height="30.02"/></clipPath></defs><title>People doc</title><g id="Layer_2" data-name="Layer 2"><g id="sponsor_logos" data-name="sponsor logos"><g class="cls-2"><path class="cls-3" d="M63.33,18a4.69,4.69,0,0,1-3.52-2,6.31,6.31,0,0,1-1.36-3.66c0-.65,0-1.38,0-2.1,0-1.39,0-2.69,0-3.19s.28-1,1.18-2c.54-.56,1.27-1.26,2.06-1.95l.7-.62C64.25.87,65.19.07,66.1,0,67.66,0,70,0,70.83,0c3.51.22,5.62,2.34,5.65,5.68,0,.26,0,.55,0,.84s0,.48,0,.69H74.24c0-.23,0-.49,0-.74s0-.54,0-.76c0-2.17-1.22-3.35-3.58-3.49-.65,0-2.87-.06-4.44,0a17.28,17.28,0,0,0-2.41,1.94l-.71.63a20.57,20.57,0,0,0-2.48,2.45c0,.63,0,1.78,0,3,0,.72,0,1.45,0,2.09,0,1.41,1.41,3.45,2.73,3.48L63.33,18Z"/></g><path class="cls-3" d="M60.14,7.84c3-3.59,3.25-3.82,6-7.19V7.84Z"/><path class="cls-3" d="M2,12.25a3.14,3.14,0,0,0,.83,2.25,2.69,2.69,0,0,0,2,.88,2.88,2.88,0,0,0,2.08-.87,3,3,0,0,0,.89-2.25A3.2,3.2,0,0,0,6.95,10,2.77,2.77,0,0,0,4.87,9a2.66,2.66,0,0,0-2,.91A3.27,3.27,0,0,0,2,12.25Zm3.17-5A4.58,4.58,0,0,1,8.47,8.61a4.75,4.75,0,0,1,1.38,3.56,5,5,0,0,1-1.37,3.62,4.32,4.32,0,0,1-3.18,1.39A4.33,4.33,0,0,1,2,15.59v5H0V7.41H2V9.1A3.6,3.6,0,0,1,5.16,7.27Z"/><path class="cls-3" d="M12.12,12.28a2.31,2.31,0,0,0,0,.34l5.34-2.3a2.25,2.25,0,0,0-2.19-1.19,3.3,3.3,0,0,0-2.18.83,2.87,2.87,0,0,0-1,2.32Zm3.06-5a4.92,4.92,0,0,1,3.28,1.09,3.6,3.6,0,0,1,1.32,2.85l0,0-7,2.95a3.12,3.12,0,0,0,2.56,1.16A3.32,3.32,0,0,0,18,14.09l1.19,1.32a5.46,5.46,0,0,1-4.05,1.77,5,5,0,0,1-3.51-1.36,4.65,4.65,0,0,1-1.47-3.58,4.85,4.85,0,0,1,.76-2.71,4.74,4.74,0,0,1,1.88-1.72,5.3,5.3,0,0,1,2.37-.55Z"/><path class="cls-3" d="M22.77,14.5a3.15,3.15,0,0,0,4.36,0A3.11,3.11,0,0,0,28,12.23,3.11,3.11,0,0,0,27.13,10a3.15,3.15,0,0,0-4.36,0,3.11,3.11,0,0,0-.86,2.27,3.11,3.11,0,0,0,.86,2.27Zm5.8,1.25A4.93,4.93,0,0,1,25,17.19a4.93,4.93,0,0,1-3.62-1.44,4.77,4.77,0,0,1-1.45-3.52,4.77,4.77,0,0,1,1.45-3.52A4.93,4.93,0,0,1,25,7.27a4.93,4.93,0,0,1,3.62,1.44A4.77,4.77,0,0,1,30,12.23a4.77,4.77,0,0,1-1.45,3.52Z"/><path class="cls-3" d="M33,12.25a3.14,3.14,0,0,0,.83,2.25,2.69,2.69,0,0,0,2,.88,2.88,2.88,0,0,0,2.08-.87,3,3,0,0,0,.89-2.25,3.2,3.2,0,0,0-.87-2.3A2.77,2.77,0,0,0,35.83,9a2.66,2.66,0,0,0-2,.91A3.27,3.27,0,0,0,33,12.25Zm3.17-5a4.58,4.58,0,0,1,3.31,1.34,4.75,4.75,0,0,1,1.38,3.56,5,5,0,0,1-1.37,3.62,4.24,4.24,0,0,1-6.45-.2v5H31V7.41h2V9.1a3.6,3.6,0,0,1,3.13-1.83Z"/><path class="cls-3" d="M46.58,16.35a2.54,2.54,0,0,1-2,.83,2.84,2.84,0,0,1-2.09-.78,3.1,3.1,0,0,1-.79-2.3V4.39h2v9.48q0,1.45,1.09,1.45a1,1,0,0,0,.9-.45l.89,1.48Z"/><path class="cls-3" d="M48,12.28a2.31,2.31,0,0,0,0,.34l5.34-2.3a2.25,2.25,0,0,0-2.19-1.19,3.3,3.3,0,0,0-2.18.83,2.87,2.87,0,0,0-1,2.32Zm3.06-5a4.92,4.92,0,0,1,3.28,1.09,3.6,3.6,0,0,1,1.32,2.85l0,0-7,2.95a3.12,3.12,0,0,0,2.56,1.16,3.32,3.32,0,0,0,2.67-1.27L55,15.41A5.46,5.46,0,0,1,51,17.19a5,5,0,0,1-3.51-1.36A4.65,4.65,0,0,1,46,12.25a4.85,4.85,0,0,1,.76-2.71,4.73,4.73,0,0,1,1.88-1.72A5.3,5.3,0,0,1,51,7.27Z"/><path class="cls-3" d="M31.95,22.27a3.24,3.24,0,0,0-2.87,1.68,3.39,3.39,0,0,0,0,3.38,3.3,3.3,0,0,0,1.22,1.26,3.18,3.18,0,0,0,1.64.45,3.36,3.36,0,0,0,1.67-.45,3.12,3.12,0,0,0,1.22-1.21,3.44,3.44,0,0,0,.43-1.71,3.33,3.33,0,0,0-1-2.43,3.17,3.17,0,0,0-2.35-1Zm4.3-4V29.81H35.19V28.37a4.61,4.61,0,0,1-1.52,1.24,4.24,4.24,0,0,1-4.87-.87,4.32,4.32,0,0,1-1.26-3.13,4.24,4.24,0,0,1,1.27-3.09,4.13,4.13,0,0,1,3.05-1.28,4,4,0,0,1,1.86.44A4.24,4.24,0,0,1,35.19,23V18.22Z"/><path class="cls-3" d="M41.46,22.28a3.1,3.1,0,0,0-2.31,1,3.31,3.31,0,0,0-1,2.4,3.4,3.4,0,0,0,.44,1.69,3.11,3.11,0,0,0,1.19,1.21,3.38,3.38,0,0,0,3.29,0,3.12,3.12,0,0,0,1.19-1.21,3.4,3.4,0,0,0,.44-1.69,3.31,3.31,0,0,0-1-2.4,3.11,3.11,0,0,0-2.3-1Zm0-1.05a4.14,4.14,0,0,1,3.2,1.4,4.49,4.49,0,0,1-.07,6.08,4.42,4.42,0,0,1-6.28,0,4.48,4.48,0,0,1-.07-6.07,4.14,4.14,0,0,1,3.21-1.41Z"/><g class="cls-2"><path class="cls-3" d="M54.75,23.18l-.85.53a3.57,3.57,0,0,0-3-1.47,3.49,3.49,0,0,0-2.54,1,3.21,3.21,0,0,0-1,2.39,3.39,3.39,0,0,0,.46,1.72,3.25,3.25,0,0,0,1.27,1.25,3.85,3.85,0,0,0,4.82-1l.85.56a4,4,0,0,1-1.61,1.4,5.14,5.14,0,0,1-2.3.5,4.55,4.55,0,0,1-3.29-1.26,4.1,4.1,0,0,1-1.31-3.07,4.38,4.38,0,0,1,.61-2.26,4.3,4.3,0,0,1,1.68-1.63,4.9,4.9,0,0,1,2.39-.58,5.1,5.1,0,0,1,1.6.25,4.46,4.46,0,0,1,1.31.66,3.6,3.6,0,0,1,.91,1Z"/><path class="cls-3" d="M70.22,10.21A3.27,3.27,0,0,0,67,13.47v6.3A3.27,3.27,0,0,0,70.22,23h6.3a3.27,3.27,0,0,0,3.26-3.26V14.93A19.75,19.75,0,0,0,78,13.24c-.4-.35-.79-.69-1.09-1l-.39-.38c-.51-.5-1.69-1.68-2.27-1.68Zm6.3,15h-6.3a5.48,5.48,0,0,1-5.47-5.48v-6.3A5.48,5.48,0,0,1,70.22,8h4c1.49,0,2.85,1.34,3.83,2.33l.36.35c.26.25.63.57,1,.9C81.3,13.19,82,13.88,82,14.71v5.06a5.48,5.48,0,0,1-5.47,5.48Z"/></g><path class="cls-3" d="M74.68,10.09c2.72,2.54,2.89,2.75,5.45,5.08H74.68V10.09Z"/></g></g></svg>