<?xml version="1.0" encoding="utf-8"?>
<!-- Generator: Adobe Illustrator 21.0.0, SVG Export Plug-In . SVG Version: 6.00 Build 0)  -->
<svg version="1.1" id="Layer_1" xmlns="http://www.w3.org/2000/svg" xmlns:xlink="http://www.w3.org/1999/xlink" x="0px" y="0px"
	 viewBox="0 0 88.8 30.9" style="enable-background:new 0 0 88.8 30.9;" xml:space="preserve">
<style type="text/css">
	.st0{fill:#FFFFFF;}
</style>
<g>
	<path class="st0" d="M24.7,27.7L24,25.9h0c0,0,0,0.1,0,0.1l-0.7,1.7H24.7L24.7,27.7z M26,29.4h-0.7l-0.5-1.2h-1.8l-0.5,1.2H22
		l1.8-4.3h0.6L26,29.4L26,29.4z"/>
	<path class="st0" d="M30.6,28.3c0,0.4-0.2,0.7-0.5,0.9c-0.3,0.2-0.6,0.3-1,0.3c-0.4,0-0.8-0.1-1.1-0.2l0.2-0.5
		c0.4,0.1,0.7,0.2,1,0.2c0.2,0,0.4,0,0.6-0.1c0.2-0.1,0.3-0.3,0.3-0.5c0-0.3-0.2-0.5-0.5-0.7c-0.3-0.2-0.6-0.3-1-0.5
		c-0.3-0.2-0.5-0.6-0.5-0.9c0-0.4,0.1-0.7,0.4-0.9c0.3-0.2,0.6-0.3,1-0.3c0.3,0,0.6,0.1,1,0.2l-0.2,0.5c-0.3-0.1-0.6-0.2-0.8-0.2
		c-0.5,0-0.8,0.2-0.8,0.6c0,0.2,0.2,0.4,0.5,0.6c0.6,0.3,0.9,0.5,1,0.5C30.4,27.5,30.6,27.9,30.6,28.3L30.6,28.3z"/>
	<path class="st0" d="M34.1,29.4h-0.7l-1.2-1.3c-0.1-0.1-0.2-0.2-0.3-0.2v1.6h-0.6v-4.6h0.6v2.6l1.2-1.1h0.8l-1.5,1.4
		c0.1,0,0.2,0.1,0.3,0.2L34.1,29.4L34.1,29.4z"/>
	<path class="st0" d="M35.2,29.4h-0.6v-3.1h0.6V29.4L35.2,29.4z M35.3,25.2c0,0.1,0,0.2-0.1,0.2c-0.1,0.1-0.2,0.1-0.3,0.1
		c-0.1,0-0.2,0-0.3-0.1c-0.1-0.1-0.1-0.1-0.1-0.2c0-0.1,0-0.2,0.1-0.3c0.1-0.1,0.2-0.1,0.3-0.1c0.1,0,0.2,0,0.3,0.1
		C35.2,25,35.3,25.1,35.3,25.2L35.3,25.2z"/>
	<path class="st0" d="M37.3,29.4c-0.2,0.1-0.4,0.1-0.5,0.1c-0.4,0-0.6-0.2-0.6-0.6v-4.1h0.6v4c0,0.2,0.1,0.2,0.2,0.2
		c0.1,0,0.2,0,0.2-0.1L37.3,29.4L37.3,29.4z"/>
	<path class="st0" d="M39,29.4c-0.2,0.1-0.4,0.1-0.5,0.1c-0.4,0-0.6-0.2-0.6-0.6v-4.1h0.6v4c0,0.2,0.1,0.2,0.2,0.2
		c0.1,0,0.2,0,0.2-0.1L39,29.4L39,29.4z"/>
	<path class="st0" d="M41.5,28.6c0,0.3-0.1,0.5-0.4,0.7c-0.2,0.1-0.5,0.2-0.8,0.2c-0.3,0-0.6-0.1-0.9-0.2l0.2-0.5
		C39.8,29,40,29,40.3,29c0.4,0,0.6-0.1,0.6-0.4c0-0.2-0.1-0.3-0.4-0.5c-0.2-0.1-0.5-0.2-0.7-0.4c-0.2-0.2-0.4-0.4-0.4-0.7
		c0-0.3,0.1-0.5,0.4-0.7c0.2-0.1,0.4-0.2,0.7-0.2c0.3,0,0.6,0.1,0.8,0.2l-0.2,0.5c-0.3-0.1-0.5-0.1-0.7-0.1c-0.3,0-0.5,0.1-0.5,0.4
		c0,0.2,0.1,0.3,0.4,0.4c0.4,0.2,0.7,0.3,0.7,0.4C41.3,28,41.5,28.3,41.5,28.6L41.5,28.6z"/>
	<path class="st0" d="M44.4,27.9c0-0.3-0.1-0.6-0.2-0.8c-0.2-0.2-0.4-0.3-0.7-0.3c-0.3,0-0.5,0.1-0.7,0.3c-0.2,0.2-0.2,0.5-0.2,0.8
		c0,0.3,0.1,0.6,0.2,0.8c0.2,0.2,0.4,0.3,0.7,0.3c0.3,0,0.5-0.1,0.7-0.3C44.3,28.5,44.4,28.2,44.4,27.9L44.4,27.9z M45,27.9
		c0,0.5-0.1,0.9-0.4,1.2c-0.3,0.3-0.7,0.5-1.1,0.5c-0.5,0-0.8-0.2-1.1-0.5c-0.3-0.3-0.4-0.7-0.4-1.2c0-0.5,0.1-0.9,0.4-1.2
		c0.3-0.3,0.6-0.5,1.1-0.5c0.5,0,0.8,0.2,1.1,0.5C44.9,27,45,27.4,45,27.9L45,27.9z"/>
	<path class="st0" d="M47.5,24.9l-0.1,0.5c-0.2-0.1-0.4-0.2-0.6-0.2c-0.2,0-0.4,0.1-0.4,0.4v0.7h0.9v0.5h-0.9v2.7h-0.6v-2.7l-0.4,0
		v-0.4l0.4,0v-0.7c0-0.5,0.3-0.8,0.9-0.8C47,24.7,47.2,24.8,47.5,24.9L47.5,24.9z"/>
	<path class="st0" d="M49.6,29.4c-0.3,0.1-0.6,0.2-0.8,0.2c-0.6,0-0.9-0.3-0.9-0.8v-1.9l-0.4,0v-0.4l0.4,0v-0.9h0.6v0.9h0.9v0.5
		h-0.9v1.9c0,0.2,0.1,0.3,0.4,0.3c0.2,0,0.3,0,0.6-0.1L49.6,29.4L49.6,29.4z"/>
	<path class="st0" d="M54.8,25.4l-0.2,0.4c-0.3-0.2-0.6-0.2-0.9-0.2c-0.5,0-0.8,0.2-1.1,0.5c-0.3,0.3-0.4,0.7-0.4,1.2
		c0,0.5,0.1,0.9,0.4,1.2c0.3,0.3,0.7,0.5,1.1,0.5c0.3,0,0.6-0.1,0.9-0.2l0.2,0.5c-0.4,0.2-0.7,0.2-1.1,0.2c-0.6,0-1.1-0.2-1.5-0.7
		c-0.4-0.4-0.6-1-0.6-1.6c0-0.6,0.2-1.2,0.6-1.6c0.4-0.4,0.9-0.6,1.5-0.6C54,25.1,54.4,25.2,54.8,25.4L54.8,25.4z"/>
	<path class="st0" d="M57.4,27.9c0-0.3-0.1-0.6-0.2-0.8c-0.2-0.2-0.4-0.3-0.7-0.3S56,26.8,55.9,27c-0.2,0.2-0.2,0.5-0.2,0.8
		c0,0.3,0.1,0.6,0.2,0.8c0.2,0.2,0.4,0.3,0.7,0.3s0.5-0.1,0.7-0.3C57.4,28.5,57.4,28.2,57.4,27.9L57.4,27.9z M58.1,27.9
		c0,0.5-0.1,0.9-0.4,1.2c-0.3,0.3-0.7,0.5-1.1,0.5c-0.5,0-0.8-0.2-1.1-0.5c-0.3-0.3-0.4-0.7-0.4-1.2c0-0.5,0.1-0.9,0.4-1.2
		c0.3-0.3,0.6-0.5,1.1-0.5c0.5,0,0.8,0.2,1.1,0.5C57.9,27,58.1,27.4,58.1,27.9L58.1,27.9z"/>
	<path class="st0" d="M63.1,29.4h-0.6v-2c0-0.5-0.2-0.7-0.6-0.7c-0.2,0-0.4,0.1-0.7,0.2c0,0.1,0.1,0.3,0.1,0.4v2.1h-0.6v-2
		c0-0.5-0.2-0.7-0.6-0.7c-0.2,0-0.4,0.1-0.7,0.2c0,0.1,0,0.1,0,0.2v2.4h-0.6v-2.5c0-0.1,0-0.2,0-0.4c0.5-0.2,1-0.3,1.3-0.3
		c0.4,0,0.7,0.1,0.9,0.3c0.4-0.2,0.7-0.3,1-0.3c0.3,0,0.6,0.1,0.8,0.3c0.2,0.2,0.3,0.4,0.3,0.8V29.4L63.1,29.4z"/>
	<path class="st0" d="M66,27.8c0-0.3-0.1-0.6-0.2-0.8c-0.2-0.2-0.4-0.3-0.7-0.3c-0.2,0-0.4,0-0.6,0.1c0,0,0,0,0,0.1c0,0,0,0.1,0,0.1
		v1.9C64.7,29,64.8,29,65,29C65.7,29,66,28.6,66,27.8L66,27.8z M66.7,27.8c0,0.5-0.1,0.9-0.4,1.2c-0.3,0.3-0.7,0.5-1.1,0.5
		c-0.2,0-0.4,0-0.6-0.1v1.5H64v-4c0-0.1,0-0.2,0-0.4c0.4-0.2,0.8-0.2,1.1-0.2c0.5,0,0.9,0.2,1.2,0.5C66.5,27,66.7,27.4,66.7,27.8
		L66.7,27.8z"/>
	<path class="st0" d="M69.2,28.9c0-0.1,0-0.1,0-0.1v-1c-0.1,0.1-0.3,0.1-0.6,0.2c-0.2,0-0.4,0.1-0.5,0.2c-0.1,0.1-0.2,0.2-0.2,0.4
		c0,0.3,0.2,0.5,0.7,0.5C68.7,29,69,29,69.2,28.9L69.2,28.9z M69.8,29.3c-0.5,0.2-0.9,0.2-1.2,0.2c-0.4,0-0.7-0.1-0.9-0.2
		c-0.2-0.2-0.4-0.4-0.4-0.7c0-0.3,0.1-0.5,0.3-0.7c0.2-0.1,0.4-0.2,0.7-0.3c0.3-0.1,0.5-0.1,0.6-0.1c0.2-0.1,0.3-0.2,0.3-0.3
		c0-0.3-0.2-0.4-0.6-0.4c-0.2,0-0.5,0.1-0.8,0.2l-0.2-0.4c0.4-0.2,0.7-0.3,1.1-0.3c0.8,0,1.1,0.3,1.1,1v1.6
		C69.7,28.9,69.7,29.1,69.8,29.3L69.8,29.3z"/>
	<path class="st0" d="M73.2,29.4h-0.6v-2c0-0.5-0.2-0.7-0.7-0.7c-0.2,0-0.5,0.1-0.7,0.2c0,0.1,0,0.1,0,0.2v2.4h-0.6V27
		c0-0.1,0-0.2,0-0.4c0.6-0.2,1-0.3,1.4-0.3c0.8,0,1.3,0.4,1.3,1.1V29.4L73.2,29.4z"/>
	<path class="st0" d="M76.8,26.3l-1.1,3.3c-0.1,0.3-0.3,0.6-0.5,0.8c-0.2,0.3-0.5,0.4-0.7,0.5l-0.3-0.4c0.4-0.1,0.8-0.5,1-1
		c-0.1,0-0.2-0.1-0.3-0.3l-1.2-2.9h0.6l1,2.6h0l0.9-2.6H76.8L76.8,26.3z"/>
	<path class="st0" d="M0,18.7l1.7-1.2c0.6,0.9,1.6,1.3,2.8,1.3c1.3,0,1.8-0.4,1.8-1.1c0-0.8-0.8-1-2.5-1.4c-1.5-0.4-3-1.1-3-3.2
		c0-2.1,1.6-3,3.7-3c1.6,0,2.8,0.7,3.6,1.5l-1.4,1.4c-0.5-0.6-1.2-1-2.1-1c-0.9,0-1.4,0.3-1.4,1c0,0.8,0.6,1,2.3,1.4
		c1.6,0.4,3.4,1.1,3.4,3.2c0,1.8-1.1,3.2-4,3.2C2.3,20.9,0.7,19.8,0,18.7L0,18.7z"/>
	<path class="st0" d="M9.7,16.5v-6h2.4v5.9c0,1.5,0.7,2.3,2.1,2.3c1.6,0,2.6-1,2.6-2.6v-5.5h2.4v10.2h-2.4l0-1.4
		c-0.7,1-1.9,1.6-3.4,1.6C11.3,20.9,9.7,19.3,9.7,16.5L9.7,16.5z"/>
	<path class="st0" d="M21.2,10.5h2.4l0,1.7c0.7-1.3,1.7-2,3-2c1.5,0,2.4,0.7,3,1.9c0.8-1.2,2-1.9,3.5-1.9c2.4,0,3.8,1.6,3.8,4.2v6.2
		h-2.4v-6c0-1.4-0.5-2.2-1.9-2.2c-1.4,0-2.3,0.9-2.3,2.6v5.6h-2.4v-6c0-1.4-0.5-2.2-1.9-2.2c-1.5,0-2.3,0.9-2.3,2.6v5.6h-2.4V10.5
		L21.2,10.5z"/>
	<path class="st0" d="M53,15.6c0-1.9-1.1-3.2-3-3.2c-1.8,0-3,1.3-3,3.2c0,1.9,1.2,3.2,3,3.2C51.8,18.8,53,17.4,53,15.6L53,15.6z
		 M44.5,15.6c0-3,2.4-5.3,5.5-5.3c3.1,0,5.5,2.3,5.5,5.3c0,3-2.4,5.3-5.5,5.3C47,20.9,44.5,18.6,44.5,15.6L44.5,15.6z"/>
	<path class="st0" d="M67.3,16.3c-1.1,0-1.8,0.4-1.8,1.3c0,0.9,0.7,1.3,1.9,1.3c1.4,0,2.4-0.7,2.4-1.8v-0.8H67.3L67.3,16.3z
		 M67.9,12.3c-1.3,0-2.1,0.6-2.7,1.2l-1.4-1.4c0.9-1.1,2.1-1.8,4.3-1.8c2.4,0,4.3,1.4,4.3,4.4v6H70l0.1-1.1
		c-0.7,0.8-1.7,1.4-3.2,1.4c-2,0-3.7-0.9-3.7-3.2c0-2.1,1.7-3,4-3H70C70,13,69.2,12.3,67.9,12.3L67.9,12.3z"/>
	<polygon class="st0" points="74.2,5.7 76.7,5.7 76.7,20.7 74.2,20.7 74.2,5.7 	"/>
	<path class="st0" d="M43.8,20.9h-1.9c-1.9,0-3.2-1-3.2-3.7v-4.7v-2.1V7.2h2.4v3.3h2.7v2.1h-2.7v4.5c0,1.2,0.4,1.5,1,1.5h1.7V20.9
		L43.8,20.9z"/>
	<path class="st0" d="M62,20.9h-1.9c-1.9,0-3.2-1-3.2-3.7v-4.7v-2.1V7.2h2.4v3.3H62v2.1h-2.7v4.5c0,1.2,0.4,1.5,1,1.5H62V20.9
		L62,20.9z"/>
	<path class="st0" d="M79.8,1.5v2.3l1.5,1.5V0.8c0-0.4-0.3-0.8-0.8-0.8h-4.6l1.5,1.5H79.8L79.8,1.5z"/>
	<path class="st0" d="M87.2,4v2.3l1.5,1.5V3.3c0-0.4-0.3-0.8-0.8-0.8h-4.6L84.9,4H87.2L87.2,4z"/>
	<path class="st0" d="M82.9,8.7V11l1.5,1.5V7.9c0-0.4-0.3-0.8-0.8-0.8H79l1.5,1.5H82.9L82.9,8.7z"/>
	<path class="st0" d="M78.3,19.4h0.2c0,0,0.1,0,0.1,0c0,0,0.1,0,0.1,0c0,0,0.1,0,0.1-0.1c0,0,0-0.1,0-0.1c0,0,0-0.1,0-0.1
		c0,0,0,0-0.1-0.1c0,0-0.1,0-0.1,0c0,0-0.1,0-0.1,0h-0.2V19.4L78.3,19.4z M78.1,18.8h0.5c0.2,0,0.3,0,0.4,0.1
		c0.1,0.1,0.1,0.2,0.1,0.3c0,0.1,0,0.2-0.1,0.3c-0.1,0.1-0.1,0.1-0.2,0.1l0.4,0.6h-0.3l-0.3-0.6h-0.2v0.6h-0.3V18.8L78.1,18.8z
		 M77.5,19.5c0,0.1,0,0.3,0.1,0.4c0.1,0.1,0.1,0.2,0.2,0.3c0.1,0.1,0.2,0.2,0.3,0.2c0.1,0.1,0.2,0.1,0.4,0.1c0.1,0,0.3,0,0.4-0.1
		c0.1-0.1,0.2-0.1,0.3-0.2c0.1-0.1,0.2-0.2,0.2-0.3c0.1-0.1,0.1-0.2,0.1-0.4c0-0.1,0-0.3-0.1-0.4c-0.1-0.1-0.1-0.2-0.2-0.3
		c-0.1-0.1-0.2-0.2-0.3-0.2c-0.1-0.1-0.2-0.1-0.4-0.1c-0.1,0-0.3,0-0.4,0.1c-0.1,0.1-0.2,0.1-0.3,0.2c-0.1,0.1-0.2,0.2-0.2,0.3
		C77.6,19.2,77.5,19.3,77.5,19.5L77.5,19.5z M77.3,19.5c0-0.2,0-0.3,0.1-0.5c0.1-0.1,0.2-0.3,0.3-0.4c0.1-0.1,0.2-0.2,0.4-0.3
		c0.1-0.1,0.3-0.1,0.5-0.1c0.2,0,0.3,0,0.5,0.1c0.1,0.1,0.3,0.2,0.4,0.3c0.1,0.1,0.2,0.2,0.3,0.4c0.1,0.1,0.1,0.3,0.1,0.5
		c0,0.2,0,0.3-0.1,0.5c-0.1,0.1-0.2,0.3-0.3,0.4c-0.1,0.1-0.2,0.2-0.4,0.3c-0.1,0.1-0.3,0.1-0.5,0.1c-0.2,0-0.3,0-0.5-0.1
		c-0.1-0.1-0.3-0.2-0.4-0.3c-0.1-0.1-0.2-0.2-0.3-0.4C77.4,19.8,77.3,19.6,77.3,19.5L77.3,19.5z"/>
</g>
</svg>
