<svg id="Layer_1" data-name="Layer 1" xmlns="http://www.w3.org/2000/svg" viewBox="0 0 195.99 68.25"><defs><style>.cls-1{fill:#fff;}</style></defs><title>sumtotal</title><path class="cls-1" d="M62.43,67.92H61l-1-2.59h-4l-1,2.59h-1.4l3.87-9.48H58.7Zm-2.91-3.74-1.54-4h0l-.08.28-1.44,3.76Z" transform="translate(-5 -2.95)"/><path class="cls-1" d="M72.52,65.34a2.4,2.4,0,0,1-1.05,2.07,3.84,3.84,0,0,1-2.3.67,6.93,6.93,0,0,1-2.51-.46L67,66.48a6.61,6.61,0,0,0,2.19.42,2.44,2.44,0,0,0,1.3-.32,1.25,1.25,0,0,0,.61-1.12q0-.83-1.14-1.46l-2.11-1.11a2.46,2.46,0,0,1-1.14-2.09,2.2,2.2,0,0,1,1-1.91,3.69,3.69,0,0,1,2.15-.6,6.94,6.94,0,0,1,2.27.44l-.4,1.1a5.53,5.53,0,0,0-1.87-.36q-1.71,0-1.71,1.3,0,.72,1.14,1.3,2,1,2.12,1.11A2.56,2.56,0,0,1,72.52,65.34Z" transform="translate(-5 -2.95)"/><path class="cls-1" d="M80.21,67.92H78.61L76,65a2.94,2.94,0,0,0-.6-.53v3.42H74.19V57.74h1.25v5.78L78.07,61H79.8l-3.38,3a1.41,1.41,0,0,1,.58.38Z" transform="translate(-5 -2.95)"/><path class="cls-1" d="M82.87,58.62a.71.71,0,0,1-.24.55.84.84,0,0,1-.58.21.79.79,0,0,1-.56-.21.72.72,0,0,1-.23-.55.74.74,0,0,1,.23-.55.77.77,0,0,1,.56-.22.82.82,0,0,1,.58.22A.72.72,0,0,1,82.87,58.62Zm-.17,9.3H81.45V61H82.7Z" transform="translate(-5 -2.95)"/><path class="cls-1" d="M87.29,67.86a3.53,3.53,0,0,1-1.1.21,1.19,1.19,0,0,1-1.36-1.33v-9h1.25v8.76c0,.33.14.5.42.5a1.22,1.22,0,0,0,.5-.11Z" transform="translate(-5 -2.95)"/><path class="cls-1" d="M91.08,67.86a3.53,3.53,0,0,1-1.1.21,1.19,1.19,0,0,1-1.36-1.33v-9h1.25v8.76c0,.33.14.5.42.5a1.22,1.22,0,0,0,.5-.11Z" transform="translate(-5 -2.95)"/><path class="cls-1" d="M96.58,66.07a1.7,1.7,0,0,1-.83,1.53,3.21,3.21,0,0,1-1.76.46,5.73,5.73,0,0,1-2.08-.4l.36-1A4.45,4.45,0,0,0,93.9,67q1.29,0,1.29-1,0-.58-.82-1l-1.51-.79a1.77,1.77,0,0,1-.82-1.5,1.64,1.64,0,0,1,.78-1.46,2.77,2.77,0,0,1,1.61-.46,4.51,4.51,0,0,1,1.79.36l-.33,1a4.35,4.35,0,0,0-1.47-.3q-1.09,0-1.09.85,0,.53.85.93a17.08,17.08,0,0,1,1.57.78A1.88,1.88,0,0,1,96.58,66.07Z" transform="translate(-5 -2.95)"/><path class="cls-1" d="M104.4,64.45a3.68,3.68,0,0,1-.94,2.61,3.42,3.42,0,0,1-4.86,0,4.12,4.12,0,0,1,0-5.21,3.42,3.42,0,0,1,4.86,0A3.69,3.69,0,0,1,104.4,64.45Zm-1.39,0a3.05,3.05,0,0,0-.49-1.79,1.84,1.84,0,0,0-3,0,3.45,3.45,0,0,0,0,3.58,1.84,1.84,0,0,0,3,0A3.05,3.05,0,0,0,103,64.45Z" transform="translate(-5 -2.95)"/><path class="cls-1" d="M109.92,58l-.32,1a3.65,3.65,0,0,0-1.32-.33.71.71,0,0,0-.82.79V61h1.89V62h-1.89v5.88h-1.25V62l-.79,0V61l.79,0V59.35q0-1.76,1.94-1.76A4.58,4.58,0,0,1,109.92,58Z" transform="translate(-5 -2.95)"/><path class="cls-1" d="M114.52,67.77a5.45,5.45,0,0,1-1.69.35q-1.93,0-1.93-1.79V62.07l-.79,0V61l.79,0V59.09h1.25V61h2v1.08h-2v4.2q0,.74.8.74a3.71,3.71,0,0,0,1.23-.26Z" transform="translate(-5 -2.95)"/><path class="cls-1" d="M126,59l-.5,1a4.74,4.74,0,0,0-2.05-.51A3.08,3.08,0,0,0,121,60.54a4.32,4.32,0,0,0,0,5.23,3.14,3.14,0,0,0,2.51,1.12,5.1,5.1,0,0,0,1.91-.4l.42,1a6,6,0,0,1-2.45.54,4.37,4.37,0,0,1-3.4-1.46,5,5,0,0,1-1.28-3.51,4.79,4.79,0,0,1,1.3-3.46,4.49,4.49,0,0,1,3.39-1.35A5.83,5.83,0,0,1,126,59Z" transform="translate(-5 -2.95)"/><path class="cls-1" d="M133.23,64.45a3.68,3.68,0,0,1-.94,2.61,3.42,3.42,0,0,1-4.86,0,4.12,4.12,0,0,1,0-5.21,3.42,3.42,0,0,1,4.86,0A3.69,3.69,0,0,1,133.23,64.45Zm-1.39,0a3.05,3.05,0,0,0-.49-1.79,1.84,1.84,0,0,0-3,0,3.45,3.45,0,0,0,0,3.58,1.84,1.84,0,0,0,3,0A3.05,3.05,0,0,0,131.84,64.45Z" transform="translate(-5 -2.95)"/><path class="cls-1" d="M144.25,67.92H143V63.45q0-1.54-1.41-1.54a3.83,3.83,0,0,0-1.57.43,2.79,2.79,0,0,1,.14,1v4.62h-1.25V63.44q0-1.52-1.42-1.53a4,4,0,0,0-1.48.36c0,.17,0,.29,0,.36v5.28h-1.25V62.43a7.74,7.74,0,0,0-.08-.9,8.55,8.55,0,0,1,2.93-.69,2.59,2.59,0,0,1,1.93.64,5.13,5.13,0,0,1,2.32-.64,2.4,2.4,0,0,1,1.75.61,2.33,2.33,0,0,1,.62,1.75Z" transform="translate(-5 -2.95)"/><path class="cls-1" d="M152.21,64.44a3.65,3.65,0,0,1-1,2.61,3.23,3.23,0,0,1-2.46,1,3.83,3.83,0,0,1-1.28-.24V71h-1.25V62.21a7.22,7.22,0,0,0-.08-.87,7.15,7.15,0,0,1,2.51-.5,3.36,3.36,0,0,1,2.58,1A3.65,3.65,0,0,1,152.21,64.44Zm-1.39,0a2.92,2.92,0,0,0-.49-1.76,1.93,1.93,0,0,0-1.65-.76,3.36,3.36,0,0,0-1.22.24l0,.13a1.09,1.09,0,0,1,0,.19v4.3a2.41,2.41,0,0,0,1.07.22Q150.82,67,150.82,64.44Z" transform="translate(-5 -2.95)"/><path class="cls-1" d="M159,67.56a9.24,9.24,0,0,1-2.76.51,3.68,3.68,0,0,1-2.08-.51,1.73,1.73,0,0,1-.82-1.53,1.8,1.8,0,0,1,.76-1.57,4.31,4.31,0,0,1,1.62-.61,11.86,11.86,0,0,0,1.33-.32q.58-.24.58-.68,0-.94-1.36-.94a4.76,4.76,0,0,0-1.83.44l-.43-1a5.47,5.47,0,0,1,2.34-.55q2.54,0,2.54,2.22v3.62A6.56,6.56,0,0,0,159,67.56Zm-1.32-.8a2.2,2.2,0,0,1,0-.28V64.3a4.31,4.31,0,0,1-1.39.46,3.76,3.76,0,0,0-1.07.36.91.91,0,0,0-.47.82q0,1.05,1.51,1.05A4.37,4.37,0,0,0,157.71,66.75Z" transform="translate(-5 -2.95)"/><path class="cls-1" d="M166.65,67.92h-1.25V63.45a1.37,1.37,0,0,0-1.57-1.54,4.26,4.26,0,0,0-1.65.36,3.27,3.27,0,0,1,0,.35v5.3H161V62.47a7.28,7.28,0,0,0-.1-.93,8.86,8.86,0,0,1,3-.71q2.79,0,2.79,2.39Z" transform="translate(-5 -2.95)"/><path class="cls-1" d="M174.5,61,172,68.21a6,6,0,0,1-1,1.86,3.28,3.28,0,0,1-1.64,1.14l-.6-.93A3.34,3.34,0,0,0,170.93,68a1,1,0,0,1-.68-.69L167.67,61h1.41l2.18,5.75h0l1.9-5.75Z" transform="translate(-5 -2.95)"/><path class="cls-1" d="M5,44.34l3.74-2.6a7,7,0,0,0,6.11,2.92c2.76,0,4-.92,4-2.43,0-1.84-1.68-2.11-5.52-3.2-3.36-.92-6.71-2.49-6.71-7s3.63-6.71,8.12-6.71a10.31,10.31,0,0,1,7.9,3.41l-3.19,3.14a6.14,6.14,0,0,0-4.71-2.22c-2.06,0-3.19.76-3.19,2.11,0,1.73,1.4,2.11,5,3S24,37.14,24,42c0,3.9-2.38,7.09-8.82,7.09C10,49,6.52,46.78,5,44.34Z" transform="translate(-5 -2.95)"/><path class="cls-1" d="M26.45,39.49V26.13h5.4V39.06c0,3.21,1.49,5.08,4.65,5.08,3.52,0,5.71-2.19,5.71-5.83V26.13h5.4V48.57h-5.4l.08-3.15C40.83,47.68,38.2,49,34.78,49,29.87,49,26.45,45.58,26.45,39.49Z" transform="translate(-5 -2.95)"/><path class="cls-1" d="M51.74,26.13h5.4L57,30a7.31,7.31,0,0,1,6.68-4.33,6.63,6.63,0,0,1,6.57,4.28A9,9,0,0,1,78,25.65c5.29,0,8.44,3.53,8.44,9.24V48.57H81V35.43c0-3.1-1.12-4.81-4.22-4.81s-5,1.92-5,5.66V48.57H66.38V35.43c0-3.1-1.07-4.81-4.17-4.81s-5.07,1.92-5.07,5.66V48.57h-5.4Z" transform="translate(-5 -2.95)"/><path class="cls-1" d="M103.34,37.35c0-6.68,5.34-11.7,12.13-11.7s12.07,5,12.07,11.7S122.3,49,115.47,49,103.34,44,103.34,37.35Zm18.64,0c0-4.11-2.51-7-6.52-7s-6.57,2.89-6.57,7,2.57,7,6.57,7S122,41.46,122,37.35Z" transform="translate(-5 -2.95)"/><path class="cls-1" d="M155,30.14a7.33,7.33,0,0,0-5.87,2.67L146,29.66c2-2.35,4.65-4,9.4-4,5.39,0,9.45,3,9.45,9.67V48.57h-5.39l.12-2.53c-1.47,1.84-3.71,3-7,3-4.43,0-8.07-2.08-8.07-7.1,0-4.65,3.74-6.68,8.81-6.73h6.15C159.47,31.64,157.86,30.14,155,30.14ZM153.69,39c-2.35,0-3.9.85-3.9,2.83s1.5,2.94,4.27,2.94c3.15,0,5.4-1.55,5.4-4V39Z" transform="translate(-5 -2.95)"/><path class="cls-1" d="M168.88,15.53h5.4v33h-5.4Z" transform="translate(-5 -2.95)"/><path class="cls-1" d="M101.82,49.11H97.55c-4.22,0-7.1-2.14-7.1-8.12V18.81h5.4v7.32h6v4.54h-6v9.93c0,2.56.85,3.31,2.24,3.31h3.74Z" transform="translate(-5 -2.95)"/><path class="cls-1" d="M141.91,49.11h-4.27c-4.22,0-7.11-2.14-7.11-8.12V18.81h5.4v7.32h6v4.54h-6v9.93c0,2.56.85,3.31,2.24,3.31h3.74Z" transform="translate(-5 -2.95)"/><path class="cls-1" d="M181.12,6.37v5.1l3.4,3.4V4.66A1.71,1.71,0,0,0,182.81,3H172.6L176,6.37Z" transform="translate(-5 -2.95)"/><path class="cls-1" d="M197.59,11.86V17l3.4,3.4V10.15a1.72,1.72,0,0,0-1.71-1.71H189.07l3.42,3.42Z" transform="translate(-5 -2.95)"/><path class="cls-1" d="M188,22.09v5.1l3.4,3.4V20.38a1.71,1.71,0,0,0-1.71-1.71H179.5l3.42,3.41Z" transform="translate(-5 -2.95)"/><path class="cls-1" d="M175.75,45.91a2.56,2.56,0,0,1,.21-1,2.7,2.7,0,0,1,1.42-1.42,2.64,2.64,0,0,1,2.07,0,2.7,2.7,0,0,1,1.42,1.42,2.64,2.64,0,0,1,0,2.07,2.7,2.7,0,0,1-1.42,1.42,2.64,2.64,0,0,1-2.07,0A2.7,2.7,0,0,1,176,46.94,2.56,2.56,0,0,1,175.75,45.91Zm.47,0a2.13,2.13,0,0,0,.17.85,2.17,2.17,0,0,0,1.17,1.17,2.19,2.19,0,0,0,1.7,0,2.17,2.17,0,0,0,1.17-1.17,2.19,2.19,0,0,0,0-1.7,2.17,2.17,0,0,0-1.17-1.17,2.19,2.19,0,0,0-1.7,0,2.17,2.17,0,0,0-1.17,1.17A2.14,2.14,0,0,0,176.22,45.91Zm1.17-1.54h1.18a1.18,1.18,0,0,1,.81.24.87.87,0,0,1,.26.68.8.8,0,0,1-.21.6.87.87,0,0,1-.52.24l.79,1.29h-.59l-.76-1.25H178v1.25h-.56Zm.56,1.33h.67a.78.78,0,0,0,.23-.05.39.39,0,0,0,0-.73.73.73,0,0,0-.23,0H178Z" transform="translate(-5 -2.95)"/></svg>