<svg xmlns="http://www.w3.org/2000/svg" viewBox="0 0 283.46 134"><defs><style>.cls-1{fill:#fff;}</style></defs><title>the-adeco-group</title><g id="Layer_2" data-name="Layer 2"><g id="Artwork"><path class="cls-1" d="M33.29,121.47H29v-2.73H40.7v2.73H36.4v12.33h-3.1Z"/><path class="cls-1" d="M43.53,118.74h3.11v6.38h6.45v-6.38h3.1v15.07h-3.1V127.9H46.64v5.91H43.53Z"/><path class="cls-1" d="M59.89,118.74h10v2.73H63v3.45H69v2.66H63v3.49h7.18v2.73H59.89Z"/><path class="cls-1" d="M84.58,118.6h.27l6.89,15.2H88.48l-.84-2H81.78l-.84,2h-3Zm2,10.57-1-2.28c-.42-1-.86-2.53-.91-2.68,0,.07-.46,1.64-.88,2.68l-1,2.28Z"/><path class="cls-1" d="M94.32,118.74H99c4.63,0,7.93,3.08,7.93,7.52s-3.28,7.54-7.93,7.54H94.32Zm4.48,12.34c3.35,0,4.88-2,4.88-4.81s-1.53-4.79-4.88-4.79H97.43v9.6Z"/><path class="cls-1" d="M110.06,118.74h10v2.73h-6.88v3.45h6.05v2.66h-6.05v3.49h7.18v2.73H110.06Z"/><path class="cls-1" d="M122.94,126.26a7.59,7.59,0,0,1,7.76-7.7,6.55,6.55,0,0,1,6,3.07l-2.38,1.69a4.08,4.08,0,0,0-3.65-2c-2.73,0-4.57,2.1-4.57,4.91s1.84,5,4.57,5a4.29,4.29,0,0,0,3.87-2.22l2.42,1.66A7.1,7.1,0,0,1,130.7,134,7.61,7.61,0,0,1,122.94,126.26Z"/><path class="cls-1" d="M139.12,126.26a7.58,7.58,0,0,1,7.75-7.7,6.57,6.57,0,0,1,6,3.07l-2.37,1.69a4.1,4.1,0,0,0-3.66-2c-2.72,0-4.57,2.1-4.57,4.91s1.85,5,4.57,5a4.29,4.29,0,0,0,3.88-2.22l2.42,1.66a7.1,7.1,0,0,1-6.3,3.32A7.6,7.6,0,0,1,139.12,126.26Z"/><path class="cls-1" d="M155.29,126.26A7.8,7.8,0,1,1,163.1,134,7.63,7.63,0,0,1,155.29,126.26Zm12.42,0a4.62,4.62,0,1,0-9.22,0c0,2.83,1.86,5,4.61,5S167.71,129.09,167.71,126.26Z"/><path class="cls-1" d="M177.7,126.26a7.4,7.4,0,0,1,7.69-7.7c2.46,0,4.22.66,5.47,2.08l-2.1,2.08a4.21,4.21,0,0,0-3.37-1.37c-2.74,0-4.5,2.1-4.5,4.91a4.69,4.69,0,0,0,5,5,7.51,7.51,0,0,0,2.95-.56v-2.44H185.2v-2.72h6.47v6.74a9.82,9.82,0,0,1-5.78,1.74C181,134,177.7,130.73,177.7,126.26Z"/><path class="cls-1" d="M195.15,118.74h5.58c3.09,0,5.61,1.44,5.61,5a4.43,4.43,0,0,1-3,4.41l3.44,5.69h-3.55l-3.06-5.23h-2v5.23h-3.1Zm5.5,7.22c1.53,0,2.5-.6,2.5-2.27s-1-2.23-2.5-2.23h-2.4V126Z"/><path class="cls-1" d="M209,126.26a7.81,7.81,0,1,1,7.81,7.74A7.63,7.63,0,0,1,209,126.26Zm12.42,0a4.62,4.62,0,1,0-9.23,0c0,2.83,1.87,5,4.62,5S221.43,129.09,221.43,126.26Z"/><path class="cls-1" d="M227.75,128.36v-9.62h3.1v9.43c0,2.19,1,3,3,3s3-.85,3-3v-9.43h3.1v9.62c0,3.81-2.64,5.64-6.08,5.64S227.75,132.17,227.75,128.36Z"/><path class="cls-1" d="M243.57,118.74h5.3c3.08,0,5.61,1.52,5.61,5.05s-2.55,5.08-5.61,5.08h-2.2v4.93h-3.1Zm5.2,7.4c1.54,0,2.5-.68,2.5-2.34s-1-2.32-2.5-2.32h-2.1v4.67Z"/><rect class="cls-1" y="96.51" width="283.46" height="2.83"/><path class="cls-1" d="M139.9,0,104.36,77.31h2.94L131,25.57l23.46,51.74H179.1ZM120.09,56.54l-1.23,2.69H133.5l-1.23-2.69Z"/></g></g></svg>