<?xml version="1.0" encoding="utf-8"?>
<!-- Generator: Adobe Illustrator 19.0.0, SVG Export Plug-In . SVG Version: 6.00 Build 0)  -->
<!DOCTYPE svg PUBLIC "-//W3C//DTD SVG 1.1//EN" "http://www.w3.org/Graphics/SVG/1.1/DTD/svg11.dtd">
<svg version="1.1" id="Layer_1" xmlns="http://www.w3.org/2000/svg" xmlns:xlink="http://www.w3.org/1999/xlink" x="0px" y="0px"
	 width="136.6px" height="233.4px" viewBox="0 0 136.6 233.4" enable-background="new 0 0 136.6 233.4" xml:space="preserve">
<g id="XMLID_30_">
	<g id="XMLID_1992_">
		<path id="XMLID_1993_" fill="#0CA6DF" d="M133.6,125c-1.2-1-2.7-1.8-4.4-2.3c-1.2-0.4-2.5-0.5-3.9-0.5c-0.6,0-1.2,0.1-1.8,0.2
			c0.8-2,1.8-4.4,1.3-6c-1-3.1-2.2-4-4-4.4c0,0-5.9,34.7-41.9,40.5c1,6.5,2,12.9,3.1,19.1c0,0,28.4-12.1,38.3-33.1
			c1.5,0.6,3.2,0.9,5,0.9c5.6,0,10.1-3,11.1-7c0.1-0.5,0.2-1,0.2-1.6v0C136.6,128.6,135.5,126.6,133.6,125z"/>
	</g>
	<g id="XMLID_1994_">
		<g id="XMLID_1995_">
			<g id="XMLID_1996_">
				<circle id="XMLID_1997_" fill="#16A7E0" cx="13.6" cy="8.4" r="8.4"/>
				<path id="XMLID_1998_" fill="#16A7E0" d="M19.4,14.5c-0.6,0.6-1.3,1.1-2.1,1.4c2.6,4.7,9.2,12.5,11.8,15.5
					c2.4-1,4.9-1.8,7.5-2.6C29.3,24.1,22.8,17.9,19.4,14.5z"/>
			</g>
			<g id="XMLID_1999_">
				<circle id="XMLID_2000_" fill="#16A7E0" cx="111.6" cy="8.4" r="8.4"/>
				<path id="XMLID_2001_" fill="#16A7E0" d="M105.8,14.5c0.6,0.6,1.3,1.1,2.1,1.4c-2.6,4.7-9.2,12.5-11.8,15.5
					c-2.4-1-4.9-1.8-7.5-2.6C96,24.1,102.4,17.9,105.8,14.5z"/>
			</g>
		</g>
		<path id="XMLID_2002_" fill="#16A7E0" d="M95,88.6c-9.5,3.7-20.6,5.8-32.4,5.8c-11.8,0-22.9-2.1-32.4-5.8
			c6.3,7.8,17.8,25,17.8,47.1c0,30.4-18.5,30.1-17,63.1c1.5,33,13.4,34.7,18.3,34.7c4.9,0,8.2-8.6,5.5-19.1
			c-2.5-9.8,4.9-12.9,7.7-13.3c2.8,0.4,10.3,3.6,7.7,13.3c-2.7,10.5,0.6,19.1,5.5,19.1c4.9,0,16.8-1.7,18.3-34.7
			c1.5-33-16.9-32.7-16.9-63.1C77.2,113.6,88.7,96.4,95,88.6z"/>
		<path id="XMLID_2003_" fill="#16A7E0" d="M62.6,25.2C31,25.2,4.9,40.2,0,59.8c4.9,19.6,31,34.6,62.6,34.6
			c31.6,0,57.8-15,62.6-34.6C120.4,40.2,94.2,25.2,62.6,25.2z"/>
		<g id="XMLID_2004_">
			<path id="XMLID_2005_" fill="#2EBFEF" d="M34,184.5c10.9,0,19.7-8.8,19.7-19.7c0-6.2-2.8-11.7-7.3-15.3
				c-3.5,13.8-11.8,19.7-14.6,34.8C32.6,184.5,33.3,184.5,34,184.5z"/>
			<path id="XMLID_2006_" fill="#2EBFEF" d="M87.7,168.8c-4.7-8.8-10.3-16.2-10.5-32.6c-4.5,3.3-7.5,8.6-7.5,14.6
				C69.7,160.7,77.8,168.8,87.7,168.8z"/>
			<path id="XMLID_2007_" fill="#2EBFEF" d="M85,197.8c0,5.7,3.2,10.6,7.9,13.1c0.6-3.5,1-7.5,1.2-12.2c0.3-5.6-0.1-10.2-0.8-14.2
				C88.4,186.9,85,192,85,197.8z"/>
			<path id="XMLID_2008_" fill="#2EBFEF" d="M3.1,52.2c1.6,0.6,3.3,0.9,5,0.9c8.1,0,14.7-6.6,14.7-14.7c0-1.3-0.2-2.6-0.5-3.8
				C13.7,39.2,7,45.3,3.1,52.2z"/>
			<circle id="XMLID_2009_" fill="#2EBFEF" cx="106.9" cy="54.6" r="5.3"/>
		</g>
		<g id="XMLID_2010_">
			<path id="XMLID_2011_" fill="#060707" d="M14.8,64.5c0,0,44.1,10.4,95.7,0C110.5,64.5,63.4,119.6,14.8,64.5z"/>
			<path id="XMLID_2012_" fill="#FFFFFF" d="M32.8,67.4l6.9,6.9l5.7-5.7l5.4,6.3l4-5.8l5.1,6.2l4.5-6.1l5.3,5.6l3.4-5.8l6.3,5.4
				l3.5-5.9l5,5.6l5.2-6.6c0,0-0.1,0-0.2-0.1C68.6,70.3,47,69.1,32.8,67.4z"/>
			<path id="XMLID_2013_" fill="#FFFFFF" d="M80.4,85.4l-4.6-5l-3.3,6.9l-5-6l-3.1,7.5L60,81.4l-3.4,7.4l-5.2-7.4L47.5,87
				C59.6,90.6,70.9,89,80.4,85.4z"/>
		</g>
		<g id="XMLID_2014_">
			<g id="XMLID_2015_">
				<circle id="XMLID_2016_" fill="#F5ECED" cx="44.9" cy="48.1" r="15.1"/>
				<circle id="XMLID_2017_" fill="#16A7E0" cx="44.9" cy="48.1" r="10.7"/>
				<circle id="XMLID_2018_" fill="#090909" cx="44.9" cy="48.1" r="7.4"/>
				<path id="XMLID_2019_" fill="#F5ECED" d="M55.4,45.7c-0.8-3.4-3.2-6.2-6.4-7.5c-1.5,0.9-2.6,2.5-2.6,4.4c0,2.8,2.3,5,5,5
					C53.1,47.6,54.5,46.8,55.4,45.7z"/>
			</g>
			<g id="XMLID_2020_">
				<circle id="XMLID_2021_" fill="#F5ECED" cx="80.3" cy="48.1" r="15.1"/>
				<circle id="XMLID_2022_" fill="#16A7E0" cx="80.3" cy="48.1" r="10.7"/>
				<circle id="XMLID_2023_" fill="#090909" cx="80.3" cy="48.1" r="7.4"/>
				<path id="XMLID_2024_" fill="#F5ECED" d="M90.8,45.7c-0.8-3.4-3.2-6.2-6.4-7.5c-1.5,0.9-2.6,2.5-2.6,4.4c0,2.8,2.3,5,5,5
					C88.4,47.6,89.8,46.8,90.8,45.7z"/>
			</g>
		</g>
	</g>
</g>
</svg>
