<?xml version="1.0" encoding="utf-8"?>
<!-- Generator: Adobe Illustrator 20.1.0, SVG Export Plug-In . SVG Version: 6.00 Build 0)  -->
<svg version="1.1" id="Layer_1" xmlns="http://www.w3.org/2000/svg" xmlns:xlink="http://www.w3.org/1999/xlink" x="0px" y="0px"
	 viewBox="0 0 158 121.4" style="enable-background:new 0 0 158 121.4;" xml:space="preserve">
<style type="text/css">
	.st0{fill:#00AAE4;}
	.st1{fill:#30BDEE;}
	.st2{fill:#030404;}
	.st3{fill:#FFFFFF;}
	.st4{fill:#F6ECEE;}
	.st5{fill:#050605;}
	.st6{fill:#9ACA3C;}
	.st7{fill:#ECECEC;}
	.st8{fill:#E81B44;}
	.st9{fill:#F8EEF1;}
</style>
<g>
	<g id="XMLID_445_">
		<g id="XMLID_469_">
			<g id="XMLID_473_">
				
					<ellipse id="XMLID_475_" transform="matrix(6.111570e-03 -1 1 6.111570e-03 50.8865 59.4815)" class="st0" cx="55.4" cy="4.1" rx="4.1" ry="4.1"/>
				<path id="XMLID_474_" class="st0" d="M58.2,7.1c-0.3,0.3-0.6,0.5-1,0.7c1.3,2.3,4.5,6.2,5.8,7.7c1.2-0.5,2.4-0.9,3.7-1.3
					C63.1,11.9,59.9,8.9,58.2,7.1z"/>
			</g>
			<g id="XMLID_470_">
				
					<ellipse id="XMLID_472_" transform="matrix(6.111570e-03 -1 1 6.111570e-03 98.6372 108.1158)" class="st0" cx="103.7" cy="4.4" rx="4.1" ry="4.1"/>
				<path id="XMLID_471_" class="st0" d="M100.8,7.4c0.3,0.3,0.6,0.5,1,0.7c-1.3,2.3-4.6,6.1-5.9,7.6c-1.2-0.5-2.4-0.9-3.7-1.3
					C95.9,12.1,99.1,9.1,100.8,7.4z"/>
			</g>
		</g>
		<path id="XMLID_468_" class="st0" d="M95.3,43.9c-4.7,1.8-10.2,2.8-16,2.7c-5.8,0-11.3-1.1-16-2.9C66.4,47.6,72,56.1,72,67
			c-0.1,15-9.2,14.8-8.5,31c0.7,16.3,6.5,17.1,8.9,17.1c2.4,0,4.1-4.2,2.8-9.4c-1.2-4.8,2.5-6.4,3.8-6.6c1.4,0.2,5,1.8,3.8,6.6
			c-1.4,5.2,0.2,9.4,2.7,9.4c2.4,0,8.3-0.8,9.1-17c0.9-16.3-8.3-16.2-8.2-31.1C86.4,56.2,92.1,47.8,95.3,43.9z"/>
		<path id="XMLID_467_" class="st0" d="M79.5,12.6c-15.6-0.1-28.5,7.2-31,16.9c2.3,9.7,15.2,17.2,30.8,17.3
			c15.6,0.1,28.5-7.2,31-16.9C107.9,20.1,95.1,12.7,79.5,12.6z"/>
		<g id="XMLID_461_">
			<path id="XMLID_466_" class="st1" d="M64.9,91.1c5.4,0,9.7-4.3,9.8-9.7c0-3-1.4-5.8-3.5-7.5c-1.8,6.8-5.9,9.7-7.3,17.1
				C64.2,91,64.5,91.1,64.9,91.1z"/>
			<path id="XMLID_465_" class="st1" d="M91.4,83.5c-2.3-4.3-5.1-8-5.1-16.1c-2.2,1.6-3.7,4.2-3.7,7.2
				C82.6,79.4,86.5,83.4,91.4,83.5z"/>
			<path id="XMLID_464_" class="st1" d="M90,97.8c0,2.8,1.6,5.3,3.9,6.5c0.3-1.7,0.5-3.7,0.6-6c0.1-2.8,0-5.1-0.3-7
				C91.7,92.4,90,94.9,90,97.8z"/>
			<path id="XMLID_463_" class="st1" d="M50,25.7c0.8,0.3,1.6,0.5,2.5,0.5c4,0,7.2-3.2,7.3-7.2c0-0.6-0.1-1.3-0.2-1.9
				C55.3,19.3,52,22.3,50,25.7z"/>
			
				<ellipse id="XMLID_462_" transform="matrix(6.111570e-03 -1 1 6.111570e-03 73.4533 128.2672)" class="st1" cx="101.3" cy="27.2" rx="2.6" ry="2.6"/>
		</g>
		<g id="XMLID_457_">
			<path id="XMLID_460_" class="st2" d="M55.8,31.8c0,0,21.7,5.3,47.2,0.3C103,32.1,79.6,59.1,55.8,31.8z"/>
			<path id="XMLID_459_" class="st3" d="M64.6,33.3l3.4,3.4l2.8-2.8l2.7,3.1l2-2.9l2.5,3.1l2.2-3l2.6,2.8l1.7-2.9l3.1,2.7l1.8-2.9
				l2.5,2.8l2.6-3.2c0,0,0,0-0.1,0C82.3,34.8,71.7,34.2,64.6,33.3z"/>
			<path id="XMLID_458_" class="st3" d="M88.1,42.3l-2.2-2.5l-1.6,3.4l-2.5-3L80.2,44L78,40.3l-1.7,3.6l-2.5-3.7L71.8,43
				C77.8,44.8,83.4,44,88.1,42.3z"/>
		</g>
		<g id="XMLID_446_">
			<g id="XMLID_452_">
				
					<ellipse id="XMLID_456_" transform="matrix(6.111570e-03 -1 1 6.111570e-03 46.4485 94.3737)" class="st4" cx="70.7" cy="23.8" rx="7.4" ry="7.4"/>
				
					<ellipse id="XMLID_455_" transform="matrix(6.111570e-03 -1 1 6.111570e-03 46.4485 94.3737)" class="st0" cx="70.7" cy="23.8" rx="5.3" ry="5.3"/>
				
					<ellipse id="XMLID_454_" transform="matrix(6.111570e-03 -1 1 6.111570e-03 46.4485 94.3737)" class="st5" cx="70.7" cy="23.8" rx="3.7" ry="3.7"/>
				<path id="XMLID_453_" class="st4" d="M75.9,22.6c-0.4-1.7-1.6-3.1-3.1-3.7c-0.8,0.4-1.3,1.2-1.3,2.2c0,1.4,1.1,2.5,2.5,2.5
					C74.7,23.6,75.4,23.2,75.9,22.6z"/>
			</g>
			<g id="XMLID_447_">
				
					<ellipse id="XMLID_451_" transform="matrix(6.111570e-03 -1 1 6.111570e-03 63.6695 111.9134)" class="st4" cx="88.1" cy="23.9" rx="7.4" ry="7.4"/>
				
					<ellipse id="XMLID_450_" transform="matrix(6.111570e-03 -1 1 6.111570e-03 63.6695 111.9134)" class="st0" cx="88.1" cy="23.9" rx="5.3" ry="5.3"/>
				
					<ellipse id="XMLID_449_" transform="matrix(6.111570e-03 -1 1 6.111570e-03 63.6695 111.9134)" class="st5" cx="88.1" cy="23.9" rx="3.7" ry="3.7"/>
				<path id="XMLID_448_" class="st4" d="M93.3,22.8c-0.4-1.7-1.6-3.1-3.1-3.7c-0.8,0.4-1.3,1.2-1.3,2.2c0,1.4,1.1,2.5,2.5,2.5
					C92.1,23.7,92.8,23.3,93.3,22.8z"/>
			</g>
		</g>
	</g>
	<g id="XMLID_429_">
		<path id="XMLID_444_" class="st6" d="M102.6,112.9c0,1,0.7,2,1.7,2.2c1.1,0.3,2.8,0.6,4.8,0.8c1,0.1,1.8-0.7,1.9-1.6
			c0-0.3,0.1-0.6,0.1-1c0.2-1,1.2-1.5,2.2-1.2c3,0.7,9.2,2.2,14,2.3c1,0,1.6,0.7,1.4,1.7l-0.1,0.5c-0.2,0.9,0.4,1.9,1.3,2.2
			c1.6,0.4,4.2,0.9,6.6,0.9c1,0,1.8-0.9,1.9-1.9c0.9-9.1,5.4-51.3,8.8-68.8c0.3-1.3-0.5-2.5-1.8-2.7c-5.9-1.2-22.1-4-31.3-2.7
			c-1.3,0.2-2.4,1.5-2.6,2.8C109.8,56.8,103,101.6,102.6,112.9z"/>
		<g id="XMLID_439_">
			
				<ellipse id="XMLID_443_" transform="matrix(0.1664 -0.9861 0.9861 0.1664 43.0768 165.5652)" class="st7" cx="119.5" cy="57.3" rx="6.5" ry="6.5"/>
			
				<ellipse id="XMLID_442_" transform="matrix(0.1664 -0.9861 0.9861 0.1664 43.0769 165.5652)" class="st6" cx="119.5" cy="57.3" rx="4.6" ry="4.6"/>
			
				<ellipse id="XMLID_441_" transform="matrix(0.1664 -0.9861 0.9861 0.1664 43.0768 165.5652)" class="st2" cx="119.5" cy="57.3" rx="2.4" ry="2.4"/>
			
				<ellipse id="XMLID_440_" transform="matrix(0.6722 -0.7403 0.7403 0.6722 -2.7428 105.556)" class="st7" cx="117.8" cy="55.9" rx="2.6" ry="2"/>
		</g>
		<g id="XMLID_434_">
			
				<ellipse id="XMLID_438_" transform="matrix(0.1664 -0.9861 0.9861 0.1664 54.0739 182.6755)" class="st7" cx="135.1" cy="59.4" rx="6.5" ry="6.5"/>
			
				<ellipse id="XMLID_437_" transform="matrix(0.1664 -0.9861 0.9861 0.1664 54.0739 182.6755)" class="st6" cx="135.1" cy="59.4" rx="4.6" ry="4.6"/>
			
				<ellipse id="XMLID_436_" transform="matrix(0.1664 -0.9861 0.9861 0.1664 54.0739 182.6755)" class="st2" cx="135.1" cy="59.4" rx="2.4" ry="2.4"/>
			
				<ellipse id="XMLID_435_" transform="matrix(0.6722 -0.7403 0.7403 0.6722 0.8576 117.7904)" class="st7" cx="133.5" cy="57.9" rx="2.6" ry="2"/>
		</g>
		<path id="XMLID_433_" class="st2" d="M119.8,68.8c0,0,7.1,0.1,12.7,3.1c0,0-1.5,25.6-9.6,24.3C114.9,94.8,119.8,68.8,119.8,68.8z"
			/>
		<path id="XMLID_432_" class="st7" d="M122,75.2l3.1,0.2l1-5.8c-1.4-0.3-2.8-0.5-3.8-0.6L122,75.2z"/>
		<path id="XMLID_431_" class="st6" d="M111.3,47.1C111.2,47.1,111.2,47.1,111.3,47.1c0,0-14.3-0.2-16.2,10.7
			c-1.4,8.4,4.5,9.6,4.5,9.6s-5-12.3,10.3-11l0,0C110.4,52.6,110.9,49.3,111.3,47.1z"/>
		<path id="XMLID_430_" class="st6" d="M146.8,50.9c-0.5,2.7-1,5.8-1.5,9.2c13.6,4,5.2,13.5,5.2,13.5s6,0.8,7.4-7.6
			C159.4,56.7,149.5,52,146.8,50.9z"/>
	</g>
	<g id="XMLID_257_">
		<path id="XMLID_428_" class="st8" d="M32.3,107.8c0,0,6,2,18.2-3.1c0,0,1.7,8.6,2.1,11.1c0.4,2.5,8.2,1.1,9.5-1.4
			c1.3-2.5,2-18.6-6.2-51.5c-0.7-2.8-3-10.3-10.6-9.7c-7.6,0.6-22,5-27.5,6.5c-5.5,1.5-8.3,5.4-6.7,15.4c1.6,10,9.3,40.6,13.2,45.2
			c2.4,2.9,10.6-0.8,10.3-2.7C34.3,115.8,32.4,111,32.3,107.8z"/>
		<g id="XMLID_417_">
			<g id="XMLID_423_">
				
					<ellipse id="XMLID_427_" transform="matrix(0.9812 -0.1931 0.1931 0.9812 -14.1962 5.9478)" class="st9" cx="23.4" cy="75.8" rx="7.8" ry="7.8"/>
				
					<ellipse id="XMLID_426_" transform="matrix(0.9812 -0.1931 0.1931 0.9812 -14.1962 5.9478)" class="st8" cx="23.4" cy="75.8" rx="5.6" ry="5.6"/>
				
					<ellipse id="XMLID_425_" transform="matrix(0.9812 -0.1931 0.1931 0.9812 -14.1962 5.9478)" class="st5" cx="23.4" cy="75.8" rx="3.9" ry="3.9"/>
				<path id="XMLID_424_" class="st9" d="M28.5,73.5c-0.7-1.7-2.3-2.8-4-3.2c-0.7,0.6-1.1,1.5-0.9,2.5c0.3,1.4,1.7,2.3,3.1,2.1
					C27.5,74.7,28.2,74.2,28.5,73.5z"/>
			</g>
			<g id="XMLID_418_">
				
					<ellipse id="XMLID_422_" transform="matrix(0.9812 -0.1931 0.1931 0.9812 -13.0105 9.9005)" class="st9" cx="44.3" cy="71.7" rx="9.5" ry="9.5"/>
				
					<ellipse id="XMLID_421_" transform="matrix(0.9812 -0.1931 0.1931 0.9812 -13.0105 9.9005)" class="st8" cx="44.3" cy="71.7" rx="6.8" ry="6.8"/>
				
					<ellipse id="XMLID_420_" transform="matrix(0.9812 -0.1931 0.1931 0.9812 -13.0105 9.9005)" class="st5" cx="44.3" cy="71.7" rx="4.7" ry="4.7"/>
				<path id="XMLID_419_" class="st9" d="M50.5,68.9c-0.9-2-2.8-3.5-4.9-3.9c-0.9,0.7-1.3,1.9-1.1,3.1c0.3,1.7,2,2.9,3.8,2.5
					C49.3,70.4,50.1,69.7,50.5,68.9z"/>
			</g>
		</g>
		<g id="XMLID_414_">
			<path id="XMLID_416_" class="st8" d="M11.2,74.9c-0.6-3.8-0.5-6.7,0.1-9l0,0c0,0-10.6-1.3-6.1-12.4C5.2,53.5-9.7,69.6,11.2,74.9
				C11.1,74.9,11.1,74.9,11.2,74.9z"/>
			<path id="XMLID_415_" class="st8" d="M53.5,43.5c6.9,7.1,1.9,11.8-0.1,13.3c1.6,2.1,2.3,4.6,2.6,6c0.2,0.8,0.4,1.6,0.6,2.4
				C73.1,52.7,53.5,43.5,53.5,43.5z"/>
		</g>
		<g id="XMLID_258_">
			<path id="XMLID_263_" class="st5" d="M20.3,89.6c0,0,24.8-2.9,35.5-5.9c0,0,3.6,14.5-6.8,17c-10.3,2.5-18.2,4.2-21.9,1.6
				C20.9,98,20.3,89.6,20.3,89.6z"/>
			<g id="XMLID_259_">
				<path id="XMLID_262_" class="st9" d="M53.6,86.7c1.2-0.2,1.9-1.3,1.7-2.5c0-0.1-0.1-0.2-0.1-0.3c-10,2.7-30.7,5.2-34.3,5.6
					c0,0.1,0,0.2,0,0.3c0.4,2,2.3,3.3,4.3,2.9c1.3-0.3,2.3-1.2,2.7-2.4c0,0.1,0,0.1,0,0.2c0.4,2.1,2.5,3.5,4.6,3.1
					c1.7-0.3,3-1.8,3.2-3.4c1.2,1.9,3.4,3,5.7,2.5c2.1-0.4,3.7-2,4.2-4c0.7,1.4,2.3,2.2,3.9,1.9c1.9-0.4,3.1-2.1,2.9-4
					C52.8,86.7,53.2,86.8,53.6,86.7z"/>
				<path id="XMLID_261_" class="st9" d="M31.6,99.8c-0.9,0.7-0.7,2.5-0.4,3.9c1.2,0.1,2.5,0.1,3.9-0.1
					C34.3,101.7,32.6,98.9,31.6,99.8z"/>
				<path id="XMLID_260_" class="st9" d="M49,100.8c0.5-0.1,0.9-0.2,1.3-0.4c-0.2-1.5-0.7-3.5-1.9-3.9c-1.3-0.4-1.8,3-1.8,4.9
					C47.3,101.2,48.1,101,49,100.8z"/>
			</g>
		</g>
	</g>
</g>
</svg>
