<?xml version="1.0" encoding="utf-8"?>
<!-- Generator: Adobe Illustrator 21.0.0, SVG Export Plug-In . SVG Version: 6.00 Build 0)  -->
<svg version="1.1" id="Layer_1" xmlns="http://www.w3.org/2000/svg" xmlns:xlink="http://www.w3.org/1999/xlink" x="0px" y="0px"
	 viewBox="0 0 110 50.3" style="enable-background:new 0 0 110 50.3;" xml:space="preserve">
<style type="text/css">
	.st0{fill:#FFFFFF;}
	.st1{clip-path:url(#SVGID_2_);fill:#FFFFFF;}
</style>
<g>
	<path class="st0" d="M65.1,44.9c-1.5-2.4-2.5-4.1-2.8-4.2v0c1-0.4,1.8-1.2,1.8-2.5c0-1.4-0.9-2.5-3-2.5h-1.9v9.2h1V41h1
		c0.4,0.1,1.3,1.6,2.8,3.9H65.1L65.1,44.9z M63,38.3c0,1-0.8,1.8-1.9,1.8h-0.9v-3.4H61C62.5,36.6,63,37.4,63,38.3 M70.7,41.7v-0.2
		c0-2.1-0.9-3.4-2.6-3.4c-1.6,0-2.7,1.4-2.7,3.3c0,1.9,1,3.6,3.1,3.6c0.8,0,1.6-0.3,2.1-0.7l-0.3-0.7c-0.4,0.3-1,0.5-1.6,0.5
		c-1.5,0-2.2-1.1-2.2-2.4H70.7L70.7,41.7z M69.6,40.9h-3.1c0-1,0.6-1.9,1.6-1.9C69.1,39,69.6,39.9,69.6,40.9 M75.8,43.1
		c0-2.2-3.1-1.8-3.1-3.3c0-0.6,0.6-0.8,1.2-0.8c0.7,0,1.2,0.2,1.6,0.4v-0.9c-0.4-0.2-1-0.4-1.7-0.4c-1.5,0-2.2,0.8-2.2,1.7
		c0,2.3,3,1.7,3,3.4c0,0.6-0.6,1-1.4,1c-0.7,0-1.3-0.3-1.6-0.5l-0.4,0.8c0.4,0.3,1,0.5,2,0.5C74.7,45,75.8,44.4,75.8,43.1
		 M82.6,41.6c0-1.1-0.3-2-0.9-2.6c-0.5-0.5-1.2-0.9-2.1-0.9c-0.8,0-1.5,0.3-2.1,0.9c-0.6,0.6-0.9,1.5-0.9,2.6c0,1.1,0.3,2,0.9,2.6
		c0.5,0.5,1.2,0.8,2.1,0.8c0.9,0,1.6-0.3,2.1-0.8C82.3,43.6,82.6,42.6,82.6,41.6 M81.6,41.5c0,1.6-0.7,2.6-2,2.6c-1.2,0-2-1-2-2.6
		c0-1.6,0.7-2.6,2-2.6C80.8,39,81.6,40,81.6,41.5 M89,44.9c-0.1-0.3-0.1-0.7-0.1-2.8v-3.8h-1v5c-0.3,0.4-0.9,0.9-1.8,0.9
		c-0.8,0-1.3-0.4-1.3-1.5v-4.3h-1v4.4c0,1.9,1.1,2.3,2,2.3c0.9,0,1.7-0.4,2.1-0.8l0.3,0.7H89L89,44.9z M94,38.3
		c-0.1-0.1-0.4-0.2-0.7-0.2c-0.5,0-1,0.1-1.9,0.9l-0.1-0.8h-0.8v6.6h1V40c0.4-0.5,1.1-0.8,1.5-0.8c0.3,0,0.5,0.1,0.6,0.1L94,38.3
		L94,38.3z M99.2,44.4l-0.3-0.7c-0.4,0.3-0.9,0.5-1.7,0.5c-1.4,0-2.2-1.1-2.2-2.5c0-1.5,0.8-2.6,2.2-2.6c0.7,0,1.3,0.2,1.7,0.5v-1
		c-0.4-0.3-1.1-0.4-1.7-0.4c-2.2,0-3.3,1.7-3.3,3.6c0,1.8,1,3.4,3.1,3.4C97.9,45,98.7,44.7,99.2,44.4 M104.9,41.7v-0.2
		c0-2.1-0.9-3.4-2.6-3.4c-1.6,0-2.7,1.4-2.7,3.3c0,1.9,1,3.6,3.1,3.6c0.8,0,1.6-0.3,2.1-0.7l-0.3-0.7c-0.4,0.3-1,0.5-1.6,0.5
		c-1.5,0-2.2-1.1-2.2-2.4H104.9L104.9,41.7z M103.8,40.9h-3.1c0-1,0.6-1.9,1.6-1.9C103.3,39,103.8,39.9,103.8,40.9 M110,43.1
		c0-2.2-3.1-1.8-3.1-3.3c0-0.6,0.6-0.8,1.2-0.8c0.7,0,1.2,0.2,1.6,0.4v-0.9c-0.4-0.2-1-0.4-1.7-0.4c-1.5,0-2.2,0.8-2.2,1.7
		c0,2.3,3,1.7,3,3.4c0,0.6-0.6,1-1.4,1c-0.7,0-1.3-0.3-1.6-0.5l-0.4,0.8c0.4,0.3,1,0.5,2,0.5C108.8,45,110,44.4,110,43.1"/>
	<g>
		<defs>
			<rect id="SVGID_1_" width="110" height="50.3"/>
		</defs>
		<clipPath id="SVGID_2_">
			<use xlink:href="#SVGID_1_"  style="overflow:visible;"/>
		</clipPath>
		<path class="st1" d="M66.2,33.4v-9.2h-1v4.1h-5.1v-4.1h-1v9.2h1v-4.2h5.1v4.2H66.2L66.2,33.4z M73.3,33.4
			c-0.1-0.3-0.1-0.7-0.1-2.8v-3.8h-1v5c-0.3,0.4-0.9,0.9-1.8,0.9c-0.8,0-1.3-0.4-1.3-1.5v-4.3h-1v4.4c0,1.9,1.1,2.3,2,2.3
			c0.9,0,1.7-0.4,2.1-0.8l0.3,0.7H73.3L73.3,33.4z M84.1,33.4v-4.7c0-1.6-1-2.1-2-2.1c-0.8,0-1.7,0.4-2.4,1.1
			c-0.2-0.7-0.8-1.1-1.6-1.1c-0.7,0-1.5,0.3-2.4,1l-0.1-0.8h-0.9v6.6h1v-4.8c0.5-0.5,1.2-1,2.1-1c0.9,0,1.1,0.6,1.1,1.5v4.3h1v-4.5
			c0-0.1,0-0.3,0-0.4c0.5-0.5,1.2-1,2.1-1c0.9,0,1.1,0.6,1.1,1.5v4.4H84.1L84.1,33.4z M90.3,33.4c-0.1-0.2-0.1-0.7-0.1-2.5v-2
			c0-1.7-1-2.2-2.3-2.2c-0.8,0-1.5,0.2-2.3,0.8l0.4,0.7c0.4-0.3,0.9-0.6,1.7-0.6c0.8,0,1.4,0.4,1.4,1.5v0.3l-1.3,0
			c-1.7,0.1-2.7,0.9-2.7,2.2c0,1.3,0.9,2,2,2c1,0,1.6-0.4,2-0.8l0.3,0.6H90.3L90.3,33.4z M89.2,31.9c-0.3,0.3-0.8,0.8-1.7,0.8
			c-0.9,0-1.3-0.5-1.3-1.2c0-0.7,0.5-1.1,1.7-1.2l1.3,0V31.9L89.2,31.9z M96.9,33.4v-4.4c0-1.7-1-2.3-1.9-2.3c-0.9,0-1.6,0.4-2.4,1
			l-0.1-0.8h-0.8v6.6h1v-4.8c0.5-0.5,1.2-1,2.1-1c1,0,1.1,0.9,1.1,1.8v4.1"/>
		<path class="st1" d="M48.6,6c-2-5.5-6.3-7.1-11.7-5.3C27.4,3.8,19.1,8.8,11.6,15C22.3,10.4,34.9,7.4,48.6,6"/>
		<path class="st1" d="M39.3,28.5h4.2l-2.1-4.9L39.3,28.5L39.3,28.5z M45.5,33.4l-1.2-2.9h-5.8l-1.3,2.9H35l5.4-12.3h2l5.4,12.3
			H45.5L45.5,33.4z M34.1,31.7c-1.2,1-2.9,1.9-5.1,1.9c-3.8,0-6.3-2.7-6.3-6.3v0c0-3.4,2.6-6.3,6.3-6.3c2.1,0,3.4,0.6,4.7,1.7
			l-1.4,1.6c-0.9-0.8-1.9-1.3-3.4-1.3c-2.2,0-4,2-4,4.3v0c0,2.5,1.7,4.4,4.1,4.4c1.1,0,2.2-0.4,2.9-0.9v-2.3h-3.1v-1.9h5.2V31.7
			L34.1,31.7z M20.7,33.4h-1.8l-6.7-8.7v8.7h-2.1V21.2h2l6.5,8.4v-8.4h2.1V33.4L20.7,33.4z M49.3,8.3c-14.3,1-27.7,3.8-39.3,8
			c-2.4,2.1-4.7,4.2-7,6.5C-1.9,27.8-0.1,33.2,3.2,36c8.9,7.5,19.9,12.6,32,14c6.2,0.8,11.1,1,14-9.3C52.3,30.4,52.1,18.8,49.3,8.3"
			/>
	</g>
</g>
</svg>
