<?xml version="1.0" encoding="utf-8"?>
<!-- Generator: Adobe Illustrator 21.0.0, SVG Export Plug-In . SVG Version: 6.00 Build 0)  -->
<svg version="1.1" id="Layer_1" xmlns="http://www.w3.org/2000/svg" xmlns:xlink="http://www.w3.org/1999/xlink" x="0px" y="0px"
	 viewBox="0 0 54.8 24.8" style="enable-background:new 0 0 54.8 24.8;" xml:space="preserve">
<style type="text/css">
	.st0{fill:#FFFFFF;}
</style>
<g>
	<path class="st0" d="M1.9,8.7c1.5-1.8,3.6-3.5,6.3-3.5c0.5,0,0.8,0.1,0.9,0.1v1.5c0,0-0.5,0-0.8,0c-2.8,0-4.8,1.8-6.4,3.6v14.4H0
		V5.2h0.9c0.8,0,1,0.2,1,2.1V8.7L1.9,8.7z"/>
	<path class="st0" d="M23.1,20.2v-4.7c-1.5-0.3-3.1-0.6-5-0.6c-3.4,0-6,1.2-6,4.2c0,3.1,2,4.3,4.6,4.3C19.8,23.3,21.5,22,23.1,20.2
		 M23.1,22c-1.6,1.7-3.4,2.8-6.6,2.8c-3.6,0-6.2-2-6.2-5.6c0-3.9,3.2-5.6,7.7-5.6c1.8,0,3.5,0.2,5.1,0.6v-3.5c0-3-1.9-4.1-4.7-4.1
		c-2.8,0-4.8,0.7-6,1.7h-0.8V6.8c1.6-0.8,3.7-1.7,6.8-1.7c3.9,0,6.5,1.4,6.5,5.4v14.2h-0.5c-1.1,0-1.3-0.3-1.3-1.9V22L23.1,22z"/>
	<path class="st0" d="M29.4,13.6h12.7C42,8.5,39.6,6.5,36,6.5C32.5,6.5,29.9,8.9,29.4,13.6 M36.7,23.2c3.1,0,5-1,6-2h0.8v1.4
		c-1.4,1.1-3.5,2.1-7,2.1c-5.8,0-9-3.7-9-9.7c0-6.1,3.6-9.9,8.5-9.9c4.7,0,7.9,2.7,7.9,9c0,0.4,0,0.8,0,0.9H29.4
		C29.4,20.4,31.9,23.2,36.7,23.2"/>
	<path class="st0" d="M45.2,5.2h2.6V0h1.8v5.2h5.2v1.4h-5.2v13.7c0,2.3,1.1,3.1,3.4,3.1h1.8v1.3c-0.6,0.1-1.3,0.2-2.4,0.2
		c-3,0-4.6-1.3-4.6-4.4V6.5h-2.6V5.2L45.2,5.2z"/>
</g>
</svg>
