<?xml version="1.0" encoding="utf-8"?>
<!-- Generator: Adobe Illustrator 21.0.0, SVG Export Plug-In . SVG Version: 6.00 Build 0)  -->
<svg version="1.1" id="Layer_1" xmlns="http://www.w3.org/2000/svg" xmlns:xlink="http://www.w3.org/1999/xlink" x="0px" y="0px"
	 viewBox="0 0 181.5 38.3" style="enable-background:new 0 0 181.5 38.3;" xml:space="preserve">
<style type="text/css">
	.st0{fill:#FFFFFF;}
</style>
<g>
	<g>
		<path class="st0" d="M167.7,4.9L167.7,4.9L167.7,4.9z"/>
		<g>
			<path class="st0" d="M168.5,16.6c-0.6-0.1-1-0.2-1.3-0.5c-1.6-1.4-1-7.7,0.5-11.2h0c0.1-0.3,0.3-0.6,0.4-0.8
				c1-1.9,2.2-3.2,3.1-3.8c-3.7,2-9,11.8-7.4,14.6c0.1,0.2,0.3,0.5,0.6,0.7C165.1,16.2,166.8,16.5,168.5,16.6"/>
			<path class="st0" d="M178.9,8.5C178.9,8.5,178.9,8.6,178.9,8.5C178.9,8.6,178.9,8.5,178.9,8.5L178.9,8.5z"/>
			<path class="st0" d="M179.4,9.2c0.5,0.9,0.8,1.6,0.7,2.2c-0.4,2.4-8,5.6-11.6,5.2c-1.7-0.1-3.4-0.5-4.2-1
				c3.1,2.5,14.9,2.2,16.6-0.7c0.2-0.3,0.3-0.6,0.3-1C181.4,12.6,180.3,10.6,179.4,9.2"/>
			<path class="st0" d="M172.4,0c-0.4,0-0.8,0.1-1.2,0.4c-0.9,0.5-2,1.8-3.1,3.8c0.4-0.8,0.9-1.3,1.4-1.5c2-0.7,7,2.9,9.4,6h0
				c0,0,0,0,0,0c0.2,0.2,0.3,0.4,0.5,0.7c0.9,1.4,2,3.4,1.9,4.8C181.7,9.9,175.7,0,172.4,0"/>
			<path class="st0" d="M167.7,4.9c0.1-0.3,0.3-0.6,0.4-0.8c1-1.9,2.2-3.2,3.1-3.8c-0.5,0.3-1,0.6-1.5,1.1c-0.6,0.7-1.2,1.6-1.8,2.6
				c-0.1,0.2-0.3,0.5-0.4,0.8c-1.5,3.5-2.1,9.8-0.5,11.2c0.3,0.2,0.7,0.4,1.2,0.5c0.1,0,0.2,0,0.3,0c-0.6-0.1-1-0.2-1.3-0.5
				C165.6,14.7,166.2,8.4,167.7,4.9"/>
			<path class="st0" d="M181.2,12.3c-0.4-1.2-1-2.3-1.7-3.4c-0.7-1-1.6-2-2.5-2.8c-0.9-0.9-1.9-1.7-3-2.4c-0.6-0.4-1.1-0.7-1.7-0.9
				c-0.6-0.3-1.2-0.5-1.9-0.5c-0.5,0-0.9,0.2-1.3,0.5c-0.4,0.4-0.7,0.9-0.9,1.4c0.3-0.5,0.6-1,1.1-1.3c0.5-0.3,1.1-0.4,1.7-0.2
				c0.6,0.1,1.2,0.4,1.8,0.7c0.6,0.3,1.2,0.7,1.7,1c1.9,1.3,3.7,3,5,4.9c0.4,0.5,0.7,1.1,1,1.7c0.3,0.6,0.6,1.2,0.8,1.8
				c0.2,0.6,0.3,1.2,0.1,1.8c-0.2,0.6-0.6,1-1,1.3c-1,0.7-2.3,1-3.5,1.2c-1.3,0.2-2.7,0.3-4,0.4c-1.2,0-2.4,0-3.5-0.2
				c-1.2-0.1-2.3-0.4-3.4-0.8c0,0,0,0,0.1,0c-0.5-0.2-1-0.4-1.4-0.8c1.4,1.4,6.2,1.9,7.5,1.9c1.4,0,2.8,0,4.2-0.2
				c1.3-0.2,2.5-0.4,3.7-1c0.7-0.3,1.3-0.8,1.6-1.5C181.7,14,181.4,13.1,181.2,12.3"/>
			<path class="st0" d="M14.1,17.8h-0.3c-0.4-2.6-1.9-4.4-4.6-4.4c-4.1,0-6.5,3.4-6.5,7.3c0,4.4,3.4,7.5,6.7,7.5
				c3,0,4.1-2.2,5.2-4.6l0.3,0.1c-0.3,1.4-0.7,2.7-1.2,4c-1.4,0.7-3,1-4.6,1C4.2,28.7,0,26,0,20.9c0-4,3.1-8.1,9.1-8.1
				c1.7,0,3.5,0.3,4.9,1.2V17.8z"/>
			<path class="st0" d="M17.1,21c0-2.4-0.1-2.8-1.9-2.9v-0.2l3.9-0.1c4-0.1,4.3,1.8,4.3,2.6c0,1.3-0.8,2.1-2,2.6l0.1,0.1
				c1.2,2.1,2.7,4.9,5.3,5.4l0,0.2c-1.7-0.1-2.9,0-3.8-1c-1-1.1-1.9-2.5-2.2-3.2c-0.6-1.3-1.2-0.9-2.3-1.1v2.5c0,1.7,0,2.1,2.2,2.4
				v0.2h-5.5v-0.2c1.9-0.3,1.9-0.7,2-2.4V21z M18.5,23.1c1.5,0,3.3-0.7,3.3-2.5c0-1.8-1.6-2.6-3.3-2.6V23.1z"/>
			<path class="st0" d="M37.4,23.1c0,3.4-2.5,5.6-5.8,5.6c-3.3,0-5.8-2.2-5.8-5.6c0-3.4,2.5-5.5,5.8-5.5
				C35.7,17.5,37.4,20.3,37.4,23.1 M27.7,22.7c0,2.5,1.3,5.6,4.1,5.6c2.6,0,3.8-2.7,3.8-4.9c0-2.8-1.7-5.5-4.1-5.5
				C28.8,17.9,27.7,20.6,27.7,22.7"/>
			<path class="st0" d="M44.5,20.5h-0.3C44,19.2,43.6,18,42,18c-1,0-1.9,0.7-1.9,1.7c0,2.7,5,2.6,5,5.8c0,2-2,3.1-3.8,3.1
				c-1,0-2-0.3-2.8-0.8l-0.5-2.7h0.3c0.4,1.5,1.5,3,3.2,3c1.2,0,2.1-0.7,2.1-1.9c0-2.8-4.8-2.6-4.8-5.7c0-1.9,1.8-3,3.5-3
				c0.8,0,1.6,0.2,2.3,0.6L44.5,20.5z"/>
			<path class="st0" d="M52.6,20.5h-0.3c-0.3-1.3-0.7-2.5-2.2-2.5c-1,0-1.8,0.7-1.8,1.7c0,2.7,5,2.6,5,5.8c0,2-2,3.1-3.8,3.1
				c-1,0-2-0.3-2.8-0.8l-0.5-2.7h0.3c0.4,1.5,1.5,3,3.2,3c1.2,0,2.1-0.7,2.1-1.9c0-2.8-4.8-2.6-4.8-5.7c0-1.9,1.8-3,3.5-3
				c0.8,0,1.6,0.2,2.3,0.6L52.6,20.5z"/>
			<path class="st0" d="M93.8,23.1c0,3.4-2.5,5.6-5.8,5.6c-3.3,0-5.8-2.2-5.8-5.6c0-3.4,2.5-5.5,5.8-5.5
				C92,17.5,93.8,20.3,93.8,23.1 M84,22.7c0,2.5,1.3,5.6,4.1,5.6c2.6,0,3.8-2.7,3.8-4.9c0-2.8-1.7-5.5-4.1-5.5
				C85.1,17.9,84,20.6,84,22.7"/>
			<path class="st0" d="M97.9,28.8h-0.2L95.2,20c-0.4-1.2-0.4-1.7-1.8-2v-0.2h4.5V18c-1.9,0.3-1.5,1.1-1.2,2.4l1.7,5.6l2.5-6.6
				c-0.3-1-0.8-1.2-1.8-1.4v-0.2h4.6V18c-1.7,0.2-1.5,1-1.2,1.9l2,6.3l1.2-3.6c0.3-0.8,1-2.8,1-3.5c0-0.8-0.7-0.9-1.6-1.1v-0.2h4.1
				V18c-0.9,0.1-1.4,0.6-1.8,1.4l-1.1,3l-2.3,6.4h-0.2l-2.8-8.8L97.9,28.8z"/>
			<path class="st0" d="M109.7,28.2c1.9-0.3,1.9-0.7,2-2.4v-5.6c0-1.6-0.1-2.1-2-2.4v-0.2h5.3V18c-1.9,0.3-2,0.7-2,2.4v5.2
				c0,0.8,0,1.6,0.2,2.4l1.9,0.1c2.4,0.2,2.8-0.6,4-2.6l0.2,0.1l-0.9,2.9h-8.8V28.2z"/>
			<path class="st0" d="M119.3,28.2c1.9-0.3,1.9-0.7,2-2.4v-5.6c0-1.6-0.1-2.1-2-2.4v-0.2h8.5l-0.2,2.4h-0.2c-0.1-2-1.6-2.1-3.2-2.1
				h-1.5v4.5h1.6c1.2,0,2.1-0.1,2.3-1.5h0.2v3.5h-0.2c-0.2-1.4-1.1-1.4-2.3-1.4h-1.6v2.6c0,0.9-0.2,2.2,2.4,2.2c2,0,3-0.8,3.4-2.8
				h0.2c0,1.2-0.2,2.2-0.5,3.1h-8.8V28.2z"/>
			<path class="st0" d="M129.8,17.8l3.8-0.1c7-0.2,7.7,3.8,7.7,5.4c0,2.3-1.5,5.4-6.9,5.4l-4.7,0v-0.2c1.9-0.3,1.9-0.7,2-2.4v-5.5
				c0-1.6-0.1-2.1-1.9-2.4V17.8z M133.1,26c0,1.1,0.2,2.1,2.1,2.1c1.8,0,4.3-1.1,4.3-4.7c0-3.8-3-5.4-6.4-5.4V26z"/>
			<path class="st0" d="M153.2,27.3v0.2c-1.7,0.7-3,1.2-4.8,1.2c-3.3,0-6-2-6-5.4c0-3.5,3.1-5.7,6.4-5.7c1.2,0,2.5,0.2,3.7,0.6
				l-0.1,2.8h-0.2c-0.4-1.8-1.7-3-3.6-3c-2.7,0-4.4,2.1-4.4,4.7c0,3.1,2.2,5.5,5.4,5.5c1.4,0,1.4-0.4,1.4-1.4v-0.9
				c0-1.8-0.5-1.9-2.1-2.2v-0.2h4.7v0.2c-1.1,0.2-1.2,0.7-1.2,1.6v2H153.2z"/>
			<path class="st0" d="M154.2,28.2c1.9-0.3,1.9-0.7,2-2.4v-5.6c0-1.6-0.1-2.1-2-2.4v-0.2h8.5l-0.2,2.4h-0.2c-0.1-2-1.6-2.1-3.2-2.1
				h-1.5v4.5h1.6c1.2,0,2.1-0.1,2.3-1.5h0.2v3.5h-0.2c-0.2-1.4-1.1-1.4-2.3-1.4h-1.6v2.6c0,0.9-0.2,2.2,2.4,2.2c2,0,3-0.8,3.4-2.8
				h0.2c0,1.2-0.2,2.2-0.5,3.1h-8.8V28.2z"/>
			<path class="st0" d="M58.2,24.7c0.1,2.3,0.1,3.1,3,3.4v0.3h-7.8v-0.3c2.7-0.4,2.7-1.1,2.8-3.4v-8c-0.1-2.3-0.1-3.1-2.8-3.4V13
				h7.2v0.3c-2.3,0.4-2.3,1.1-2.4,3.4V24.7z M68.4,13v0.3c-2.6,0.3-4.3,2.5-6,4.3l-2.1,2.3l4.6,5.1c1.4,1.5,3,2.7,5,3.3l-0.3,0.2
				c-3.9-0.3-4.4-0.2-6.5-2.5l-4.6-5l3.6-4c2.4-2.7,1.9-3.5,0.4-3.6V13H68.4z"/>
			<path class="st0" d="M71.6,21.1c0-1,0.1-2.2-1.3-2.2v-0.2l2.8-1l0.2,0.1l-0.2,1.7c1.4-1,2.8-1.8,4.3-1.8c2.8,0,2.9,2.3,2.9,3.7
				v4.3c0,1.9,0.2,2.1,2,2.4v0.2h-5.5v-0.2c1.8-0.3,1.9-0.5,1.9-2.4v-2.8c0-1.7,0-4.2-2.9-4.2c-1,0-1.7,0.4-2.5,1.1v5.9
				c0,1.9,0.2,2.1,2,2.4L75,28.4l-5.3,0v-0.3c1.8-0.3,1.9-0.5,2-2.4V21.1z"/>
			<path class="st0" d="M106.4,32.1c0,0,0.1,0,0.2,0C106.6,32.1,106.6,32.3,106.4,32.1"/>
			<path class="st0" d="M112.3,30.7h1.1l2.3,5.9h-1.1l-0.6-1.6h-2.4l-0.6,1.6h-1.1L112.3,30.7z M112,34.3h1.8l-0.9-2.5h0L112,34.3z"
				/>
			<polygon class="st0" points="118,30.7 119.1,30.7 120.1,35.2 120.1,35.2 121.3,30.7 122.4,30.7 123.5,35.2 123.6,35.2 
				124.7,30.7 125.7,30.7 124.1,36.6 123,36.6 121.9,32.1 121.8,32.1 120.6,36.6 119.6,36.6 			"/>
			<path class="st0" d="M126.3,30.7h0.9v0.9h-0.9V30.7z M126.3,32.3h0.9v4.3h-0.9V32.3z"/>
			<rect x="128.3" y="30.7" class="st0" width="0.9" height="5.9"/>
			<path class="st0" d="M131,34.7c0,0.2,0,0.3,0.1,0.5c0,0.2,0.1,0.3,0.2,0.4c0.1,0.1,0.2,0.2,0.4,0.3c0.1,0.1,0.3,0.1,0.5,0.1
				c0.3,0,0.5-0.1,0.7-0.2c0.2-0.1,0.3-0.3,0.4-0.5h0.9c0,0.2-0.1,0.4-0.3,0.6c-0.1,0.2-0.3,0.3-0.4,0.5c-0.2,0.1-0.4,0.2-0.6,0.3
				c-0.2,0.1-0.4,0.1-0.7,0.1c-0.3,0-0.6-0.1-0.9-0.2c-0.3-0.1-0.5-0.3-0.7-0.5c-0.2-0.2-0.3-0.4-0.4-0.7c-0.1-0.3-0.1-0.6-0.1-0.9
				c0-0.3,0-0.6,0.1-0.9c0.1-0.3,0.2-0.5,0.4-0.7c0.2-0.2,0.4-0.4,0.6-0.5c0.3-0.1,0.5-0.2,0.9-0.2c0.3,0,0.6,0.1,0.9,0.2
				c0.3,0.1,0.5,0.3,0.7,0.6c0.2,0.2,0.3,0.5,0.4,0.8c0.1,0.3,0.1,0.6,0.1,0.9H131z M133.2,34.1c0-0.1,0-0.3-0.1-0.4
				c-0.1-0.1-0.1-0.3-0.2-0.4c-0.1-0.1-0.2-0.2-0.3-0.2c-0.1-0.1-0.3-0.1-0.4-0.1c-0.2,0-0.3,0-0.5,0.1c-0.1,0.1-0.3,0.1-0.3,0.2
				c-0.1,0.1-0.2,0.2-0.2,0.4c-0.1,0.1-0.1,0.3-0.1,0.4H133.2z"/>
			<path class="st0" d="M134.4,32.3h1l1.1,3.2h0l1.1-3.2h1l-1.7,4.5c-0.1,0.2-0.2,0.4-0.2,0.6c-0.1,0.2-0.2,0.3-0.3,0.5
				c-0.1,0.1-0.2,0.2-0.4,0.3c-0.2,0.1-0.4,0.1-0.6,0.1c-0.2,0-0.4,0-0.7,0v-0.8c0.1,0,0.2,0,0.2,0c0.1,0,0.1,0,0.2,0
				c0.1,0,0.2,0,0.3,0c0.1,0,0.1-0.1,0.2-0.1c0-0.1,0.1-0.1,0.1-0.2c0-0.1,0.1-0.2,0.1-0.2l0.1-0.3L134.4,32.3z"/>
			<path class="st0" d="M141.6,30.7h2.9c0.5,0,1,0.1,1.3,0.4c0.3,0.2,0.5,0.6,0.5,1.1c0,0.3-0.1,0.6-0.2,0.8
				c-0.1,0.2-0.4,0.4-0.6,0.5v0c0.4,0.1,0.6,0.2,0.8,0.5c0.2,0.3,0.3,0.6,0.3,1c0,0.2,0,0.4-0.1,0.6c-0.1,0.2-0.2,0.4-0.4,0.5
				c-0.2,0.1-0.4,0.3-0.7,0.3c-0.3,0.1-0.6,0.1-1,0.1h-2.7V30.7z M142.6,33.2h1.7c0.2,0,0.5-0.1,0.6-0.2c0.2-0.1,0.2-0.3,0.2-0.6
				c0-0.3-0.1-0.5-0.2-0.6c-0.1-0.1-0.4-0.2-0.6-0.2h-1.7V33.2z M142.6,35.8h1.8c0.3,0,0.6-0.1,0.7-0.2c0.2-0.2,0.3-0.4,0.3-0.7
				c0-0.3-0.1-0.5-0.3-0.7c-0.2-0.2-0.4-0.2-0.7-0.2h-1.8V35.8z"/>
			<path class="st0" d="M147.3,32.3h0.9v0.8h0c0-0.1,0.1-0.2,0.2-0.3c0.1-0.1,0.2-0.2,0.3-0.3c0.1-0.1,0.2-0.2,0.4-0.2
				c0.1-0.1,0.3-0.1,0.4-0.1c0.1,0,0.2,0,0.2,0c0,0,0.1,0,0.1,0v0.9c-0.1,0-0.1,0-0.2,0c-0.1,0-0.1,0-0.2,0c-0.2,0-0.3,0-0.5,0.1
				c-0.1,0.1-0.3,0.2-0.4,0.3c-0.1,0.1-0.2,0.3-0.2,0.5c-0.1,0.2-0.1,0.4-0.1,0.6v2h-0.9V32.3z"/>
			<path class="st0" d="M153.8,35.7c0,0.1,0,0.2,0,0.2c0,0,0.1,0.1,0.2,0.1h0.1c0,0,0.1,0,0.1,0v0.7c0,0-0.1,0-0.1,0
				c-0.1,0-0.1,0-0.2,0c-0.1,0-0.1,0-0.2,0c-0.1,0-0.1,0-0.1,0c-0.2,0-0.4,0-0.5-0.1c-0.1-0.1-0.2-0.2-0.2-0.4
				c-0.2,0.2-0.4,0.3-0.7,0.4c-0.3,0.1-0.5,0.1-0.8,0.1c-0.2,0-0.4,0-0.6-0.1c-0.2-0.1-0.3-0.1-0.5-0.2c-0.1-0.1-0.2-0.2-0.3-0.4
				c-0.1-0.2-0.1-0.3-0.1-0.6c0-0.3,0-0.5,0.1-0.6s0.2-0.3,0.4-0.4c0.2-0.1,0.3-0.2,0.5-0.2c0.2,0,0.4-0.1,0.6-0.1
				c0.2,0,0.3-0.1,0.5-0.1c0.2,0,0.3,0,0.4-0.1c0.1,0,0.2-0.1,0.3-0.2c0.1-0.1,0.1-0.2,0.1-0.3c0-0.1,0-0.2-0.1-0.3
				c-0.1-0.1-0.1-0.1-0.2-0.2c-0.1,0-0.2-0.1-0.3-0.1c-0.1,0-0.2,0-0.3,0c-0.3,0-0.5,0.1-0.7,0.2c-0.2,0.1-0.3,0.3-0.3,0.5h-0.9
				c0-0.3,0.1-0.5,0.2-0.7c0.1-0.2,0.3-0.3,0.4-0.4c0.2-0.1,0.4-0.2,0.6-0.2c0.2,0,0.5-0.1,0.7-0.1c0.2,0,0.4,0,0.6,0.1
				c0.2,0,0.4,0.1,0.6,0.2c0.2,0.1,0.3,0.2,0.4,0.4c0.1,0.2,0.1,0.3,0.1,0.6V35.7z M152.8,34.5c-0.1,0.1-0.3,0.2-0.5,0.2
				c-0.2,0-0.4,0-0.6,0.1c-0.1,0-0.2,0-0.3,0.1c-0.1,0-0.2,0.1-0.2,0.1c-0.1,0.1-0.1,0.1-0.2,0.2c0,0.1-0.1,0.2-0.1,0.3
				c0,0.1,0,0.2,0.1,0.3c0.1,0.1,0.1,0.1,0.2,0.2c0.1,0,0.2,0.1,0.3,0.1c0.1,0,0.2,0,0.3,0c0.1,0,0.2,0,0.3,0c0.1,0,0.2-0.1,0.3-0.1
				c0.1-0.1,0.2-0.2,0.3-0.3c0.1-0.1,0.1-0.2,0.1-0.4V34.5z"/>
			<path class="st0" d="M154.8,32.3h0.9V33l0,0c0.1-0.2,0.3-0.4,0.6-0.6s0.5-0.2,0.8-0.2c0.5,0,0.8,0.1,1.1,0.4
				c0.3,0.2,0.4,0.6,0.4,1.1v2.9h-0.9v-2.7c0-0.3-0.1-0.6-0.2-0.7c-0.1-0.2-0.3-0.2-0.6-0.2c-0.2,0-0.3,0-0.4,0.1
				c-0.1,0.1-0.2,0.1-0.3,0.2c-0.1,0.1-0.2,0.2-0.2,0.4c0,0.1-0.1,0.3-0.1,0.4v2.5h-0.9V32.3z"/>
			<path class="st0" d="M163.5,36.6h-0.9V36h0c-0.1,0.2-0.3,0.4-0.6,0.5c-0.2,0.1-0.5,0.2-0.8,0.2c-0.3,0-0.6-0.1-0.9-0.2
				c-0.3-0.1-0.5-0.3-0.6-0.5c-0.2-0.2-0.3-0.4-0.4-0.7c-0.1-0.3-0.1-0.6-0.1-0.9c0-0.4,0.1-0.7,0.2-1c0.1-0.3,0.2-0.5,0.4-0.7
				c0.2-0.2,0.4-0.3,0.6-0.4c0.2-0.1,0.5-0.1,0.7-0.1c0.1,0,0.3,0,0.4,0c0.1,0,0.3,0.1,0.4,0.1c0.1,0.1,0.2,0.1,0.4,0.2
				c0.1,0.1,0.2,0.2,0.3,0.3h0v-2.2h0.9V36.6z M160.3,34.5c0,0.2,0,0.4,0.1,0.5c0,0.2,0.1,0.3,0.2,0.5c0.1,0.1,0.2,0.2,0.4,0.3
				c0.1,0.1,0.3,0.1,0.5,0.1c0.2,0,0.4,0,0.5-0.1c0.2-0.1,0.3-0.2,0.4-0.3c0.1-0.1,0.2-0.3,0.2-0.5c0-0.2,0.1-0.4,0.1-0.6
				c0-0.5-0.1-0.8-0.3-1.1c-0.2-0.3-0.5-0.4-0.9-0.4c-0.2,0-0.4,0-0.6,0.1c-0.2,0.1-0.3,0.2-0.4,0.4c-0.1,0.1-0.2,0.3-0.2,0.5
				S160.3,34.3,160.3,34.5"/>
		</g>
	</g>
</g>
</svg>
