<svg xmlns="http://www.w3.org/2000/svg" viewBox="0 0 120.24 22.29"><defs><style>.cls-1{fill:#fff;}</style></defs><title>deloitte</title><g id="Layer_2" data-name="Layer 2"><g id="sponsor_logos" data-name="sponsor logos"><path class="cls-1" d="M34,17.59a14.14,14.14,0,0,1-1.71.48,10.52,10.52,0,0,1-2.09.21c-2.3,0-4.11-.77-4.4-2.59h9.82a11.4,11.4,0,0,0,.2-2.09c0-4.15-2.06-8-7.33-8-5.11,0-7.84,4-7.84,8.5,0,5.18,3.62,8.14,8.68,8.14a14.75,14.75,0,0,0,3-.27,12.18,12.18,0,0,0,2.45-.77L34,17.59ZM28.36,9.36a2.6,2.6,0,0,1,2.54,2.76H25.65a2.66,2.66,0,0,1,2.71-2.76Z"/><path class="cls-1" d="M110.22,17.59a14.14,14.14,0,0,1-1.71.48,10.52,10.52,0,0,1-2.09.21c-2.3,0-4.11-.77-4.4-2.59h9.82a11.41,11.41,0,0,0,.2-2.09c0-4.15-2.06-8-7.33-8s-7.84,4-7.84,8.5c0,5.18,3.62,8.14,8.68,8.14a14.76,14.76,0,0,0,3-.27,12.18,12.18,0,0,0,2.45-.77l-.79-3.66Zm-5.59-8.23a2.6,2.6,0,0,1,2.54,2.76h-5.25a2.66,2.66,0,0,1,2.71-2.76Z"/><polygon class="cls-1" points="38.19 0.35 38.19 21.94 43.51 21.94 43.51 0.35 38.19 0.35 38.19 0.35"/><path class="cls-1" d="M54.14,22.28c4.16,0,8.36-2.62,8.36-8.46,0-3.48-2.06-8.16-8.1-8.16-6.22,0-8.49,4.53-8.49,8.42a7.83,7.83,0,0,0,8.23,8.2Zm.07-4c-1.73,0-2.87-1.71-2.87-4.36,0-2.11.76-4.36,2.89-4.36S57,12,57,14c0,2.66-1.11,4.38-2.79,4.38Z"/><polygon class="cls-1" points="64.82 6.01 64.82 21.94 70.15 21.94 70.15 6.01 64.82 6.01 64.82 6.01"/><polygon class="cls-1" points="64.82 0.36 64.82 4.5 70.15 4.5 70.15 0.36 64.82 0.36 64.82 0.36"/><path class="cls-1" d="M74.37,1.68V6h-2V10h2v6.53c0,3.59,1.64,5.79,5.39,5.79A15.6,15.6,0,0,0,82,22.09a11.92,11.92,0,0,0,1.54-.31s0-4.16,0-4.18a11.5,11.5,0,0,1-1.82.26,2.06,2.06,0,0,1-1.52-.52,2.39,2.39,0,0,1-.56-1.75V10H83V6H79.58V1.09l-5.22.59Z"/><path class="cls-1" d="M86.69,1.68V6h-2V10h2v6.53c0,3.59,1.64,5.79,5.39,5.79a15.57,15.57,0,0,0,2.23-.18,12,12,0,0,0,1.54-.31s0-4.16,0-4.18a11.49,11.49,0,0,1-1.82.26,2.06,2.06,0,0,1-1.52-.52,2.39,2.39,0,0,1-.56-1.75V10h3.44V6H91.91V1.09l-5.22.59Z"/><path class="cls-1" d="M114.34,19.34a2.95,2.95,0,1,1,2.95,2.95,2.95,2.95,0,0,1-2.95-2.95Z"/><path class="cls-1" d="M7.71,17.67c-.22,0-.55,0-.77,0H5.25V4.42c.58-.05,1.33-.09,1.82-.09,3.1,0,6.4,2,6.4,6.65,0,4.84-3.1,6.46-5.76,6.68ZM0,22H6c.41,0,.9,0,1.29,0C15.57,21.51,19,16.63,19,11c0-7-4.75-11-12.95-11C3.95,0,2.08.07,0,.25V22Z"/></g></g></svg>