<?xml version="1.0" encoding="utf-8"?>
<!-- Generator: Adobe Illustrator 19.2.0, SVG Export Plug-In . SVG Version: 6.00 Build 0)  -->
<svg version="1.1" id="Layer_1" xmlns="http://www.w3.org/2000/svg" xmlns:xlink="http://www.w3.org/1999/xlink" x="0px" y="0px"
	 viewBox="0 0 167 60.6" style="enable-background:new 0 0 167 60.6;" xml:space="preserve">
<g>
	<g>
		<g>
			<path style="fill:#0099FF;" d="M51,34.2h-6v-31H21.9L0,35.3v3.9h3v6H0v2.2l0,0v3.8h28v8h17v-8h6v-5.4l0,0v-0.6h5v-6h-5V34.2z
				 M28,15.5v18.7H17.8L28,15.5z"/>
			<path style="fill:#0099FF;" d="M163,45.2v-6.2l0,0v-4.8h-6v-31h-26.8L112,35.3v1.4l0,0v8.5h-5v3h5v3h25v8h20v-8h6v-3h-3v-3H163z
				 M137,15.5v18.7h-10.9L137,15.5z"/>
			<path style="fill:#0099FF;" d="M101.6,44.5c0-0.1,0.1,0.8,0.1,0.8h4.1c0.8-3,1.4-6,1.8-6h-2c0,0,0-1.1,0.1-1.2
				c0.5-2.5,0.7-5.6,0.7-8.3C106.3,14.2,98,0,80.9,0C63.9,0,55.6,13.8,55.6,29.4c0,2.7,0.2,5.2,0.7,7.7c0,0.1,0,1.1,0.1,1.2
				c0.4,2.1,1,4,1.8,7h-2c0,0,0-0.8,0.1-0.8c0.4,0.9,0.8,2.2,1.2,3.1c0,0.1,0.1,0.7,0.1,0.7h2c4,8,11.1,12.4,21.3,12.4
				c10.2,0,17.3-4.4,21.3-12.4h-2c0.1,0,0.1-0.6,0.1-0.7C100.8,46.7,101.2,45.4,101.6,44.5z M80.9,15c5.5,0,8,4.5,8,14.2
				c0,3.1-0.3,6.7-0.8,8.8c0,0.1,0,1.2-0.1,1.2h2c-0.9,3-2.7,6-5.4,6h-3.5c-2.7,0-4.4-3-5.4-6h-2c0,0,0-1.1-0.1-1.2
				c-0.5-2.1-0.8-5.2-0.8-8.3C73,20,75.5,15,80.9,15z"/>
		</g>
		<g>
			<path style="fill:#E80F42;" d="M55,34.2h-6v-31H26.3L4,35.3v3.9h3v6H4v2.2l0,0v3.8h28v8h17v-8h6v-5.4l0,0v-0.6h5v-6h-5V34.2z
				 M32,15.5v18.7h-9.8L32,15.5z"/>
			<path style="fill:#E80F42;" d="M167,45.2v-6.2l0,0v-4.8h-6v-31h-26.4L116,35.3v1.4l0,0v8.5h-5v3h5v3h25v8h20v-8h6v-3h-3v-3H167z
				 M141,15.5v18.7h-10.5L141,15.5z"/>
			<path style="fill:#E80F42;" d="M106,44.5c0-0.1,0.1,0.8,0.1,0.8h4.1c0.8-3,1.4-6,1.8-6h-2c0,0,0-1.1,0.1-1.2
				c0.5-2.5,0.7-5.6,0.7-8.3c0-15.5-8.3-29.7-25.4-29.7C68.3,0,60,13.8,60,29.4c0,2.7,0.2,5.2,0.7,7.7c0,0.1,0,1.1,0.1,1.2
				c0.4,2.1,1,4,1.8,7h-2c0,0,0-0.8,0.1-0.8c0.4,0.9,0.8,2.2,1.2,3.1c0,0.1,0.1,0.7,0.1,0.7h2c4,8,11.1,12.4,21.3,12.4
				c10.2,0,17.3-4.4,21.3-12.4h-2c0.1,0,0.1-0.6,0.1-0.7C105.2,46.7,105.6,45.4,106,44.5z M85.3,15c5.5,0,8,4.5,8,14.2
				c0,3.1-0.3,6.7-0.8,8.8c0,0.1,0,1.2-0.1,1.2h2c-0.9,3-2.7,6-5.4,6h-3.5c-2.7,0-4.4-3-5.4-6h-2c0,0,0-1.1-0.1-1.2
				c-0.5-2.1-0.8-5.2-0.8-8.3C77.4,20,79.8,15,85.3,15z"/>
		</g>
	</g>
	<g>
		<path style="fill:#1C2126;" d="M53,34.2h-6v-31H24.2L2,35.3v3.9h3v6H2v2.2l0,0v3.8h28v8h17v-8h6v-5.4l0,0v-0.6h5v-6h-5V34.2z
			 M30,15.5v18.7h-9.9L30,15.5z"/>
		<path style="fill:#1C2126;" d="M165,45.2v-6.2l0,0v-4.8h-6v-31h-26.4L114,35.3v1.4l0,0v8.5h-5v3h5v3h25v8h20v-8h6v-3h-3v-3H165z
			 M139,15.5v18.7h-10.5L139,15.5z"/>
		<path style="fill:#1C2126;" d="M104,44.5c0-0.1,0.1,0.8,0.1,0.8h4.1c0.8-3,1.4-6,1.8-6h-2c0,0,0-1.1,0.1-1.2
			c0.5-2.5,0.7-5.6,0.7-8.3c0-15.5-8.3-29.7-25.4-29.7C66.2,0,57.9,13.8,57.9,29.4c0,2.7,0.2,5.2,0.7,7.7c0,0.1,0,1.1,0.1,1.2
			c0.4,2.1,1,4,1.8,7h-2c0,0,0-0.8,0.1-0.8c0.4,0.9,0.8,2.2,1.2,3.1c0,0.1,0.1,0.7,0.1,0.7h2c4,8,11.1,12.4,21.3,12.4
			c10.2,0,17.3-4.4,21.3-12.4h-2c0.1,0,0.1-0.6,0.1-0.7C103.2,46.7,103.6,45.4,104,44.5z M83.3,15c5.5,0,8,4.5,8,14.2
			c0,3.1-0.3,6.7-0.8,8.8c0,0.1,0,1.2-0.1,1.2h2c-0.9,3-2.7,6-5.4,6h-3.5c-2.7,0-4.4-3-5.4-6h-2c0,0,0-1.1-0.1-1.2
			c-0.5-2.1-0.8-5.2-0.8-8.3C75.3,20,77.8,15,83.3,15z"/>
	</g>
</g>
</svg>
