<svg id="Layer_1" data-name="Layer 1" xmlns="http://www.w3.org/2000/svg" viewBox="0 0 323.83 43.58"><defs><style>.cls-1{fill:#fff;}</style></defs><title>londonsvg</title><g id="_1_full_color" data-name="1 full color"><path class="cls-1" d="M56,38v0a2.78,2.78,0,0,1-.84,2.19,3.37,3.37,0,0,1-2.4.81,3.33,3.33,0,0,1-2.5-1,3.51,3.51,0,0,1-1-2.55V35.8a3.57,3.57,0,0,1,.94-2.55,3.19,3.19,0,0,1,2.44-1,3.54,3.54,0,0,1,2.47.81,2.77,2.77,0,0,1,.87,2.21v0H54.38A1.86,1.86,0,0,0,54,34a1.62,1.62,0,0,0-1.26-.45,1.43,1.43,0,0,0-1.22.62A2.64,2.64,0,0,0,51,35.79v1.7a2.57,2.57,0,0,0,.47,1.6,1.53,1.53,0,0,0,1.28.62A1.51,1.51,0,0,0,54,39.29,1.87,1.87,0,0,0,54.37,38Z" transform="translate(0 0.23)"/><path class="cls-1" d="M56.85,37.68a3.4,3.4,0,0,1,.79-2.32,2.76,2.76,0,0,1,2.19-.91,2.79,2.79,0,0,1,2.2.9,3.38,3.38,0,0,1,.8,2.33v.12A3.39,3.39,0,0,1,62,40.14a3.14,3.14,0,0,1-4.39,0,3.39,3.39,0,0,1-.79-2.33Zm1.71.12a2.75,2.75,0,0,0,.3,1.39,1.17,1.17,0,0,0,2,0,2.74,2.74,0,0,0,.31-1.39v-.12a2.7,2.7,0,0,0-.31-1.37,1.16,1.16,0,0,0-1.95,0,2.73,2.73,0,0,0-.31,1.37Z" transform="translate(0 0.23)"/><path class="cls-1" d="M65.46,34.57l.08.91a2.32,2.32,0,0,1,.78-.76,2,2,0,0,1,1-.27,1.91,1.91,0,0,1,1.5.6A2.79,2.79,0,0,1,69.39,37v4H67.67v-4a1.29,1.29,0,0,0-.26-.91,1,1,0,0,0-.78-.27,1.32,1.32,0,0,0-.61.14,1.26,1.26,0,0,0-.45.39v4.61H63.86V34.57Z" transform="translate(0 0.23)"/><path class="cls-1" d="M71.11,40.91V35.77h-.94v-1.2h.94v-.7a2.14,2.14,0,0,1,.62-1.64,2.43,2.43,0,0,1,1.73-.58,3.13,3.13,0,0,1,.44,0l.5.09L74.25,33,74,33l-.31,0a.82.82,0,0,0-.63.23.93.93,0,0,0-.21.66v.7h1.26v1.2H72.82v5.14Z" transform="translate(0 0.23)"/><path class="cls-1" d="M77.76,41a2.85,2.85,0,0,1-2.19-.88,3.14,3.14,0,0,1-.82-2.23v-.23a3.47,3.47,0,0,1,.78-2.33,2.89,2.89,0,0,1,4.08-.13,3,3,0,0,1,.71,2.09v.93H76.52v0a1.64,1.64,0,0,0,.42,1,1.31,1.31,0,0,0,1,.4,3.3,3.3,0,0,0,.94-.11,4.35,4.35,0,0,0,.82-.36l.46,1.06a3.14,3.14,0,0,1-1,.53A4.38,4.38,0,0,1,77.76,41Zm-.15-5.26a.89.89,0,0,0-.75.36,1.89,1.89,0,0,0-.34,1l0,0h2.1V37a1.37,1.37,0,0,0-.25-.87A.92.92,0,0,0,77.61,35.77Z" transform="translate(0 0.23)"/><path class="cls-1" d="M84.64,36,84,36a1.14,1.14,0,0,0-.63.16,1,1,0,0,0-.37.45v4.28H81.31V34.57h1.59l.08.94a2,2,0,0,1,.58-.78,1.29,1.29,0,0,1,.82-.28l.24,0,.22,0Z" transform="translate(0 0.23)"/><path class="cls-1" d="M88.31,41a2.85,2.85,0,0,1-2.19-.88,3.14,3.14,0,0,1-.82-2.23v-.23a3.47,3.47,0,0,1,.78-2.33,2.89,2.89,0,0,1,4.08-.13,3,3,0,0,1,.71,2.09v.93H87.08v0a1.64,1.64,0,0,0,.42,1,1.31,1.31,0,0,0,1,.4,3.3,3.3,0,0,0,.94-.11,4.35,4.35,0,0,0,.82-.36l.46,1.06a3.14,3.14,0,0,1-1,.53A4.38,4.38,0,0,1,88.31,41Zm-.15-5.26a.89.89,0,0,0-.75.36,1.89,1.89,0,0,0-.34,1l0,0h2.1V37a1.37,1.37,0,0,0-.25-.87A.92.92,0,0,0,88.16,35.77Z" transform="translate(0 0.23)"/><path class="cls-1" d="M93.42,34.57l.08.91a2.32,2.32,0,0,1,.78-.76,2,2,0,0,1,1-.27,1.91,1.91,0,0,1,1.5.6A2.79,2.79,0,0,1,97.35,37v4H95.64v-4a1.29,1.29,0,0,0-.26-.91,1,1,0,0,0-.78-.27,1.32,1.32,0,0,0-.61.14,1.26,1.26,0,0,0-.45.39v4.61H91.83V34.57Z" transform="translate(0 0.23)"/><path class="cls-1" d="M101.29,39.72a1,1,0,0,0,.73-.26.94.94,0,0,0,.28-.71h1.55l0,0a2,2,0,0,1-.72,1.61,3.05,3.05,0,0,1-4-.25,3.42,3.42,0,0,1-.77-2.3v-.18a3.44,3.44,0,0,1,.76-2.3,2.7,2.7,0,0,1,2.18-.9,2.66,2.66,0,0,1,1.89.67,2.22,2.22,0,0,1,.69,1.76v0H102.3a1.24,1.24,0,0,0-.27-.82.91.91,0,0,0-.74-.33,1,1,0,0,0-1,.53,2.89,2.89,0,0,0-.28,1.36v.18a2.88,2.88,0,0,0,.28,1.37A1,1,0,0,0,101.29,39.72Z" transform="translate(0 0.23)"/><path class="cls-1" d="M107.65,41a2.85,2.85,0,0,1-2.19-.88,3.14,3.14,0,0,1-.82-2.23v-.23a3.47,3.47,0,0,1,.78-2.33,2.89,2.89,0,0,1,4.08-.13,3,3,0,0,1,.71,2.09v.93h-3.79v0a1.64,1.64,0,0,0,.42,1,1.31,1.31,0,0,0,1,.4,3.3,3.3,0,0,0,.94-.11,4.35,4.35,0,0,0,.82-.36l.46,1.06a3.14,3.14,0,0,1-1,.53A4.38,4.38,0,0,1,107.65,41Zm-.15-5.26a.89.89,0,0,0-.75.36,1.89,1.89,0,0,0-.34,1l0,0h2.1V37a1.37,1.37,0,0,0-.25-.87A.92.92,0,0,0,107.5,35.77Z" transform="translate(0 0.23)"/><path class="cls-1" d="M113.88,38.62a1.91,1.91,0,0,1,.38-1.19,5.18,5.18,0,0,1,1.16-1,5.29,5.29,0,0,1-.59-1,2.23,2.23,0,0,1-.2-.91,2.14,2.14,0,0,1,.63-1.62,2.35,2.35,0,0,1,1.69-.61,2.06,2.06,0,0,1,1.51.58,1.89,1.89,0,0,1,.58,1.4,2,2,0,0,1-.29,1,2.83,2.83,0,0,1-.79.83l-.54.39,1.62,1.89a3.14,3.14,0,0,0,.45-1.63h1.28a5.28,5.28,0,0,1-.2,1.49,3.59,3.59,0,0,1-.61,1.21l1.22,1.43v0h-1.9l-.45-.52a4.08,4.08,0,0,1-1,.48,3.85,3.85,0,0,1-1.13.16,3,3,0,0,1-2-.67A2.23,2.23,0,0,1,113.88,38.62Zm2.88,1.1a2.51,2.51,0,0,0,.62-.08,2.57,2.57,0,0,0,.6-.24l-1.76-2-.11.08a1.62,1.62,0,0,0-.41.55,1.41,1.41,0,0,0-.11.54,1.19,1.19,0,0,0,.32.86A1.11,1.11,0,0,0,116.76,39.72Zm-.6-5.25a1.21,1.21,0,0,0,.13.52,3.21,3.21,0,0,0,.38.59l.5-.33a1.22,1.22,0,0,0,.44-.43,1,1,0,0,0,.11-.49.74.74,0,0,0-.21-.52.73.73,0,0,0-.56-.23.71.71,0,0,0-.59.26A1,1,0,0,0,116.16,34.47Z" transform="translate(0 0.23)"/><path class="cls-1" d="M130.44,37.16h-3.53v2.43H131v1.32H125.2V32.38H131V33.7h-4.12v2.14h3.53Z" transform="translate(0 0.23)"/><path class="cls-1" d="M134.33,36.59h0l1-2h1.93l-1.91,3.13,2,3.21h-1.93l-1-2.1-1,2.1H131.4l2-3.21-1.92-3.13h1.92Z" transform="translate(0 0.23)"/><path class="cls-1" d="M143.8,37.92a3.64,3.64,0,0,1-.65,2.26,2.15,2.15,0,0,1-1.82.86,2,2,0,0,1-.88-.18,1.82,1.82,0,0,1-.66-.54v3h-1.71V34.57h1.54l.1.75a2,2,0,0,1,.68-.64,1.83,1.83,0,0,1,.92-.23,2.11,2.11,0,0,1,1.83.92,4.11,4.11,0,0,1,.65,2.42Zm-1.71-.13a3.07,3.07,0,0,0-.3-1.46,1,1,0,0,0-.91-.56,1.28,1.28,0,0,0-.66.16,1.13,1.13,0,0,0-.43.45v2.78a1,1,0,0,0,.43.41,1.45,1.45,0,0,0,.67.14,1,1,0,0,0,.91-.49,2.58,2.58,0,0,0,.29-1.32Z" transform="translate(0 0.23)"/><path class="cls-1" d="M144.59,37.68a3.4,3.4,0,0,1,.79-2.32,2.76,2.76,0,0,1,2.19-.91,2.79,2.79,0,0,1,2.2.9,3.38,3.38,0,0,1,.8,2.33v.12a3.39,3.39,0,0,1-.79,2.33,3.14,3.14,0,0,1-4.39,0,3.39,3.39,0,0,1-.79-2.33Zm1.71.12a2.75,2.75,0,0,0,.3,1.39,1.17,1.17,0,0,0,2,0,2.74,2.74,0,0,0,.31-1.39v-.12a2.7,2.7,0,0,0-.31-1.37,1.16,1.16,0,0,0-1.95,0,2.73,2.73,0,0,0-.31,1.37Z" transform="translate(0 0.23)"/><path class="cls-1" d="M67.89,21.38q-.72.25-1.71.51t-2.12.49q-1.12.23-2.31.36a21.7,21.7,0,0,1-2.33.13,24.71,24.71,0,0,1-4.15-.34,8.58,8.58,0,0,1-3.49-1.38,7.07,7.07,0,0,1-2.39-3,13,13,0,0,1-.89-5.27V.51a14.43,14.43,0,0,1,1.84-.3Q51.25.13,52.1.13t1.74.08a13.05,13.05,0,0,1,1.82.3V12.28a5.27,5.27,0,0,0,.85,3.47,3.32,3.32,0,0,0,2.58.93,10.66,10.66,0,0,0,1.1,0,4.48,4.48,0,0,0,.55-.08V.51a14.45,14.45,0,0,1,1.84-.3q.91-.08,1.76-.08t1.74.08a13.07,13.07,0,0,1,1.82.3ZM81.52.08A22.12,22.12,0,0,1,85.24.4a8.46,8.46,0,0,1,3.37,1.33,7.44,7.44,0,0,1,2.45,2.92,11.33,11.33,0,0,1,1,5V22.35a17.22,17.22,0,0,1-2,.27q-.89.06-1.57.06t-1.61-.06a17.2,17.2,0,0,1-2-.27V10.46A4.88,4.88,0,0,0,84,7.24a3.24,3.24,0,0,0-2.58-1,6.36,6.36,0,0,0-1,.08,2.13,2.13,0,0,0-.66.17V22.35a17.22,17.22,0,0,1-2,.27q-.89.06-1.57.06t-1.61-.06a17.2,17.2,0,0,1-2-.27V1.57a36.56,36.56,0,0,1,3.6-1A24.17,24.17,0,0,1,81.52.08ZM103.7,16.42h8A10.2,10.2,0,0,1,112,18q.06.72.06,1.4T112,20.81a10.16,10.16,0,0,1-.28,1.59H96.54l0-21.89a14.45,14.45,0,0,1,1.84-.3q.91-.08,1.76-.08t1.74.08a13.07,13.07,0,0,1,1.82.3Zm17.06-2.71a3.91,3.91,0,0,0,1.63,2.46,5.78,5.78,0,0,0,3.07.72,14.51,14.51,0,0,0,2.75-.3,16.59,16.59,0,0,0,3-.89,13.58,13.58,0,0,1,1,2.62,12.45,12.45,0,0,1,.49,3.18,22,22,0,0,1-7.7,1.4,14.45,14.45,0,0,1-5.23-.85,9.27,9.27,0,0,1-3.56-2.35,9.42,9.42,0,0,1-2-3.58,14.94,14.94,0,0,1-.66-4.53,14.77,14.77,0,0,1,.68-4.53,10.39,10.39,0,0,1,2-3.68A9.59,9.59,0,0,1,119.66.91,11.51,11.51,0,0,1,124.4,0a10,10,0,0,1,4,.76,8.72,8.72,0,0,1,3,2.1,9.12,9.12,0,0,1,1.88,3.22,12.35,12.35,0,0,1,.66,4.08,18,18,0,0,1-.11,2.05q-.11.91-.19,1.5Zm3.39-8.34a3.43,3.43,0,0,0-2.33.85,3.8,3.8,0,0,0-1.14,2.62h6.77a4.14,4.14,0,0,0-.91-2.48A2.93,2.93,0,0,0,124.14,5.38Zm12.15,9.86a6.13,6.13,0,0,1,.89-3.43,6.7,6.7,0,0,1,2.29-2.16,9.73,9.73,0,0,1,3.09-1.12,17.88,17.88,0,0,1,3.3-.32h2.58A2.27,2.27,0,0,0,148,6.94a2.53,2.53,0,0,0-1-.78,4.74,4.74,0,0,0-1.31-.38,10.17,10.17,0,0,0-1.48-.11,14.34,14.34,0,0,0-2.37.23,17.18,17.18,0,0,0-2.79.74q-.38-.72-.66-1.31A6.43,6.43,0,0,1,138,4.13a9.09,9.09,0,0,1-.21-1.27q-.06-.65-.06-1.5a27,27,0,0,1,4-1A22,22,0,0,1,145.39,0a14,14,0,0,1,4,.53,7.94,7.94,0,0,1,3,1.63A7.22,7.22,0,0,1,154.33,5,11.12,11.12,0,0,1,155,9.06v12.4q-1.61.47-3.89.93a24.17,24.17,0,0,1-4.83.47,19,19,0,0,1-4-.4,9,9,0,0,1-3.15-1.29A6.14,6.14,0,0,1,137,18.82,7.85,7.85,0,0,1,136.29,15.24Zm10,2.37a10.07,10.07,0,0,0,1.1-.08,9.26,9.26,0,0,0,1.06-.17V12.7H146a4.63,4.63,0,0,0-2.5.63,2,2,0,0,0-1,1.78,2.11,2.11,0,0,0,.38,1.33,2.45,2.45,0,0,0,1,.74,4.39,4.39,0,0,0,1.23.34A9.4,9.4,0,0,0,146.28,17.61Zm23.79-8.93a13.84,13.84,0,0,1,2.31.83,6,6,0,0,1,1.78,1.25,5.43,5.43,0,0,1,1.16,1.86,7.45,7.45,0,0,1,.42,2.67,7,7,0,0,1-.66,3,6.65,6.65,0,0,1-1.95,2.41A9.9,9.9,0,0,1,170,22.31a14.49,14.49,0,0,1-4.34.59,22.45,22.45,0,0,1-3.77-.3,20.72,20.72,0,0,1-3.68-1,17,17,0,0,1,1.57-5.84,13.12,13.12,0,0,0,2.84,1,14.09,14.09,0,0,0,3,.32q.51,0,1.06,0a3.81,3.81,0,0,0,1-.19,2,2,0,0,0,.7-.4.92.92,0,0,0-.28-1.5,7.83,7.83,0,0,0-1.27-.49l-2.88-.8a8.19,8.19,0,0,1-3.73-2.16,5.7,5.7,0,0,1-1.48-4.15A6.54,6.54,0,0,1,161.23,2a8.91,8.91,0,0,1,2.9-1.46,12.71,12.71,0,0,1,3.7-.51,20.19,20.19,0,0,1,3.51.34,25.55,25.55,0,0,1,3.77,1,12.91,12.91,0,0,1-.55,2.9,17.27,17.27,0,0,1-1.06,2.73,18.9,18.9,0,0,0-2.75-.85,13,13,0,0,0-3-.38q-2,0-2,1.1a.79.79,0,0,0,.47.72,5.14,5.14,0,0,0,1.06.42Zm22.77,5.63h-6.26v8q-1.1.17-2,.25t-1.61.08q-.72,0-1.61-.08t-1.95-.25V.51a14.44,14.44,0,0,1,1.84-.3q.91-.08,1.76-.08t1.74.08a13.05,13.05,0,0,1,1.82.3V8h6.26V.51a14.45,14.45,0,0,1,1.84-.3q.91-.08,1.76-.08t1.74.08a13.06,13.06,0,0,1,1.82.3V22.35q-1.1.17-2,.25t-1.61.08q-.72,0-1.61-.08t-1.95-.25ZM17.35,27.15v0h0Zm.06.05c5.65,4.42,12.17-.09,17.48-7.23h0V14.26h0c-4.11,9.21-10.44,16.41-17.46,12.94h0c10.3,2.86,16.44-13.58,17.39-27a0,0,0,0,0,0,0h-4.4a0,0,0,0,1,0,0c.65,12.78-3.12,27.6-13,27h0c9.28-1.14,11.24-14.94,9.15-27a0,0,0,0,0,0,0H22.51c3.63,11.09,3.52,24.07-4.94,27h0s0,0,0,0C23.33,19.79,17.34,7.77,8.75.21H0v0c11.44,4.62,22.3,17.22,17.55,26.89a.06.06,0,0,0,0,0C20.18,17.76,10.55,8.41,0,4.85V9.36c9.53,2.22,18.14,9,17.59,17.71v0h0a0,0,0,0,0,0,0h0C14,20.66,6.94,18.66,0,19.93v3.55C6.08,21,12.81,21.62,17.54,27h-.07c-7.6-2.11-12.79,1.6-15.33,7.76l0,.07A13.89,13.89,0,0,0,3.4,36.66l0,0a14.83,14.83,0,0,0,1.4,1.47C5.53,31.38,9.36,26.44,17.44,27h-.07l0,0v0h0a.14.14,0,0,0,0,.08v0h0v0c3.54,6.24,10.55,4.38,17.5-.35,0-.09,0-.18,0-.27v-3h0C28.77,29.4,22,32.47,17.39,27.2Zm-.06,0v0c.92,7.61,8.2,8,16.4,5.67a16,16,0,0,0,.88-3.13C27,33.34,19.73,34.17,17.35,27.15Zm0-.07c-2.15,7.74,4.24,10.61,12.56,11.26a14.61,14.61,0,0,0,2.42-2.79C23.86,36.52,16.81,34.94,17.33,27.08Zm0,0h0c-5,6.35-1,11.26,5.75,14.87A17.45,17.45,0,0,0,27,40.39c-7.79-2.12-13.18-6.08-9.62-13.32h0Zm0-.06h0C9.33,28,7,33.54,7.94,40.38a17.28,17.28,0,0,0,3.79,1.5C9,35.45,9.72,29.6,17.38,27h0c-7,4-6.2,9.76-2.08,15.52.71.07,1.45.1,2.2.1s1.27,0,1.88-.07C13.79,37.78,11.32,32.3,17.38,27Zm.12,0h0c-5.75-4.5-12.27-3.77-17.5,0a17,17,0,0,0,.59,4.19C4.59,25.95,10.64,23.59,17.5,27Zm.06,0h0v0h0v0C16.6,19,8.66,14,0,13v3.71c7.72-.2,15.11,3.1,17.55,10.27h0Z" transform="translate(0 0.23)"/><path class="cls-1" d="M67.89,21.38q-.72.25-1.71.51t-2.12.49q-1.12.23-2.31.36a21.7,21.7,0,0,1-2.33.13,24.71,24.71,0,0,1-4.15-.34,8.58,8.58,0,0,1-3.49-1.38,7.07,7.07,0,0,1-2.39-3,13,13,0,0,1-.89-5.27V.51a14.43,14.43,0,0,1,1.84-.3Q51.25.13,52.1.13t1.74.08a13.05,13.05,0,0,1,1.82.3V12.28a5.27,5.27,0,0,0,.85,3.47,3.32,3.32,0,0,0,2.58.93,10.66,10.66,0,0,0,1.1,0,4.48,4.48,0,0,0,.55-.08V.51a14.45,14.45,0,0,1,1.84-.3q.91-.08,1.76-.08t1.74.08a13.07,13.07,0,0,1,1.82.3ZM81.52.08A22.12,22.12,0,0,1,85.24.4a8.46,8.46,0,0,1,3.37,1.33,7.44,7.44,0,0,1,2.45,2.92,11.33,11.33,0,0,1,1,5V22.35a17.22,17.22,0,0,1-2,.27q-.89.06-1.57.06t-1.61-.06a17.2,17.2,0,0,1-2-.27V10.46A4.88,4.88,0,0,0,84,7.24a3.24,3.24,0,0,0-2.58-1,6.36,6.36,0,0,0-1,.08,2.13,2.13,0,0,0-.66.17V22.35a17.22,17.22,0,0,1-2,.27q-.89.06-1.57.06t-1.61-.06a17.2,17.2,0,0,1-2-.27V1.57a36.56,36.56,0,0,1,3.6-1A24.17,24.17,0,0,1,81.52.08ZM103.7,16.42h8A10.2,10.2,0,0,1,112,18q.06.72.06,1.4T112,20.81a10.16,10.16,0,0,1-.28,1.59H96.54l0-21.89a14.45,14.45,0,0,1,1.84-.3q.91-.08,1.76-.08t1.74.08a13.07,13.07,0,0,1,1.82.3Zm17.06-2.71a3.91,3.91,0,0,0,1.63,2.46,5.78,5.78,0,0,0,3.07.72,14.51,14.51,0,0,0,2.75-.3,16.59,16.59,0,0,0,3-.89,13.58,13.58,0,0,1,1,2.62,12.45,12.45,0,0,1,.49,3.18,22,22,0,0,1-7.7,1.4,14.45,14.45,0,0,1-5.23-.85,9.27,9.27,0,0,1-3.56-2.35,9.42,9.42,0,0,1-2-3.58,14.94,14.94,0,0,1-.66-4.53,14.77,14.77,0,0,1,.68-4.53,10.39,10.39,0,0,1,2-3.68A9.59,9.59,0,0,1,119.66.91,11.51,11.51,0,0,1,124.4,0a10,10,0,0,1,4,.76,8.72,8.72,0,0,1,3,2.1,9.12,9.12,0,0,1,1.88,3.22,12.35,12.35,0,0,1,.66,4.08,18,18,0,0,1-.11,2.05q-.11.91-.19,1.5Zm3.39-8.34a3.43,3.43,0,0,0-2.33.85,3.8,3.8,0,0,0-1.14,2.62h6.77a4.14,4.14,0,0,0-.91-2.48A2.93,2.93,0,0,0,124.14,5.38Zm12.15,9.86a6.13,6.13,0,0,1,.89-3.43,6.7,6.7,0,0,1,2.29-2.16,9.73,9.73,0,0,1,3.09-1.12,17.88,17.88,0,0,1,3.3-.32h2.58A2.27,2.27,0,0,0,148,6.94a2.53,2.53,0,0,0-1-.78,4.74,4.74,0,0,0-1.31-.38,10.17,10.17,0,0,0-1.48-.11,14.34,14.34,0,0,0-2.37.23,17.18,17.18,0,0,0-2.79.74q-.38-.72-.66-1.31A6.43,6.43,0,0,1,138,4.13a9.09,9.09,0,0,1-.21-1.27q-.06-.65-.06-1.5a27,27,0,0,1,4-1A22,22,0,0,1,145.39,0a14,14,0,0,1,4,.53,7.94,7.94,0,0,1,3,1.63A7.22,7.22,0,0,1,154.33,5,11.12,11.12,0,0,1,155,9.06v12.4q-1.61.47-3.89.93a24.17,24.17,0,0,1-4.83.47,19,19,0,0,1-4-.4,9,9,0,0,1-3.15-1.29A6.14,6.14,0,0,1,137,18.82,7.85,7.85,0,0,1,136.29,15.24Zm10,2.37a10.07,10.07,0,0,0,1.1-.08,9.26,9.26,0,0,0,1.06-.17V12.7H146a4.63,4.63,0,0,0-2.5.63,2,2,0,0,0-1,1.78,2.11,2.11,0,0,0,.38,1.33,2.45,2.45,0,0,0,1,.74,4.39,4.39,0,0,0,1.23.34A9.4,9.4,0,0,0,146.28,17.61Zm23.79-8.93a13.84,13.84,0,0,1,2.31.83,6,6,0,0,1,1.78,1.25,5.43,5.43,0,0,1,1.16,1.86,7.45,7.45,0,0,1,.42,2.67,7,7,0,0,1-.66,3,6.65,6.65,0,0,1-1.95,2.41A9.9,9.9,0,0,1,170,22.31a14.49,14.49,0,0,1-4.34.59,22.45,22.45,0,0,1-3.77-.3,20.72,20.72,0,0,1-3.68-1,17,17,0,0,1,1.57-5.84,13.12,13.12,0,0,0,2.84,1,14.09,14.09,0,0,0,3,.32q.51,0,1.06,0a3.81,3.81,0,0,0,1-.19,2,2,0,0,0,.7-.4.92.92,0,0,0-.28-1.5,7.83,7.83,0,0,0-1.27-.49l-2.88-.8a8.19,8.19,0,0,1-3.73-2.16,5.7,5.7,0,0,1-1.48-4.15A6.54,6.54,0,0,1,161.23,2a8.91,8.91,0,0,1,2.9-1.46,12.71,12.71,0,0,1,3.7-.51,20.19,20.19,0,0,1,3.51.34,25.55,25.55,0,0,1,3.77,1,12.91,12.91,0,0,1-.55,2.9,17.27,17.27,0,0,1-1.06,2.73,18.9,18.9,0,0,0-2.75-.85,13,13,0,0,0-3-.38q-2,0-2,1.1a.79.79,0,0,0,.47.72,5.14,5.14,0,0,0,1.06.42Zm22.77,5.63h-6.26v8q-1.1.17-2,.25t-1.61.08q-.72,0-1.61-.08t-1.95-.25V.51a14.44,14.44,0,0,1,1.84-.3q.91-.08,1.76-.08t1.74.08a13.05,13.05,0,0,1,1.82.3V8h6.26V.51a14.45,14.45,0,0,1,1.84-.3q.91-.08,1.76-.08t1.74.08a13.06,13.06,0,0,1,1.82.3V22.35q-1.1.17-2,.25t-1.61.08q-.72,0-1.61-.08t-1.95-.25ZM17.35,27.15v0h0Zm.06.05c5.65,4.42,12.17-.09,17.48-7.23h0V14.26h0c-4.11,9.21-10.44,16.41-17.46,12.94h0c10.3,2.86,16.44-13.58,17.39-27a0,0,0,0,0,0,0h-4.4a0,0,0,0,1,0,0c.65,12.78-3.12,27.6-13,27h0c9.28-1.14,11.24-14.94,9.15-27a0,0,0,0,0,0,0H22.51c3.63,11.09,3.52,24.07-4.94,27h0s0,0,0,0C23.33,19.79,17.34,7.77,8.75.21H0v0c11.44,4.62,22.3,17.22,17.55,26.89a.06.06,0,0,0,0,0C20.18,17.76,10.55,8.41,0,4.85V9.36c9.53,2.22,18.14,9,17.59,17.71v0h0a0,0,0,0,0,0,0h0C14,20.66,6.94,18.66,0,19.93v3.55C6.08,21,12.81,21.62,17.54,27h-.07c-7.6-2.11-12.79,1.6-15.33,7.76l0,.07A13.89,13.89,0,0,0,3.4,36.66l0,0a14.83,14.83,0,0,0,1.4,1.47C5.53,31.38,9.36,26.44,17.44,27h-.07l0,0v0h0a.14.14,0,0,0,0,.08v0h0v0c3.54,6.24,10.55,4.38,17.5-.35,0-.09,0-.18,0-.27v-3h0C28.77,29.4,22,32.47,17.39,27.2Zm-.06,0v0c.92,7.61,8.2,8,16.4,5.67a16,16,0,0,0,.88-3.13C27,33.34,19.73,34.17,17.35,27.15Zm0-.07c-2.15,7.74,4.24,10.61,12.56,11.26a14.61,14.61,0,0,0,2.42-2.79C23.86,36.52,16.81,34.94,17.33,27.08Zm0,0h0c-5,6.35-1,11.26,5.75,14.87A17.45,17.45,0,0,0,27,40.39c-7.79-2.12-13.18-6.08-9.62-13.32h0Zm0-.06h0C9.33,28,7,33.54,7.94,40.38a17.28,17.28,0,0,0,3.79,1.5C9,35.45,9.72,29.6,17.38,27h0c-7,4-6.2,9.76-2.08,15.52.71.07,1.45.1,2.2.1s1.27,0,1.88-.07C13.79,37.78,11.32,32.3,17.38,27Zm.12,0h0c-5.75-4.5-12.27-3.77-17.5,0a17,17,0,0,0,.59,4.19C4.59,25.95,10.64,23.59,17.5,27Zm.06,0h0v0h0v0C16.6,19,8.66,14,0,13v3.71c7.72-.2,15.11,3.1,17.55,10.27h0Z" transform="translate(0 0.23)"/></g><path class="cls-1" d="M229,8h4v.91h-5.19V.38H229Z" transform="translate(0 0.23)"/><path class="cls-1" d="M233.84,5.68a3.49,3.49,0,0,1,.76-2.32,2.82,2.82,0,0,1,4.15,0,3.48,3.48,0,0,1,.76,2.32v.13a3.47,3.47,0,0,1-.76,2.32,2.84,2.84,0,0,1-4.15,0,3.47,3.47,0,0,1-.76-2.32Zm1.15.13a3,3,0,0,0,.42,1.66,1.54,1.54,0,0,0,2.52,0,3,3,0,0,0,.43-1.66V5.68A3,3,0,0,0,237.93,4a1.41,1.41,0,0,0-1.26-.66,1.39,1.39,0,0,0-1.25.66A3,3,0,0,0,235,5.68Z" transform="translate(0 0.23)"/><path class="cls-1" d="M242,2.57l.08.94a2.3,2.3,0,0,1,.79-.78,2.12,2.12,0,0,1,1.09-.28,2.07,2.07,0,0,1,1.59.6,2.63,2.63,0,0,1,.56,1.85v4h-1.15v-4a1.71,1.71,0,0,0-.33-1.19,1.33,1.33,0,0,0-1-.35,1.63,1.63,0,0,0-.88.24,1.75,1.75,0,0,0-.61.66V8.91h-1.15V2.57Z" transform="translate(0 0.23)"/><path class="cls-1" d="M247.49,5.86a4.23,4.23,0,0,1,.65-2.47A2.11,2.11,0,0,1,250,2.46a2.27,2.27,0,0,1,1,.21,2,2,0,0,1,.74.6V-.23h1.15V8.91h-.94l-.13-.78a2.05,2.05,0,0,1-.76.67A2.29,2.29,0,0,1,250,9a2.17,2.17,0,0,1-1.82-.84A3.5,3.5,0,0,1,247.49,6Zm1.15.12A2.69,2.69,0,0,0,249,7.52a1.37,1.37,0,0,0,1.22.58,1.53,1.53,0,0,0,.87-.23,1.75,1.75,0,0,0,.57-.66v-3a1.77,1.77,0,0,0-.58-.62,1.53,1.53,0,0,0-.85-.23,1.32,1.32,0,0,0-1.23.69,3.54,3.54,0,0,0-.4,1.78Z" transform="translate(0 0.23)"/><path class="cls-1" d="M254.3,5.68a3.49,3.49,0,0,1,.76-2.32,2.82,2.82,0,0,1,4.15,0A3.48,3.48,0,0,1,260,5.68v.13a3.47,3.47,0,0,1-.76,2.32,2.84,2.84,0,0,1-4.15,0,3.47,3.47,0,0,1-.76-2.32Zm1.15.13a3,3,0,0,0,.42,1.66,1.54,1.54,0,0,0,2.52,0,3,3,0,0,0,.43-1.66V5.68A3,3,0,0,0,258.39,4a1.41,1.41,0,0,0-1.26-.66,1.39,1.39,0,0,0-1.25.66,3,3,0,0,0-.42,1.66Z" transform="translate(0 0.23)"/><path class="cls-1" d="M262.42,2.57l.08.94a2.3,2.3,0,0,1,.79-.78,2.12,2.12,0,0,1,1.09-.28,2.07,2.07,0,0,1,1.59.6,2.63,2.63,0,0,1,.56,1.85v4h-1.15v-4a1.71,1.71,0,0,0-.33-1.19,1.33,1.33,0,0,0-1-.35,1.63,1.63,0,0,0-.88.24,1.75,1.75,0,0,0-.61.66V8.91h-1.15V2.57Z" transform="translate(0 0.23)"/><path class="cls-1" d="M233,23.31h-5.53v-.8l2.79-3.1a7.84,7.84,0,0,0,1-1.33,2.09,2.09,0,0,0,.27-1,1.6,1.6,0,0,0-.37-1.08,1.23,1.23,0,0,0-1-.44,1.69,1.69,0,0,0-1.3.45,1.81,1.81,0,0,0-.42,1.27h-1.11v0a2.4,2.4,0,0,1,.73-1.85,2.88,2.88,0,0,1,2.11-.75,2.5,2.5,0,0,1,1.83.67,2.29,2.29,0,0,1,.68,1.71,2.73,2.73,0,0,1-.41,1.4,9,9,0,0,1-1.16,1.5l-2.24,2.44v0H233Z" transform="translate(0 0.23)"/><path class="cls-1" d="M239.64,20.06a3.82,3.82,0,0,1-.72,2.5,2.7,2.7,0,0,1-4,0,3.79,3.79,0,0,1-.73-2.5V18a3.82,3.82,0,0,1,.73-2.5,2.69,2.69,0,0,1,4,0,3.82,3.82,0,0,1,.73,2.5Zm-1.15-2.27a2.85,2.85,0,0,0-.4-1.67,1.49,1.49,0,0,0-2.32,0,2.87,2.87,0,0,0-.4,1.67v2.5a2.87,2.87,0,0,0,.4,1.67,1.35,1.35,0,0,0,1.17.56,1.33,1.33,0,0,0,1.16-.56,2.91,2.91,0,0,0,.4-1.67Z" transform="translate(0 0.23)"/><path class="cls-1" d="M243.39,20.16h-2.87v-.9h2.87Z" transform="translate(0 0.23)"/><path class="cls-1" d="M249.82,23.31h-5.53v-.8l2.79-3.1a7.84,7.84,0,0,0,1-1.33,2.09,2.09,0,0,0,.27-1A1.6,1.6,0,0,0,248,16a1.23,1.23,0,0,0-1-.44,1.69,1.69,0,0,0-1.3.45,1.81,1.81,0,0,0-.42,1.27h-1.11v0a2.4,2.4,0,0,1,.73-1.85,2.88,2.88,0,0,1,2.11-.75,2.5,2.5,0,0,1,1.83.67,2.29,2.29,0,0,1,.68,1.71,2.73,2.73,0,0,1-.41,1.4,9,9,0,0,1-1.16,1.5l-2.24,2.44v0h4.1Z" transform="translate(0 0.23)"/><path class="cls-1" d="M254.34,23.31h-1.15V15.91l-1.75,0V15.1l2.9-.32Z" transform="translate(0 0.23)"/><path class="cls-1" d="M262.62,14.78l2.72,6.93h0l2.72-6.93h1.48v8.53h-1.15V19.94l.12-3.47h0l-2.77,6.85H265l-2.75-6.83h0l.11,3.45v3.38h-1.15V14.78Z" transform="translate(0 0.23)"/><path class="cls-1" d="M275.37,23.31q-.06-.29-.09-.51a3.72,3.72,0,0,1,0-.44,2.69,2.69,0,0,1-.84.76,2.15,2.15,0,0,1-1.12.31,2.07,2.07,0,0,1-1.51-.51,1.86,1.86,0,0,1-.52-1.4,1.64,1.64,0,0,1,.74-1.42,3.43,3.43,0,0,1,2-.51h1.25V19a1.16,1.16,0,0,0-.34-.88,1.33,1.33,0,0,0-1-.33A1.39,1.39,0,0,0,273,18a.85.85,0,0,0-.35.68h-1.1v0a1.53,1.53,0,0,1,.65-1.27,2.68,2.68,0,0,1,1.78-.57,2.62,2.62,0,0,1,1.73.55,1.94,1.94,0,0,1,.66,1.58V22a5.94,5.94,0,0,0,0,.66,3.37,3.37,0,0,0,.13.62Zm-1.92-.85a2.06,2.06,0,0,0,1.13-.32,1.53,1.53,0,0,0,.66-.74v-1h-1.29a1.68,1.68,0,0,0-1.12.35,1,1,0,0,0-.42.82.87.87,0,0,0,.26.67A1.11,1.11,0,0,0,273.45,22.46Z" transform="translate(0 0.23)"/><path class="cls-1" d="M281.07,18l-.59,0a1.32,1.32,0,0,0-.77.22,1.39,1.39,0,0,0-.48.61v4.53h-1.15V17h1l.11.93a2.2,2.2,0,0,1,.67-.77,1.56,1.56,0,0,1,.91-.28l.25,0,.19,0Z" transform="translate(0 0.23)"/><path class="cls-1" d="M284.65,22.53a1.56,1.56,0,0,0,1-.35,1.08,1.08,0,0,0,.44-.87h1v0a1.79,1.79,0,0,1-.73,1.46,2.66,2.66,0,0,1-1.77.64,2.57,2.57,0,0,1-2.12-.9,3.48,3.48,0,0,1-.73-2.27V20a3.47,3.47,0,0,1,.74-2.26,2.89,2.89,0,0,1,3.93-.25,2,2,0,0,1,.68,1.61v0h-1a1.34,1.34,0,0,0-.41-1,1.41,1.41,0,0,0-1-.41,1.39,1.39,0,0,0-1.3.65A3.07,3.07,0,0,0,283,20v.25a3.11,3.11,0,0,0,.39,1.62A1.39,1.39,0,0,0,284.65,22.53Z" transform="translate(0 0.23)"/><path class="cls-1" d="M289.59,17.82a2.34,2.34,0,0,1,.81-.71,2.21,2.21,0,0,1,1.06-.25,2,2,0,0,1,1.58.61,2.68,2.68,0,0,1,.57,1.88v4h-1.15v-4a1.7,1.7,0,0,0-.34-1.16,1.28,1.28,0,0,0-1-.37,1.7,1.7,0,0,0-.87.23,1.88,1.88,0,0,0-.64.61v4.68h-1.15V14.17h1.15Z" transform="translate(0 0.23)"/><path class="cls-1" d="M303.63,23.31h-5.53v-.8l2.79-3.1a7.84,7.84,0,0,0,1-1.33,2.09,2.09,0,0,0,.27-1A1.6,1.6,0,0,0,301.8,16a1.23,1.23,0,0,0-1-.44,1.69,1.69,0,0,0-1.3.45,1.81,1.81,0,0,0-.42,1.27H298v0a2.4,2.4,0,0,1,.73-1.85,2.88,2.88,0,0,1,2.11-.75,2.5,2.5,0,0,1,1.83.67,2.29,2.29,0,0,1,.68,1.71,2.73,2.73,0,0,1-.41,1.4,9,9,0,0,1-1.16,1.5l-2.24,2.44v0h4.1Z" transform="translate(0 0.23)"/><path class="cls-1" d="M310.25,20.06a3.82,3.82,0,0,1-.72,2.5,2.7,2.7,0,0,1-4,0,3.79,3.79,0,0,1-.73-2.5V18a3.82,3.82,0,0,1,.73-2.5,2.69,2.69,0,0,1,4,0,3.82,3.82,0,0,1,.73,2.5Zm-1.15-2.27a2.85,2.85,0,0,0-.4-1.67,1.49,1.49,0,0,0-2.32,0,2.87,2.87,0,0,0-.4,1.67v2.5a2.87,2.87,0,0,0,.4,1.67,1.35,1.35,0,0,0,1.17.56A1.33,1.33,0,0,0,308.7,22a2.91,2.91,0,0,0,.4-1.67Z" transform="translate(0 0.23)"/><path class="cls-1" d="M314.91,23.31h-1.15V15.91l-1.75,0V15.1l2.9-.32Z" transform="translate(0 0.23)"/><path class="cls-1" d="M323.59,17a1.9,1.9,0,0,1-.37,1.17,2.24,2.24,0,0,1-1,.75,2.55,2.55,0,0,1,1.18.81,2,2,0,0,1,.44,1.27,2.19,2.19,0,0,1-.77,1.81,3.55,3.55,0,0,1-4,0,2.2,2.2,0,0,1-.76-1.81,2,2,0,0,1,.43-1.27,2.5,2.5,0,0,1,1.17-.81,2.16,2.16,0,0,1-1-.75,1.94,1.94,0,0,1-.36-1.17,2.19,2.19,0,0,1,.69-1.74,2.68,2.68,0,0,1,1.84-.61,2.72,2.72,0,0,1,1.84.61A2.17,2.17,0,0,1,323.59,17Zm-.91,4a1.54,1.54,0,0,0-.46-1.15,1.61,1.61,0,0,0-1.17-.45,1.54,1.54,0,0,0-1.62,1.6,1.47,1.47,0,0,0,.45,1.14,1.88,1.88,0,0,0,2.36,0A1.47,1.47,0,0,0,322.68,21ZM322.44,17a1.46,1.46,0,0,0-.4-1,1.42,1.42,0,0,0-2,0,1.48,1.48,0,0,0-.38,1.06,1.43,1.43,0,0,0,.38,1,1.47,1.47,0,0,0,2,0A1.42,1.42,0,0,0,322.44,17Z" transform="translate(0 0.23)"/><line class="cls-1" x1="214" y1="1.1" x2="214" y2="22.1"/></svg>