<svg xmlns="http://www.w3.org/2000/svg" xmlns:xlink="http://www.w3.org/1999/xlink" viewBox="0 0 41.37 56.92"><defs><style>.cls-1{fill:none;}.cls-2{fill:#fff;}.cls-3{clip-path:url(#clip-path);}</style><clipPath id="clip-path"><rect class="cls-1" width="41.37" height="56.92"/></clipPath></defs><title>adobe</title><g id="Layer_2" data-name="Layer 2"><g id="sponsor_logos" data-name="sponsor logos"><polygon class="cls-2" points="26.09 0 41.37 0 41.37 36.58 26.09 0 26.09 0"/><polygon class="cls-2" points="15.32 0 0.03 0 0.03 36.58 15.32 0 15.32 0"/><g class="cls-3"><polygon class="cls-2" points="20.7 13.48 30.44 36.58 24.06 36.58 21.15 29.23 14.02 29.23 20.7 13.48 20.7 13.48"/><path class="cls-2" d="M5.35,51.25c-.29-1.49-.82-3.73-1-5.18h0c-.2,1.41-.59,3.38-.94,5.18ZM2.92,53.43l-.67,3.18c0,.12-.06.14-.16.14H.15c-.12,0-.16,0-.14-.2L2.68,45a4.16,4.16,0,0,0,.08-1.12.11.11,0,0,1,.12-.12H5.65c.1,0,.14,0,.16.14L8.94,56.59c0,.12,0,.16-.12.16H6.65a.15.15,0,0,1-.16-.14l-.71-3.18Z"/></g><path class="cls-2" d="M14.09,48.74a1.08,1.08,0,0,0-.44-.06c-1.13,0-2,1-2,3s.85,3,2,3a1.71,1.71,0,0,0,.46-.06V48.74ZM9.28,51.8c0-2.94,1.73-5.22,4.49-5.22h.32V43.12c0-.06,0-.1.12-.1h2.15c.08,0,.1,0,.1.1v11.6a9,9,0,0,0,.06,1.35.12.12,0,0,1-.08.14,6.65,6.65,0,0,1-2.92.7c-2.54,0-4.25-1.65-4.25-5.12Z"/><path class="cls-2" d="M20.11,51.72c0,1.87.4,3.1,1.31,3.1s1.29-1,1.29-3.08-.32-3.06-1.27-3.06-1.33.95-1.33,3Zm5,0c0,3.18-1.33,5.2-3.67,5.2-2.62,0-3.67-2.3-3.67-5.22s1.33-5.12,3.71-5.12,3.62,1.89,3.62,5.14Z"/><path class="cls-2" d="M29.45,48.72a2.5,2.5,0,0,0-.72.1v5.94a1.65,1.65,0,0,0,.42,0c.91,0,2-.93,2-3.42,0-2-.77-2.66-1.69-2.66ZM28.63,43c.08,0,.1,0,.1.12v3.56a4.93,4.93,0,0,1,1.09-.12c2.09,0,3.69,1.61,3.69,4.73,0,3.65-2.07,5.6-4.67,5.6a7.6,7.6,0,0,1-2.34-.36.18.18,0,0,1-.12-.16V43.14a.11.11,0,0,1,.12-.12Z"/><path class="cls-2" d="M38.48,50.41a3.33,3.33,0,0,0,.6,0,.91.91,0,0,0,0-.22c0-.77-.24-1.57-1.07-1.57s-1.13.83-1.23,1.81Zm-1.71,1.89c0,1.55.58,2.5,2.22,2.5a4.11,4.11,0,0,0,1.53-.28c.1,0,.16,0,.16.1v1.67c0,.14,0,.22-.14.26a4.4,4.4,0,0,1-2,.36c-3,0-4.11-2.17-4.11-5,0-3,1.33-5.32,3.69-5.32s3.2,2.2,3.2,4a11,11,0,0,1-.1,1.51.19.19,0,0,1-.18.16c-.2,0-.83.06-1.91.06Z"/></g></g></svg>