<svg id="Layer_1" data-name="Layer 1" xmlns="http://www.w3.org/2000/svg" viewBox="0 0 941.71 100"><defs><style>.cls-1{fill:#fff;}</style></defs><title>Careerbuilder</title><path class="cls-1" d="M145.3,22.67v100H92.35a50,50,0,1,1,0-100ZM136.42,68A44.32,44.32,0,0,0,92.35,28.36V24.85c-26,0-47.82,21.81-47.82,47.82s21.81,47.82,47.82,47.82V117a44.32,44.32,0,0,0,44.06-39.54H104.14a12.71,12.71,0,1,1,0-9.45Z" transform="translate(-42.35 -22.67)"/><path class="cls-1" d="M91.6,88.27a15.51,15.51,0,0,1-9.76-4.06L62.22,103.82A43.12,43.12,0,0,0,91.6,116Z" transform="translate(-42.35 -22.67)"/><path class="cls-1" d="M80.81,83.18a15.62,15.62,0,0,1,0-21L61.16,42.58a43.34,43.34,0,0,0,0,60.2Z" transform="translate(-42.35 -22.67)"/><path class="cls-1" d="M91.6,29.33A43.15,43.15,0,0,0,62.2,41.54L81.8,61.15a15.56,15.56,0,0,1,9.79-4.09Z" transform="translate(-42.35 -22.67)"/><path class="cls-1" d="M207.62,108.83c-21.28,0-37.09-16.11-37.09-36.49v-.2c0-20.17,15.5-36.69,37.71-36.69,13.64,0,21.8,4.46,28.51,10.95L226.63,57.85c-5.58-5-11.26-8-18.49-8-12.19,0-21,9.93-21,22.09v.2c0,12.16,8.57,22.3,21,22.3,8.26,0,13.33-3.24,19-8.31l10.12,10C229.83,104,221.57,108.83,207.62,108.83Z" transform="translate(-42.35 -22.67)"/><path class="cls-1" d="M351.82,83c9.19-3.41,15.5-10.74,15.5-22.42v-.21c0-14.88-10.23-23.87-27.27-23.87H307v72.32h15.91V85.68h12.5l15.5,23.14h18.6Zm-.62-21.59c0,6.09-4.44,10.23-12.19,10.23H322.89V50.87H338.7c7.75,0,12.5,3.51,12.5,10.33Z" transform="translate(-42.35 -22.67)"/><path class="cls-1" d="M540.17,83c9.19-3.41,15.5-10.74,15.5-22.42v-.21c0-14.88-10.23-23.87-27.27-23.87H495.34v72.32h15.91V85.68h12.5l15.5,23.14h18.6Zm-.62-21.59c0,6.09-4.44,10.23-12.19,10.23H511.25V50.87h15.81c7.75,0,12.5,3.51,12.5,10.33Z" transform="translate(-42.35 -22.67)"/><path class="cls-1" d="M284.31,37.45a34.87,34.87,0,0,0-12-2H270.4a34.87,34.87,0,0,0-12,2c-10,3.67-15.8,12.13-15.8,23.12v48.25h16.34V85.9h24.86v22.93h16.34V60.57C300.11,49.58,294.33,41.12,284.31,37.45ZM258.77,71.68V60.79c0-7,4.85-10.75,12.56-10.88,7.71.14,12.51,3.92,12.56,10.88V71.68Z" transform="translate(-42.35 -22.67)"/><polygon class="cls-1" points="346.87 72.01 346.87 62.97 380.87 62.97 380.87 48.83 346.87 48.83 346.87 28 386.13 28 386.13 13.84 331.06 13.84 331.06 86.16 386.13 86.16 386.13 72.01 346.87 72.01"/><polygon class="cls-1" points="407.83 72.01 407.83 62.97 441.82 62.97 441.82 48.83 407.83 48.83 407.83 28 447.09 28 447.09 13.84 392.02 13.84 392.02 86.16 447.09 86.16 447.09 72.01 407.83 72.01"/><path class="cls-1" d="M606,71.63c5.87-2.37,12.25-7.31,12.25-17.09v-.21c0-10.81-9.37-17.71-23.37-17.71H565.08v72.07h31.3c15.55,0,25.84-7.62,25.84-19.66v-.21C622.22,78.84,614.6,73.9,606,71.63ZM570.44,41.57h24.3c11.53,0,18,5.35,18,13.28v.21c0,9.57-7.72,14.71-18.53,14.71H570.44ZM616.77,89c0,9.06-7.82,14.72-20.18,14.72H570.44v-29h24.4c14.21,0,21.93,5.26,21.93,14.11Z" transform="translate(-42.35 -22.67)"/><path class="cls-1" d="M660.15,109.83c-17.3,0-29.55-10.91-29.55-31.09V36.63H636V78.22c0,17,9.16,26.77,24.4,26.77,14.62,0,24-8.85,24-26.25V36.63h5.35V78.12C689.7,98.81,677.65,109.83,660.15,109.83Z" transform="translate(-42.35 -22.67)"/><rect class="cls-1" x="663.23" y="13.96" width="5.35" height="72.07"/><polygon class="cls-1" points="684.46 86.03 684.46 13.96 689.82 13.96 689.82 81.09 732.13 81.09 732.13 86.03 684.46 86.03"/><path class="cls-1" d="M806.8,36.63h-24v72.07h24c22.65,0,38.3-15.75,38.3-36v-.21C845.09,52.17,829.45,36.63,806.8,36.63Zm32.74,36.24c0,17.19-12.66,30.88-32.74,30.88H788.16V41.57H806.8c20.08,0,32.74,14,32.74,31.09Z" transform="translate(-42.35 -22.67)"/><polygon class="cls-1" points="811.23 86.03 811.23 13.96 862.5 13.96 862.5 18.9 816.58 18.9 816.58 47.1 857.87 47.1 857.87 52.05 816.58 52.05 816.58 81.09 863.01 81.09 863.01 86.03 811.23 86.03"/><path class="cls-1" d="M947.53,74.71c9.84-.66,19.55-5,19.3-19.93-.22-13-9.47-18.27-23.48-18.27H913.6v72.07H919V74.71h20.46l1.52,0,24.56,34h6.79ZM919,69.77V41.46h24.3c11.53,0,17.71,4.32,18,13.35.39,11.49-6.48,15-18.53,15Z" transform="translate(-42.35 -22.67)"/><line class="cls-1" x1="928.43" y1="23.99" x2="928.43" y2="24.04"/><path class="cls-1" d="M977.17,49.3a6.9,6.9,0,1,1,6.9-6.9A6.91,6.91,0,0,1,977.17,49.3Zm0-12.65a5.75,5.75,0,1,0,5.75,5.75A5.76,5.76,0,0,0,977.17,36.65Z" transform="translate(-42.35 -22.67)"/><path class="cls-1" d="M974.73,39.13h3a3.28,3.28,0,0,1,1.13.18,2.23,2.23,0,0,1,.82.51,1.78,1.78,0,0,1,.39.6,2,2,0,0,1,.14.76v0A2,2,0,0,1,980,42a1.76,1.76,0,0,1-.39.59A2.11,2.11,0,0,1,979,43a2.87,2.87,0,0,1-.75.23L980.41,46h-1l-2-2.67h-2V46h-.77Zm2.89,3.5a2.44,2.44,0,0,0,.71-.1,1.73,1.73,0,0,0,.56-.28,1.25,1.25,0,0,0,.5-1v0a1.19,1.19,0,0,0-.46-1,2.08,2.08,0,0,0-1.3-.36H975.5v2.79Z" transform="translate(-42.35 -22.67)"/></svg>