<svg id="Layer_1" data-name="Layer 1" xmlns="http://www.w3.org/2000/svg" viewBox="0 0 363.35 59.03"><defs><style>.cls-1{fill:#fff;}</style></defs><title>CultureAmp</title><path class="cls-1" d="M158.77,99.42a20.55,20.55,0,0,1-12.86,4.38c-11.78,0-19.74-9.39-19.74-20.14,0-12.18,8.65-21.85,20.82-21.85a20.7,20.7,0,0,1,11.61,3.47l-1.25,3.81a17.65,17.65,0,0,0-10.64-3.47c-9.56,0-16.27,7.57-16.27,17.12,0,10.41,6.54,17.3,15.76,17.3a18.05,18.05,0,0,0,12.86-5.35Z" transform="translate(-54.02 -55.97)"/><path class="cls-1" d="M182.49,102.77,182,97.88c-1.94,3.19-6,5.86-9.56,5.86-5.35,0-8.7-3-8.7-9.79V86.33c0-3.13-.11-6.83-.28-9.44a35.22,35.22,0,0,0,4.38-.23c-.11,1.54-.17,4.21-.17,6.26V93c0,4.95,1.88,7.17,5.8,7.17,3.64,0,8.42-4,8.42-7.11V86.33c0-3.13-.11-6.83-.34-9.44a35,35,0,0,0,4.44-.23c-.11,1.54-.17,4.21-.17,6.26V93.16c0,3.3.11,7.05.34,9.61Z" transform="translate(-54.02 -55.97)"/><path class="cls-1" d="M192.76,102.77c.23-2.45.28-6.09.28-9.44V71.94c0-3.87-.06-6.94-.28-9.56a34.07,34.07,0,0,0,4.38-.57c-.11,1-.17,4.27-.17,6.54V97.14c0,2,.06,4.15.17,5.63Z" transform="translate(-54.02 -55.97)"/><path class="cls-1" d="M216.8,102.15a8.39,8.39,0,0,1-4.84,1.42c-4.44,0-6.43-2.56-6.43-7V80.19H201l1.08-3.41h3.53l.4-5.69,3.47-.91v6.6h7.17a27,27,0,0,0-.17,3.41h-7v16c0,2.84,1.19,3.81,3.36,3.81A8,8,0,0,0,217,98.68Z" transform="translate(-54.02 -55.97)"/><path class="cls-1" d="M241.48,102.77,241,97.88c-1.93,3.19-6,5.86-9.56,5.86-5.35,0-8.7-3-8.7-9.79V86.33c0-3.13-.11-6.83-.28-9.44a35.23,35.23,0,0,0,4.38-.23c-.11,1.54-.17,4.21-.17,6.26V93c0,4.95,1.88,7.17,5.8,7.17,3.64,0,8.42-4,8.42-7.11V86.33c0-3.13-.11-6.83-.34-9.44a35,35,0,0,0,4.44-.23c-.11,1.54-.17,4.21-.17,6.26V93.16c0,3.3.11,7.05.34,9.61Z" transform="translate(-54.02 -55.97)"/><path class="cls-1" d="M265.77,80.75c-4.32-.45-8.65,2.84-8.65,6.94v9.22c0,2,.06,4.21.17,5.86h-4.38c.23-2.45.28-6.37.28-9.67V85.82a63.2,63.2,0,0,0-.51-8.65,22.47,22.47,0,0,0,3.93-.57l.45,5.86a11.07,11.07,0,0,1,9.22-6.26Z" transform="translate(-54.02 -55.97)"/><path class="cls-1" d="M288.93,90.31l-17.07.46c.17,6.14,3.53,9.44,9.1,9.44a14.24,14.24,0,0,0,9.44-3.81l-.17,4.1a16.18,16.18,0,0,1-9.73,3.19c-8.19,0-12.57-5.86-12.57-13,0-8.08,5.12-14.45,12.92-14.45,7.34,0,10.7,5.52,10.7,12.52Zm-1.08-3c-.51-5-2.79-7.79-7.28-7.79-4.72,0-7.85,3.64-8.59,8.19Z" transform="translate(-54.02 -55.97)"/><path class="cls-1" d="M319.69,74c2.45-5.4,3.93-8.7,5.12-11.83l1.14-.34L339.66,92c1.76,4,3.93,8.53,5.06,10.81l-4.55.4L334.26,90H316.62l-.91,2.11c-1.59,3.81-3.41,8.42-4.32,10.7h-4.67ZM318.15,86.5h14.56l-7.28-16.67Z" transform="translate(-54.02 -55.97)"/><path class="cls-1" d="M383.24,102.77c.23-2.45.34-6.37.34-9.67V86.22c0-4.21-1.59-6.54-5.06-6.54-4.21,0-8.13,4.1-8.13,7.23v10c0,2,.06,4.38.17,5.86h-4.38c.17-2.45.28-6.37.28-9.67V86.22c0-4.21-1.48-6.54-4.95-6.54-4.21,0-8.14,4.1-8.14,7.23v10c0,2,.06,4.21.17,5.86h-4.38c.17-2.45.28-6.37.28-9.67V86.61c0-3.3-.11-7.23-.34-9.67,1.54,0,2.56-.11,3.87-.23l.28,5.12c2-2.84,5.46-5.63,9.27-5.63,4,0,6.77,2.1,7.51,5.8,1.59-2.73,5.06-5.8,9.5-5.8,5,0,8,3.07,8,9.1V96.91c0,2,.06,4.38.17,5.86Z" transform="translate(-54.02 -55.97)"/><path class="cls-1" d="M404.35,103.68a10.86,10.86,0,0,1-7-2.33v7.79a51.78,51.78,0,0,0,.23,5.46c-.11,0-4.27.4-4.44.4.17-1.65.28-6.26.28-8.82V86.67c0-3.3-.11-7.28-.4-9.73a38.6,38.6,0,0,0,3.87-.17l.28,3.76a12.14,12.14,0,0,1,8.93-4.32c6.94,0,11.26,5.63,11.26,12.8C417.37,97.94,410.89,103.68,404.35,103.68Zm.8-24c-3.19,0-5.92,1.94-7.79,4.32V97.48a8.94,8.94,0,0,0,6.94,2.79c5.46,0,9.16-5,9.16-10.81C413.45,82.92,409.87,79.67,405.14,79.67Z" transform="translate(-54.02 -55.97)"/><path class="cls-1" d="M107.34,81.62c-.19-1.47-.56-2.12-.84-2.12l-.12,0c-.33.14-.6,1.2-.54,2.07a21,21,0,0,1-1.62,11,22.11,22.11,0,0,1-5.15,7.09c-3,2.88-5.51,3.52-6.16,3.52-.22,0-.36-.07-.4-.21a.3.3,0,0,1,.14-.34l.53-.38a30.4,30.4,0,0,0,3-2.35A28.87,28.87,0,0,0,101.94,92a17.53,17.53,0,0,0,.94-6.47c-.12-1.26-.39-1.65-.44-1.69-.22,0-.69.69-1,1.78s-.59,2.11-.92,3.2a12.77,12.77,0,0,1-2.76,5.27c-.19.22-.37.45-.56.69A8.8,8.8,0,0,1,93.06,98a.3.3,0,0,1-.3-.19c-.07-.2.09-.39.35-.61A13,13,0,0,0,97,91a1.63,1.63,0,0,0-.1-1.28s-.21.05-.54.86a13.08,13.08,0,0,1-1.91,3.49,16.32,16.32,0,0,1-5,4.54A13.56,13.56,0,0,1,83.53,100a17.11,17.11,0,0,1-3.89-.47c-3-.7-6.48-3.63-6.7-3.87a18.73,18.73,0,0,1-2.57-3.27A14.35,14.35,0,0,1,68.29,84a11.47,11.47,0,0,1,2.66-7,13.71,13.71,0,0,1,6.37-4.61,15.85,15.85,0,0,1,5.1-.79A12,12,0,0,1,88.75,73a29,29,0,0,1,5.67,4.75,6,6,0,0,0,4.19,1.63,6.67,6.67,0,0,0,3.44-1,6.85,6.85,0,0,0,3.68-4.92c.6-4.28-3.34-8.49-3.38-8.53a36,36,0,0,0-2.71-2.59,2.79,2.79,0,0,0-1.2-1.87A23.47,23.47,0,0,0,83.22,56a37.64,37.64,0,0,0-8.54,1.23A25.88,25.88,0,0,0,58.22,68.92c-2.8,3.3-3.84,8.35-4.15,12.48-.34,4.46,1.4,11.15,2.35,12a3.38,3.38,0,0,0,1.78,1c.54,1.15,1.12,2.35,1.36,2.69l.54.79a23.67,23.67,0,0,0,3.83,4.66,28.5,28.5,0,0,0,7.94,4.79,21.37,21.37,0,0,0,8.43,2c1.06,0,1.79.06,2.44.06a22.14,22.14,0,0,0,6.58-.93,29.81,29.81,0,0,0,7.59-3.36,39.42,39.42,0,0,0,5-4.49,24.13,24.13,0,0,0,4-6.92C108.1,87.39,107.65,83.94,107.34,81.62Z" transform="translate(-54.02 -55.97)"/></svg>