<?xml version="1.0" encoding="utf-8"?>
<!-- Generator: Adobe Illustrator 21.0.0, SVG Export Plug-In . SVG Version: 6.00 Build 0)  -->
<svg version="1.1" id="Layer_1" xmlns="http://www.w3.org/2000/svg" xmlns:xlink="http://www.w3.org/1999/xlink" x="0px" y="0px"
	 viewBox="0 0 60.4 64.5" style="enable-background:new 0 0 60.4 64.5;" xml:space="preserve">
<style type="text/css">
	.st0{fill:#FFFFFF;}
	.st1{clip-path:url(#SVGID_2_);fill:none;stroke:#FFFFFF;stroke-miterlimit:10;}
	.st2{fill:none;stroke:#FFFFFF;stroke-miterlimit:10;}
	.st3{clip-path:url(#SVGID_4_);fill:none;stroke:#FFFFFF;stroke-miterlimit:10;}
	.st4{clip-path:url(#SVGID_6_);fill:none;stroke:#FFFFFF;stroke-miterlimit:10;}
	.st5{clip-path:url(#SVGID_8_);fill:none;stroke:#FFFFFF;stroke-miterlimit:10;}
</style>
<g>
	<polyline class="st0" points="39.2,10.1 33.3,0.5 36.3,12.7 39.2,10.1 	"/>
	<g>
		<defs>
			<rect id="SVGID_1_" width="60.4" height="64.5"/>
		</defs>
		<clipPath id="SVGID_2_">
			<use xlink:href="#SVGID_1_"  style="overflow:visible;"/>
		</clipPath>
		<polyline class="st1" points="39.2,10.1 33.3,0.5 36.3,12.7 39.2,10.1 		"/>
	</g>
	<polyline class="st0" points="40.9,31.9 50.7,28.9 46.8,22.6 39.5,26.3 40.9,31.9 	"/>
	<polyline class="st2" points="40.9,31.9 50.7,28.9 46.8,22.6 39.5,26.3 40.9,31.9 	"/>
	<polyline class="st0" points="39.1,24.6 45.9,21.2 40.1,11.6 36.7,14.5 39.1,24.6 	"/>
	<polyline class="st2" points="39.1,24.6 45.9,21.2 40.1,11.6 36.7,14.5 39.1,24.6 	"/>
	<polyline class="st0" points="42.6,39.2 55.9,37.6 51.5,30.4 41.3,33.5 42.6,39.2 	"/>
	<polyline class="st2" points="42.6,39.2 55.9,37.6 51.5,30.4 41.3,33.5 42.6,39.2 	"/>
	<polyline class="st0" points="59.7,43.8 56.9,39.1 43.1,40.8 44.1,45.2 59.7,43.8 	"/>
	<g>
		<defs>
			<rect id="SVGID_3_" width="60.4" height="64.5"/>
		</defs>
		<clipPath id="SVGID_4_">
			<use xlink:href="#SVGID_3_"  style="overflow:visible;"/>
		</clipPath>
		<polyline class="st3" points="59.7,43.8 56.9,39.1 43.1,40.8 44.1,45.2 59.7,43.8 		"/>
	</g>
	<polyline class="st0" points="35.4,13.5 36.3,12.7 33.3,0.5 0.5,44.4 35.4,13.5 	"/>
	<g>
		<defs>
			<rect id="SVGID_5_" width="60.4" height="64.5"/>
		</defs>
		<clipPath id="SVGID_6_">
			<use xlink:href="#SVGID_5_"  style="overflow:visible;"/>
		</clipPath>
		<polyline class="st4" points="35.4,13.5 36.3,12.7 33.3,0.5 0.5,44.4 35.4,13.5 		"/>
	</g>
	<polyline class="st0" points="35.7,15.4 7.2,40.7 37.3,25.5 39.2,24.6 36.7,14.5 35.7,15.4 	"/>
	<polyline class="st2" points="35.7,15.4 7.2,40.7 37.3,25.5 39.2,24.6 36.7,14.5 35.7,15.4 	"/>
	<polyline class="st0" points="43.1,40.8 39.7,41.2 7,45.2 40.3,45.2 44.1,45.2 44.1,45.1 43.1,40.8 	"/>
	<polyline class="st2" points="43.1,40.8 39.7,41.2 7,45.2 40.3,45.2 44.1,45.2 44.1,45.1 43.1,40.8 	"/>
	<polyline class="st0" points="37.5,27.2 9.3,41.5 38.4,32.7 40.9,31.9 39.5,26.2 37.5,27.2 	"/>
	<polyline class="st2" points="37.5,27.2 9.3,41.5 38.4,32.7 40.9,31.9 39.5,26.2 37.5,27.2 	"/>
	<polyline class="st0" points="38.6,34.3 8.6,43.4 39.4,39.6 42.6,39.2 41.3,33.5 38.6,34.3 	"/>
	<polyline class="st2" points="38.6,34.3 8.6,43.4 39.4,39.6 42.6,39.2 41.3,33.5 38.6,34.3 	"/>
	<path class="st0" d="M58.9,64.1L58.9,64.1V49.3h1.4v14.8H58.9L58.9,64.1L58.9,64.1z M55.1,64.1L55.1,64.1V52.9h1.4v11.1H55.1
		L55.1,64.1L55.1,64.1z M56.5,51.6L56.5,51.6h-1.4v-2.3h1.4V51.6L56.5,51.6L56.5,51.6z M51.4,62.3L51.4,62.3c0,0-0.7,1-1.8,1.5l0,0
		c0,0-1.1,0.5-2.5,0.5l0,0c0,0-2.5,0-4.1-1.7l0,0c0,0-1.6-1.7-1.6-4.1l0,0c0,0,0-2.5,1.7-4.2l0,0c0,0,1.7-1.7,4.2-1.7l0,0
		c0,0,1.3,0,2.4,0.5l0,0c0,0,1.1,0.5,1.8,1.5l0,0v-1.8h1.4v11.1h-1.4V62.3L51.4,62.3L51.4,62.3z M51.4,58.4L51.4,58.4
		c0,0,0-1.8-1.3-3.1l0,0c0,0-1.3-1.3-2.9-1.3l0,0c0,0-1.8,0-3.1,1.3l0,0c0,0-1.3,1.3-1.3,3.3l0,0c0,0,0,1.9,1.3,3.1l0,0
		c0,0,1.3,1.3,3,1.3l0,0c0,0,1.7,0,3-1.4l0,0C50.2,61.7,51.4,60.4,51.4,58.4L51.4,58.4L51.4,58.4L51.4,58.4z M33.2,60.6L33.2,60.6
		h1.5v0c0,0,0,1,0.6,1.7l0,0c0,0,0.6,0.7,1.5,0.7l0,0c0,0,0.8,0,1.4-0.5l0,0c0,0,0.6-0.5,0.6-1.3l0,0c0,0,0-0.8-0.4-1.3l0,0
		c0,0-0.4-0.5-1.6-0.9l0,0c0,0-1.9-0.7-2.4-1.3l0,0c0,0-0.6-0.7-0.6-1.8l0,0c0,0,0-1.3,0.9-2.2l0,0c0,0,0.9-0.9,2.3-0.9l0,0
		c0,0,1.4,0,2.3,0.8l0,0c0,0,0.8,0.8,0.9,2.3l0,0h-1.5c0,0,0-0.8-0.5-1.2l0,0c0,0-0.4-0.4-1.2-0.4l0,0c0,0-0.7,0-1.2,0.5l0,0
		c0,0-0.5,0.5-0.5,1.2l0,0c0,0,0,0.5,0.2,0.8l0,0c0,0,0.2,0.3,0.6,0.6l0,0c0,0,0.4,0.3,1.2,0.5l0,0c0,0,0.8,0.2,1,0.3l0,0
		c0,0,1,0.4,1.5,1.2l0,0c0,0,0.5,0.7,0.5,1.9l0,0c0,0,0,1.4-1,2.4l0,0c0,0-1,0.9-2.5,0.9l0,0c0,0-1.6,0-2.5-1l0,0
		C34.2,63.4,33.3,62.3,33.2,60.6L33.2,60.6L33.2,60.6L33.2,60.6z M30.2,64.1L30.2,64.1h-1.5V52.9h1.3v1.3c0,0,0.5-0.7,1.1-1.1l0,0
		c0,0,0.6-0.3,1.5-0.4l0,0l0,1.5c0,0-1.3,0.1-1.9,0.8l0,0c0,0-0.6,0.7-0.6,2.2l0,0V64.1L30.2,64.1L30.2,64.1z M25,64.1L25,64.1V52.9
		h1.4v11.1H25L25,64.1L25,64.1z M26.4,51.6L26.4,51.6H25v-2.3h1.4V51.6L26.4,51.6L26.4,51.6z M21.3,62.3L21.3,62.3
		c0,0-0.7,1-1.8,1.5l0,0c0,0-1.1,0.5-2.5,0.5l0,0c0,0-2.4,0-4.1-1.7l0,0c0,0-1.6-1.7-1.6-4.1l0,0c0,0,0-2.5,1.7-4.2l0,0
		c0,0,1.7-1.7,4.2-1.7l0,0c0,0,1.3,0,2.4,0.5l0,0c0,0,1.1,0.5,1.8,1.5l0,0v-1.8h1.4v11.1h-1.4V62.3L21.3,62.3L21.3,62.3z M21.3,58.4
		L21.3,58.4c0,0,0-1.8-1.3-3.1l0,0c0,0-1.3-1.3-2.9-1.3l0,0c0,0-1.8,0-3.1,1.3l0,0c0,0-1.3,1.3-1.3,3.3l0,0c0,0,0,1.9,1.3,3.1l0,0
		c0,0,1.3,1.3,3,1.3l0,0c0,0,1.7,0,3-1.4l0,0C20.1,61.7,21.3,60.4,21.3,58.4L21.3,58.4L21.3,58.4L21.3,58.4z M2.1,64.1L2.1,64.1
		V49.3h7.3v1.5H3.5V56h5.9v1.5H3.5v6.7H2.1L2.1,64.1L2.1,64.1z"/>
	<g>
		<defs>
			<rect id="SVGID_7_" width="60.4" height="64.5"/>
		</defs>
		<clipPath id="SVGID_8_">
			<use xlink:href="#SVGID_7_"  style="overflow:visible;"/>
		</clipPath>
		<path class="st5" d="M58.9,64.1L58.9,64.1V49.3h1.4v14.8H58.9L58.9,64.1L58.9,64.1z M55.1,64.1L55.1,64.1V52.9h1.4v11.1H55.1
			L55.1,64.1L55.1,64.1z M56.5,51.6L56.5,51.6h-1.4v-2.3h1.4V51.6L56.5,51.6L56.5,51.6z M51.4,62.3L51.4,62.3c0,0-0.7,1-1.8,1.5l0,0
			c0,0-1.1,0.5-2.5,0.5l0,0c0,0-2.5,0-4.1-1.7l0,0c0,0-1.6-1.7-1.6-4.1l0,0c0,0,0-2.5,1.7-4.2l0,0c0,0,1.7-1.7,4.2-1.7l0,0
			c0,0,1.3,0,2.4,0.5l0,0c0,0,1.1,0.5,1.8,1.5l0,0v-1.8h1.4v11.1h-1.4V62.3L51.4,62.3L51.4,62.3z M51.4,58.4L51.4,58.4
			c0,0,0-1.8-1.3-3.1l0,0c0,0-1.3-1.3-2.9-1.3l0,0c0,0-1.8,0-3.1,1.3l0,0c0,0-1.3,1.3-1.3,3.3l0,0c0,0,0,1.9,1.3,3.1l0,0
			c0,0,1.3,1.3,3,1.3l0,0c0,0,1.7,0,3-1.4l0,0C50.2,61.7,51.4,60.4,51.4,58.4L51.4,58.4L51.4,58.4L51.4,58.4z M33.2,60.6L33.2,60.6
			h1.5v0c0,0,0,1,0.6,1.7l0,0c0,0,0.6,0.7,1.5,0.7l0,0c0,0,0.8,0,1.4-0.5l0,0c0,0,0.6-0.5,0.6-1.3l0,0c0,0,0-0.8-0.4-1.3l0,0
			c0,0-0.4-0.5-1.6-0.9l0,0c0,0-1.9-0.7-2.4-1.3l0,0c0,0-0.6-0.7-0.6-1.8l0,0c0,0,0-1.3,0.9-2.2l0,0c0,0,0.9-0.9,2.3-0.9l0,0
			c0,0,1.4,0,2.3,0.8l0,0c0,0,0.8,0.8,0.9,2.3l0,0h-1.5c0,0,0-0.8-0.5-1.2l0,0c0,0-0.4-0.4-1.2-0.4l0,0c0,0-0.7,0-1.2,0.5l0,0
			c0,0-0.5,0.5-0.5,1.2l0,0c0,0,0,0.5,0.2,0.8l0,0c0,0,0.2,0.3,0.6,0.6l0,0c0,0,0.4,0.3,1.2,0.5l0,0c0,0,0.8,0.2,1,0.3l0,0
			c0,0,1,0.4,1.5,1.2l0,0c0,0,0.5,0.7,0.5,1.9l0,0c0,0,0,1.4-1,2.4l0,0c0,0-1,0.9-2.5,0.9l0,0c0,0-1.6,0-2.5-1l0,0
			C34.2,63.4,33.3,62.3,33.2,60.6L33.2,60.6L33.2,60.6L33.2,60.6z M30.2,64.1L30.2,64.1h-1.5V52.9h1.3v1.3c0,0,0.5-0.7,1.1-1.1l0,0
			c0,0,0.6-0.3,1.5-0.4l0,0l0,1.5c0,0-1.3,0.1-1.9,0.8l0,0c0,0-0.6,0.7-0.6,2.2l0,0V64.1L30.2,64.1L30.2,64.1z M25,64.1L25,64.1
			V52.9h1.4v11.1H25L25,64.1L25,64.1z M26.4,51.6L26.4,51.6H25v-2.3h1.4V51.6L26.4,51.6L26.4,51.6z M21.3,62.3L21.3,62.3
			c0,0-0.7,1-1.8,1.5l0,0c0,0-1.1,0.5-2.5,0.5l0,0c0,0-2.4,0-4.1-1.7l0,0c0,0-1.6-1.7-1.6-4.1l0,0c0,0,0-2.5,1.7-4.2l0,0
			c0,0,1.7-1.7,4.2-1.7l0,0c0,0,1.3,0,2.4,0.5l0,0c0,0,1.1,0.5,1.8,1.5l0,0v-1.8h1.4v11.1h-1.4V62.3L21.3,62.3L21.3,62.3z
			 M21.3,58.4L21.3,58.4c0,0,0-1.8-1.3-3.1l0,0c0,0-1.3-1.3-2.9-1.3l0,0c0,0-1.8,0-3.1,1.3l0,0c0,0-1.3,1.3-1.3,3.3l0,0
			c0,0,0,1.9,1.3,3.1l0,0c0,0,1.3,1.3,3,1.3l0,0c0,0,1.7,0,3-1.4l0,0C20.1,61.7,21.3,60.4,21.3,58.4L21.3,58.4L21.3,58.4L21.3,58.4z
			 M2.1,64.1L2.1,64.1V49.3h7.3v1.5H3.5V56h5.9v1.5H3.5v6.7H2.1L2.1,64.1L2.1,64.1z"/>
	</g>
</g>
</svg>
