<svg xmlns="http://www.w3.org/2000/svg" viewBox="0 0 77.73 28.93"><defs><style>.cls-1{fill:#fff;}</style></defs><title>ibm</title><g id="Layer_2" data-name="Layer 2"><g id="sponsor_logos" data-name="sponsor logos"><path class="cls-1" d="M76.36,27.5c.21,0,.52,0,.52-.27s-.19-.26-.37-.26h-.43v.53Zm.7.84h-.22l-.43-.69h-.34v.69H75.9v-1.5h.65c.4,0,.53.15.53.4s-.2.4-.47.41l.45.69Zm.46-.75a1.13,1.13,0,1,0-1.12,1.17,1.12,1.12,0,0,0,1.12-1.17Zm-2.46,0a1.34,1.34,0,1,1,1.34,1.35,1.34,1.34,0,0,1-1.34-1.35Z"/><polygon class="cls-1" points="14.12 1.79 0 1.79 0 0 14.12 0 14.12 1.79 14.12 1.79"/><polygon class="cls-1" points="14.12 5.66 0 5.66 0 3.87 14.12 3.87 14.12 5.66 14.12 5.66"/><polygon class="cls-1" points="14.12 24.98 0 24.98 0 23.19 14.12 23.19 14.12 24.98 14.12 24.98"/><polygon class="cls-1" points="10.08 21.11 4.03 21.11 4.03 19.32 10.08 19.32 10.08 21.11 10.08 21.11"/><polygon class="cls-1" points="10.08 17.25 4.03 17.25 4.03 15.46 10.08 15.46 10.08 17.25 10.08 17.25"/><polygon class="cls-1" points="10.08 13.38 4.03 13.38 4.03 11.59 10.08 11.59 10.08 13.38 10.08 13.38"/><polygon class="cls-1" points="10.08 9.52 4.03 9.52 4.03 7.73 10.08 7.73 10.08 9.52 10.08 9.52"/><polygon class="cls-1" points="14.12 28.84 0 28.84 0 27.05 14.12 27.05 14.12 28.84 14.12 28.84"/><polygon class="cls-1" points="50.72 21.11 44.66 21.11 44.66 19.32 50.72 19.32 50.72 21.11 50.72 21.11"/><polygon class="cls-1" points="53.89 21.11 59.68 21.11 60.3 19.32 53.27 19.32 53.89 21.11 53.89 21.11"/><polygon class="cls-1" points="50.72 17.25 44.66 17.25 44.66 15.46 50.72 15.46 50.72 17.25 50.72 17.25"/><polygon class="cls-1" points="52.56 17.25 61.01 17.25 61.63 15.46 51.94 15.46 52.56 17.25 52.56 17.25"/><polygon class="cls-1" points="55.95 11.59 44.66 11.59 44.66 13.38 50.72 13.38 50.72 11.9 51.23 13.38 56.56 13.38 55.95 11.59 55.95 11.59"/><polygon class="cls-1" points="57.62 11.59 57.01 13.38 62.33 13.38 62.85 11.89 62.85 13.38 68.91 13.38 68.91 11.59 57.62 11.59 57.62 11.59"/><polygon class="cls-1" points="54.64 7.73 44.66 7.73 44.66 9.52 55.25 9.52 54.64 7.73 54.64 7.73"/><polygon class="cls-1" points="68.91 21.11 62.85 21.11 62.85 19.32 68.91 19.32 68.91 21.11 68.91 21.11"/><polygon class="cls-1" points="68.91 17.25 62.85 17.25 62.85 15.46 68.91 15.46 68.91 17.25 68.91 17.25"/><polygon class="cls-1" points="58.92 7.73 58.31 9.52 68.91 9.52 68.91 7.73 58.92 7.73 58.92 7.73"/><polygon class="cls-1" points="72.95 28.84 62.85 28.84 62.85 27.05 72.95 27.05 72.95 28.84 72.95 28.84"/><polygon class="cls-1" points="50.72 28.84 40.61 28.84 40.61 27.05 50.72 27.05 50.72 28.84 50.72 28.84"/><polygon class="cls-1" points="56.54 28.84 57.03 28.84 57.65 27.05 55.92 27.05 56.54 28.84 56.54 28.84"/><polygon class="cls-1" points="72.95 24.98 62.85 24.98 62.85 23.19 72.95 23.19 72.95 24.98 72.95 24.98"/><polygon class="cls-1" points="50.72 24.98 40.61 24.98 40.61 23.19 50.72 23.19 50.72 24.98 50.72 24.98"/><polygon class="cls-1" points="55.21 24.98 58.36 24.98 58.98 23.19 54.59 23.19 55.21 24.98 55.21 24.98"/><polygon class="cls-1" points="61.53 0 60.92 1.79 72.95 1.79 72.95 0 61.53 0 61.53 0"/><polygon class="cls-1" points="52.03 0 40.61 0 40.61 1.79 52.64 1.79 52.03 0 52.03 0"/><polygon class="cls-1" points="60.23 3.87 59.62 5.66 72.95 5.66 72.95 3.87 60.23 3.87 60.23 3.87"/><polygon class="cls-1" points="53.34 3.87 40.61 3.87 40.61 5.66 53.95 5.66 53.34 3.87 53.34 3.87"/><polygon class="cls-1" points="26.35 9.52 20.28 9.52 20.28 7.73 26.35 7.73 26.35 9.52 26.35 9.52"/><polygon class="cls-1" points="26.35 21.11 20.28 21.11 20.28 19.32 26.35 19.32 26.35 21.11 26.35 21.11"/><path class="cls-1" d="M16.24,1.79h19.9C34.34.32,31.67,0,28.89,0H16.24V1.79Z"/><path class="cls-1" d="M16.24,3.86H37.83a6.58,6.58,0,0,1,.72,1.79H16.24V3.86Z"/><path class="cls-1" d="M20.28,15.46H35.73a7.49,7.49,0,0,1,1.82,1.79H20.28V15.46Z"/><path class="cls-1" d="M32.41,7.73H38.8a6.13,6.13,0,0,1-.29,1.79h-6.1V7.73Z"/><path class="cls-1" d="M32.41,19.32h6.12a5.28,5.28,0,0,1,.31,1.79H32.41V19.32Z"/><path class="cls-1" d="M16.24,23.19H38.68A6.86,6.86,0,0,1,37.95,25H16.24V23.19Z"/><path class="cls-1" d="M16.24,27.05H36.16c-1.75,1.39-4.16,1.79-6.94,1.79h-13V27.05Z"/><path class="cls-1" d="M20.28,13.39H35.74a7.93,7.93,0,0,0,1.78-1.79H20.28v1.79Z"/></g></g></svg>