<?xml version="1.0" encoding="utf-8"?>
<!-- Generator: Adobe Illustrator 21.1.0, SVG Export Plug-In . SVG Version: 6.00 Build 0)  -->
<svg version="1.1" id="Layer_1" xmlns="http://www.w3.org/2000/svg" xmlns:xlink="http://www.w3.org/1999/xlink" x="0px" y="0px"
	 viewBox="0 0 1080 450.7" style="enable-background:new 0 0 1080 450.7;" xml:space="preserve">
<style type="text/css">
	.st0{fill:#FFFFFF;}
</style>
<g>
	<g>
		<g>
			<g>
				<path class="st0" d="M432,131.8c-9.7-4.4-20.1-7.7-36.6-7.7c-33.4,0-54.8,26.6-54.8,65.7c0,38.3,18.1,67.6,56,67.6
					c15.3,0,32.2-5.6,41.5-9.6l2.4,44.7c-15.7,4.8-31.8,6.9-54,6.9c-68.1,0-102.3-46.3-102.3-109.5c0-60,35.4-107.5,100.3-107.5
					c21.7,0,37.5,2.4,52.4,6.8L432,131.8z"/>
				<path class="st0" d="M462.2,87.1h54v207.4h-54V87.1z"/>
				<path class="st0" d="M552,87.1h48.8v29h0.8c16.4-25.4,40.2-33.8,59.7-33.8c28.1,0,48,10.9,59.3,36.6
					c12.1-25,38.2-36.6,62.8-36.6c49.5,0,63.6,35,63.6,81.3v130.9h-52.3V170.9c0-19.3,0-46.7-30-46.7c-34.7,0-39,42.7-39,69.7v100.7
					h-52.2V170.9c0-19.3,0-46.7-30-46.7c-34.7,0-39,42.7-39,69.7v100.7H552V87.1z"/>
				<path class="st0" d="M999.4,130.6c-16.5-5.6-28.6-8.9-48.3-8.9c-14.5,0-31.8,5.2-31.8,23c0,33,93.8,12.1,93.8,87
					c0,48.3-43.1,67.7-87,67.7c-20.5,0-41.5-3.6-61.2-8.9l3.2-44.3c16.9,8.5,34.6,13.7,53.1,13.7c13.7,0,35.4-5.2,35.4-25.4
					c0-40.7-93.8-12.9-93.8-87.8c0-44.7,39.1-64.4,81.4-64.4c25.4,0,41.9,4,58.8,7.6L999.4,130.6z"/>
			</g>
		</g>
		<g>
			<path class="st0" d="M255.4,341.7h27.2c-17.7,36.7-40.8,69.2-69.2,97.5c-28.5,28.3-55.9,42.5-82.2,42.5c-17.7,0-33.2-6.3-46.6-19
				c-13.4-12.7-20.1-31.3-20.1-55.9c0-20.1,9.4-58.5,28.1-115.2l57.8-173.1c13.4-40.5,20.1-65,20.1-73.7c0-7.5-1.8-13.2-5.4-16.9
				c-3.6-3.8-9-5.6-16.2-5.6c-14.8,0-32.4,11.4-52.6,34.2C76,79.3,61.7,100,53.3,118.4H26.1C46.9,77.3,70.6,44.8,97.3,21
				C124-2.8,148.9-14.7,172-14.7c17.8,0,32.4,6.1,43.7,18.1c11.3,12.1,17,28,17,47.6c0,20-8.9,56.7-26.8,110l-48.5,147.4
				c-17.8,53.3-26.8,86.7-26.8,100.3c0,11,2.2,19.2,6.5,24.7c4.4,5.5,10.7,8.2,19.1,8.2C184.4,441.6,217.4,408.3,255.4,341.7z
				 M204.3-163.4c0-13.6,4.8-25.2,14.5-34.8c9.7-9.6,21.4-14.5,35.1-14.5c13.7,0,25.4,4.8,35,14.5c9.7,9.6,14.5,21.2,14.5,34.8
				c0,13.6-4.8,25.3-14.5,35.1c-9.7,9.8-21.4,14.7-35,14.7c-14.1,0-25.8-5-35.3-15C209-138.5,204.3-150.1,204.3-163.4z"/>
		</g>
		<g>
			<path class="st0" d="M1067.3,62.8c0,8.1-2.9,14.9-8.6,20.6c-5.7,5.7-12.6,8.6-20.6,8.6c-8,0-14.9-2.9-20.6-8.6
				c-5.7-5.7-8.6-12.6-8.6-20.6c0-8,2.9-14.9,8.6-20.6c5.7-5.7,12.6-8.6,20.6-8.6c8.1,0,14.9,2.9,20.6,8.6
				C1064.4,47.9,1067.3,54.8,1067.3,62.8z M1060.1,62.8c0-6.7-2.1-12.4-6.4-16.9c-4.2-4.4-9.4-6.6-15.6-6.6
				c-6.2,0-11.4,2.2-15.6,6.6c-4.3,4.5-6.5,10.2-6.5,16.9c0,6.8,2.2,12.4,6.5,16.9c4.2,4.4,9.4,6.6,15.6,6.6
				c6.2,0,11.4-2.2,15.7-6.7C1058,75.2,1060.1,69.6,1060.1,62.8z M1051.6,79.2h-6.3l-8.6-14.2h-3.7v14.2h-6.1V46.1h12.3
				c8.1,0,12.2,3.2,12.2,9.7c0,5.4-2.9,8.4-8.6,8.9L1051.6,79.2z M1045.2,55.4c0-3-2.2-4.5-6.7-4.5h-5.5v9.5h5.4
				c2.2,0,3.8-0.3,4.7-0.8C1044.5,58.8,1045.2,57.4,1045.2,55.4z"/>
		</g>
		<g>
			<path class="st0" d="M504.8,390.4h-6.8v-21.6h-22.7v21.6h-6.8v-47.4h6.8v19.8h22.7v-19.8h6.8V390.4z"/>
			<path class="st0" d="M524.3,348.1h-7.2v-7.2h7.2V348.1z M523.9,390.4h-6.4v-34.6h6.4V390.4z"/>
			<path class="st0" d="M554.9,361.2c-1-0.4-2.2-0.6-3.5-0.6c-2.9,0-5.2,1.3-6.9,3.8c-1.7,2.5-2.6,6-2.6,10.3v15.7h-6.4v-34.6h6v5.3
				h0.1c0.9-1.8,2.1-3.3,3.8-4.4c1.7-1.1,3.4-1.7,5.3-1.7c1.2,0,2.6,0.2,4.2,0.5V361.2z"/>
			<path class="st0" d="M591.1,374.6h-24.7c0,3.3,1.1,6.1,3.4,8.3c2.2,2.1,4.8,3.2,8,3.2c1.9,0,4-0.4,6.3-1.3c2-0.7,3.4-1.4,4.3-2.2
				v6.4c-4.2,1.5-7.8,2.3-10.9,2.3c-6,0-10.5-1.7-13.5-5.2c-2.9-3.2-4.4-7.8-4.4-13.6c0-5.1,1.5-9.3,4.5-12.6
				c3-3.3,6.9-4.9,11.8-4.9C586,355,591.1,361.5,591.1,374.6z M584.3,369.8c0-2.7-0.8-5-2.3-6.8c-1.6-1.9-3.7-2.8-6.4-2.8
				c-2.9,0-5.1,1-6.8,3.1c-1.4,1.7-2.2,3.9-2.5,6.5H584.3z"/>
			<path class="st0" d="M646,390.4h-26.5v-47.4H646v6h-19.7v13.9h18v6h-18v15.6H646V390.4z"/>
			<path class="st0" d="M684.1,390.4h-7.9l-8.5-13.6l-8.5,13.6h-7.6l12.5-18.1l-11.3-16.5h8l7.5,12.3l7.7-12.3h7.1l-11.1,16.5
				L684.1,390.4z"/>
			<path class="st0" d="M723.1,372.5c0,5.2-1.2,9.5-3.5,12.9c-2.7,3.9-6.5,5.8-11.3,5.8c-5.4,0-9.3-1.9-11.6-5.6h-0.1v19h-6.4v-48.8
				h6.1v4.9h0.1c2.5-3.8,6.4-5.7,11.8-5.7c4.8,0,8.5,1.8,11.2,5.3C721.9,363.5,723.1,367.6,723.1,372.5z M716.3,373
				c0-3.5-0.7-6.5-2.2-8.8c-1.7-2.7-4.1-4-7.3-4c-3.3,0-5.8,1.4-7.7,4.1c-1.7,2.4-2.5,5.4-2.5,8.9c0,3.3,0.8,6.2,2.4,8.6
				c1.9,2.8,4.5,4.3,7.8,4.3c3.1,0,5.6-1.5,7.4-4.5C715.6,379.1,716.3,376.2,716.3,373z"/>
			<path class="st0" d="M760.8,374.6h-24.7c0,3.3,1.1,6.1,3.4,8.3c2.2,2.1,4.8,3.2,8,3.2c1.9,0,4-0.4,6.3-1.3c2-0.7,3.4-1.4,4.3-2.2
				v6.4c-4.1,1.5-7.8,2.3-10.9,2.3c-6,0-10.5-1.7-13.5-5.2c-2.9-3.2-4.4-7.8-4.4-13.6c0-5.1,1.5-9.3,4.5-12.6
				c3-3.3,6.9-4.9,11.8-4.9C755.7,355,760.8,361.5,760.8,374.6z M754,369.8c0-2.7-0.7-5-2.3-6.8c-1.6-1.9-3.7-2.8-6.4-2.8
				c-2.9,0-5.1,1-6.8,3.1c-1.4,1.7-2.2,3.9-2.5,6.5H754z"/>
			<path class="st0" d="M792.2,389.8c-2.1,0.9-4.7,1.4-8,1.4c-5.1,0-9.4-1.8-12.7-5.4c-3.3-3.5-4.9-7.7-4.9-12.8
				c0-5.3,1.6-9.6,4.9-13c3.3-3.4,7.5-5.1,12.7-5.1c2.9,0,5.5,0.5,7.8,1.4l-0.6,5.3c-2.4-1-4.7-1.5-6.9-1.5c-3.4,0-6.1,1.3-8.2,4
				c-1.9,2.5-2.9,5.4-2.9,8.9c0,3.5,0.9,6.4,2.7,8.8c2.1,2.8,5,4.2,8.8,4.2c2.6,0,4.8-0.7,6.9-2L792.2,389.8z"/>
			<path class="st0" d="M818.4,390.3c-2.2,0.6-4,1-5.4,1c-7.1,0-10.6-3.4-10.6-10.1V361h-7.8v-5.1h7.8v-8l6.4-2.1v10.1h9.2v5.1h-9.2
				v19c0,1.9,0.5,3.4,1.6,4.6c1,1.1,2.3,1.6,3.8,1.6c1.6,0,3.1-0.4,4.3-1.2V390.3z"/>
			<path class="st0" d="M853.1,390.4h-6V386H847c-2.5,3.5-6.1,5.3-10.7,5.3c-3.9,0-7-0.9-9.1-2.6c-2.4-1.9-3.5-4.6-3.5-8.2
				c0-3.9,1.9-6.9,5.6-8.9c3-1.6,6.5-2.5,10.5-2.5c2.8,0,5.1,0,6.8,0.1c0-3.1-0.6-5.3-1.9-6.8c-1.3-1.5-3.6-2.3-6.7-2.3
				c-3.9,0-7.2,1.2-10,3.5l-0.3-5.4c3.6-2.2,7.4-3.2,11.4-3.2c4.9,0,8.4,1.2,10.7,3.6c2.2,2.3,3.2,5.9,3.2,10.7v14.3
				C852.8,386.8,852.9,389.1,853.1,390.4z M846.4,377v-3c-0.4,0-1.1,0-2-0.1c-0.9,0-1.6-0.1-2-0.1c-8,0-12,2.2-12,6.7
				c0,1.7,0.7,3.1,2.1,4.2c1.3,1,2.7,1.5,4.3,1.5c3.1,0,5.4-0.9,7.2-2.6C845.6,381.8,846.4,379.7,846.4,377z"/>
			<path class="st0" d="M882.5,390.3c-2.2,0.6-4,1-5.4,1c-7.1,0-10.6-3.4-10.6-10.1V361h-7.8v-5.1h7.8v-8l6.4-2.1v10.1h9.2v5.1h-9.2
				v19c0,1.9,0.5,3.4,1.6,4.6c1,1.1,2.3,1.6,3.8,1.6c1.6,0,3.1-0.4,4.3-1.2V390.3z"/>
			<path class="st0" d="M897.6,348.1h-7.2v-7.2h7.2V348.1z M897.2,390.4h-6.4v-34.6h6.4V390.4z"/>
			<path class="st0" d="M941.8,373.1c0,5-1.6,9.3-4.9,12.8c-3.3,3.6-7.6,5.4-12.7,5.4c-5.1,0-9.4-1.8-12.8-5.4
				c-3.3-3.5-4.9-7.7-4.9-12.8c0-5.3,1.6-9.6,4.9-13c3.3-3.4,7.5-5.1,12.8-5.1c5.2,0,9.4,1.7,12.7,5.1
				C940.2,363.5,941.8,367.8,941.8,373.1z M935,373.1c0-3.5-0.9-6.5-2.8-8.9c-2-2.7-4.7-4-7.9-4c-3.3,0-6,1.3-8,4
				c-1.9,2.5-2.8,5.5-2.8,8.9c0,3.4,0.9,6.4,2.6,8.8c2,2.8,4.7,4.2,8.3,4.2c3.5,0,6.2-1.4,8.2-4.2C934.1,379.5,935,376.6,935,373.1z
				"/>
			<path class="st0" d="M980.9,390.4h-6.4v-17.9c0-4.2-0.5-7.2-1.6-9.1c-1.1-2.1-3-3.1-5.7-3.2c-3.5-0.1-6.2,1.2-8,3.9
				c-1.7,2.5-2.5,6-2.5,10.4v16h-6.4v-34.6h6.2v5.5h0.1c1-1.9,2.5-3.5,4.5-4.6c2.1-1.1,4.3-1.7,6.8-1.7c8.6,0,13,5,13,14.8V390.4z"
				/>
			<path class="st0" d="M1010.4,380.5c0,3.5-1.2,6.2-3.7,8.2c-2.2,1.8-5,2.6-8.4,2.6c-4,0-7.1-0.6-9.5-1.9l0.3-5.7
				c2.5,1.6,5.2,2.5,8,2.5c1.7,0,3.2-0.4,4.3-1.1c1.4-0.9,2.2-2.2,2.2-3.9c0-1.7-1.3-3.2-3.9-4.6c-2.4-1.3-4.8-2.6-7.2-3.9
				c-2.6-1.9-3.9-4.2-3.9-6.9c0-3.4,1.2-6.1,3.5-8c2.2-1.7,5.1-2.6,8.7-2.6c2.3,0,4.9,0.5,8,1.4l-0.5,5.6c-0.7-0.4-1.8-0.8-3.3-1.2
				c-1.5-0.4-2.6-0.5-3.4-0.5c-1.7,0-3.2,0.3-4.3,1c-1.2,0.8-1.9,1.8-1.9,3.2c0,1.9,1.3,3.5,3.9,4.8c2.4,1.2,4.8,2.5,7.2,3.7
				C1009.1,374.8,1010.4,377.3,1010.4,380.5z"/>
			<g>
				<path class="st0" d="M1046.3,346.7c0,3.8-1.3,7-4,9.7c-2.7,2.7-5.9,4-9.7,4c-3.8,0-7-1.3-9.7-4c-2.7-2.7-4-5.9-4-9.7
					c0-3.8,1.3-7,4-9.7c2.7-2.7,5.9-4,9.7-4c3.8,0,7,1.3,9.7,4C1045,339.7,1046.3,342.9,1046.3,346.7z M1042.9,346.7
					c0-3.2-1-5.8-3-7.9c-2-2.1-4.4-3.1-7.3-3.1c-2.9,0-5.3,1-7.3,3.1c-2,2.1-3,4.8-3,7.9c0,3.2,1,5.8,3,7.9c2,2.1,4.4,3.1,7.3,3.1
					c2.9,0,5.4-1,7.4-3.1C1041.9,352.5,1042.9,349.8,1042.9,346.7z M1038.9,354.4h-3l-4-6.7h-1.7v6.7h-2.9v-15.6h5.8
					c3.8,0,5.7,1.5,5.7,4.6c0,2.5-1.4,3.9-4.1,4.2L1038.9,354.4z M1035.9,343.2c0-1.4-1-2.1-3.2-2.1h-2.6v4.5h2.5
					c1,0,1.8-0.1,2.2-0.4C1035.6,344.8,1035.9,344.1,1035.9,343.2z"/>
			</g>
		</g>
	</g>
</g>
</svg>
