<svg xmlns="http://www.w3.org/2000/svg" viewBox="0 0 200.88 43.45"><defs><style>.cls-1{fill:#fff;}</style></defs><title>Asset 2</title><g id="Layer_2" data-name="Layer 2"><g id="WEBSITE"><g id="_Group_" data-name="&lt;Group&gt;"><path class="cls-1" d="M0,16.5C0,10.42,8.87,9.63,8.87,5a3.33,3.33,0,0,0-3.6-3.32A4.83,4.83,0,0,0,1.4,4L.12,3.13A6.1,6.1,0,0,1,5.37,0c3.3,0,5.27,2.14,5.27,4.85,0,5.81-8.74,6.63-8.77,11.23h9v1.53H.1A6,6,0,0,1,0,16.5Z"/><path class="cls-1" d="M14.5,8.94C14.5,4,16,0,20.49,0s6,4,6,8.94-1.45,9-6,9S14.5,14,14.5,8.94Zm10.17,0c0-4.11-.91-7.34-4.19-7.34s-4.21,3.23-4.21,7.34.91,7.37,4.21,7.37S24.68,13.08,24.68,8.94Z"/><path class="cls-1" d="M29.89,16.09h3.89V3.37c0-.49,0-1,0-1h0a4.18,4.18,0,0,1-.86,1L31,5.3,30,4.19,33.88.3h1.58V16.09h3.82v1.53H29.89Z"/><path class="cls-1" d="M49.71,3.42a12,12,0,0,1,1-1.6v0s-.44,0-1.31,0h-8.1V.3H52.52V1.48l-8,16.13H42.72Z"/><path class="cls-1" d="M63,.3h1.7V17.61H63Z"/><path class="cls-1" d="M77,.3h1.7V16.09h8v1.53H77Z"/><path class="cls-1" d="M98.63,12.1h-7l-2,5.52h-1.8L94.25.3h1.82l6.35,17.32h-1.8Zm-3.5-10s-.37,1.43-.67,2.24l-2.32,6.28h6L95.85,4.33c-.3-.81-.67-2.24-.67-2.24Z"/><path class="cls-1" d="M105.32,14.39a6.76,6.76,0,0,0,4.53,1.9c1.9,0,3.45-1.13,3.45-3,0-4.36-8.65-3.25-8.65-8.62,0-2.49,2.19-4.66,5.39-4.66a6.72,6.72,0,0,1,4.63,1.67l-.84,1.43a5.91,5.91,0,0,0-3.79-1.48c-2.22,0-3.65,1.45-3.65,3,0,4.11,8.65,2.93,8.65,8.62,0,2.59-2,4.68-5.25,4.68a7.63,7.63,0,0,1-5.49-2.22Z"/><path class="cls-1" d="M123.94.3h1.82l4.8,13.16c.32.89.66,2.24.66,2.24h0s.34-1.36.66-2.24L136.75.3h1.82l-6.43,17.32h-1.77Z"/><path class="cls-1" d="M141.71.3h9.75V1.82h-8.05V8.13H150V9.66h-6.58v6.43h8.5v1.53h-10.2Z"/><path class="cls-1" d="M163.53,0a9.35,9.35,0,0,1,6.16,2l-.91,1.28a8.52,8.52,0,0,0-5.17-1.72c-4.19,0-7,3.23-7,7.34s2.93,7.42,6.87,7.42a7.56,7.56,0,0,0,5.44-2.54V10.86h-3V9.34h4.58v8.28H169V16.31c0-.37,0-.74,0-.74h0a7.74,7.74,0,0,1-5.64,2.34c-4.73,0-8.47-3.82-8.47-9A8.69,8.69,0,0,1,163.53,0Z"/><path class="cls-1" d="M183.53,12.1h-7l-2,5.52h-1.8L179.14.3H181l6.35,17.32h-1.8Zm-3.5-10s-.37,1.43-.67,2.24L177,10.62h6l-2.27-6.28c-.3-.81-.66-2.24-.66-2.24Z"/><path class="cls-1" d="M190.22,14.39a6.76,6.76,0,0,0,4.53,1.9c1.9,0,3.45-1.13,3.45-3,0-4.36-8.65-3.25-8.65-8.62,0-2.49,2.19-4.66,5.39-4.66a6.72,6.72,0,0,1,4.63,1.67l-.84,1.43a5.91,5.91,0,0,0-3.79-1.48c-2.22,0-3.65,1.45-3.65,3,0,4.11,8.65,2.93,8.65,8.62,0,2.59-2,4.68-5.25,4.68a7.63,7.63,0,0,1-5.49-2.22Z"/><path class="cls-1" d="M.59,25.54H4.9V39.46h7.19v3.7H.59Z"/><path class="cls-1" d="M14.45,25.54h11v3.7H18.76v3.2h5.37v3.7H18.76v3.32h7.07v3.7H14.45Z"/><path class="cls-1" d="M37.75,39.46H32.25l-1.06,3.7H26.76l6-17.61h4.53l6,17.61H38.83ZM35,29.56s-.39,1.92-.71,3l-1,3.42h3.47l-1-3.42c-.32-1.11-.71-3-.71-3Z"/><path class="cls-1" d="M45.23,25.54h6.26c5.54,0,9.09,3.23,9.09,8.77S57,43.16,51.48,43.16H45.23Zm6.08,13.92c3,0,4.8-1.77,4.8-5.15s-1.9-5.07-4.8-5.07H49.54V39.46Z"/><path class="cls-1" d="M70.19,37.66a7.3,7.3,0,0,0,4.21,1.82c.89,0,1.85-.35,1.85-1.4,0-2.09-7.93-2-7.93-7.44,0-3.25,2.73-5.39,6.23-5.39a8,8,0,0,1,5.67,2L78.4,30.77a6.72,6.72,0,0,0-3.89-1.55c-.89,0-1.87.4-1.87,1.38,0,2.22,7.93,1.82,7.93,7.39,0,2.93-2.24,5.47-6.21,5.47a9.09,9.09,0,0,1-6.43-2.51Z"/><path class="cls-1" d="M83.51,25.54h7.32c3.42,0,5.74,2.51,5.74,6.06s-2.32,6.11-5.74,6.11h-3v5.44H83.51ZM89.94,34a2.14,2.14,0,0,0,2.24-2.41A2.09,2.09,0,0,0,90,29.24H87.82V34Z"/><path class="cls-1" d="M107.13,25.25a8.91,8.91,0,0,1,9.21,9,9.21,9.21,0,1,1-18.43,0A8.91,8.91,0,0,1,107.13,25.25Zm0,14.26a5,5,0,0,0,4.75-5.27,4.76,4.76,0,1,0-9.51,0A5,5,0,0,0,107.13,39.51Z"/><path class="cls-1" d="M119.26,25.54h4.36l4.88,8.23a31.64,31.64,0,0,1,1.48,3h0s-.2-1.9-.2-3V25.54h4.31V43.16H129.8L124.9,35a31.38,31.38,0,0,1-1.48-3h0s.2,1.9.2,3v8.2h-4.31Z"/><path class="cls-1" d="M139.23,37.66a7.3,7.3,0,0,0,4.21,1.82c.89,0,1.85-.35,1.85-1.4,0-2.09-7.93-2-7.93-7.44,0-3.25,2.73-5.39,6.23-5.39a8,8,0,0,1,5.67,2l-1.82,3.52a6.72,6.72,0,0,0-3.89-1.55c-.89,0-1.87.4-1.87,1.38,0,2.22,7.93,1.82,7.93,7.39,0,2.93-2.24,5.47-6.21,5.47A9.09,9.09,0,0,1,137,40.94Z"/><path class="cls-1" d="M160.55,25.25a8.91,8.91,0,0,1,9.21,9,9.21,9.21,0,1,1-18.43,0A8.91,8.91,0,0,1,160.55,25.25Zm0,14.26a5,5,0,0,0,4.75-5.27,4.76,4.76,0,1,0-9.51,0A5,5,0,0,0,160.55,39.51Z"/><path class="cls-1" d="M172.69,25.54h6.13a9.11,9.11,0,0,1,3.42.42,5.12,5.12,0,0,1,3.25,5.12,5.36,5.36,0,0,1-2.64,4.8v0a10.35,10.35,0,0,1,.66,1.06L187,43.16h-4.8L179,37.22h-2v5.94h-4.31Zm6.18,8a2,2,0,0,0,2.24-2.17c0-1.33-.49-2.12-2.66-2.12H177v4.28Z"/><path class="cls-1" d="M190.51,37.66a7.3,7.3,0,0,0,4.21,1.82c.89,0,1.85-.35,1.85-1.4,0-2.09-7.93-2-7.93-7.44,0-3.25,2.73-5.39,6.23-5.39a8,8,0,0,1,5.67,2l-1.82,3.52a6.72,6.72,0,0,0-3.89-1.55c-.89,0-1.87.4-1.87,1.38,0,2.22,7.93,1.82,7.93,7.39,0,2.93-2.24,5.47-6.21,5.47a9.09,9.09,0,0,1-6.43-2.51Z"/></g></g></g></svg>