<?xml version="1.0" encoding="utf-8"?>
<!-- Generator: Adobe Illustrator 21.0.0, SVG Export Plug-In . SVG Version: 6.00 Build 0)  -->
<svg version="1.1" id="Layer_1" xmlns="http://www.w3.org/2000/svg" xmlns:xlink="http://www.w3.org/1999/xlink" x="0px" y="0px"
	 viewBox="0 0 164 29.9" style="enable-background:new 0 0 164 29.9;" xml:space="preserve">
<style type="text/css">
	.st0{fill:#FFFFFF;}
	.st1{clip-path:url(#SVGID_2_);fill:#FFFFFF;}
</style>
<g>
	<path class="st0" d="M37.6,12.9c0-1.2-0.7-1.9-2.7-1.9c-2,0-2.7,0.7-2.7,1.9v0.4c0,1,0.7,1.3,1.1,1.5l4,1.5c1.3,0.5,2.4,1.4,2.4,3
		v1.8c0,1.8-1.3,3.4-5,3.4c-3.7,0-5-1.6-5-3.4V20c0-0.3,0.1-0.4,0.4-0.4h1.3c0.3,0,0.4,0.1,0.4,0.4v1c0,1.2,0.8,1.9,2.8,1.9
		c2,0,2.9-0.7,2.9-1.9v-1c0-1.1-1-1.5-1.9-1.8l-3.8-1.4c-1-0.4-2-1.4-2-2.8v-1.3c0-1.8,1.2-3.4,4.8-3.4c3.6,0,4.8,1.6,4.8,3.4v1
		c0,0.3-0.1,0.4-0.4,0.4H38c-0.3,0-0.4-0.1-0.4-0.4V12.9L37.6,12.9L37.6,12.9z"/>
	<path class="st0" d="M43.6,13.4c0.3,0,0.4,0.1,0.4,0.4l0,0.7c0.6-0.5,1.7-1.3,3.6-1.3c1.4,0,2.4,0.6,2.8,1.5
		c0.5-0.5,1.7-1.5,3.8-1.5c2.1,0,3.2,1.2,3.2,2.8V24c0,0.3-0.1,0.4-0.4,0.4h-1.3c-0.3,0-0.4-0.1-0.4-0.4v-7.4c0-0.9-0.4-1.5-1.6-1.5
		c-1.5,0-2.5,0.8-2.9,1.2c0,0.1,0,0.2,0,0.3V24c0,0.3-0.1,0.4-0.4,0.4H49c-0.3,0-0.4-0.1-0.4-0.4v-7.4c0-0.9-0.4-1.5-1.6-1.5
		c-1.4,0-2.4,0.8-2.9,1.1V24c0,0.3-0.1,0.4-0.4,0.4h-1.3c-0.3,0-0.4-0.1-0.4-0.4V13.9c0-0.3,0.1-0.4,0.4-0.4H43.6L43.6,13.4
		L43.6,13.4z"/>
	<path class="st0" d="M66,21.6v-1.9H63c-1.1,0-1.5,0.5-1.5,1.4v0.4c0,0.9,0.5,1.2,1.6,1.2C64.5,22.8,65.5,22,66,21.6L66,21.6
		L66,21.6z M59.7,16.1c0-1.8,1.2-3,4.2-3c3.1,0,4.2,1.2,4.2,3v7.8c0,0.3-0.1,0.4-0.4,0.4h-1.2c-0.3,0-0.4-0.1-0.4-0.4l0-0.6
		c-0.6,0.5-1.8,1.3-3.5,1.3c-2.1,0-3.1-1.2-3.1-2.7v-1.1c0-1.4,1-2.7,3.1-2.7H66v-1.7c0-0.9-0.5-1.5-2.2-1.5c-1.7,0-2.2,0.5-2.2,1.4
		v0.2c0,0.3-0.1,0.4-0.4,0.4h-1.2c-0.3,0-0.4-0.1-0.4-0.4V16.1L59.7,16.1L59.7,16.1z"/>
	<path class="st0" d="M76.4,13.6v1c0,0.3-0.2,0.4-0.4,0.4c-1.7,0.1-2.9,1-3.4,1.4v7.4c0,0.3-0.1,0.4-0.4,0.4h-1.3
		c-0.3,0-0.4-0.1-0.4-0.4V13.7c0-0.3,0.1-0.4,0.4-0.4H72c0.3,0,0.4,0.1,0.4,0.4l0.1,1c0.6-0.6,1.8-1.6,3.5-1.6
		C76.2,13.1,76.4,13.3,76.4,13.6L76.4,13.6L76.4,13.6z"/>
	<path class="st0" d="M83.1,13.6c0.3,0,0.4,0.1,0.4,0.4v0.9c0,0.3-0.1,0.4-0.4,0.4h-2.3v6c0,0.9,0.6,1.5,2.2,1.5h0.4
		c0.3,0,0.4,0.1,0.4,0.4v0.9c0,0.3-0.1,0.4-0.4,0.4h-0.7c-3.1,0-4.1-1.1-4.1-3v-6.2h-1.2c-0.3,0-0.4-0.1-0.4-0.4v-0.8
		c0-0.3,0.1-0.4,0.4-0.4l1.1-0.1h0.1v-2.2c0-0.3,0.1-0.4,0.4-0.4h1.3c0.3,0,0.4,0.1,0.4,0.4v2.2H83.1L83.1,13.6L83.1,13.6z"/>
	<path class="st0" d="M86.7,10.5v6.8h3.4c2.6,0,3.5-0.9,3.5-2.3v-2.2c0-1.4-0.9-2.3-3.5-2.3H86.7L86.7,10.5L86.7,10.5z M86.7,18.3v6
		c0,0.2-0.1,0.3-0.2,0.3h-0.7c-0.2,0-0.3-0.1-0.3-0.3V9.7c0-0.2,0.1-0.3,0.2-0.3h4.3c3.6,0,4.6,1.4,4.6,3.1v2.6c0,1.4-0.7,2.6-2.8,3
		l3,6.1c0.1,0.2,0,0.3-0.2,0.3h-0.7c-0.2,0-0.3-0.1-0.3-0.3l-2.9-6c-0.2,0-0.4,0-0.7,0H86.7L86.7,18.3L86.7,18.3z"/>
	<path class="st0" d="M97.1,18.3h5.6v-2.1c0-1.1-0.6-1.8-2.8-1.8c-2.2,0-2.8,0.8-2.8,1.8V18.3L97.1,18.3L97.1,18.3z M103.9,19
		c0,0.2-0.1,0.2-0.2,0.2h-6.5V22c0,1.1,0.6,1.8,2.8,1.8c2.2,0,2.8-0.8,2.8-1.8v-0.5c0-0.2,0.1-0.3,0.2-0.3h0.6
		c0.2,0,0.3,0.1,0.3,0.3V22c0,1.6-0.9,2.7-3.9,2.7c-3,0-3.9-1.1-3.9-2.7v-5.8c0-1.6,1-2.8,4-2.8c3,0,3.9,1.1,3.9,2.8V19L103.9,19
		L103.9,19z"/>
	<path class="st0" d="M113.3,16.5v0.4c0,0.2-0.1,0.3-0.3,0.3h-0.6c-0.2,0-0.3-0.1-0.3-0.3v-0.4c0-1.1-0.6-1.8-2.8-1.8
		c-2.2,0-2.8,0.8-2.8,1.8v5.7c0,1.1,0.6,1.8,2.8,1.8c2.2,0,2.8-0.7,2.8-1.8v-0.5c0-0.2,0.1-0.3,0.3-0.3h0.6c0.2,0,0.3,0.1,0.3,0.3
		v0.6c0,1.6-0.9,2.7-3.9,2.7c-3,0-3.9-1.1-3.9-2.7v-5.8c0-1.6,0.9-2.8,3.9-2.8C112.4,13.7,113.3,14.8,113.3,16.5L113.3,16.5
		L113.3,16.5z"/>
	<path class="st0" d="M120.1,14v0.5c0,0.2-0.1,0.3-0.3,0.3c-1.7,0.1-3.2,1.1-3.7,1.6v8.2c0,0.2-0.1,0.3-0.3,0.3h-0.6
		c-0.2,0-0.3-0.1-0.3-0.3V14.2c0-0.2,0.1-0.3,0.3-0.3h0.6c0.2,0,0.3,0.1,0.3,0.3l0,1.2c0.6-0.6,2.1-1.6,3.8-1.6
		C120,13.7,120.1,13.8,120.1,14L120.1,14L120.1,14z"/>
	<path class="st0" d="M127.8,23.7c-0.6,0.5-1.8,1.3-3.7,1.3c-2.1,0-3-1.1-3-2.6v-8.2c0-0.2,0.1-0.3,0.2-0.3h0.6
		c0.2,0,0.3,0.1,0.3,0.3v8c0,1.1,0.6,1.8,2.2,1.8c1.8,0,2.9-0.9,3.4-1.3v-8.5c0-0.2,0.1-0.3,0.2-0.3h0.6c0.2,0,0.2,0.1,0.2,0.3v10.4
		c0,0.2-0.1,0.3-0.2,0.3h-0.6c-0.2,0-0.3-0.1-0.3-0.3L127.8,23.7L127.8,23.7L127.8,23.7z"/>
	<path class="st0" d="M132.5,24.6c0,0.2-0.1,0.3-0.3,0.3h-0.6c-0.2,0-0.3-0.1-0.3-0.3V14.2c0-0.2,0.1-0.3,0.3-0.3h0.6
		c0.2,0,0.3,0.1,0.3,0.3V24.6L132.5,24.6L132.5,24.6z M132.5,11.7c0,0.2-0.1,0.3-0.3,0.3h-0.6c-0.2,0-0.3-0.1-0.3-0.3V9.6
		c0-0.2,0.1-0.3,0.3-0.3h0.6c0.2,0,0.3,0.1,0.3,0.3V11.7L132.5,11.7L132.5,11.7z"/>
	<path class="st0" d="M139.2,13.9c0.2,0,0.3,0.1,0.3,0.2v0.4c0,0.2-0.1,0.3-0.3,0.3h-2.6V22c0,1.1,0.6,1.8,2.8,1.8h0.4
		c0.2,0,0.3,0.1,0.3,0.3v0.5c0,0.2-0.1,0.3-0.3,0.3h-0.5c-3,0-3.8-1.1-3.8-2.7v-7.2h-1.4c-0.2,0-0.3-0.1-0.3-0.3v-0.4
		c0-0.2,0.1-0.2,0.3-0.3l1.2-0.1h0.2v-2.4c0-0.2,0.1-0.3,0.3-0.3h0.6c0.2,0,0.2,0.1,0.2,0.3v2.4H139.2L139.2,13.9L139.2,13.9z"/>
	<path class="st0" d="M141.9,18.6h5.6v-2.1c0-1.1-0.6-1.8-2.8-1.8c-2.2,0-2.8,0.8-2.8,1.8V18.6L141.9,18.6L141.9,18.6z M148.7,19.2
		c0,0.2-0.1,0.2-0.2,0.2h-6.5v2.8c0,1.1,0.6,1.8,2.8,1.8c2.2,0,2.8-0.8,2.8-1.8v-0.5c0-0.2,0.1-0.3,0.2-0.3h0.6
		c0.2,0,0.3,0.1,0.3,0.3v0.5c0,1.6-0.9,2.7-3.9,2.7c-3,0-3.9-1.1-3.9-2.7v-5.8c0-1.6,1-2.8,4-2.8c3,0,3.9,1.1,3.9,2.8V19.2
		L148.7,19.2L148.7,19.2z"/>
	<g>
		<defs>
			<rect id="SVGID_1_" width="164" height="29.9"/>
		</defs>
		<clipPath id="SVGID_2_">
			<use xlink:href="#SVGID_1_"  style="overflow:visible;"/>
		</clipPath>
		<path class="st1" d="M155.8,14v0.5c0,0.2-0.1,0.3-0.3,0.3c-1.7,0.1-3.2,1.1-3.7,1.6v8.2c0,0.2-0.1,0.3-0.3,0.3h-0.6
			c-0.2,0-0.3-0.1-0.3-0.3V14.2c0-0.2,0.1-0.3,0.3-0.3h0.6c0.2,0,0.3,0.1,0.3,0.3l0,1.2c0.6-0.6,2.1-1.6,3.8-1.6
			C155.7,13.7,155.8,13.8,155.8,14L155.8,14L155.8,14z"/>
		<path class="st1" d="M162.7,16.1c0-0.9-0.8-1.5-2.7-1.5c-1.8,0-2.6,0.6-2.6,1.5v0.7c0,0.8,0.7,1.2,1.2,1.4l3.5,1.1
			c1,0.3,1.9,1,1.9,2v1.3c0,1.3-1.2,2.4-3.9,2.4c-2.8,0-3.9-1.1-3.9-2.4V22c0-0.2,0.1-0.2,0.2-0.2h0.6c0.2,0,0.2,0.1,0.2,0.2v0.6
			c0,0.9,0.9,1.6,2.8,1.6c1.9,0,2.9-0.6,2.9-1.6v-1c0-0.7-0.6-1.1-1.4-1.4l-3.5-1.1c-0.8-0.2-1.7-1-1.7-2.1v-0.9
			c0-1.3,1-2.4,3.8-2.4c2.7,0,3.8,1.1,3.8,2.4v0.7c0,0.2-0.1,0.2-0.3,0.2H163c-0.2,0-0.2-0.1-0.2-0.2V16.1L162.7,16.1L162.7,16.1z"
			/>
		<path class="st1" d="M17.4,16.3c0,1.7-1.5,3.3-5.3,3.3c-3.8,0-5.2-1.6-5.2-3.3v-0.7c0-0.3,0.1-0.5,0.5-0.5h1.5
			c0.4,0,0.5,0.2,0.5,0.5v0.6c0,1,1.1,1.5,2.8,1.5c1.7,0,2.8-0.5,2.8-1.5v-0.7c0-0.7-0.6-1-1.5-1.3l-4.2-1.4c-1-0.4-2.2-1.4-2.2-2.8
			v-1c0-1.7,1.3-3.4,5-3.4c3.7,0,5,1.7,5,3.4v0.7c0,0.4-0.1,0.5-0.5,0.5h-1.4c-0.3,0-0.5-0.1-0.5-0.5V8.8c0-1-0.9-1.5-2.6-1.5
			c-1.7,0-2.6,0.5-2.6,1.5v0.5c0,0.7,0.7,1.1,1.2,1.3l4.2,1.4c1.5,0.5,2.5,1.4,2.5,2.7V16.3L17.4,16.3L17.4,16.3z M12.2,29.9
			c2.2,0,4.1-0.5,4.8-1.9c0.3-0.6,0.3-0.9,0.4-1.6c0.6-3.2,2.2-5.3,3.5-6.6c1.9-1.9,3.4-4.9,3.4-8.1C24.4,5.3,19,0,12.2,0h0
			C5.3,0,0,5.3,0,11.8C0,15,1.5,18,3.4,19.8c1.3,1.3,2.9,3.4,3.5,6.6c0.1,0.7,0.1,1,0.4,1.6C8.1,29.5,10,30,12.2,29.9L12.2,29.9
			L12.2,29.9L12.2,29.9z"/>
	</g>
</g>
</svg>
