<?xml version="1.0" encoding="utf-8"?>
<!-- Generator: Adobe Illustrator 21.0.0, SVG Export Plug-In . SVG Version: 6.00 Build 0)  -->
<svg version="1.1" id="Layer_1" xmlns="http://www.w3.org/2000/svg" xmlns:xlink="http://www.w3.org/1999/xlink" x="0px" y="0px"
	 viewBox="0 0 264.5 31.9" style="enable-background:new 0 0 264.5 31.9;" xml:space="preserve">
<style type="text/css">
	.st0{fill:#FFFFFF;}
	.st1{fill-rule:evenodd;clip-rule:evenodd;fill:#FFFFFF;}
</style>
<g>
	<path class="st0" d="M153.3,8.7c-2.4,0-4,1.7-4,4.2c0,2.7,2.6,5.3,5.7,8.4l1.8,1.8l1.8-1.8c3-3,5.7-5.6,5.7-8.4
		c0-2.5-1.6-4.2-4-4.2c-1,0-2,0.4-2.7,1.2l-0.8,0.8L156,9.9C155.3,9.1,154.3,8.7,153.3,8.7 M156.8,26.1l-3.3-3.3
		c-3.4-3.4-6.3-6.3-6.3-9.9c0-3.7,2.6-6.3,6.1-6.3c1.3,0,2.5,0.4,3.5,1.1c1-0.7,2.2-1.1,3.5-1.1c3.6,0,6.1,2.7,6.1,6.3
		c0,3.6-2.9,6.5-6.3,9.9L156.8,26.1L156.8,26.1z"/>
	<path class="st0" d="M136.9,20.7l0.9-1.3c0.7,0.6,1.8,1,2.7,1c0.7,0,1.2-0.2,1.2-0.8c0-0.5-0.4-0.7-1.5-0.9c-1.5-0.3-3-0.6-3-2.4
		c0-1.6,1.3-2.5,3-2.5c1.6,0,2.6,0.4,3.4,1.1l-0.9,1.3c-0.8-0.5-1.6-0.8-2.3-0.8c-0.7,0-1,0.3-1,0.7c0,0.5,0.4,0.7,1.4,0.8
		c1.5,0.3,3.2,0.6,3.2,2.4c0,1.9-1.6,2.6-3.4,2.6C138.8,21.9,137.7,21.3,136.9,20.7L136.9,20.7z M131.5,21.7v-7.8h2.4v1.3h0
		c0.4-0.7,1.2-1.5,2.6-1.5h0.1l0,2.1c-0.1,0-0.5,0-0.6,0c-0.9,0-1.6,0.5-2.1,1.1v4.8H131.5L131.5,21.7z M127.8,17.8
		c0-1.3-0.5-2.4-1.6-2.4c-1.1,0-1.6,0.9-1.6,2.4c0,1.3,0.4,2.4,1.6,2.4C127.2,20.2,127.8,19.2,127.8,17.8L127.8,17.8z M122.1,17.8
		c0-3.1,2.1-4.1,4-4.1c1.9,0,4,1,4,4.1c0,3-2.1,4-4,4C124.2,21.9,122.1,20.8,122.1,17.8L122.1,17.8z M117.1,19.5v-3.9h-1.3v-1.7h1.3
		v-2.7h2.3v2.7h2v1.7h-2V19c0,0.8,0.2,1.1,1.1,1.1c0.3,0,0.6,0,0.8-0.1v1.7c-0.2,0-1,0.1-1.5,0.1C117.4,21.8,117.1,21,117.1,19.5
		L117.1,19.5z M108,17.8c0-3.1,2.2-4.1,3.9-4.1c2.1,0,2.9,1.1,3.4,2.4l-2,0.7c-0.3-1-0.8-1.3-1.4-1.3c-0.9,0-1.5,0.8-1.5,2.4
		c0,1.4,0.4,2.4,1.5,2.4c0.6,0,1.2-0.3,1.5-1.4l1.9,0.7c-0.5,1.2-1.5,2.4-3.5,2.4C110,21.9,108,20.8,108,17.8L108,17.8z M104.4,19.4
		v-1.4c-1.9,0.2-2.6,0.7-2.6,1.4c0,0.5,0.3,0.7,0.9,0.7C103.4,20.1,104,19.8,104.4,19.4L104.4,19.4z M99.4,19.7
		c0-1.8,1.5-2.8,4.9-3.1v-0.2c0-0.6-0.3-0.9-1.1-0.9c-1,0-1.8,0.4-2.6,1l-1-1.3c0.8-0.7,1.9-1.4,3.9-1.4c2.1,0,3,1.1,3,3.1v3
		c0,0.9,0.1,1.5,0.2,1.9h-2.3c-0.1-0.3-0.2-0.7-0.2-1.1c-0.7,0.8-1.6,1.3-2.7,1.3C100.5,21.8,99.4,21,99.4,19.7L99.4,19.7z
		 M92.8,21.7V10.9h7.1v2h-4.8v2.6h3.4v1.9h-3.4v4.3H92.8L92.8,21.7z M84.3,20.7l0.9-1.3c0.7,0.6,1.8,1,2.7,1c0.7,0,1.2-0.2,1.2-0.8
		c0-0.5-0.4-0.7-1.5-0.9c-1.5-0.3-3.1-0.6-3.1-2.4c0-1.6,1.3-2.5,3-2.5c1.6,0,2.6,0.4,3.4,1.1l-0.9,1.3c-0.8-0.5-1.6-0.8-2.3-0.8
		c-0.7,0-1.1,0.3-1.1,0.7c0,0.5,0.4,0.7,1.4,0.8c1.5,0.3,3.2,0.6,3.2,2.4c0,1.9-1.6,2.6-3.4,2.6C86.3,21.9,85.1,21.3,84.3,20.7
		L84.3,20.7z M76.5,20.7l0.9-1.3c0.7,0.6,1.8,1,2.7,1c0.7,0,1.2-0.2,1.2-0.8c0-0.5-0.4-0.7-1.5-0.9c-1.5-0.3-3.1-0.6-3.1-2.4
		c0-1.6,1.3-2.5,3-2.5c1.6,0,2.6,0.4,3.4,1.1l-0.9,1.3c-0.8-0.5-1.6-0.8-2.3-0.8c-0.7,0-1.1,0.3-1.1,0.7c0,0.5,0.4,0.7,1.4,0.8
		c1.5,0.3,3.2,0.6,3.2,2.4c0,1.9-1.6,2.6-3.4,2.6C78.5,21.9,77.3,21.3,76.5,20.7L76.5,20.7z M73.8,17.1c-0.1-1.1-0.6-1.6-1.5-1.6
		c-0.7,0-1.4,0.5-1.5,1.6H73.8L73.8,17.1z M68.4,17.8c0-3,2.3-4.1,3.9-4.1s3.6,0.8,3.6,4.3v0.4h-5.2c0.1,1.3,0.8,1.8,1.8,1.8
		c0.9,0,1.8-0.5,2.3-0.9l0.9,1.4c-0.9,0.8-2,1.2-3.4,1.2C70.3,21.9,68.4,20.8,68.4,17.8L68.4,17.8z M60.5,17.8c0-3.1,2.2-4,3.9-4
		c2.1,0,2.9,1.1,3.4,2.4l-2,0.7c-0.3-1-0.8-1.3-1.4-1.3c-0.9,0-1.5,0.8-1.5,2.3c0,1.4,0.4,2.4,1.5,2.4c0.6,0,1.2-0.3,1.5-1.4
		l1.9,0.7c-0.5,1.2-1.5,2.4-3.5,2.4C62.5,21.9,60.5,20.8,60.5,17.8L60.5,17.8z M52.4,17.8c0-3.1,2.2-4.1,3.9-4.1
		c2.1,0,2.9,1.1,3.4,2.4l-2,0.7c-0.3-1-0.8-1.3-1.4-1.3c-0.9,0-1.5,0.8-1.5,2.4c0,1.4,0.4,2.4,1.5,2.4c0.6,0,1.2-0.3,1.5-1.4
		l1.9,0.7c-0.5,1.2-1.5,2.4-3.5,2.4C54.4,21.9,52.4,20.8,52.4,17.8L52.4,17.8z M43.8,19.6v-5.7h2.4v5c0,0.7,0.3,1.1,0.9,1.1
		c0.6,0,1.2-0.3,1.7-0.8v-5.3h2.4v7.8h-2.4v-1.2c-0.5,0.6-1.3,1.4-2.7,1.4C44.8,21.9,43.8,21.2,43.8,19.6L43.8,19.6z M33.8,19.2
		l1.8-1.1c0.6,1.2,1.7,1.8,2.9,1.8c1.1,0,1.9-0.4,1.9-1.2c0-0.8-0.8-1.2-2.2-1.6c-1.9-0.5-3.9-1-3.9-3.3c0-2,1.6-3.2,3.9-3.2
		c2.2,0,3.5,1.1,4.3,2.2l-1.7,1.3c-0.6-0.9-1.6-1.5-2.7-1.5c-1,0-1.6,0.4-1.6,1.1c0,0.9,0.8,1.2,2.2,1.6c1.9,0.5,3.9,1.1,3.9,3.3
		c0,1.7-1.3,3.3-4.3,3.3C36,21.9,34.6,20.8,33.8,19.2L33.8,19.2z M22.8,16h1.6c1.5,0,2-0.6,2-1.6c0-1-0.5-1.6-2-1.6h-1.6V16L22.8,16
		z M20.5,21.7V10.9h3.9c2.3,0,4.4,0.6,4.4,3.5c0,2.9-2.3,3.5-4.4,3.5h-1.5v3.8H20.5L20.5,21.7z M13,17.6h2.5l-1.2-3.7h0L13,17.6
		L13,17.6z M9.4,21.7l3.8-10.9h2.3l3.8,10.9h-2.4l-0.8-2.4h-3.7l-0.8,2.4H9.4L9.4,21.7z M0,19.2l1.8-1.1C2.4,19.4,3.5,20,4.7,20
		c1.1,0,1.9-0.4,1.9-1.2c0-0.8-0.8-1.2-2.2-1.6c-1.9-0.5-3.9-1-3.9-3.3c0-2,1.6-3.2,3.9-3.2c2.2,0,3.5,1.1,4.3,2.2L7,14.2
		c-0.6-0.9-1.6-1.5-2.7-1.5c-1,0-1.6,0.4-1.6,1.1c0,0.9,0.8,1.2,2.2,1.6c1.9,0.5,3.9,1.1,3.9,3.3c0,1.7-1.3,3.3-4.3,3.3
		C2.3,21.9,0.8,20.8,0,19.2L0,19.2z"/>
	<path class="st1" d="M223.6,12.2l-2,6.3c0.6,0.2,1.3,0.4,2,0.4c0.7,0,1.4-0.1,2-0.3L223.6,12.2L223.6,12.2L223.6,12.2z M238.6,10.1
		h-1.4v5.1h1.4c1.9,0,3.3-0.6,3.3-2.6C242,10.8,240.5,10.1,238.6,10.1L238.6,10.1z M239.3,19.6h-2v6.1h-9.4l-0.9-2.9
		c-1,0.3-2.1,0.5-3.3,0.5c-1.2,0-2.4-0.2-3.4-0.5l-1,2.9h-5.8l0.6-1.7c-0.1,0.1-0.2,0.1-0.2,0.2c-1.4,1.2-3.2,1.8-5.5,1.8l-0.3,0
		c-2.6,0-5.1-0.7-7.2-1.9l2-3.9c2.1,1.3,3.5,1.5,5.2,1.5c0.9,0,1.6-0.2,2-0.6c0.3-0.3,0.4-0.6,0.4-1c0-1-1.4-1.5-3.2-2
		c-1.4-0.4-3-1-4.3-2c-1.5-1.1-2.2-2.5-2.2-4.4c0-1.4,0.5-2.7,1.5-3.7c1.4-1.4,3.6-2.3,6.3-2.3h0c2.3,0,5.1,0.7,7.2,1.7l-2.2,3.8
		c-2.2-1.1-3.4-1.2-4.6-1.3c-1.9-0.1-2.9,0.6-2.9,1.3c0,0.9,1.8,1.7,3.5,2.2c2.6,0.8,5.9,1.9,6.4,5.1L220.9,6h5.5l5.5,15.1V6l6.3,0
		c6.1,0,8.9,2.2,8.9,6.9C247.2,17.1,244.2,19.6,239.3,19.6L239.3,19.6z M200,0v31.9h32.6L264.5,0H200L200,0z"/>
	<path class="st0" d="M241.6,29.6v-0.7h0.5c0.2,0,0.5,0.1,0.5,0.3c0,0.4-0.3,0.4-0.6,0.4H241.6L241.6,29.6z M241.6,29.9h0.4l0.6,1
		h0.4l-0.7-1c0.4,0,0.6-0.2,0.6-0.7c0-0.5-0.3-0.7-0.8-0.7h-0.9V31h0.4V29.9L241.6,29.9z M242,31.8c1.1,0,2.1-0.9,2.1-2.1
		c0-1.2-1-2.1-2.1-2.1c-1.1,0-2.1,0.9-2.1,2.1C239.9,31,240.9,31.8,242,31.8L242,31.8z M240.3,29.8c0-1,0.7-1.7,1.7-1.7
		c0.9,0,1.7,0.7,1.7,1.7c0,1-0.7,1.7-1.7,1.7C241.1,31.5,240.3,30.8,240.3,29.8L240.3,29.8z"/>
</g>
</svg>
