<svg xmlns="http://www.w3.org/2000/svg" viewBox="0 0 325.94 145.47"><defs><style>.cls-1{fill:#fff;}</style></defs><title>Asset 1</title><g id="Layer_2" data-name="Layer 2"><g id="Layer_2-2" data-name="Layer 2"><path class="cls-1" d="M185.73,73.54a99.12,99.12,0,0,0,20.84-7.2c28.16-13.3,44.37-38.66,37.2-53.86s-35.83-16.73-64-3.43c-11.59,5.47-18,9.31-24.86,16.88,0,0-3.63,4.8.45,7s6.19,3,7.28,1.66c5.86-7.34,11.72-14.28,23.26-19.73C209,4,232.24,4.75,237.84,16.61s-8.57,30.3-31.65,41.2a85.31,85.31,0,0,1-16.82,5.94c-6.63,1.92-16.06,3.08-26.48,2.93,5.45-10.21,11.3-19.45,15.48-26,5.54-8.74,6.31-10.09,5.89-11.38A2.56,2.56,0,0,0,182,27.31c-1.61-.13-5.39-.42-25.51,35.39l-2,3.56a115.76,115.76,0,0,1-15.69-2.37h0a83.12,83.12,0,0,1-22.94-8.56A226.25,226.25,0,0,0,140,60.74c.08-2.82-2.17-6-6.07-7.83C91.76,33.37,52,24.05,8.71,10.16,3.49,8.45-.39,12.65,0,19.57c2.1,36.53,4.22,71.58,6.69,105.19.49,6.36,3.89,11.2,7.57,11,30.88-1.79,57.19-.41,88.3-6.11,3.73-.73,7.81-4.66,9.21-8.54A290.19,290.19,0,0,1,136.42,67.8a115.22,115.22,0,0,0,14.85,4.34c-8.69,16-16.31,31.3-19.09,37.89-7.47,17.1-9.16,27.71,3.29,34.73a5,5,0,0,0,2.05.7,2.56,2.56,0,0,0,2-.67,2.86,2.86,0,0,0,.79-2.29c-.82-17.75,5.62-35.18,11.85-52L153.1,88a155.19,155.19,0,0,1,6.24-14.4C170.26,75.17,179.59,74.82,185.73,73.54ZM84.13,56a2.37,2.37,0,0,1,2.31-.22c1.12.63,0,2.18,0,2.18s-1.22,1.82-2.25,2c-.82.1-1.85-.27-1.91-1.24A4.1,4.1,0,0,1,84.13,56ZM79.73,79.7s1-11.45,1.22-12.52c.24-1.39.58-1.65.58-1.65S83,63.8,84.13,64.1s.9,1.74.9,1.74l-.65,7.71A50.76,50.76,0,0,1,84,79a4.66,4.66,0,0,1-2.53,1.84,1.56,1.56,0,0,1-1.17,0A1.12,1.12,0,0,1,79.73,79.7Zm-20-4.49a1.4,1.4,0,0,1,1.8.84A1.85,1.85,0,0,1,61,78.51l-1.52,1.16a12.15,12.15,0,0,0-1.63,1.9,5,5,0,0,0-.72,2.62c-.2,1.46-.34,6-.34,6s.31.63-.38,1.9A4.26,4.26,0,0,1,54,94.07s-1,.28-1.42-.22a2.39,2.39,0,0,1-.5-1.26l.75-12.66a4,4,0,0,1,1.48-2.71,7.64,7.64,0,0,1,2.94-.83Zm-23.89,37.3s-.37,2-2,2a1.89,1.89,0,0,1-1.89-1.31L26.67,81.85s-.14-1.09-.8-.58c-.37.63-3.37,8.35-3.37,8.35a2,2,0,0,1-2.42.83,1.65,1.65,0,0,1-1.15-1.89L25,70.69a2.54,2.54,0,0,1,2.49-1.41c1.64.25,2,2.35,2,2.35l4,24.07s.1.43.29.43.26-.66.26-.66,1.85-13,4.17-22.23c.54-2.12,2.67-10.11,4.79-16.13C45.78,49,48.9,41.83,48.9,41.83s2.09-4,5.54-1.9A3.49,3.49,0,0,1,55,45.29,29.41,29.41,0,0,0,50.7,51c-3.06,5.59-6.07,16.38-7.9,22.58A201.1,201.1,0,0,0,37.71,99C37.27,102,35.81,112.51,35.81,112.51Zm12.31-37.6c-.31.09-.64.26-1.38-.41S46.59,72.8,47,72a7.31,7.31,0,0,1,2-1.63s1.26-.58,1.61-.16a2.45,2.45,0,0,1,.44,1,1.71,1.71,0,0,1-.36,1.47A11.42,11.42,0,0,1,48.13,74.91ZM47.6,96.36a1.55,1.55,0,0,1-.5,1.13,18.35,18.35,0,0,1-1.84,1.28,1.51,1.51,0,0,1-1.28,0,1.39,1.39,0,0,1-.59-1.13s.6-11.89.83-13.17a6.54,6.54,0,0,1,.73-2.21s1.56-2,3.18-1.91c.77.12.93,1,.91,1.17C49.49,83,47.6,96.36,47.6,96.36Zm62.28-22.51a31,31,0,0,1-4.14,1.48c-.82.15-8.71,4.06-12.58,6.11A163.23,163.23,0,0,0,75.69,92.33v0s-.34,16.31-.35,17.65c0,4.72,1.59,8,1.44,9.88a2.69,2.69,0,0,1-3.34,2.66c-2.46-.38-2.28-4.14-2.28-4.14l.31-12.3s0-5.82,0-10.79A147.82,147.82,0,0,0,54,109.4c-2.46,2.5-9.3,10.41-10.64,10.65-.9.13-2,.37-2.87-.62a2.68,2.68,0,0,1-.41-2.56c1.54-3,13.19-12.31,15-13.95,1.39-1.25,10.43-8,16.41-12.24,0-1.25,0-2.1,0-2.25,0-.71-.43-.28-.43-.28l-1.59.91s-2.5,1.2-4.52.37c-1.36-.59-1.79-2.46-1.88-3.09S63,82.52,63,82.52a20.18,20.18,0,0,1,1.4-7.45,8.23,8.23,0,0,1,5-4.77,1.09,1.09,0,0,1,1.08.06,1.45,1.45,0,0,1,.27,1.56c-.08.8-1.15,1.72-1.15,1.72a12.15,12.15,0,0,0-1.31,2.25,43.74,43.74,0,0,0-1.06,6.65,3.75,3.75,0,0,0,.41,2.22s.35.8,1.69.36a2.5,2.5,0,0,0,1.8-1.57,4.78,4.78,0,0,0,.42-1.38l1.12-12.29a2.57,2.57,0,0,1,2.19-1.94c1.64-.18,2,.85,2,1.07.24,1.53-.8,11.73-1,13.3-.08.75-.13,3.15-.16,5.42l.12-.08c4-2.64,17.83-10.51,17.83-10.51l5.22-3.06a2.42,2.42,0,0,1-1.27-2c0-1.36.35-9.14.35-9.14a1.27,1.27,0,0,0-.5-1.16,1.07,1.07,0,0,0-1.21-.09,12.22,12.22,0,0,0-2.53,2.47,17.51,17.51,0,0,0-1.18,5.18,39.94,39.94,0,0,0,.09,4.86,3.36,3.36,0,0,1-.6,1.53,5.4,5.4,0,0,1-1.83,1.09,1.73,1.73,0,0,1-1.59.09A1.47,1.47,0,0,1,88,75.48l.58-11.53a4.7,4.7,0,0,1,1-2.41,4.09,4.09,0,0,1,2.68-1.09,6.87,6.87,0,0,0,2.59-.19,2.71,2.71,0,0,0,.88-.72,9.8,9.8,0,0,1,2.74-2.21,2.41,2.41,0,0,1,2.39-.16A2.06,2.06,0,0,1,102,58.88c.36,5.12-.07,10,0,10.73A2.06,2.06,0,0,0,103,71.4c.67.41,1.71-.28,1.71-.28L108.94,69a3.27,3.27,0,0,1,3.19.75C113.26,71.57,111.29,73.16,109.87,73.85Z"/><path class="cls-1" d="M276.27,37.4c.24,1.93-24.54,23.88-38.62,47.1-9.17,15.13-18.93,30.55-21.49,48-.2,1.34-1.19,1.36-2.43.3-9.17-7.81-6.27-16.26,3.41-30.3C226.86,88,275.11,28.11,276.27,37.4ZM252.11,95.12c1-3.32,6.3-9.14,9.77-11.88,3.94-3.09,9.67-3.84,11.46-3,2.51,1.15,2,2.22,2,2.95,0,3.06-4.75,7.25-7.12,9.9a2.52,2.52,0,0,0-.63,2.8c.86,1.34,4.11,1.36,5.53,1.22,3.31-.27,6.73-4.45,9-7.34s2.78-7.06,1.74-9.53c-1.91-4.5-6.89-5.64-11-5.8-8-.22-15.35,3.69-22.52,11.62-3.62,4-8.18,11.83-7.43,15.8s5.1,4.6,7.53,5.16c4.35.95,9.29,1.37,10.15,5.95.51,3.05-1.19,7-4.11,10.08-4.79,5-12.76,7.64-17,7.33-2.44-.15-4.9-1-5.8-3.24s.3-4.07,1.37-5.2c4.22-5,10.87-3.9,15.23-4.32,1.16,0,2.57-1.51,1-3.59-1.3-1.89-7.11-1.25-9.21-.95-5,1-11.5,3.78-14.45,8.14a7.72,7.72,0,0,0-.24,8.18c3.84,6.4,12.75,7.42,18.47,6.86,7.8-.85,16.44-4.22,22.33-13.25,2.82-4.28,4.27-11,2.29-15-2.83-5.95-10-5.85-13.57-6.58C254.52,101.1,251,98.89,252.11,95.12Zm72.41,15.39a2,2,0,0,0-1.39.48c-11.28,10.59-15.69,13.41-23.65,14.28-3.15.29-6.2-.53-8.08-2.78-.91-1.09-1.09-3.11-.74-4.88a8.33,8.33,0,0,1,2.3-4.27c1.69,1.92,7.38,2.21,10.08,1.18,7.47-2.8,13.88-10,17.29-16.2,2.79-5.3,4-9.87,1.54-14-2.53-4.42-7.7-5.89-11.59-5.6-7,.59-13.93,5.75-20,13.55-8.51,11.2-13.57,22.1-11.22,31.23,1.62,6,6.95,9,12.1,9.72,12.47,1.77,19-4.65,32.18-17.32C327.51,112.11,325.69,110.89,324.52,110.51Zm-27.64-6.59C298,102.15,305.77,91,310.79,89.3c2-.65,3.94-.13,4.58.57,1.49,1.82.72,4.06,0,5.53-2.48,5.11-7.63,12.32-14,15a4.93,4.93,0,0,1-4.87-.23C295.27,109.58,294.52,107.67,296.87,103.93ZM184.63,115.84c2.63-1.87-6.16,27.21,10.91,17.49-.59.33.52-.33.88-.74s.51-1,.53-.89c-4.06-21.64,16.49-46.91,21.15-53.18,1.7-2.28-4.36-1.63-6.58-.18-5.83,3.8-8.63,9.67-22,25-8.66,9.92-12.69,12.7-22.27,17.31-1.43.69-3.85.15-2.45-3.5a76.4,76.4,0,0,1,7-13.53c5.6-9.11,11.6-13.45,9.93-15.65-1.19-1.57-9.36,1.83-11.07,3.09s-4.53,7.14-5.75,10C157.09,119.08,137.91,149.06,184.63,115.84Z"/></g></g></svg>