<svg id="Layer_1" data-name="Layer 1" xmlns="http://www.w3.org/2000/svg" viewBox="0 0 540.55 229.28"><defs><style>.cls-1,.cls-2{fill:#fff;}.cls-2{fill-rule:evenodd;}</style></defs><title>Walkme</title><path class="cls-1" d="M134.06,79V122.8q0,15.46-8.11,24.42t-21.79,9a28.79,28.79,0,0,1-13.06-3,28.5,28.5,0,0,1-10.2-8.69,30.85,30.85,0,0,1-10.43,8.73,28.28,28.28,0,0,1-12.83,2.94q-13.68,0-21.83-9T27.66,122.8V79H41.18V125.2q0,8,4.52,12.94A15.46,15.46,0,0,0,57.64,143a15.68,15.68,0,0,0,12-4.95q4.64-4.94,4.64-12.9V79H87.7V125.2q0,8,4.52,12.94A15.46,15.46,0,0,0,104.16,143,15.46,15.46,0,0,0,116,138.1q4.6-4.94,4.6-12.9V79Z" transform="translate(-27.66 -37.73)"/><path class="cls-1" d="M200.14,154.79V117q0-11.9-6.72-19.28T176,90.35a22.92,22.92,0,0,0-17.5,7.3q-6.84,7.3-6.84,18.82,0,11.75,7,19.24a23.5,23.5,0,0,0,17.93,7.49,27.93,27.93,0,0,0,9.62-1.7,36.29,36.29,0,0,0,9.39-5.25v14.6a38.6,38.6,0,0,1-9.77,3.9A44.64,44.64,0,0,1,175,156a35.92,35.92,0,0,1-10.74-1.66,35,35,0,0,1-9.66-4.67,37.91,37.91,0,0,1-12.52-14.1,40.7,40.7,0,0,1-4.33-18.82q0-17,10.74-28.09T175.8,77.6a37.7,37.7,0,0,1,19.94,5.49,36.72,36.72,0,0,1,13.91,15.07,34.26,34.26,0,0,1,3.21,9.47,89.94,89.94,0,0,1,1,15.34v31.84Z" transform="translate(-27.66 -37.73)"/><path class="cls-1" d="M221.71,154.79V44.14h13.6V154.79Z" transform="translate(-27.66 -37.73)"/><path class="cls-1" d="M244.51,154.79V44.14h13.6V106.5h6a17,17,0,0,0,9.47-2.4q3.67-2.39,7.92-9.43L291.18,79H307L295.89,97a52.67,52.67,0,0,1-5.8,8,20,20,0,0,1-5.41,4.48q9.35,1.78,13.79,7.69t4.44,16.73v20.86H289.25V135.63q0-8.19-3.59-12t-11.4-3.82H258.11v35Z" transform="translate(-27.66 -37.73)"/><path class="cls-2" d="M516.51,37.73H363a51.7,51.7,0,0,0-51.7,51.7V139.3A51.7,51.7,0,0,0,363,191h39.77l36.42,25.93L475.6,191h40.91a51.7,51.7,0,0,0,51.7-51.7V89.43A51.7,51.7,0,0,0,516.51,37.73ZM452.92,153.12H439.48V106.76q0-8-4.56-12.83a17,17,0,0,0-23.8,0q-4.56,4.87-4.56,12.83v46.36H393.11V106.76q0-8-4.64-12.83a15.8,15.8,0,0,0-12-4.87,15.53,15.53,0,0,0-11.94,4.87Q360,98.8,360,106.76v46.36H346.52V109.31q0-15.45,8.11-24.42t21.87-9a28.63,28.63,0,0,1,13,3,29.24,29.24,0,0,1,10.28,8.69,30.11,30.11,0,0,1,10.35-8.73A28.44,28.44,0,0,1,423,75.92q13.6,0,21.75,9t8.15,24.38Zm66.93-7.88q-10.28,9.43-25,9.43a37.23,37.23,0,0,1-9.93-1.35,36.2,36.2,0,0,1-9.23-4,40.17,40.17,0,0,1-16.27-49.22,40.45,40.45,0,0,1,8.38-12.83A37.46,37.46,0,0,1,495,75.77a36.23,36.23,0,0,1,20.59,6.07q9.08,6.07,14.72,17.66L480.6,127l-5.72-10.28,36.86-20.55a23.17,23.17,0,0,0-7.65-5.72,22.16,22.16,0,0,0-9.27-1.93,22.43,22.43,0,0,0-17.19,7.61q-7,7.61-7,18.82a26.72,26.72,0,0,0,7,18.78A23.38,23.38,0,0,0,511,135q6.53-6.37,8.15-17.5L533,119.58Q530.12,135.81,519.85,145.24Z" transform="translate(-27.66 -37.73)"/><path class="cls-1" d="M314,257.73V230.14h4.83v27.59Z" transform="translate(-27.66 -37.73)"/><path class="cls-1" d="M334.81,257.73V245.2a8.46,8.46,0,0,0-.55-3.45,1.84,1.84,0,0,0-1.77-1.17,2.49,2.49,0,0,0-2.38,1.61,14,14,0,0,0-.75,5.44v10.1h-5v-21h4l.6,2.7h.32a5.19,5.19,0,0,1,4.91-3.09,5,5,0,0,1,4.29,2,9.7,9.7,0,0,1,1.42,5.74v13.72Z" transform="translate(-27.66 -37.73)"/><path class="cls-1" d="M355.21,251.58a6.33,6.33,0,0,1-1.8,4.8,7.4,7.4,0,0,1-5.31,1.73,9.85,9.85,0,0,1-5.15-1.23v-4.36a9.76,9.76,0,0,0,2.42,1.19,7.73,7.73,0,0,0,2.44.47,2.51,2.51,0,0,0,1.78-.58,2,2,0,0,0,.61-1.52,2.44,2.44,0,0,0-.64-1.68,11,11,0,0,0-2.36-1.75,9.68,9.68,0,0,1-3.27-2.9,6.56,6.56,0,0,1-1-3.63,5.29,5.29,0,0,1,1.84-4.25,7.54,7.54,0,0,1,5-1.57,10.12,10.12,0,0,1,5.27,1.47l-1.64,3.61a7.67,7.67,0,0,0-3.55-1.09,1.9,1.9,0,0,0-1.44.51A1.75,1.75,0,0,0,348,242a2.19,2.19,0,0,0,.59,1.51,10.38,10.38,0,0,0,2.22,1.64,14.2,14.2,0,0,1,2.75,2,6,6,0,0,1,1.23,1.89A6.47,6.47,0,0,1,355.21,251.58Z" transform="translate(-27.66 -37.73)"/><path class="cls-1" d="M365.68,253.86a5.8,5.8,0,0,0,2.28-.53v3.93a6.49,6.49,0,0,1-3.68.85,4.91,4.91,0,0,1-4.06-1.63,7.67,7.67,0,0,1-1.32-4.9V240.69h-2v-2.25l2.62-1.81,1.28-4.45H364v4.53h3.81v4H364v11.06Q364,253.86,365.68,253.86Z" transform="translate(-27.66 -37.73)"/><path class="cls-1" d="M381.21,257.73l-1-2.87h-.11a7.13,7.13,0,0,1-2.3,2.55,5.85,5.85,0,0,1-3,.7,4.35,4.35,0,0,1-3.65-1.74,7.78,7.78,0,0,1-1.33-4.83,6.26,6.26,0,0,1,1.82-4.94,8.64,8.64,0,0,1,5.45-1.78l2.79-.11V243.2q0-2.94-2.55-2.94a8.71,8.71,0,0,0-4.34,1.47l-1.74-3.47a12.51,12.51,0,0,1,6.81-2,6.53,6.53,0,0,1,5.09,1.92,7.78,7.78,0,0,1,1.75,5.43v14.12Zm-4.36-3.55a2.52,2.52,0,0,0,2.2-1.24,5.87,5.87,0,0,0,.82-3.29v-1.77l-1.55.08a3.52,3.52,0,0,0-2.52,1,3.82,3.82,0,0,0-.8,2.64Q375,254.18,376.86,254.18Z" transform="translate(-27.66 -37.73)"/><path class="cls-1" d="M399.43,257.73V245.2a8.46,8.46,0,0,0-.55-3.45,1.84,1.84,0,0,0-1.77-1.17,2.49,2.49,0,0,0-2.38,1.61,14,14,0,0,0-.75,5.44v10.1h-5v-21h4l.6,2.7h.32a5.19,5.19,0,0,1,4.91-3.09,5,5,0,0,1,4.29,2,9.7,9.7,0,0,1,1.42,5.74v13.72Z" transform="translate(-27.66 -37.73)"/><path class="cls-1" d="M415.85,253.86a5.8,5.8,0,0,0,2.28-.53v3.93a6.49,6.49,0,0,1-3.68.85,4.91,4.91,0,0,1-4.06-1.63,7.67,7.67,0,0,1-1.32-4.9V240.69h-2v-2.25l2.62-1.81,1.28-4.45h3.21v4.53H418v4h-3.81v11.06Q414.15,253.86,415.85,253.86Z" transform="translate(-27.66 -37.73)"/><path class="cls-1" d="M426.1,257.73h-5V228.36h5Z" transform="translate(-27.66 -37.73)"/><path class="cls-1" d="M428.17,236.7h5.21l2.91,11.87A27.07,27.07,0,0,1,437,253h.11q0-.45.17-1.61t.25-1.82q.1-.66,2.6-12.87h5.29l-6,22.53a13.17,13.17,0,0,1-2.91,6,6.53,6.53,0,0,1-4.83,1.81,10.08,10.08,0,0,1-2.66-.32v-4.21a6.16,6.16,0,0,0,1.74.23q2.53,0,3.32-3.32l.36-1.32Z" transform="translate(-27.66 -37.73)"/><path class="cls-1" d="M470,250.12a8.28,8.28,0,0,1-2,5.93,7.4,7.4,0,0,1-5.63,2.06,12.39,12.39,0,0,1-6.13-1.42v-5.08a10.61,10.61,0,0,0,5.68,2,2.86,2.86,0,0,0,2.22-.81,3.14,3.14,0,0,0,.75-2.21,4,4,0,0,0-.89-2.52,13.2,13.2,0,0,0-2.92-2.54,13,13,0,0,1-2.69-2.35,8.46,8.46,0,0,1-1.42-2.52,9.62,9.62,0,0,1-.5-3.25,7.83,7.83,0,0,1,2-5.62,7,7,0,0,1,5.29-2.08,11.59,11.59,0,0,1,6.1,1.77l-1.7,4.11a16,16,0,0,0-1.9-.94,5.43,5.43,0,0,0-2.12-.42,2.33,2.33,0,0,0-1.92.82,3.43,3.43,0,0,0-.67,2.24,3.86,3.86,0,0,0,.8,2.43,11.84,11.84,0,0,0,2.8,2.36,11.66,11.66,0,0,1,3.76,3.7A8.6,8.6,0,0,1,470,250.12Z" transform="translate(-27.66 -37.73)"/><path class="cls-1" d="M472.88,231.21a2.67,2.67,0,0,1,.73-2,2.74,2.74,0,0,1,2-.73,2.52,2.52,0,0,1,2.7,2.7,2.6,2.6,0,0,1-.75,2,2.73,2.73,0,0,1-1.94.71,2.81,2.81,0,0,1-2-.71A2.6,2.6,0,0,1,472.88,231.21Zm5.23,26.52h-5v-21h5Z" transform="translate(-27.66 -37.73)"/><path class="cls-1" d="M503.29,257.73V245.2q0-4.62-2.28-4.62a2.45,2.45,0,0,0-2.38,1.65,14.26,14.26,0,0,0-.72,5.29v10.21h-5.06V245.2q0-4.62-2.32-4.62a2.46,2.46,0,0,0-2.36,1.64,14.35,14.35,0,0,0-.74,5.42v10.1h-5v-21h4l.6,2.7h.32a5.08,5.08,0,0,1,2.07-2.35,5.58,5.58,0,0,1,2.8-.75,5,5,0,0,1,5.13,3.64h.19q1.6-3.64,5.15-3.64a4.93,4.93,0,0,1,4.24,2,9.61,9.61,0,0,1,1.44,5.74v13.72Z" transform="translate(-27.66 -37.73)"/><path class="cls-1" d="M521.78,258.11a4.67,4.67,0,0,1-2.41-.61,5.82,5.82,0,0,1-2-2.16h-.26q.3,2.57.3,3.09V267H512.4V236.7h3.89l.87,2.74h.23q1.57-3.13,4.55-3.13a5,5,0,0,1,4.49,2.84q1.62,2.84,1.62,8a16.08,16.08,0,0,1-1.68,8A5.12,5.12,0,0,1,521.78,258.11Zm-1.55-17.53a2.2,2.2,0,0,0-2.12,1.37,11.72,11.72,0,0,0-.69,4.54v.66a14.14,14.14,0,0,0,.66,5.06,2.26,2.26,0,0,0,2.19,1.59q2.64,0,2.64-6.68a14,14,0,0,0-.65-4.91A2.17,2.17,0,0,0,520.24,240.57Z" transform="translate(-27.66 -37.73)"/><path class="cls-1" d="M536.6,257.73h-5V228.36h5Z" transform="translate(-27.66 -37.73)"/><path class="cls-1" d="M548.56,258.11a7.58,7.58,0,0,1-6.22-2.8q-2.27-2.8-2.27-7.94t2.06-8.13a6.62,6.62,0,0,1,5.74-2.92,6.53,6.53,0,0,1,5.42,2.5,11,11,0,0,1,2,7v2.68h-10.1a6.86,6.86,0,0,0,1.15,4.18,3.65,3.65,0,0,0,3,1.37,9.78,9.78,0,0,0,5-1.53v4.13A11,11,0,0,1,548.56,258.11Zm-.74-17.93a2,2,0,0,0-1.77,1.14,7.68,7.68,0,0,0-.81,3.54h5.1a7.63,7.63,0,0,0-.7-3.49A2,2,0,0,0,547.83,240.18Z" transform="translate(-27.66 -37.73)"/><path class="cls-1" d="M558.55,255.14a3.15,3.15,0,0,1,.78-2.28,3.1,3.1,0,0,1,2.33-.81,2.79,2.79,0,0,1,3.13,3.09,3.07,3.07,0,0,1-.82,2.28,3.15,3.15,0,0,1-2.31.81,3.08,3.08,0,0,1-2.32-.82A3.14,3.14,0,0,1,558.55,255.14Z" transform="translate(-27.66 -37.73)"/></svg>