<?xml version="1.0" encoding="utf-8"?>
<!-- Generator: Adobe Illustrator 21.0.0, SVG Export Plug-In . SVG Version: 6.00 Build 0)  -->
<svg version="1.1" id="Layer_1" xmlns="http://www.w3.org/2000/svg" xmlns:xlink="http://www.w3.org/1999/xlink" x="0px" y="0px"
	 viewBox="0 0 124.4 32" style="enable-background:new 0 0 124.4 32;" xml:space="preserve">
<style type="text/css">
	.st0{fill:#FFFFFF;}
	.st1{clip-path:url(#SVGID_2_);fill:#FFFFFF;}
</style>
<g>
	<path class="st0" d="M72.2,27.7c-0.1-0.1-0.2-0.2-0.4-0.3c-0.2-0.1-0.3-0.1-0.5-0.1c-0.1,0-0.2,0-0.3,0c-0.1,0-0.2,0.1-0.3,0.1
		c-0.1,0-0.2,0.1-0.2,0.2c-0.1,0.1-0.1,0.2-0.1,0.3c0,0.2,0.1,0.3,0.2,0.4c0.1,0.1,0.3,0.2,0.5,0.2c0.2,0.1,0.4,0.1,0.6,0.2
		c0.2,0.1,0.4,0.2,0.6,0.3c0.2,0.1,0.3,0.3,0.5,0.5c0.1,0.2,0.2,0.5,0.2,0.8c0,0.3-0.1,0.6-0.2,0.8c-0.1,0.2-0.3,0.4-0.5,0.6
		c-0.2,0.2-0.4,0.3-0.7,0.3C71.4,32,71.2,32,70.9,32c-0.4,0-0.7-0.1-1-0.2c-0.3-0.1-0.6-0.3-0.9-0.5l0.9-1c0.1,0.2,0.3,0.3,0.5,0.4
		c0.2,0.1,0.4,0.1,0.6,0.1c0.1,0,0.2,0,0.3,0c0.1,0,0.2-0.1,0.3-0.1c0.1,0,0.1-0.1,0.2-0.2c0-0.1,0.1-0.2,0.1-0.3
		c0-0.2-0.1-0.3-0.2-0.4c-0.1-0.1-0.3-0.2-0.5-0.2c-0.2-0.1-0.4-0.1-0.6-0.2c-0.2-0.1-0.4-0.2-0.6-0.3c-0.2-0.1-0.4-0.3-0.5-0.5
		c-0.1-0.2-0.2-0.4-0.2-0.7c0-0.3,0.1-0.6,0.2-0.8c0.1-0.2,0.3-0.4,0.5-0.6c0.2-0.2,0.4-0.3,0.7-0.3c0.3-0.1,0.5-0.1,0.8-0.1
		c0.3,0,0.6,0,0.9,0.1c0.3,0.1,0.6,0.2,0.8,0.4L72.2,27.7L72.2,27.7z"/>
	<path class="st0" d="M76.5,29.1c0,0.3,0,0.5,0.1,0.7c0.1,0.2,0.2,0.4,0.3,0.6c0.2,0.2,0.3,0.3,0.5,0.4c0.2,0.1,0.4,0.1,0.7,0.1
		c0.3,0,0.5,0,0.7-0.1c0.2-0.1,0.4-0.2,0.5-0.4c0.2-0.2,0.3-0.3,0.3-0.6c0.1-0.2,0.1-0.5,0.1-0.7c0-0.3,0-0.5-0.1-0.7
		c-0.1-0.2-0.2-0.4-0.3-0.6c-0.2-0.2-0.3-0.3-0.5-0.4c-0.2-0.1-0.4-0.1-0.7-0.1c-0.3,0-0.5,0-0.7,0.1c-0.2,0.1-0.4,0.2-0.5,0.4
		c-0.2,0.2-0.3,0.3-0.3,0.6C76.5,28.6,76.5,28.8,76.5,29.1L76.5,29.1z M75.2,29.1c0-0.4,0.1-0.8,0.2-1.2c0.1-0.4,0.4-0.7,0.6-0.9
		c0.3-0.3,0.6-0.4,1-0.6c0.4-0.1,0.8-0.2,1.2-0.2c0.4,0,0.8,0.1,1.2,0.2c0.4,0.1,0.7,0.3,1,0.6c0.3,0.3,0.5,0.6,0.6,0.9
		c0.1,0.4,0.2,0.8,0.2,1.2c0,0.4-0.1,0.8-0.2,1.2c-0.1,0.4-0.4,0.7-0.6,0.9c-0.3,0.3-0.6,0.4-1,0.6C79,31.9,78.6,32,78.2,32
		c-0.4,0-0.8-0.1-1.2-0.2c-0.4-0.1-0.7-0.3-1-0.6c-0.3-0.3-0.5-0.6-0.6-0.9C75.3,29.9,75.2,29.5,75.2,29.1L75.2,29.1z"/>
	<polygon class="st0" points="83.7,26.3 87.4,26.3 87.4,27.4 84.9,27.4 84.9,28.6 87.2,28.6 87.2,29.7 84.9,29.7 84.9,31.9 
		83.7,31.9 83.7,26.3 	"/>
	<polygon class="st0" points="90.9,27.4 89.3,27.4 89.3,26.3 93.7,26.3 93.7,27.4 92.1,27.4 92.1,31.9 90.9,31.9 90.9,27.4 	"/>
	<polygon class="st0" points="95.3,26.3 96.7,26.3 97.6,29.9 97.6,29.9 98.7,26.3 99.9,26.3 101,30 101.1,30 102,26.3 103.2,26.3 
		101.6,31.9 100.5,31.9 99.3,28 99.3,28 98,31.9 97,31.9 95.3,26.3 	"/>
	<path class="st0" d="M107.5,27.9l-0.7,1.7h1.4L107.5,27.9L107.5,27.9z M107,26.3h1l2.4,5.6H109l-0.5-1.2h-2.2l-0.5,1.2h-1.4
		L107,26.3L107,26.3z"/>
	<path class="st0" d="M113.8,28.6h0.7c0.1,0,0.2,0,0.3,0c0.1,0,0.2,0,0.3-0.1c0.1,0,0.2-0.1,0.2-0.2c0.1-0.1,0.1-0.2,0.1-0.4
		c0-0.1,0-0.3-0.1-0.3c-0.1-0.1-0.1-0.1-0.2-0.2c-0.1,0-0.2-0.1-0.3-0.1c-0.1,0-0.2,0-0.3,0h-0.8V28.6L113.8,28.6z M112.5,26.3h2.2
		c0.3,0,0.6,0,0.8,0.1c0.3,0.1,0.5,0.1,0.7,0.3c0.2,0.1,0.3,0.3,0.5,0.5c0.1,0.2,0.2,0.5,0.2,0.8c0,0.4-0.1,0.7-0.3,1
		c-0.2,0.3-0.5,0.4-0.9,0.5l1.4,2.3h-1.5l-1.2-2.2h-0.6v2.2h-1.2V26.3L112.5,26.3z"/>
	<polygon class="st0" points="119.3,26.3 123,26.3 123,27.4 120.5,27.4 120.5,28.5 122.9,28.5 122.9,29.6 120.5,29.6 120.5,30.7 
		123.2,30.7 123.2,31.9 119.3,31.9 119.3,26.3 	"/>
	<path class="st0" d="M86.9,7.1h2.8v1.6c0.3-0.6,0.7-1.1,1.2-1.5c0.5-0.3,1-0.5,1.6-0.5c0.4,0,0.9,0.1,1.3,0.3l-1,2.8
		c-0.4-0.2-0.7-0.3-0.9-0.3c-0.5,0-0.9,0.3-1.3,0.9c-0.3,0.6-0.5,1.8-0.5,3.6l0,0.6v5.2h-3.2V7.1L86.9,7.1z"/>
	<path class="st0" d="M108.8,9.5l-2.7,1.5c-0.5-0.5-1-0.9-1.5-1.1c-0.5-0.2-1.1-0.3-1.7-0.3c-1.2,0-2.2,0.4-3,1.1
		c-0.8,0.7-1.1,1.7-1.1,2.8c0,1.1,0.4,2,1.1,2.7c0.7,0.7,1.7,1,2.9,1c1.5,0,2.6-0.5,3.4-1.5l2.6,1.8c-1.4,1.8-3.4,2.7-5.9,2.7
		c-2.3,0-4.1-0.7-5.4-2c-1.3-1.4-1.9-2.9-1.9-4.7c0-1.3,0.3-2.4,0.9-3.5C97,8.9,97.9,8.1,99,7.5c1.1-0.6,2.4-0.9,3.8-0.9
		c1.3,0,2.4,0.3,3.5,0.8C107.3,7.9,108.1,8.6,108.8,9.5L108.8,9.5z"/>
	<g>
		<defs>
			<rect id="SVGID_1_" width="124.4" height="32"/>
		</defs>
		<clipPath id="SVGID_2_">
			<use xlink:href="#SVGID_1_"  style="overflow:visible;"/>
		</clipPath>
		<path class="st1" d="M121.1,11.8c-0.2-0.7-0.6-1.3-1.3-1.8c-0.6-0.5-1.4-0.7-2.2-0.7c-0.9,0-1.7,0.3-2.4,0.8
			c-0.4,0.3-0.8,0.9-1.2,1.7H121.1L121.1,11.8z M124.3,14.3h-10.5c0.2,0.9,0.6,1.7,1.2,2.2c0.7,0.5,1.5,0.8,2.5,0.8
			c1.2,0,2.3-0.4,3.1-1.3l2.7,1.3c-0.7,1-1.5,1.7-2.5,2.2c-1,0.5-2.1,0.7-3.4,0.7c-2,0-3.7-0.6-5-1.9c-1.3-1.3-1.9-2.9-1.9-4.8
			c0-2,0.6-3.6,1.9-4.9c1.3-1.3,2.9-2,4.8-2c2,0,3.7,0.7,5,2c1.3,1.3,1.9,3,1.9,5.2L124.3,14.3L124.3,14.3z"/>
		<polygon class="st1" points="0,6.9 3.2,6.9 5.8,14.3 8.6,6.9 10.5,6.9 13.3,14.2 15.9,6.9 19.1,6.9 14.4,19.9 12.3,19.9 9.5,12.5 
			6.7,19.9 4.7,19.9 0,6.9 		"/>
	</g>
	<path class="st0" d="M27.9,9.5c-1,0-1.9,0.4-2.5,1.1c-0.7,0.7-1,1.6-1,2.7c0,1.1,0.3,2,1,2.7c0.7,0.7,1.5,1,2.5,1
		c1,0,1.9-0.4,2.5-1.1c0.7-0.7,1-1.6,1-2.7c0-1.1-0.3-2-1-2.7C29.8,9.8,28.9,9.5,27.9,9.5L27.9,9.5z M27.8,6.4
		c1.2,0,2.4,0.3,3.5,0.9c1.1,0.6,1.9,1.4,2.5,2.5c0.6,1,0.9,2.2,0.9,3.4c0,1.2-0.3,2.4-0.9,3.4c-0.6,1.1-1.4,1.9-2.5,2.5
		c-1,0.6-2.2,0.9-3.5,0.9c-1.9,0-3.4-0.7-4.8-2c-1.3-1.3-2-2.9-2-4.8c0-2,0.7-3.7,2.2-5.1C24.6,7,26.1,6.4,27.8,6.4L27.8,6.4z"/>
	<path class="st0" d="M38.5,6.9h2.8v1.6c0.3-0.6,0.7-1.1,1.2-1.5c0.5-0.3,1-0.5,1.6-0.5c0.4,0,0.9,0.1,1.3,0.3l-1,2.8
		c-0.4-0.2-0.7-0.3-0.9-0.3c-0.5,0-0.9,0.3-1.3,0.9c-0.3,0.6-0.5,1.8-0.5,3.6l0,0.6v5.2h-3.2V6.9L38.5,6.9z"/>
	<polygon class="st0" points="47.9,1.9 51.1,1.9 51.1,12.3 55.9,6.9 60,6.9 54.4,13.1 60.7,19.9 56.6,19.9 51.1,13.9 51.1,19.9 
		47.9,19.9 47.9,1.9 	"/>
	<path class="st0" d="M66.7,10.2v9.9h-3.1v-9.9h-2.6V7.5h2.6V5.8c0-0.9,0.1-1.7,0.2-2.4c0.1-0.7,0.4-1.3,0.7-1.8
		c0.3-0.5,0.8-0.9,1.4-1.2C66.4,0.1,67.2,0,68.2,0c0.7,0,1.4,0.1,2,0.2L70,2.9c-0.2-0.1-0.4-0.1-0.7-0.1c-0.2,0-0.4-0.1-0.7-0.1
		c-0.4,0-0.8,0.1-1,0.2C67.4,3,67.2,3.2,67,3.4c-0.1,0.2-0.2,0.5-0.3,0.8c0,0.3-0.1,0.6-0.1,1v2.3"/>
	<polygon class="st0" points="67.2,7.5 68,7.5 68,10.2 66.5,10.2 66.5,7.5 66.8,7.5 67.2,7.5 	"/>
	<path class="st0" d="M76.8,6.1c1.6,0,3,1.3,3,3c0,1.6-1.3,3-3,3c-1.6,0-3-1.3-3-3C73.8,7.5,75.1,6.1,76.8,6.1L76.8,6.1z M76.8,14.7
		c3.1,0,5.5-2.5,5.5-5.5c0-3.1-2.5-5.5-5.5-5.5c-3.1,0-5.5,2.5-5.5,5.5C71.2,12.2,73.7,14.7,76.8,14.7L76.8,14.7z"/>
	<path class="st0" d="M76.8,15c-3.2,0-6,2-7,5h2.8c0.8-1.8,2.4-2.4,4.2-2.4c1.8,0,3.4,0.7,4.2,2.4h2.8C82.8,17,80,15,76.8,15
		L76.8,15z"/>
</g>
</svg>
